<svg width="18" height="14" viewBox="0 0 18 14" fill="none" xmlns="http://www.w3.org/2000/svg">
<path d="M5.37534 13.8635C5.48208 13.9564 5.61826 14.0049 5.75752 13.9996C5.89677 13.9943 6.02917 13.9356 6.12908 13.8349L6.53126 13.4289L17.8468 0.983655C17.9492 0.871028 18.0042 0.720855 17.9998 0.566171C17.9953 0.411486 17.9318 0.264964 17.8232 0.158835C17.7146 0.0527055 17.5698 -0.00433705 17.4206 0.000257521C17.2715 0.00485209 17.1302 0.0707074 17.0279 0.183334L5.73028 12.6111L5.70946 12.6321L0.924935 8.46305C0.86839 8.41372 0.803029 8.37642 0.732584 8.35328C0.662138 8.33015 0.587988 8.32162 0.514367 8.32821C0.440746 8.33479 0.369096 8.35634 0.303508 8.39164C0.23792 8.42694 0.179678 8.47529 0.132108 8.53393C0.0845374 8.59257 0.0485701 8.66035 0.0262597 8.7334C0.00394936 8.80646 -0.00426713 8.88335 0.00207905 8.9597C0.00842522 9.03605 0.0292101 9.11036 0.0632467 9.17837C0.0972832 9.24639 0.143905 9.30679 0.20045 9.35612L5.37534 13.8635Z" fill="#58C1F7"/>
</svg>
