<svg width="81" height="71" viewBox="0 0 81 71" fill="none" xmlns="http://www.w3.org/2000/svg">
<path d="M29.3546 49.8428C29.0558 50.239 29.4248 50.9054 29.5587 51.3001C29.7088 51.7421 29.7358 52.2194 29.7019 52.6816C29.679 53.0061 29.6696 53.6402 29.3464 53.8307C29.2112 53.9106 29.0368 53.893 28.8949 53.8253C28.5259 53.6483 28.1799 53.2522 27.8852 52.9738C27.5377 52.6452 27.2079 52.2938 26.9266 51.9058C26.4332 51.2258 26.2169 50.3943 26.1427 49.5672C26.1047 49.1453 26.1035 48.7222 26.1183 48.299C26.1263 48.0909 26.1385 47.884 26.1521 47.6773C26.1655 47.4704 26.2183 47.3149 26.2657 47.1176C26.29 47.0162 26.3049 46.9053 26.2238 46.8242C25.9372 46.5322 25.6059 47.0338 25.4721 47.2284C24.872 48.099 24.2054 48.9074 23.4349 49.636C22.2089 50.7945 20.1838 51.015 18.7698 50.0632C17.3895 49.1331 17.0421 47.3555 16.8948 45.805C16.8177 44.9911 16.9448 43.9961 16.6636 43.2256C15.839 45.2358 14.3641 46.8296 12.7434 48.237C10.6927 50.0187 8.56222 51.5327 6.14774 52.7831C4.07261 53.8578 1.73139 53.3779 0.879733 51.607C0.224076 50.2444 0.305192 48.7722 0.571576 47.2988C0.869004 45.6481 1.55442 44.1557 2.28976 42.6768C2.38304 42.4903 2.49119 42.324 2.36144 42.1172C1.22452 40.3138 1.66257 38.3915 2.10192 36.5517C2.6643 34.1928 3.65387 31.9811 4.90152 29.8804C5.33142 29.1572 5.65847 28.3825 6.30196 27.612C6.37092 28.5921 5.86133 29.222 5.53 29.8506C4.38234 32.0325 3.34414 34.2495 2.79249 36.6599C2.52882 37.813 2.3437 38.9822 3.07904 40.0745C3.64543 40.9167 4.3646 40.937 5.04186 40.2084C5.66633 39.5366 5.82327 38.6309 6.38823 37.8238C6.73831 38.716 6.31656 39.4703 6.13673 40.1948C5.91913 41.0695 5.41483 41.844 4.73085 42.4903C4.32669 42.8728 3.95487 43.1635 3.37489 42.9472C3.06674 42.8323 2.85443 43.0107 2.73412 43.2474C2.24341 44.2179 1.80678 45.2236 1.52967 46.2781C1.24168 47.3772 0.863281 48.7952 1.53639 49.828C3.16674 52.3288 6.43816 50.4742 8.3253 49.3873C8.54963 49.2576 8.77409 49.1264 8.99713 48.9953C10.3179 48.2152 11.4723 47.2392 12.6565 46.2862C13.8624 45.3156 14.8843 44.172 15.9131 43.0323C16.1686 42.7485 16.0793 42.3916 16.0158 42.0442C15.3467 38.4213 14.6328 34.7172 13.0309 31.3728C12.862 31.0213 12.6186 30.5969 12.6673 30.194C12.7146 29.8087 13.0066 29.4587 13.0945 29.0667C13.1296 28.9099 13.0741 28.1987 13.3648 28.2812C13.8231 28.411 14.2056 29.7412 14.3949 30.1332C14.7531 30.8767 15.0992 31.6283 15.3561 32.4151C15.9185 34.1441 16.3753 35.9122 16.835 37.6765C17.5122 40.2814 17.3961 42.9728 17.9813 45.5779C18.5477 48.0963 21.0148 49.075 23.1508 47.6461C24.4079 46.8039 25.3421 45.6386 26.4763 44.6816C26.6683 44.5193 26.9764 44.1368 27.2684 44.3856C27.459 44.5491 27.3617 44.8235 27.3969 45.0344C27.4535 45.3791 27.6266 45.7009 27.839 45.9753C28.3607 46.6498 29.161 47.3487 30.0207 47.5096C31.1995 47.7299 32.2823 47.8733 33.4841 47.5218C34.5007 47.2244 35.2509 46.6106 35.9417 45.951C36.4257 45.4886 36.9637 45.1209 37.5153 44.5396C37.3044 44.7614 37.7532 46.362 37.8599 46.6593C38.1318 47.4069 38.7238 47.9827 39.5173 48.1504C41.8235 48.6344 43.8567 47.9395 45.8155 46.808C46.2157 46.5769 46.1413 46.466 45.8615 46.205C45.1666 45.5603 44.4001 45.0412 43.5201 44.6788C42.5102 44.2625 41.8357 44.8249 41.0152 45.394C41.2787 44.522 41.4355 43.5406 41.8681 42.7336C42.2372 42.0455 43.4201 41.94 44.0986 41.8036C45.1018 41.6021 46.121 41.49 47.143 41.4656C49.4194 41.4116 51.4877 41.9346 53.6695 42.4835C54.67 42.7349 54.4321 43.7448 53.9426 44.3774C53.4534 45.0115 52.6774 45.1966 51.9637 45.4643C51.1215 45.7793 50.3914 46.3228 49.5777 46.7026C49.1951 46.881 49.2249 47.1 49.4641 47.2541C50.0697 47.6448 50.4792 48.0787 51.2242 48.1693C52.015 48.2653 52.8233 48.1558 53.5844 47.9314C54.405 47.688 55.1783 47.3122 55.9298 46.908C56.453 46.6255 57.2627 46.3767 57.5601 45.8279C57.8345 45.3238 57.579 44.814 57.579 44.2963C57.0235 41.3399 56.8181 38.2821 56.4584 35.2932C56.1949 33.0937 55.9312 30.893 55.6663 28.6936C55.55 27.7283 55.3175 26.7186 55.2431 25.7682C55.185 25.0138 55.9717 24.2351 56.28 23.5944C57.0587 25.7357 57.8035 27.8838 58.5294 30.0426C58.5929 30.2319 58.7335 30.6564 58.3875 30.674C58.2793 30.6794 57.3209 29.5155 57.3128 29.5398C57.1451 30.0318 57.3709 30.6956 57.4466 31.189C57.5507 31.8663 57.64 32.5462 57.7211 33.2275C57.8819 34.5902 58.0062 35.9556 58.1468 37.3208C58.3172 38.9769 58.5551 40.6234 58.7727 42.2727C58.8809 43.0906 58.7335 45.4737 60.134 44.9046C63.1446 43.6813 64.8722 48.8587 62.2781 50.1971C61.0154 50.8486 59.6487 50.0011 58.9945 48.9061C58.0603 47.342 58.059 47.3176 56.5733 48.3829C55.3485 49.2616 53.8575 50.1822 52.3259 50.4431C50.7943 50.7039 49.4303 49.9753 48.4313 48.8723C47.4648 47.8043 47.7351 47.6205 46.3035 48.5397C44.3149 49.8158 41.2611 51.3596 38.8927 50.2539C38.1385 49.9011 37.4923 49.2968 37.3017 48.468C37.2435 48.2179 37.1408 46.8351 36.7825 46.8202C36.3784 46.8039 35.9187 47.661 35.6701 47.9125C34.9482 48.6438 34.1546 49.3657 33.1665 49.7076C32.5068 49.9361 31.8051 49.978 31.1129 49.9388C30.6169 49.9105 29.9288 49.4576 29.4463 49.7604C29.4084 49.7833 29.3786 49.8118 29.3543 49.8443V49.8428H29.3546ZM50.8554 44.1462C49.5847 43.6718 48.4383 43.7704 47.3135 43.7096C46.9972 43.692 46.5673 43.688 46.4444 43.9326C46.3038 44.2125 46.6702 44.2801 46.831 44.4017C47.419 44.8452 47.6191 45.709 48.5613 45.3683C48.9548 45.2263 49.2751 44.9249 49.6469 44.7356C49.8362 44.6396 50.0294 44.5505 50.2214 44.4585C50.3187 44.4126 50.7715 44.1152 50.8554 44.1462ZM62.3136 48.0219C61.8269 47.3717 61.3118 46.8837 60.5304 46.7743C60.3696 46.7513 60.1749 46.7324 60.0911 46.9351C60.0288 47.0879 60.1047 47.2149 60.2168 47.3109C60.7914 47.7976 61.3024 48.4518 62.3136 48.0219ZM28.2191 50.627C28.0757 49.8334 27.5837 49.2481 27.0686 48.6789C27.1092 49.5347 27.6945 50.0632 28.2191 50.627Z" fill="url(#paint0_radial_89_13)"/>
<path d="M19.293 38.4307C19.8701 37.552 20.3054 36.6368 21.5396 36.3151C22.7671 35.9947 23.9703 35.5108 25.1814 35.0917C27.535 34.2778 29.9304 33.6588 32.3529 33.1086C35.504 32.3934 38.6322 31.5797 41.7873 30.8915C43.7718 30.4589 45.7563 30.0304 47.7353 29.5749C49.7685 29.1085 51.8611 28.903 53.8618 28.2609C53.9985 28.2177 54.2201 28.1446 54.3026 28.365C54.358 28.5137 54.2268 28.6206 54.139 28.7367C53.4617 29.6317 52.5601 29.998 51.4515 30.1629C49.8997 30.3927 48.3788 30.8307 46.8432 31.1686C44.1962 31.7513 41.5413 32.3043 38.8999 32.9084C35.696 33.6412 32.4935 34.3766 29.3087 35.185C27.627 35.6122 25.9899 36.2056 24.3271 36.7058C22.6401 37.2128 21.007 37.8656 19.2943 38.4294L19.293 38.4307Z" fill="url(#paint1_radial_89_13)"/>
<path d="M65.1729 31.8005C65.0769 31.7883 64.9484 31.6693 64.8335 31.4896C64.6943 31.2706 64.309 30.3229 63.9467 30.4351C63.5628 30.5541 63.6695 30.9623 63.706 31.2624C64.0738 34.2594 64.3914 37.255 64.7241 40.2562C65.0633 43.3315 65.377 46.4218 65.2796 49.5203C65.2404 50.7721 65.1268 52.0509 64.6078 53.1904C64.4929 53.4419 64.3361 53.7054 64.0724 53.792C64.0346 49.143 63.7196 44.4671 63.2073 39.8452C62.9923 37.9025 62.7531 35.964 62.5665 34.0188C62.384 32.1168 62.2813 30.2229 62.0217 28.3289C61.8352 26.9677 62.3785 25.9483 63.0505 24.798C62.9099 25.0386 63.5614 26.3269 63.6655 26.6C63.9102 27.2366 64.1738 27.8652 64.4212 28.5006C64.6646 29.1279 64.8957 29.7605 65.0769 30.4095C65.1647 30.7271 65.2674 31.061 65.3066 31.3909C65.3431 31.6963 65.2769 31.8126 65.1714 31.799L65.1729 31.8005Z" fill="url(#paint2_radial_89_13)"/>
<path d="M17.9953 34.012C17.9859 33.747 18.048 33.4739 18.1697 33.213C18.4428 32.6263 19.0078 32.2315 19.6175 32.0517C21.3682 31.5367 23.0998 30.9569 24.8532 30.4485C26.8255 29.8767 28.8019 29.3251 30.8173 28.8979C32.0989 28.6262 33.3616 28.2437 34.6511 27.9869C37.1128 27.4989 39.5556 26.9256 42.0159 26.4295C44.1235 26.005 46.2513 25.6996 48.3506 25.2372C49.2171 25.0466 50.1243 25.0871 50.9759 24.7924C51.0908 24.7519 51.2759 24.7303 51.3463 24.9006C51.4111 25.0601 51.2868 25.1682 51.1908 25.2737C50.8623 25.6386 50.446 25.7442 49.9648 25.8117C47.9491 26.0956 45.9322 26.3863 43.9315 26.7527C41.4577 27.2055 38.9878 27.688 36.5383 28.2504C35.3122 28.5316 34.0915 28.8412 32.8654 29.1264C31.2554 29.5022 29.6467 29.8916 28.0569 30.3404C26.0805 30.8986 24.0988 31.4434 22.144 32.0735C21.6128 32.2437 21.0842 32.4221 20.5584 32.6074C20.0541 32.7845 19.5674 33.0062 19.0713 33.2035C18.9659 33.2454 18.7726 33.3022 18.7428 33.4333C18.7051 33.5969 18.9335 33.7429 19.0417 33.8185C19.2566 33.97 19.5446 34.2161 19.4823 34.5054C19.4215 34.7919 19.2431 35.134 19.0105 35.2799C18.8118 35.4043 18.5739 35.0879 18.3968 34.915C18.1345 34.6595 18.0102 34.3417 17.998 34.0105L17.9953 34.012Z" fill="url(#paint3_radial_89_13)"/>
<path d="M2.00708 48.8547C3.99694 47.2866 5.96935 45.7319 7.98354 44.1435C7.61315 43.7974 6.96836 43.9691 6.66149 43.4108C7.20084 43.231 7.77538 43.1918 8.24849 43.2134C9.11359 43.2526 9.64765 42.6889 10.2046 42.1253C10.8359 41.4885 11.5132 40.9005 12.0364 40.165C12.3108 39.7798 12.3648 39.6622 11.962 39.4215C10.9778 38.8295 9.37997 38.2996 10.1329 36.795C10.3939 36.2719 10.6871 35.7621 11.251 35.4458C12.1607 34.9349 12.8474 35.6703 13.0733 36.5232C13.3274 37.4885 12.8624 38.4686 13.9073 39.0903C14.2425 39.2905 14.5345 39.6095 14.3872 40.0988C14.3249 40.3044 14.2561 40.614 14.0019 40.6532C13.5045 40.7316 13.184 39.454 12.6757 40.2773C11.5266 42.1387 9.8774 43.615 8.18354 44.9681C6.3964 46.3957 4.57005 47.7854 2.55186 48.8736C2.4058 48.952 2.2666 49.0859 2.00708 48.852V48.8547ZM12.3864 38.1009C12.6013 37.3451 12.1932 36.895 11.7389 36.5058C11.3713 36.1907 11.09 36.5463 10.8643 36.7693C10.5614 37.068 10.8223 37.3086 11.0697 37.452C11.4807 37.6899 11.9213 37.8764 12.385 38.1009H12.3863H12.3864Z" fill="url(#paint4_radial_89_13)"/>
<path d="M39.5944 40.0448C39.3255 40.5005 39.0241 41.0453 38.6847 41.5643C38.4319 41.9523 36.6542 40.5032 36.4352 40.2422C36.2163 39.9813 36.0419 40.0071 35.8486 40.3261C35.5917 40.7518 35.416 41.4548 34.9779 41.4859C34.5968 41.5129 34.2575 41.1385 33.9844 40.9235C33.7437 40.7344 33.5031 40.5451 33.2598 40.3598C33.0665 40.2112 32.7732 40.0611 32.6231 39.8691C32.4175 39.6069 32.6879 39.2027 32.8246 38.9728C33.0583 38.5754 33.2977 37.9753 33.8586 38.1185C34.3061 38.2335 34.6455 38.6188 34.997 38.8932C35.6611 39.4105 36.1834 39.2946 36.5637 38.5457C36.734 38.2065 36.9476 37.886 37.3409 38.2159C37.9737 38.7444 38.6306 39.2244 39.362 39.6056C39.489 39.6719 39.5932 39.7786 39.5932 40.0462L39.5944 40.0448Z" fill="url(#paint5_radial_89_13)"/>
<path d="M23.3497 25.887C23.1225 25.5288 22.8359 25.1328 22.4129 25.0963C21.08 24.984 21.1272 27.3444 21.0813 28.1446C21.0502 28.6868 21.0637 29.5871 20.6893 30.0304C20.2445 30.5576 19.9525 29.9575 19.9106 29.5452C19.8592 29.0354 19.7091 28.5367 19.4739 28.0825C19.3941 27.9284 19.2428 27.5499 19.0751 27.4755C18.8791 27.3889 18.6169 27.558 18.3844 27.4484C18.1748 27.3484 18.01 27.1768 17.8505 27.0078C17.6786 26.8267 17.507 26.6441 17.334 26.463C17.2678 26.3926 17.2001 26.3197 17.1691 26.2291C17.1407 26.1453 17.146 26.0547 17.1556 25.9669C17.1961 25.5762 17.307 25.1936 17.4799 24.8408C17.5178 24.7651 17.5638 24.684 17.6409 24.6501C17.7652 24.596 17.9031 24.6826 18.0086 24.7677C19.1333 25.6734 20.0066 26.8875 20.5067 28.242C20.6973 27.4417 20.888 26.6414 21.0785 25.8411C21.2003 25.3328 21.33 24.8056 21.6558 24.396C21.9816 23.9865 22.5628 23.7309 23.0414 23.9418C23.3834 24.0919 23.6025 24.4556 23.6402 24.8272C23.6781 25.1991 23.5511 25.5722 23.3497 25.887Z" fill="url(#paint6_radial_89_13)"/>
<path d="M54.3444 34.9594C54.1592 34.7945 54.0037 34.6295 53.8226 34.5012C53.2764 34.1132 52.8303 34.1659 52.4599 34.7796C52.1111 35.3554 52.0719 35.9679 52.0801 36.6087C52.0868 37.0818 52.0883 37.5576 52.0233 38.0281C51.9787 38.3457 51.9179 38.6688 51.807 38.9716C51.6812 39.315 51.3758 39.6963 51.1635 39.1595C50.9553 38.6337 50.8824 38.0917 50.7269 37.5549C50.6648 37.34 50.5688 37.1304 50.3957 36.9818C50.3011 36.9007 50.1902 36.8439 50.0739 36.8047C49.9848 36.7749 49.6482 36.7803 49.6008 36.7317C48.3815 35.4705 47.961 35.7084 49.056 33.8185C50.4065 34.5498 50.8851 35.9057 51.5921 37.4482C51.6028 36.2693 51.9057 35.3961 52.0814 34.4985C52.1828 33.982 52.4857 33.6062 52.8047 33.2832C53.3021 32.7789 53.9618 32.9304 54.4106 33.34C54.8811 33.7684 54.8053 34.366 54.3458 34.9594H54.3444Z" fill="url(#paint7_radial_89_13)"/>
<path d="M26.1454 41.5364C26.3198 40.7564 26.4927 39.9764 26.6698 39.1977C26.9266 38.0662 27.8946 37.581 28.6666 38.1893C28.9315 38.3974 29.1099 38.6462 29.0774 38.9963C29.0518 39.2734 29.1843 39.6249 28.9098 39.802C28.5543 40.0318 28.5327 39.5572 28.3597 39.4275C27.7688 38.9841 27.3565 39.1504 27.0092 39.6966C26.6887 40.1994 26.6294 40.7658 26.6374 41.3552C26.6522 42.4259 26.5495 42.7678 26.0655 43.5277C25.7316 43.2288 25.6019 42.8341 25.4572 42.4488C25.2302 41.8432 25.291 41.1173 24.2419 41.0754C23.4647 41.0444 23.0915 39.3707 23.6445 38.7678C23.9189 38.4691 24.1163 38.7841 24.2825 38.9288C25.0909 39.6316 25.5668 40.5658 26.1454 41.5351V41.5364Z" fill="url(#paint8_radial_89_13)"/>
<path d="M47.6787 50.6756C47.7247 50.5445 46.819 50.4715 46.7161 50.5025C46.4337 50.5891 46.3053 50.8649 46.5188 51.0542C46.7972 51.3001 47.3246 51.2678 47.6625 51.2433C47.9004 51.2272 48.6156 50.9582 48.7372 51.2015C48.8778 51.4827 48.6749 51.7801 48.4222 51.9329C48.0815 52.1383 47.7071 52.2937 47.3353 52.4398C47.1244 52.5222 46.9663 52.6372 46.9704 52.8602C46.9744 53.1009 47.1934 53.1711 47.3827 53.2373C48.1113 53.4888 48.9359 53.3117 49.6483 53.0845C49.9701 52.9818 50.3067 52.8737 50.5973 52.702C50.8 52.5817 51.1718 52.2465 51.3624 52.5668C51.6057 52.9764 50.4594 53.5063 50.2066 53.6348C49.3549 54.0687 48.4276 54.2579 47.4732 54.2147C47.146 54.1999 46.7243 54.1863 46.4931 53.9186C46.3661 53.7712 46.3201 53.5672 46.3283 53.3711C46.3512 52.8332 46.7364 52.2978 46.0904 51.991C45.4293 51.6774 45.7565 50.9136 46.0728 50.4648C46.2864 50.1606 47.2043 49.1155 47.6084 49.4062C47.8977 49.6131 47.995 49.9605 47.8031 50.3254C47.7518 50.4241 47.7273 50.5377 47.6787 50.6784V50.6756Z" fill="url(#paint9_radial_89_13)"/>
<path d="M43.4665 34.4901C43.2611 35.573 43.7652 35.9771 44.3802 36.4056C45.0103 36.8449 45.3388 37.5155 45.1103 38.3442C44.8845 39.1661 43.9775 39.8933 43.0515 39.9488C42.3417 39.9907 41.9605 39.5392 41.6726 38.9714C41.4306 38.4942 41.5239 38.0332 41.7131 37.5628C42.1241 36.5408 42.6405 35.5851 43.4665 34.4901ZM43.1974 38.6591C43.6489 38.5713 44.1519 38.5727 44.3628 38.0819C44.4519 37.8737 43.2043 36.8964 42.8825 36.8937C42.2985 36.8883 42.0971 37.4871 42.1254 37.7575C42.1768 38.2604 42.6243 38.6132 43.1974 38.6591Z" fill="url(#paint10_radial_89_13)"/>
<path d="M10.6222 27.285C10.6073 27.3039 10.6748 27.4918 10.6817 27.5242C10.8047 28.1583 10.6425 28.845 10.2558 29.3655C10.0976 29.5791 9.86237 29.7629 9.58526 29.7575C9.35951 29.752 9.15678 29.6426 8.99999 29.4843C8.68911 29.168 8.51057 28.6652 8.54033 28.2231V28.2109C8.59841 27.4878 8.84047 26.797 9.17438 26.1563C9.34062 25.8358 9.52989 25.5262 9.72732 25.2235C9.85164 25.0342 9.9422 24.7814 10.1329 24.6462C10.3871 24.4651 10.6209 24.6354 10.4722 24.9261C10.183 25.4912 9.91259 26.0657 9.55436 26.5929C9.35021 26.8916 9.25149 27.3079 9.25965 27.6662C9.26508 27.8933 9.38669 28.2056 9.57996 28.3381C9.81659 28.5002 10.0072 28.2893 10.1193 28.0906C10.1788 27.9852 10.2235 27.8717 10.287 27.7689C10.3897 27.6026 10.5033 27.4431 10.6209 27.2863L10.6222 27.285Z" fill="url(#paint11_radial_89_13)"/>
<path d="M30.9243 23.7001C30.9053 23.719 30.9446 23.9718 30.9404 24.0177C30.9107 24.326 30.708 24.5692 30.5485 24.8261C30.3294 25.1802 30.0645 25.5317 29.8874 25.909C29.7278 26.2482 29.8915 26.6497 30.1957 26.8457C30.5809 27.0944 30.8608 26.8309 31.027 26.4739C31.1392 26.2333 31.2027 25.9184 31.5339 25.8304C31.6839 26.528 30.962 27.884 30.3361 28.1164C30.0955 28.2057 29.8941 28.1083 29.7102 27.9488C29.467 27.7379 29.2439 27.4838 29.1602 27.1742C29.0736 26.8538 29.1763 26.5875 29.2912 26.2942C29.6658 25.3452 30.2105 24.4503 30.9243 23.7014V23.7001Z" fill="url(#paint12_radial_89_13)"/>
<path d="M35.0381 54.2188C35.2043 53.6011 36.8576 52.7507 36.2304 51.964C35.7221 51.326 35.3301 52.2479 34.9773 52.5074C35.0515 51.6477 35.399 51.1205 36.1073 50.9069C36.6157 50.7541 37.0131 51.4178 36.7913 52.0735C36.4886 52.9725 35.9438 53.6929 35.0381 54.2188Z" fill="url(#paint13_radial_89_13)"/>
<path d="M21.5871 52.7279C21.5492 52.7035 21.7695 52.1519 21.798 52.0965C21.9467 51.8072 22.5577 51.0596 22.9065 51.3557C23.8595 52.1668 23.0796 53.6363 22.2103 54.2013C22.1657 53.7417 22.6577 53.4672 22.8037 53.0672C23.0362 52.4291 22.286 52.302 21.902 52.6373C21.8291 52.7008 21.7886 52.8536 21.5871 52.7279Z" fill="url(#paint14_radial_89_13)"/>
<path d="M57.6595 52.8876C57.5446 52.513 57.8326 52.0074 57.3392 51.7953C56.9187 51.6142 56.6024 51.8913 56.2239 52.3954C56.4213 51.5628 56.6227 51.0233 57.3298 50.8828C57.6433 50.8206 58.0001 50.9518 58.0651 51.191C58.2286 51.7938 58.2665 52.4293 57.6582 52.8876H57.6595Z" fill="url(#paint15_radial_89_13)"/>
<path d="M37.1882 21.4395L38.7536 14.9128C38.7536 14.9128 47.4431 18.794 54.4159 12.5337L58.5255 16.8217C58.5255 16.8217 52.1259 25.3586 37.1895 21.4396H37.1882V21.4395Z" fill="url(#paint16_linear_89_13)"/>
<path d="M74.7734 22.4075L74.0096 16.0458C64.4928 17.4707 58.6408 7.9281 58.6408 7.9281C57.9026 9.22583 54.4163 12.5337 54.4163 12.5337C55.9857 14.4561 57.8269 16.208 59.7505 17.7667C61.37 19.0793 63.1152 20.2743 65.0214 21.1328C67.2397 22.1318 69.3972 22.2547 71.798 22.3576C72.789 22.3576 73.7811 22.4008 74.7721 22.4075H74.7734Z" fill="url(#paint17_linear_89_13)"/>
<path d="M80.3965 21.3642C80.3965 21.3642 83.4502 34.7228 75.8165 48.5398C75.8165 48.5398 68.6409 62.0772 58.4875 70.5504C58.486 70.5504 53.5262 64.9294 53.0598 64.4077C52.1379 63.3776 51.2146 62.3501 50.2885 61.3241C49.5221 60.4739 48.7759 59.2774 47.5363 59.145C45.9506 58.976 44.281 59.3531 42.7494 59.7115C41.7964 59.9345 40.8501 60.194 39.9119 60.4724C40.6257 60.163 41.3435 59.8614 42.0614 59.5614C43.6335 58.9043 45.2111 58.261 46.7982 57.6431C48.3852 57.0253 49.9519 56.4265 51.5674 55.9358C52.0189 55.7979 52.4731 55.6708 52.9368 55.583C53.126 55.5465 53.3193 55.6249 53.4369 55.7775C55.12 57.95 56.8261 60.1035 58.5374 62.2542C58.5374 62.2542 79.53 42.8392 74.7715 22.405C74.7715 22.405 76.9088 22.3037 80.3951 21.3615L80.3965 21.3642Z" fill="url(#paint18_linear_89_13)"/>
<path d="M63.3735 23.7297C63.3735 23.7297 69.9002 26.2496 72.5728 24.7991C72.5728 24.7991 73.6028 37.7253 68.6159 43.6287C68.6159 43.6287 78.0313 29.3412 63.3735 23.7297Z" fill="url(#paint19_linear_89_13)"/>
<path d="M74.7729 22.4173C74.7729 22.4173 78.6013 22.0834 80.3966 21.3642C80.3966 21.3642 78.8191 15.3338 78.7419 14.8499C78.7419 14.8499 76.6303 15.5879 74.0093 16.0461L74.7729 22.4173Z" fill="url(#paint20_linear_89_13)"/>
<path d="M35.0213 0.405759L29.03 0.42981L29.0525 6.02238L35.0438 5.99833L35.0213 0.405759Z" fill="#4CAFC9"/>
<path d="M30.6079 6.02553V1.34351H33.6074V2.05453H31.4561V3.32564H33.4016V4.03667H31.4561V6.02567H30.6079V6.02553Z" fill="white"/>
<path d="M28.3578 9.81692L25.9546 19.8271L35.7226 22.1722L38.1259 12.162L28.3578 9.81692Z" fill="#389BB5"/>
<path d="M29.6854 18.6491L28.5093 18.3775L32.0549 12.7891L33.4153 13.1031L34.1554 19.6808L32.9793 19.4093L32.471 14.1989L32.4233 14.1879L29.6854 18.6489V18.6491ZM30.2747 16.2729L33.4823 17.0136L33.278 17.8986L30.0702 17.1581L30.2747 16.2729Z" fill="white"/>
<path d="M16.4832 0.419496L15.4785 8.60205L23.6899 9.61028L24.6946 1.42773L16.4832 0.419496Z" fill="#4CAFC9"/>
<path d="M22.7026 4.27056L21.6634 4.16126C21.6517 3.98772 21.6129 3.83093 21.5471 3.69101C21.4814 3.54924 21.3942 3.42577 21.2853 3.32076C21.1766 3.21561 21.0485 3.13206 20.9015 3.06969C20.7565 3.00574 20.5969 2.96468 20.4228 2.94637C20.1135 2.91389 19.8311 2.96282 19.5757 3.09329C19.3206 3.22191 19.1097 3.42835 18.9431 3.71233C18.7767 3.99459 18.671 4.34967 18.6261 4.77758C18.5803 5.21292 18.6093 5.58688 18.7133 5.89933C18.8192 6.21021 18.9827 6.45399 19.2039 6.63081C19.4271 6.80592 19.6924 6.90979 20 6.94212C20.1704 6.96 20.3321 6.95456 20.485 6.92567C20.64 6.89505 20.7813 6.84169 20.9093 6.76515C21.0391 6.6889 21.1515 6.59018 21.2467 6.46901C21.3437 6.34812 21.4166 6.20592 21.4657 6.04254L22.5043 6.15727C22.4371 6.42366 22.3261 6.66858 22.1714 6.89205C22.0188 7.1158 21.8291 7.3075 21.6025 7.46716C21.3762 7.6251 21.1186 7.74027 20.8301 7.81309C20.5417 7.8839 20.2279 7.9015 19.8889 7.86588C19.3887 7.81337 18.9544 7.65057 18.586 7.37775C18.2176 7.10492 17.9434 6.73797 17.7632 6.27702C17.5831 5.81607 17.5253 5.27987 17.5896 4.66856C17.6539 4.05539 17.823 3.54308 18.0967 3.13164C18.3705 2.71833 18.7159 2.41661 19.1331 2.22633C19.5501 2.03606 20.0069 1.96696 20.5035 2.01918C20.8202 2.05251 21.1101 2.12791 21.373 2.2455C21.6361 2.3631 21.865 2.51918 22.06 2.71389C22.2551 2.90674 22.4082 3.1345 22.5192 3.39716C22.6322 3.65811 22.6933 3.94924 22.7026 4.27056Z" fill="white"/>
<defs>
<radialGradient id="paint0_radial_89_13" cx="0" cy="0" r="1" gradientUnits="userSpaceOnUse" gradientTransform="translate(49.9082 33.2058) rotate(178.29) scale(61.2441 51.1467)">
<stop stop-color="#119944"/>
<stop offset="0.34" stop-color="#4CAD44"/>
<stop offset="0.58" stop-color="#8BC345"/>
</radialGradient>
<radialGradient id="paint1_radial_89_13" cx="0" cy="0" r="1" gradientUnits="userSpaceOnUse" gradientTransform="translate(49.7598 30.5094) rotate(178.96) scale(33.9453 17.2574)">
<stop stop-color="#119944"/>
<stop offset="0.34" stop-color="#4CAD44"/>
<stop offset="0.58" stop-color="#8BC345"/>
</radialGradient>
<radialGradient id="paint2_radial_89_13" cx="0" cy="0" r="1" gradientUnits="userSpaceOnUse" gradientTransform="translate(66.9599 43.5706) rotate(151.49) scale(3.67472 43.0422)">
<stop stop-color="#119944"/>
<stop offset="0.34" stop-color="#4CAD44"/>
<stop offset="0.58" stop-color="#8BC345"/>
</radialGradient>
<radialGradient id="paint3_radial_89_13" cx="0" cy="0" r="1" gradientUnits="userSpaceOnUse" gradientTransform="translate(49.4496 31.8681) rotate(178.87) scale(32.344 17.8098)">
<stop stop-color="#119944"/>
<stop offset="0.34" stop-color="#4CAD44"/>
<stop offset="0.58" stop-color="#8BC345"/>
</radialGradient>
<radialGradient id="paint4_radial_89_13" cx="0" cy="0" r="1" gradientUnits="userSpaceOnUse" gradientTransform="translate(12.4979 43.9956) rotate(176.06) scale(12.0636 23.0998)">
<stop stop-color="#119944"/>
<stop offset="0.34" stop-color="#4CAD44"/>
<stop offset="0.58" stop-color="#8BC345"/>
</radialGradient>
<radialGradient id="paint5_radial_89_13" cx="0" cy="0" r="1" gradientUnits="userSpaceOnUse" gradientTransform="translate(38.4393 39.5278) rotate(178.2) scale(6.83126 5.99835)">
<stop stop-color="#119944"/>
<stop offset="0.34" stop-color="#4CAD44"/>
<stop offset="0.58" stop-color="#8BC345"/>
</radialGradient>
<radialGradient id="paint6_radial_89_13" cx="0" cy="0" r="1" gradientUnits="userSpaceOnUse" gradientTransform="translate(22.0954 27.7535) rotate(176.5) scale(6.30979 10.7426)">
<stop stop-color="#119944"/>
<stop offset="0.34" stop-color="#4CAD44"/>
<stop offset="0.58" stop-color="#8BC345"/>
</radialGradient>
<radialGradient id="paint7_radial_89_13" cx="0" cy="0" r="1" gradientUnits="userSpaceOnUse" gradientTransform="translate(53.8016 37.1402) rotate(176.34) scale(6.12281 10.8951)">
<stop stop-color="#119944"/>
<stop offset="0.34" stop-color="#4CAD44"/>
<stop offset="0.58" stop-color="#8BC345"/>
</radialGradient>
<radialGradient id="paint8_radial_89_13" cx="0" cy="0" r="1" gradientUnits="userSpaceOnUse" gradientTransform="translate(30.129 42.3754) rotate(176.49) scale(5.5404 9.4473)">
<stop stop-color="#119944"/>
<stop offset="0.34" stop-color="#4CAD44"/>
<stop offset="0.58" stop-color="#8BC345"/>
</radialGradient>
<radialGradient id="paint9_radial_89_13" cx="0" cy="0" r="1" gradientUnits="userSpaceOnUse" gradientTransform="translate(49.1902 51.5059) rotate(176.95) scale(5.52166 8.2071)">
<stop stop-color="#119944"/>
<stop offset="0.34" stop-color="#4CAD44"/>
<stop offset="0.58" stop-color="#8BC345"/>
</radialGradient>
<radialGradient id="paint10_radial_89_13" cx="0" cy="0" r="1" gradientUnits="userSpaceOnUse" gradientTransform="translate(45.9624 38.2578) rotate(174.67) scale(3.55783 9.18636)">
<stop stop-color="#119944"/>
<stop offset="0.34" stop-color="#4CAD44"/>
<stop offset="0.58" stop-color="#8BC345"/>
</radialGradient>
<radialGradient id="paint11_radial_89_13" cx="0" cy="0" r="1" gradientUnits="userSpaceOnUse" gradientTransform="translate(11.3364 28.3812) rotate(171.57) scale(2.14051 8.66647)">
<stop stop-color="#119944"/>
<stop offset="0.34" stop-color="#4CAD44"/>
<stop offset="0.58" stop-color="#8BC345"/>
</radialGradient>
<radialGradient id="paint12_radial_89_13" cx="0" cy="0" r="1" gradientUnits="userSpaceOnUse" gradientTransform="translate(30.6065 26.4794) rotate(173.47) scale(2.36641 7.46946)">
<stop stop-color="#119944"/>
<stop offset="0.34" stop-color="#4CAD44"/>
<stop offset="0.58" stop-color="#8BC345"/>
</radialGradient>
<radialGradient id="paint13_radial_89_13" cx="0" cy="0" r="1" gradientUnits="userSpaceOnUse" gradientTransform="translate(37.5982 53.4466) rotate(173.67) scale(1.83006 5.59834)">
<stop stop-color="#119944"/>
<stop offset="0.34" stop-color="#4CAD44"/>
<stop offset="0.58" stop-color="#8BC345"/>
</radialGradient>
<radialGradient id="paint14_radial_89_13" cx="0" cy="0" r="1" gradientUnits="userSpaceOnUse" gradientTransform="translate(23.3852 53.1764) rotate(174.1) scale(1.7149 4.89619)">
<stop stop-color="#119944"/>
<stop offset="0.34" stop-color="#4CAD44"/>
<stop offset="0.58" stop-color="#8BC345"/>
</radialGradient>
<radialGradient id="paint15_radial_89_13" cx="0" cy="0" r="1" gradientUnits="userSpaceOnUse" gradientTransform="translate(58.0186 52.2587) rotate(176.29) scale(1.88857 3.40561)">
<stop stop-color="#119944"/>
<stop offset="0.34" stop-color="#4CAD44"/>
<stop offset="0.58" stop-color="#8BC345"/>
</radialGradient>
<linearGradient id="paint16_linear_89_13" x1="37.6829" y1="19.8185" x2="106.439" y2="5.04004" gradientUnits="userSpaceOnUse">
<stop offset="0.07" stop-color="#389BB5"/>
<stop offset="0.18" stop-color="#2E5282"/>
<stop offset="0.46" stop-color="#30618C" stop-opacity="0.8"/>
</linearGradient>
<linearGradient id="paint17_linear_89_13" x1="82.2065" y1="32.5305" x2="45.5609" y2="-4.40836" gradientUnits="userSpaceOnUse">
<stop offset="0.35" stop-color="#96CA44"/>
<stop offset="0.48" stop-color="#6BBB44"/>
<stop offset="0.63" stop-color="#2CA443"/>
<stop offset="0.87" stop-color="#3EAE3A" stop-opacity="0.71"/>
<stop offset="1" stop-color="#6CC622" stop-opacity="0"/>
</linearGradient>
<linearGradient id="paint18_linear_89_13" x1="62.6424" y1="50.2041" x2="96.5198" y2="10.0105" gradientUnits="userSpaceOnUse">
<stop stop-color="#093A63"/>
<stop offset="0.19" stop-color="#00538E"/>
<stop offset="0.48" stop-color="#55B7D2"/>
<stop offset="0.85" stop-color="#00538E" stop-opacity="0"/>
</linearGradient>
<linearGradient id="paint19_linear_89_13" x1="68.742" y1="27.7839" x2="66.8106" y2="18.9426" gradientUnits="userSpaceOnUse">
<stop offset="0.11" stop-color="#128BD0"/>
<stop offset="1" stop-color="#128BD0" stop-opacity="0"/>
</linearGradient>
<linearGradient id="paint20_linear_89_13" x1="78.4158" y1="16.616" x2="71.4298" y2="28.6498" gradientUnits="userSpaceOnUse">
<stop stop-color="#389BB5"/>
<stop offset="0.18" stop-color="#2E5282"/>
<stop offset="0.46" stop-color="#30618C" stop-opacity="0.8"/>
</linearGradient>
</defs>
</svg>
