<svg width="173" height="173" viewBox="0 0 173 173" fill="none" xmlns="http://www.w3.org/2000/svg">
<g id="Group 46835">
<path id="Vector" d="M129.971 129.088C153.735 105.323 153.735 66.7937 129.971 43.0293C106.206 19.2649 67.6765 19.2649 43.9121 43.0293C20.1477 66.7937 20.1477 105.323 43.9121 129.088C67.6765 152.852 106.206 152.852 129.971 129.088Z" fill="#FE8551"/>
<g id="Group">
<path id="Vector_2" d="M126.751 118.184C143.932 106.53 133.685 87.4088 118.117 61.801C115.872 58.1054 114.433 53.9955 113.561 49.7548C111.02 37.3488 100.043 28.0061 86.8844 28.0061C73.7262 28.0061 62.563 37.4905 60.1428 50.06C59.3034 54.4315 57.9189 58.6831 55.8367 62.6186C41.5229 89.6981 27.5144 111.523 47.9658 118.195H126.762L126.751 118.184Z" fill="#4C224B"/>
<path id="Vector_3" d="M101.165 78.0444H72.6572V114.412H101.165V78.0444Z" fill="#E2988F"/>
<g id="Group_2">
<path id="Vector_4" d="M139.234 117.17C125.814 111.534 101.34 107.282 101.34 107.282C91.9425 115.197 80.0598 115.142 72.6685 107.282C72.6685 107.282 47.8783 110.956 33.8916 115.851C43.8884 133.61 62.5301 145.852 84.1261 146.833C85.0963 146.866 86.0557 146.899 87.0368 146.899C109.243 146.866 128.648 134.94 139.244 117.159L139.234 117.17Z" fill="#837695"/>
<path id="Vector_5" d="M72.6573 103.151L67.043 108.187C67.043 108.187 70.3243 122.316 77.0179 122.577C83.7115 122.839 86.8838 113.18 86.8838 113.18C80.4846 111.469 75.7533 108.122 72.6682 103.14L72.6573 103.151Z" fill="white"/>
<path id="Vector_6" d="M101.154 103.151L106.769 108.187C106.769 108.187 103.487 122.316 96.7937 122.577C90.1001 122.839 86.9277 113.18 86.9277 113.18C93.327 111.469 98.0582 108.122 101.143 103.14L101.154 103.151Z" fill="white"/>
</g>
<g id="Group_3">
<path id="Vector_7" d="M99.8227 31.7194C100.98 24.5878 96.1375 17.868 89.0059 16.7104C81.8743 15.5528 75.1546 20.3957 73.9969 27.5272C72.8393 34.6588 77.6822 41.3786 84.8138 42.5362C91.9454 43.6938 98.6651 38.8509 99.8227 31.7194Z" fill="#4C224B"/>
<g id="Group_4">
<path id="Vector_8" d="M86.8728 34.0128C68.4928 34.0346 64.3175 47.7924 64.699 61.6483C64.699 71.6342 63.9904 74.8719 64.917 77.3466C65.4294 80.8678 72.5809 98.8227 86.8619 98.8227C101.143 98.8227 107.684 81.8162 108.949 77.3466C109.875 74.8719 109.036 71.6342 109.036 61.6483C109.417 47.7924 105.242 34.0346 86.8619 34.0128H86.8728Z" fill="#E2988F"/>
<path id="Vector_9" d="M86.873 99.2261C81.5203 99.2261 76.6364 96.8059 72.3521 92.031L72.9625 91.486C77.0833 96.0755 81.771 98.4085 86.873 98.4085C91.9749 98.4085 96.8043 96.0864 100.86 91.5078L101.47 92.0528C97.2513 96.8168 92.3455 99.2261 86.873 99.2261Z" fill="#C46966"/>
<path id="Vector_10" d="M65.5055 61.9754C65.5055 61.9754 61.8098 57.2114 58.0161 60.0022C54.2223 62.7931 57.918 78.6112 65.5055 75.8313C73.093 73.0405 65.5055 61.9863 65.5055 61.9863V61.9754Z" fill="#E2988F"/>
<path id="Vector_11" d="M108.305 61.9754C108.305 61.9754 112.001 57.2114 115.795 60.0022C119.588 62.7931 115.893 78.6112 108.305 75.8313C100.718 73.0405 108.305 61.9863 108.305 61.9863V61.9754Z" fill="#E2988F"/>
<path id="Vector_12" d="M64.0764 69.2915L63.2666 69.4045L64.2153 76.2066L65.0251 76.0937L64.0764 69.2915Z" fill="#C46966"/>
<path id="Vector_13" d="M109.602 69.3002L108.969 76.1062L109.783 76.1819L110.416 69.3759L109.602 69.3002Z" fill="#C46966"/>
<path id="Vector_14" d="M59.9136 68.2111C59.0742 65.7692 59.0305 64.014 59.7828 63.022C60.4259 62.1717 61.3853 62.2262 61.418 62.2262L61.3744 63.0438C61.3744 63.0438 60.7966 63.0329 60.415 63.5344C60.0226 64.0685 59.7501 65.2568 60.6767 67.9495L59.9027 68.2111H59.9136Z" fill="#C46966"/>
<path id="Vector_15" d="M114.203 68.2111L113.429 67.9495C114.356 65.2459 114.072 64.0467 113.68 63.5234C113.309 63.0329 112.742 63.0438 112.732 63.0438L112.688 62.2262C112.688 62.2262 113.691 62.1825 114.323 63.022C115.075 64.014 115.032 65.7583 114.192 68.2111H114.203Z" fill="#C46966"/>
<path id="Vector_16" d="M114.072 75.1772C114.072 76.1148 113.309 76.867 112.383 76.867C111.456 76.867 110.693 76.1039 110.693 75.1772C110.693 74.2506 111.456 73.4875 112.383 73.4875C113.309 73.4875 114.072 74.2506 114.072 75.1772Z" fill="white"/>
<path id="Vector_17" d="M63.2926 75.1772C63.2926 76.1148 62.5295 76.867 61.6028 76.867C60.6762 76.867 59.9131 76.1039 59.9131 75.1772C59.9131 74.2506 60.6762 73.4875 61.6028 73.4875C62.5295 73.4875 63.2926 74.2506 63.2926 75.1772Z" fill="white"/>
</g>
<path id="Vector_18" d="M63.7939 54.9984C78.3694 58.0836 93.7297 58.3125 110.028 54.9984C110.028 54.9984 110.333 32.4976 87.5267 31.7453C64.7206 31.004 63.7939 54.9984 63.7939 54.9984Z" fill="#4C224B"/>
<path id="Vector_19" d="M99.6601 31.6581C91.1678 28.3441 82.5665 28.3441 74.0741 31.6581L73.7798 30.895C82.4683 27.4937 91.2768 27.4937 99.9654 30.895L99.671 31.6581H99.6601Z" fill="#703870"/>
<path id="Vector_20" d="M110.714 54.6932C110.104 48.3157 107.869 42.7341 104.064 38.09L104.697 37.5668C108.6 42.3417 110.9 48.0759 111.521 54.6168L110.704 54.6932H110.714Z" fill="#703870"/>
<path id="Vector_21" d="M63.696 54.6932L62.8784 54.6168C63.4998 48.0759 65.8 42.3417 69.7028 37.5668L70.3351 38.09C66.5304 42.7341 64.2956 48.3266 63.6851 54.6932H63.696Z" fill="#703870"/>
<path id="Vector_22" d="M71.0989 56.263L70.2812 56.1976C70.5756 52.6218 71.306 48.9916 72.4616 45.4159L73.2356 45.6666C72.1018 49.1769 71.3714 52.7418 71.088 56.263H71.0989Z" fill="#703870"/>
<path id="Vector_23" d="M100.402 56.6227L99.5846 56.59C99.6718 54.1699 99.2794 51.3028 98.4399 48.0432L99.2358 47.8361C100.097 51.161 100.5 54.1154 100.413 56.6118L100.402 56.6227Z" fill="#703870"/>
<path id="Vector_24" d="M97.6331 45.3287C97.0335 43.4536 96.5103 42.2108 96.5103 42.1999L97.2625 41.8838C97.2625 41.8838 97.7966 43.1702 98.4071 45.078L97.6331 45.3287Z" fill="#703870"/>
</g>
</g>
</g>
</svg>
