<svg width="152" height="43" viewBox="0 0 152 43" fill="none" xmlns="http://www.w3.org/2000/svg">
<path d="M87.4616 21.3341V23.1094C87.4616 26.6598 86.2835 29.5693 83.9273 31.8376C81.5711 34.0813 78.4956 35.2032 74.7009 35.2032C70.6829 35.2032 67.3594 33.9087 64.7304 31.3198C62.1261 28.731 60.824 25.5503 60.824 21.7779C60.824 18.0302 62.1261 14.8619 64.7304 12.273C67.3594 9.65941 70.6085 8.35264 74.4776 8.35264C76.9083 8.35264 79.1281 8.9074 81.137 10.0169C83.146 11.1265 84.7085 12.6182 85.8246 14.492L82.1415 16.6001C81.4471 15.3673 80.4178 14.3811 79.0536 13.6414C77.6895 12.877 76.1642 12.4949 74.4776 12.4949C71.7494 12.4949 69.5048 13.3825 67.7438 15.1577C65.9829 16.933 65.1024 19.152 65.1024 21.8149C65.1024 24.4778 65.9829 26.6845 67.7438 28.4351C69.5296 30.1857 71.861 31.061 74.7381 31.061C77.0447 31.061 78.9172 30.5309 80.3558 29.4706C81.8191 28.3858 82.7492 26.9434 83.146 25.1435H74.4404V21.3341H87.4616Z" fill="#979797"/>
<path d="M96.7674 12.7168C96.2713 13.2099 95.6761 13.4565 94.9816 13.4565C94.2871 13.4565 93.6795 13.2099 93.1586 12.7168C92.6626 12.199 92.4146 11.5949 92.4146 10.9045C92.4146 10.2142 92.6626 9.62243 93.1586 9.1293C93.6547 8.61152 94.2623 8.35264 94.9816 8.35264C95.7009 8.35264 96.3085 8.61152 96.8046 9.1293C97.3006 9.62243 97.5486 10.2142 97.5486 10.9045C97.5486 11.5949 97.2882 12.199 96.7674 12.7168ZM92.9726 34.7224V16.2303H96.9906V34.7224H92.9726Z" fill="#979797"/>
<path d="M113.263 12.199C110.337 11.9278 108.873 13.1483 108.873 15.8604V16.2303H113.263V20.0766H108.873V34.7224H104.855V20.0766H102.028V16.2303H104.855V15.8604C104.855 13.3209 105.562 11.3977 106.976 10.0909C108.414 8.75946 110.51 8.18004 113.263 8.35264V12.199Z" fill="#979797"/>
<path d="M128.508 20.0766H123.895V28.9529C123.895 29.7172 124.069 30.272 124.416 30.6172C124.763 30.9377 125.271 31.1226 125.941 31.1719C126.636 31.1966 127.491 31.1842 128.508 31.1349V34.7224C125.433 35.0922 123.225 34.8334 121.886 33.9457C120.547 33.0335 119.877 31.3692 119.877 28.9529V20.0766H116.454V16.2303H119.877V12.236L123.895 11.0525V16.2303H128.508V20.0766Z" fill="#979797"/>
<path d="M147.982 8.83343H152V34.7224H147.982V32.0595C146.469 34.1553 144.299 35.2032 141.471 35.2032C138.917 35.2032 136.734 34.2663 134.924 32.3924C133.113 30.4939 132.208 28.1885 132.208 25.4763C132.208 22.7395 133.113 20.4342 134.924 18.5603C136.734 16.6864 138.917 15.7495 141.471 15.7495C144.299 15.7495 146.469 16.785 147.982 18.8562V8.83343ZM137.9 29.7295C139.016 30.8391 140.417 31.3938 142.104 31.3938C143.79 31.3938 145.192 30.8391 146.308 29.7295C147.424 28.5953 147.982 27.1776 147.982 25.4763C147.982 23.7751 147.424 22.3697 146.308 21.2601C145.192 20.126 143.79 19.5589 142.104 19.5589C140.417 19.5589 139.016 20.126 137.9 21.2601C136.784 22.3697 136.226 23.7751 136.226 25.4763C136.226 27.1776 136.784 28.5953 137.9 29.7295Z" fill="#979797"/>
<path fill-rule="evenodd" clip-rule="evenodd" d="M22.9205 17.2585C22.693 17.6311 22.4442 18.0389 22.1599 18.4994C21.8856 18.0596 21.6421 17.6577 21.4149 17.2827C20.9821 16.5684 20.6083 15.9516 20.1933 15.3565C18.6223 13.1267 16.1528 12.3144 13.7793 13.1883C11.5527 14.0119 10.0213 16.4657 10.3321 18.7179C10.6768 21.1941 12.5756 23.0765 15.2316 23.3958C16.1727 23.5058 17.1318 23.4973 18.0914 23.4888C18.4513 23.4856 18.8113 23.4824 19.1705 23.4854C23.6179 23.5303 25.3472 25.1998 25.3754 29.5416C25.4037 33.1775 25.4206 36.8134 25.3754 40.4438C25.3472 42.7127 26.2061 43.4074 28.5118 42.7799C36.8867 40.511 43.7133 32.1075 44.1485 23.5471C44.2671 21.1997 43.6625 19.9896 41.0686 20.2193C40.2079 20.2952 39.3406 20.2757 38.4729 20.2561C37.7397 20.2396 37.0063 20.223 36.2764 20.2641C34.6263 20.3593 33.7052 20.1297 33.8578 18.0512C34.0386 15.5301 32.5185 13.7766 30.1167 13.0987C27.5963 12.3872 25.4884 13.2332 24.0361 15.4629C23.6785 16.0164 23.335 16.5792 22.9205 17.2585ZM25.9957 18.6909C25.8202 19.1463 25.6425 19.6074 25.4152 20.0235C25.9497 19.9638 26.5257 20.055 27.099 20.1457C28.4651 20.3619 29.8156 20.5756 30.552 18.7405C31.0211 17.5696 30.4673 16.3707 29.1675 16.1634C27.0963 15.8347 26.5574 17.2333 25.9957 18.6909ZM30.7894 23.5045C29.603 23.5008 28.3898 23.4969 27.139 23.4969C28.5348 26.2533 28.6986 28.6455 28.6421 31.0769C28.6204 32.1024 28.6286 33.1291 28.6368 34.1559C28.6457 35.272 28.6546 36.3882 28.6252 37.5028C28.5856 39.021 29.1394 39.2956 30.4505 38.6345C35.9039 35.8781 39.2437 31.5083 40.6226 25.637C40.9051 24.4157 40.8486 23.4465 39.1024 23.4745C36.3857 23.5221 33.6662 23.5136 30.7894 23.5045ZM19.3965 20.2756C18.6995 20.1937 18.0073 20.2375 17.353 20.2788C15.6783 20.3847 14.2509 20.4749 13.6211 18.4044C13.2763 17.2727 14.0336 16.2979 15.1695 16.1634C17.106 15.9326 17.7104 17.1395 18.4327 18.5817C18.7095 19.1343 19.0035 19.7215 19.3965 20.2756Z" fill="#979797"/>
<path d="M22.3808 0.000483295C27.8737 0.028495 32.6602 1.91088 36.7799 5.47958C37.6728 6.2527 38.9273 7.13788 37.701 8.46003C36.4804 9.77658 35.5423 8.57767 34.6155 7.82136C26.6983 1.33384 15.786 1.68679 8.78987 8.6449C1.85028 15.547 1.46594 26.2587 7.87998 34.0291C8.71069 35.032 10.0161 36.1524 8.53553 37.3177C7.10014 38.4494 6.13944 36.9592 5.34828 35.9788C-0.370666 28.8582 -1.60822 21.0541 2.14413 12.6954C5.70435 4.76248 13.5537 -0.0555402 22.3808 0.000483295Z" fill="#979797"/>
</svg>
