<svg width="419" height="448" viewBox="0 0 419 448" fill="none" xmlns="http://www.w3.org/2000/svg">
<path d="M408.106 208.616C379.886 250.991 319.649 382.045 334.473 430.676L118.397 430.725C118.397 430.725 87.1781 407.409 56.8422 366.889C51.3287 359.53 45.8516 351.588 40.5921 343.125C35.0061 334.153 29.6861 324.587 24.8498 314.463C10.776 285.097 0.74058 251.088 0.341581 213.478C-1.07305 83.321 111.263 -37.6453 264.092 11.168C416.92 59.9813 436.314 166.241 408.094 208.604L408.106 208.616Z" fill="#EAF9F8"/>
<path d="M272.906 432.204C272.471 432.204 272.048 432.01 271.745 431.646L156.519 287.983C156.012 287.34 156.108 286.407 156.749 285.886C157.39 285.376 158.321 285.473 158.841 286.116L274.067 429.779C274.587 430.422 274.478 431.355 273.837 431.877C273.559 432.095 273.232 432.204 272.906 432.204Z" fill="#E03C03"/>
<path d="M94.1667 432.204C93.8402 432.204 93.5138 432.095 93.2357 431.877C92.5949 431.355 92.4981 430.422 93.0059 429.779L208.232 286.116C208.752 285.473 209.683 285.376 210.324 285.886C210.964 286.407 211.061 287.34 210.553 287.983L95.3274 431.646C95.0372 432.01 94.6019 432.204 94.1667 432.204Z" fill="#FF6224"/>
<path d="M209.393 432.204C208.957 432.204 208.534 432.01 208.232 431.646L93.0059 287.983C92.4981 287.34 92.5949 286.407 93.2357 285.886C93.8765 285.376 94.8075 285.473 95.3274 286.116L210.553 429.779C211.073 430.422 210.964 431.355 210.324 431.877C210.045 432.095 209.719 432.204 209.393 432.204Z" fill="#FF6224"/>
<path d="M114.588 290.869H61.0498C58.946 290.869 57.2412 289.159 57.2412 287.049C57.2412 284.94 58.946 283.23 61.0498 283.23H114.588C116.692 283.23 118.397 284.94 118.397 287.049C118.397 289.159 116.692 290.869 114.588 290.869Z" fill="#E03C03"/>
<path d="M268.614 290.869H115.604C113.5 290.869 111.795 289.159 111.795 287.049C111.795 284.94 113.5 283.23 115.604 283.23H268.614V290.857V290.869Z" fill="#FF6224"/>
<path d="M155.939 358.887C155.939 361.191 154.077 363.058 151.78 363.058C149.482 363.058 147.62 361.191 147.62 358.887C147.62 356.583 149.482 354.716 151.78 354.716C154.077 354.716 155.939 356.583 155.939 358.887Z" fill="#E03C03"/>
<path d="M219.452 358.887C219.452 361.191 217.59 363.058 215.293 363.058C212.996 363.058 211.134 361.191 211.134 358.887C211.134 356.583 212.996 354.716 215.293 354.716C217.59 354.716 219.452 356.583 219.452 358.887Z" fill="#FFC947"/>
<path d="M164.161 119.476H110.235C107.571 119.476 105.411 121.642 105.411 124.314V164.531C105.411 167.203 107.571 169.369 110.235 169.369H164.161C166.825 169.369 168.985 167.203 168.985 164.531V124.314C168.985 121.642 166.825 119.476 164.161 119.476Z" fill="#20C3C5"/>
<path d="M150.994 141.507H148.999C148.696 140.416 148.237 139.373 147.657 138.427L149.192 136.887C149.785 136.293 149.785 135.347 149.192 134.753L147.028 132.583C146.435 131.989 145.492 131.989 144.9 132.583L143.268 134.22C142.361 133.711 141.394 133.311 140.366 133.044V130.583C140.366 129.746 139.689 129.079 138.867 129.079H135.795C134.961 129.079 134.296 129.758 134.296 130.583V133.068C133.305 133.323 132.362 133.699 131.479 134.184L129.678 132.377C129.085 131.783 128.142 131.783 127.55 132.377L125.385 134.547C124.793 135.141 124.793 136.087 125.385 136.681L127.054 138.354C126.498 139.239 126.062 140.209 125.748 141.228H123.402C122.568 141.228 121.903 141.907 121.903 142.731V145.811C121.903 146.648 122.58 147.314 123.402 147.314H125.458C125.688 148.454 126.074 149.533 126.606 150.539L125.204 151.946C124.611 152.54 124.611 153.486 125.204 154.08L127.368 156.25C127.961 156.844 128.904 156.844 129.496 156.25L130.717 155.026C131.733 155.692 132.845 156.202 134.03 156.529V158.239C134.03 159.075 134.707 159.742 135.529 159.742H138.601C139.435 159.742 140.1 159.063 140.1 158.239V156.65C141.333 156.359 142.482 155.886 143.534 155.256L144.706 156.432C145.299 157.026 146.242 157.026 146.834 156.432L148.999 154.262C149.591 153.668 149.591 152.722 148.999 152.128L147.802 150.927C148.394 149.897 148.842 148.781 149.12 147.581H150.982C151.816 147.581 152.481 146.902 152.481 146.078V142.998C152.481 142.161 151.804 141.495 150.982 141.495L150.994 141.507ZM138.83 152.443C133.389 153.474 128.71 148.781 129.738 143.325C130.318 140.27 132.761 137.821 135.808 137.239C141.248 136.208 145.928 140.901 144.9 146.357C144.32 149.412 141.877 151.861 138.83 152.443Z" fill="white"/>
<path d="M245.363 91.9174H191.438C188.773 91.9174 186.613 94.0833 186.613 96.755V136.972C186.613 139.644 188.773 141.81 191.438 141.81H245.363C248.027 141.81 250.187 139.644 250.187 136.972V96.755C250.187 94.0833 248.027 91.9174 245.363 91.9174Z" fill="#FF6224"/>
<path d="M207.664 125.248C207.289 125.248 206.902 125.09 206.612 124.787L199.913 117.597C199.333 116.979 199.333 115.96 199.913 115.342L206.733 108.031C207.313 107.413 208.256 107.413 208.836 108.031C209.417 108.649 209.417 109.656 208.836 110.286L203.069 116.47L208.715 122.532C209.296 123.15 209.296 124.157 208.715 124.787C208.425 125.102 208.05 125.248 207.664 125.248Z" fill="white"/>
<path d="M229.137 125.248C228.762 125.248 228.375 125.09 228.085 124.787C227.505 124.169 227.505 123.15 228.085 122.532L233.744 116.47L227.976 110.286C227.396 109.668 227.396 108.661 227.976 108.031C228.557 107.413 229.5 107.413 230.08 108.031L236.899 115.342C237.177 115.645 237.335 116.045 237.335 116.47C237.335 116.894 237.177 117.294 236.899 117.597L230.201 124.787C229.911 125.102 229.536 125.248 229.149 125.248H229.137Z" fill="white"/>
<path d="M215.075 127.224C214.894 127.224 214.7 127.188 214.519 127.103C213.757 126.775 213.395 125.842 213.709 125.029L220.359 107.497C220.673 106.685 221.532 106.285 222.293 106.624C223.055 106.952 223.418 107.885 223.104 108.698L216.454 126.23C216.224 126.848 215.668 127.224 215.075 127.224Z" fill="white"/>
<path d="M162.238 145.265H292.046C293.158 145.265 294.053 146.162 294.053 147.278V151.4H160.231V147.278C160.231 146.162 161.126 145.265 162.238 145.265Z" fill="white"/>
<path d="M160.231 151.388H294.053V219.188C294.053 221.262 292.384 222.935 290.317 222.935H163.967C161.9 222.935 160.231 221.262 160.231 219.188V151.388Z" fill="#383873"/>
<path d="M287.621 148.321C287.621 148.842 287.197 149.266 286.677 149.266C286.158 149.266 285.734 148.842 285.734 148.321C285.734 147.799 286.158 147.375 286.677 147.375C287.197 147.375 287.621 147.799 287.621 148.321Z" fill="#FF6224"/>
<path d="M281.164 148.321C281.164 148.842 280.741 149.266 280.221 149.266C279.701 149.266 279.278 148.842 279.278 148.321C279.278 147.799 279.701 147.375 280.221 147.375C280.741 147.375 281.164 147.799 281.164 148.321Z" fill="#FF6224"/>
<path d="M274.695 148.321C274.695 148.842 274.272 149.266 273.752 149.266C273.232 149.266 272.809 148.842 272.809 148.321C272.809 147.799 273.232 147.375 273.752 147.375C274.272 147.375 274.695 147.799 274.695 148.321Z" fill="#FF6224"/>
<path d="M241.482 161.064H167.171C166.458 161.064 165.878 160.482 165.878 159.766C165.878 159.051 166.458 158.469 167.171 158.469H241.482C242.195 158.469 242.776 159.051 242.776 159.766C242.776 160.482 242.195 161.064 241.482 161.064Z" fill="#20C3C5"/>
<path d="M241.482 169.308H167.171C166.458 169.308 165.878 168.726 165.878 168.011C165.878 167.295 166.458 166.714 167.171 166.714H241.482C242.195 166.714 242.776 167.295 242.776 168.011C242.776 168.726 242.195 169.308 241.482 169.308Z" fill="#20C3C5"/>
<path d="M206.031 177.565H167.171C166.458 177.565 165.878 176.983 165.878 176.268C165.878 175.552 166.458 174.97 167.171 174.97H206.031C206.745 174.97 207.325 175.552 207.325 176.268C207.325 176.983 206.745 177.565 206.031 177.565Z" fill="#20C3C5"/>
<path d="M241.482 194.079H167.171C166.458 194.079 165.878 193.497 165.878 192.781C165.878 192.066 166.458 191.484 167.171 191.484H241.482C242.195 191.484 242.776 192.066 242.776 192.781C242.776 193.497 242.195 194.079 241.482 194.079Z" fill="#FF6224"/>
<path d="M206.031 202.323H167.171C166.458 202.323 165.878 201.741 165.878 201.026C165.878 200.311 166.458 199.729 167.171 199.729H206.031C206.745 199.729 207.325 200.311 207.325 201.026C207.325 201.741 206.745 202.323 206.031 202.323Z" fill="#FF6224"/>
<path d="M206.031 210.58H167.171C166.458 210.58 165.878 209.998 165.878 209.283C165.878 208.567 166.458 207.985 167.171 207.985H206.031C206.745 207.985 207.325 208.567 207.325 209.283C207.325 209.998 206.745 210.58 206.031 210.58Z" fill="#20C3C5"/>
<path d="M241.482 177.565H213.552C212.838 177.565 212.258 176.983 212.258 176.268C212.258 175.552 212.838 174.97 213.552 174.97H241.482C242.195 174.97 242.775 175.552 242.775 176.268C242.775 176.983 242.195 177.565 241.482 177.565Z" fill="white"/>
<path d="M278.359 159.039L258.615 178.838C258.107 179.347 257.297 179.347 256.789 178.838C256.281 178.329 256.281 177.504 256.789 177.007L276.533 157.208C277.041 156.699 277.863 156.699 278.359 157.208C278.867 157.717 278.867 158.542 278.359 159.039Z" fill="#FF6224"/>
<path d="M278.915 199.188C280.399 192.914 276.53 186.621 270.273 185.133C264.016 183.645 257.741 187.526 256.257 193.8C254.773 200.075 258.643 206.367 264.9 207.855C271.157 209.343 277.432 205.463 278.915 199.188Z" fill="#FF6224"/>
<path d="M266.05 204.627C266.05 208.276 263.1 211.235 259.461 211.235C255.822 211.235 252.871 208.276 252.871 204.627C252.871 200.977 255.822 198.019 259.461 198.019C263.1 198.019 266.05 200.977 266.05 204.627Z" fill="#20C3C5"/>
<path d="M160.231 215.697V239.303L181.862 217.6" fill="#383873"/>
<path d="M137.198 245.681H184.667L201.836 278.817H154.367L137.198 245.681Z" fill="#86BFBC"/>
<path d="M155.322 276.368L141.103 248.93C140.801 248.36 141.224 247.669 141.865 247.669H182.938C183.264 247.669 183.554 247.851 183.699 248.13L197.918 275.567C198.221 276.137 197.797 276.828 197.157 276.828H156.084C155.757 276.828 155.467 276.647 155.322 276.368Z" fill="white"/>
<path d="M192.816 278.817H154.367V283.242H192.816V278.817Z" fill="#B8E3E2"/>
<path d="M225.848 278.817H187.907C186.686 278.817 185.707 279.811 185.707 281.024C185.707 282.248 186.698 283.23 187.907 283.23H225.848C227.069 283.23 228.049 282.236 228.049 281.024C228.049 279.799 227.057 278.817 225.848 278.817Z" fill="#9FCCC9"/>
<path d="M154.367 278.817L137.198 245.681L136.34 246.323C135.784 246.735 135.614 247.499 135.941 248.118L154.367 283.23V278.805V278.817Z" fill="#B8E3E2"/>
<path d="M171.645 280.878H167.413V281.618H171.645V280.878Z" fill="#9FCCC9"/>
<path d="M176.965 280.878H172.733V281.618H176.965V280.878Z" fill="#9FCCC9"/>
<path d="M182.297 280.878H178.065V281.618H182.297V280.878Z" fill="#9FCCC9"/>
<path d="M240.913 343.659C240.913 343.659 201.534 374.406 195.295 382.215C192.937 385.173 188.838 390.35 184.582 395.661C177.594 404.378 170.182 413.472 169.299 413.69C167.897 414.041 156.084 405.021 155.721 403.081C155.504 401.868 166.265 383.354 175.574 368.465C181.245 359.421 186.372 351.697 188.173 350.024C192.937 345.599 222.221 330.043 222.221 330.043L240.913 343.659Z" fill="#383873"/>
<g style="mix-blend-mode:overlay" opacity="0.15">
<path d="M165.769 407.131C165.769 407.131 202.549 354.619 221.024 345.781" stroke="black" stroke-width="0.82" stroke-miterlimit="10" stroke-linecap="round"/>
</g>
<path d="M281.95 208.834C281.539 209.792 281.055 210.774 280.523 211.792C277.646 217.309 279.774 222.838 276.485 224.244C276.291 224.329 276.074 224.402 275.82 224.45C271.588 225.396 261.831 219.734 261.395 216.909C260.972 214.084 264.406 209.234 261.395 208.652C258.385 208.07 256.765 213.138 256.765 213.138C254.286 213.393 253.415 209.234 249.353 209.234C248.785 209.234 248.216 209.319 247.672 209.452C245.762 209.925 244.093 211.113 243.017 212.023C242.231 212.69 241.772 213.211 241.772 213.211C241.772 213.211 238.157 210.919 238.326 206.409C238.616 199.256 241.24 194.03 247.588 192.975C248.289 185.022 254.818 180.766 263.548 180.499C271.201 180.257 272.35 187.155 272.519 188.877C272.446 187.592 272.096 183.385 270.27 180.499C274.103 180.329 277.476 183.069 276.594 192.005C277.476 189.35 280.559 187.665 282.941 189.617C280.741 189.617 278.625 193.327 278.625 193.327C278.625 193.327 281.212 194.988 282.966 198.055C284.429 200.589 283.872 204.324 281.926 208.846L281.95 208.834Z" fill="#382424"/>
<path d="M276.497 224.256L276.4 225.566L276.062 230.21C276.062 230.21 269.013 236.248 265.023 230.21C264.999 230.173 264.974 230.125 264.938 230.088C263.705 228.245 262.58 227.603 261.565 227.482C259.352 227.215 257.575 229.373 255.737 227.033C250.477 220.34 248.374 212.568 247.697 209.465C248.241 209.331 248.809 209.246 249.377 209.246C253.44 209.246 254.31 213.405 256.789 213.15C256.789 213.15 258.409 208.082 261.42 208.664C264.43 209.246 260.996 214.096 261.42 216.921C261.613 218.182 263.656 220.013 266.244 221.553C269.267 223.371 273.027 224.802 275.409 224.535C275.554 224.511 275.699 224.499 275.832 224.463C276.074 224.414 276.291 224.329 276.497 224.256Z" fill="#FFAD94"/>
<path d="M276.654 310.304C269.569 311.674 254.576 307.491 247.406 304.254C245.29 303.296 243.839 302.423 243.501 301.817C242.122 299.38 243.501 297.525 246.922 289.802C247.309 288.929 247.708 287.983 248.144 286.964C250.465 281.496 250.465 269.833 250.465 259.781C250.441 251.173 250.393 243.753 251.759 242.431C254.721 239.57 269.484 230.21 269.484 230.21L272.422 245.571C272.422 245.571 274.091 253.367 275.832 263.552C279.06 282.297 282.603 309.152 276.654 310.304Z" fill="#20C3C5"/>
<path d="M281.587 317.13C281.587 317.834 274.526 334.335 268.614 336.699C262.701 339.064 227.033 336.457 227.033 336.457L209.393 348.024L213.08 382.857L215.656 407.131L215.74 407.919C210.348 411.447 196.758 412.405 195.295 409.362V409.337C193.88 406.27 172.249 340.955 180.713 329.631C189.177 318.319 243.489 301.805 243.489 301.805C244.903 302.702 246.548 303.527 248.337 304.242C254.371 306.727 262.048 308.279 267.876 309.189C270.125 309.54 272.096 309.795 273.595 309.977C275.493 310.207 276.642 310.292 276.642 310.292C276.642 310.292 281.575 316.415 281.575 317.13H281.587Z" fill="#383873"/>
<path d="M217.977 430.676H172.116C171.887 429.864 172.201 429.04 172.89 428.203C174.752 425.96 179.407 423.705 183.905 421.765C188.173 419.922 192.272 418.334 193.638 417.242C196.878 414.672 195.379 409.677 195.295 409.362C195.79 410.38 197.664 410.962 200.131 411.132C204.991 411.483 212.161 410.271 215.74 407.931L215.656 407.143C217.022 409.762 217.663 422.711 217.88 428.215C217.941 429.731 217.965 430.689 217.965 430.689L217.977 430.676Z" fill="#0C2059"/>
<path d="M200.131 411.12C199.998 413.314 199.672 416.867 199.043 417.812C198.1 419.231 187.992 424.178 186.589 423.705C185.682 423.402 184.57 422.42 183.905 421.753C188.173 419.91 192.272 418.322 193.638 417.23C196.879 414.66 195.379 409.665 195.295 409.349C195.79 410.368 197.664 410.95 200.131 411.12Z" fill="#2E4780"/>
<path d="M217.977 430.676H172.116C171.887 429.864 172.201 429.04 172.89 428.203H217.892C217.953 429.719 217.977 430.676 217.977 430.676Z" fill="#2E4780"/>
<path d="M169.299 413.69C169.299 413.69 165.817 422.905 162.795 427.767C161.598 429.707 160.461 430.967 159.663 430.664C156.846 429.597 128.505 405.433 131.213 403.675C131.612 403.421 132.241 403.239 133.039 403.142C135.505 402.826 139.592 403.166 143.365 403.554C146.605 403.893 149.628 404.257 151.199 404.257C155.201 404.257 155.721 403.081 155.721 403.081C155.806 403.542 156.568 404.427 157.68 405.506C161.186 408.84 168.223 413.957 169.299 413.69Z" fill="#0C2059"/>
<path d="M157.68 405.506C151.671 409.495 145.408 407.094 144.175 406.185C143.268 405.518 143.268 404.281 143.365 403.566C146.605 403.906 149.628 404.269 151.199 404.269C155.201 404.269 155.721 403.093 155.721 403.093C155.806 403.554 156.568 404.439 157.68 405.518V405.506Z" fill="#2E4780"/>
<path d="M162.795 427.779C161.598 429.719 160.461 430.98 159.663 430.676C156.846 429.609 128.505 405.445 131.213 403.687C131.612 403.433 132.241 403.251 133.039 403.154L162.807 427.779H162.795Z" fill="#2E4780"/>
<path d="M247.418 280.199C245.206 283.291 241.228 288.019 237.963 287.547C237.843 287.522 237.722 287.51 237.552 287.474C231.313 286.37 194.654 277.156 192.925 276.804C191.16 276.453 178.827 276.344 179.528 275.034C180.23 273.737 187.291 269.614 189.165 269.711C191.051 269.808 198.463 271.967 205.862 271.724C213.274 271.494 232.668 271.724 232.668 271.724L233.611 270.099L235.001 267.699C234.614 274.901 243.271 280.781 247.418 280.187V280.199Z" fill="#FFAD94"/>
<g style="mix-blend-mode:overlay" opacity="0.15">
<path d="M247.418 307.055C247.418 307.055 245.726 316.075 252.315 319.082" stroke="black" stroke-width="0.82" stroke-miterlimit="10" stroke-linecap="round"/>
</g>
<g style="mix-blend-mode:overlay" opacity="0.15">
<path d="M243.961 314.305C243.961 314.305 200.409 332.929 198.318 338.712C196.226 344.495 209.393 407.131 209.393 407.131" stroke="black" stroke-width="0.82" stroke-miterlimit="10" stroke-linecap="round"/>
</g>
<path d="M249.341 278.865C248.881 279.278 248.422 279.702 247.95 280.09C247.781 280.151 247.6 280.187 247.406 280.211C243.259 280.793 234.602 274.925 234.989 267.723C235.013 267.189 235.448 266.11 236.137 264.716C239.68 257.55 250.344 241.607 252.303 242.334C252.303 242.334 259.146 243.401 261.008 252.773C262.749 261.576 256.462 272.257 249.341 278.877V278.865Z" fill="#169799"/>
<path d="M302.516 348.024H267.235C267.235 348.024 295.225 339.767 295.225 284.115C295.225 283.4 295.225 282.697 295.225 281.993C294.935 244.795 287.016 224.293 277.246 218.437C280.305 216.618 284.368 214.884 289.748 213.684C292.094 213.15 294.681 212.726 297.535 212.423C321.692 209.95 340.989 219.443 343.287 230.198C345.572 240.94 331.45 348.024 302.54 348.024H302.516Z" fill="#B8E3E2"/>
<path d="M295.225 284.115C295.225 339.767 267.235 348.024 267.235 348.024H209.392L211.798 346.302L227.033 336.457L257.599 334.335C259.243 327.497 263.717 327.266 270.536 326.551C274.502 326.139 274.889 319.422 273.679 310.547C272.797 304.157 271.092 296.64 269.29 289.535C267.985 284.346 267.042 279.278 266.425 274.379C265.687 268.657 265.361 263.188 265.325 258.035C265.24 246.311 266.655 236.284 268.166 229.034C268.299 228.33 268.456 227.651 268.601 227.009C268.601 226.985 268.601 226.96 268.601 226.936C268.734 226.633 269.339 225.384 270.766 223.711C272.096 222.147 274.151 220.243 277.21 218.425C277.694 218.716 278.177 219.055 278.649 219.419C287.741 226.366 294.911 246.638 295.189 281.981C295.189 282.685 295.189 283.388 295.189 284.103L295.225 284.115Z" fill="#86BFBC"/>
<path d="M284.066 430.676H242.425C240.998 430.676 240.381 428.87 241.506 427.985L251.928 419.813C256.547 416.176 259.255 410.61 259.255 404.73V348.036H267.247V404.73C267.247 410.61 269.943 416.188 274.574 419.813L284.984 427.985C286.109 428.87 285.492 430.676 284.066 430.676Z" fill="#B8E3E2"/>
<g style="mix-blend-mode:overlay" opacity="0.25">
<path d="M315.828 214.569C315.828 214.569 316.131 215.345 316.626 216.909" stroke="black" stroke-width="0.82" stroke-miterlimit="10" stroke-linecap="round"/>
<path d="M318.029 221.734C319.443 227.057 321.281 235.338 322.744 246.626C326.529 275.907 322.684 317.021 297.293 343.052" stroke="black" stroke-width="0.82" stroke-miterlimit="10" stroke-linecap="round"/>
<path d="M295.492 344.835C294.899 345.405 294.295 345.962 293.678 346.52" stroke="black" stroke-width="0.82" stroke-miterlimit="10" stroke-linecap="round"/>
</g>
<path d="M119.739 208.616C118.469 213.235 112.666 222.183 107.358 231.774C101.554 242.237 96.3672 253.44 98.3984 260.557C98.9063 262.34 99.136 263.649 99.136 264.595C99.1602 267.686 96.8145 266.729 94.4447 264.971C92.0266 263.176 89.5842 260.557 89.5842 260.557L89.7656 246.76C89.7656 246.76 81.967 239.57 88.3751 223.856C88.7862 222.862 89.2457 221.832 89.7656 220.765C98.5798 202.905 111.807 184.161 99.2811 178.85C116.571 177.783 122.387 198.977 119.739 208.628V208.616Z" fill="#20C3C5"/>
<path d="M111.795 236.49C106.511 250.458 111.795 261.067 103.864 262.57C100.236 263.261 98.6282 260.569 97.9632 257.429C97.1773 253.719 97.6972 249.403 97.6972 249.403C97.6972 249.403 99.0393 245.947 101.869 242.601C104.178 239.873 107.455 237.218 111.795 236.502V236.49Z" fill="#169799"/>
<path d="M93.3687 253.804C93.3445 257.053 92.607 259.818 91.1077 261.261C90.9626 261.406 90.8054 261.539 90.6724 261.648C86.9243 264.692 84.5303 259.114 84.5303 259.114C84.5303 259.114 74.5553 254.18 69.6101 244.165C65.8257 236.478 64.9793 225.772 73.8903 212.023C75.1961 221.819 80.5524 228.488 85.8603 234.817C86.5253 235.617 87.1782 236.393 87.8311 237.181C91.5067 241.595 93.4291 248.384 93.3808 253.792L93.3687 253.804Z" fill="#B8E3E2"/>
<path d="M108.591 260.885L105.206 281.727C105.036 282.6 104.275 283.23 103.38 283.23H82.2936C81.3988 283.23 80.6371 282.6 80.4679 281.727L77.7111 264.813L77.0824 260.897C76.8769 259.757 77.7474 258.702 78.9081 258.702H106.765C107.926 258.702 108.797 259.757 108.591 260.897V260.885Z" fill="#B8E3E2"/>
<path d="M111.795 265.14H73.8782L74.8817 259.466C75.0994 258.278 76.1271 257.405 77.3362 257.405H108.349C109.546 257.405 110.586 258.278 110.792 259.466L111.795 265.14Z" fill="#86BFBC"/>
<path d="M190.253 61.6909H136.327C133.663 61.6909 131.503 63.8568 131.503 66.5286V106.746C131.503 109.417 133.663 111.583 136.327 111.583H190.253C192.917 111.583 195.077 109.417 195.077 106.746V66.5286C195.077 63.8568 192.917 61.6909 190.253 61.6909Z" fill="#383873"/>
<path d="M146.302 79.3321V84.7033C146.302 85.1276 146.653 85.4793 147.076 85.4793H150.038C150.462 85.4793 150.812 85.1276 150.812 84.7033V79.3321C150.812 78.9078 151.163 78.5562 151.586 78.5562H151.876C152.299 78.5562 152.65 78.9078 152.65 79.3321V93.93C152.65 94.3544 152.299 94.706 151.876 94.706H151.586C151.163 94.706 150.812 94.3544 150.812 93.93V87.9405C150.812 87.5162 150.462 87.1646 150.038 87.1646H147.076C146.653 87.1646 146.302 87.5162 146.302 87.9405V93.93C146.302 94.3544 145.952 94.706 145.529 94.706H145.238C144.815 94.706 144.465 94.3544 144.465 93.93V79.3321C144.465 78.9078 144.815 78.5562 145.238 78.5562H145.529C145.952 78.5562 146.302 78.9078 146.302 79.3321Z" fill="white"/>
<path d="M156.628 80.2172H155.237C154.814 80.2172 154.464 79.8656 154.464 79.4412V79.3442C154.464 78.9198 154.814 78.5682 155.237 78.5682H161.404C161.827 78.5682 162.178 78.9198 162.178 79.3442V79.4412C162.178 79.8656 161.827 80.2172 161.404 80.2172H160.013C159.59 80.2172 159.24 80.5688 159.24 80.9931V93.9421C159.24 94.3665 158.889 94.7181 158.466 94.7181H158.176C157.752 94.7181 157.402 94.3665 157.402 93.9421V80.9931C157.402 80.5688 157.051 80.2172 156.628 80.2172Z" fill="white"/>
<path d="M173.64 87.7586C173.519 85.6247 173.398 83.2483 173.471 81.4296H173.374C173.011 83.2241 172.588 85.1397 172.08 87.0433L170.097 94.6211H168.924L167.038 87.3585C166.506 85.2973 166.035 83.3089 165.72 81.4418H165.648C165.648 83.3332 165.551 85.5883 165.454 87.892L165.176 93.9785C165.152 94.3907 164.813 94.7181 164.402 94.7181H164.318C163.87 94.7181 163.52 94.3422 163.544 93.8936L164.402 79.2957C164.427 78.8835 164.765 78.5682 165.176 78.5682H165.829C166.18 78.5682 166.494 78.8107 166.579 79.1502L168.32 85.9521C168.864 88.086 169.275 89.6622 169.614 91.5172H169.686C170 89.6743 170.351 88.1345 170.883 85.9521L172.552 79.1623C172.636 78.8107 172.951 78.5682 173.301 78.5682H174.015C174.426 78.5682 174.764 78.8956 174.788 79.3078L175.635 93.9058C175.659 94.3544 175.308 94.7302 174.861 94.7302H174.704C174.293 94.7302 173.942 94.4029 173.93 93.9906L173.628 87.7829L173.64 87.7586Z" fill="white"/>
<path d="M178.972 78.5562H179.262C179.685 78.5562 180.036 78.9078 180.036 79.3321V92.3781C180.036 92.8025 180.386 93.1541 180.81 93.1541H183.796C184.219 93.1541 184.57 93.5057 184.57 93.93C184.57 94.3544 184.219 94.706 183.796 94.706H178.972C178.549 94.706 178.198 94.3544 178.198 93.93V79.3321C178.198 78.9078 178.549 78.5562 178.972 78.5562Z" fill="white"/>
<path d="M214.833 65.9588C216.853 65.9588 217.324 64.6009 217.324 63.3884C217.324 62.3215 217.215 61.2909 217.106 60.2603C216.998 59.157 216.889 58.1627 216.889 57.023C216.889 53.713 218.908 52.3187 221.508 52.3187H221.943V54.2344H221.387C219.851 54.2344 219.222 55.3377 219.222 56.9988C219.222 57.993 219.331 58.9145 219.44 59.7996C219.513 60.7574 219.621 61.6425 219.621 62.5276C219.658 65.4011 218.666 66.3953 217.094 66.8318V66.9045C218.666 67.3774 219.658 68.3716 219.621 71.2815C219.621 72.2029 219.513 73.1244 219.44 74.0459C219.331 74.9673 219.222 75.8888 219.222 76.883C219.222 78.5441 219.779 79.6838 221.423 79.6838H221.931V81.5994H221.459C219.041 81.5994 216.877 80.387 216.877 76.8951C216.877 75.7918 216.986 74.6885 217.094 73.6215C217.203 72.5545 217.312 71.4876 217.312 70.457C217.312 69.2809 216.84 67.8502 214.821 67.8502V66.0073L214.833 65.9588Z" fill="#383873"/>
<path d="M252.242 67.8018C250.223 67.8018 249.752 69.2325 249.752 70.4085C249.752 71.4391 249.86 72.5061 249.969 73.573C250.078 74.64 250.187 75.7433 250.187 76.8467C250.187 80.3385 248.023 81.551 245.604 81.551H245.133V79.6353H245.641C247.297 79.4534 247.841 78.4956 247.841 76.8345C247.841 75.8403 247.732 74.9189 247.66 73.9974C247.551 73.0759 247.442 72.1545 247.442 71.233C247.406 68.3231 248.397 67.3289 249.969 66.8561V66.7833C248.385 66.3468 247.406 65.3526 247.442 62.4791C247.442 61.594 247.551 60.7089 247.66 59.7511C247.732 58.866 247.841 57.9445 247.841 56.9503C247.841 55.2893 247.213 54.3799 245.677 54.1859H245.121V52.2703H245.556C248.156 52.2703 250.175 53.6646 250.175 56.9746C250.175 58.1143 250.066 59.1085 249.957 60.2118C249.848 61.2424 249.74 62.273 249.74 63.34C249.74 64.5524 250.211 65.9103 252.23 65.9103V67.7533L252.242 67.8018Z" fill="#383873"/>
<path d="M239.656 70.4813V63.4006L233.538 59.8602L227.432 63.4006V70.4813L233.538 74.0217L239.656 70.4813Z" fill="#FF6224"/>
<path d="M285.637 105.739C279.894 102.866 272.978 104.006 268.444 108.552C262.834 114.178 262.653 123.187 267.852 129.055L265.615 128.788C265.349 128.752 265.095 128.946 265.071 129.225C265.035 129.491 265.228 129.746 265.506 129.77L268.916 130.182C269.049 130.194 269.182 130.158 269.279 130.085C269.375 130.013 269.448 129.891 269.46 129.758L269.859 126.448C269.895 126.181 269.702 125.927 269.424 125.902C269.158 125.866 268.904 126.06 268.88 126.339L268.626 128.449C263.741 122.968 263.91 114.542 269.158 109.28C273.401 105.024 279.846 103.969 285.214 106.649C285.456 106.77 285.758 106.673 285.879 106.43C286 106.188 285.903 105.885 285.662 105.764L285.637 105.739Z" fill="#FF6224"/>
<path d="M272.797 133.201C278.54 136.075 285.456 134.935 289.99 130.388C295.6 124.763 295.782 115.754 290.583 109.886L292.819 110.153C293.085 110.189 293.339 109.995 293.363 109.716C293.4 109.449 293.206 109.195 292.928 109.171L289.519 108.758C289.386 108.746 289.253 108.783 289.156 108.855C289.059 108.928 288.987 109.049 288.974 109.183L288.588 112.493C288.551 112.759 288.745 113.014 289.023 113.038C289.289 113.075 289.543 112.881 289.567 112.602L289.821 110.492C294.706 115.972 294.536 124.399 289.289 129.661C285.045 133.917 278.601 134.971 273.232 132.292C272.99 132.171 272.688 132.268 272.567 132.51C272.446 132.753 272.543 133.056 272.785 133.177L272.797 133.201Z" fill="#FF6224"/>
<path d="M405.144 161.063H315.587C313.954 161.063 312.636 159.742 312.636 158.105C312.636 156.468 313.954 155.147 315.587 155.147H405.144C406.776 155.147 408.094 156.468 408.094 158.105C408.094 159.742 406.776 161.063 405.144 161.063Z" fill="#FF6224"/>
<path d="M373.163 173.94H315.587C313.954 173.94 312.636 172.618 312.636 170.981C312.636 169.345 313.954 168.023 315.587 168.023H373.163C374.796 168.023 376.113 169.345 376.113 170.981C376.113 172.618 374.796 173.94 373.163 173.94Z" fill="#20C3C5"/>
<path d="M373.163 187.774H315.587C313.954 187.774 312.636 186.452 312.636 184.815C312.636 183.179 313.954 181.857 315.587 181.857H373.163C374.796 181.857 376.113 183.179 376.113 184.815C376.113 186.452 374.796 187.774 373.163 187.774Z" fill="#20C3C5"/>
<path d="M87.5891 111.814H41.0634C39.4312 111.814 38.1133 110.492 38.1133 108.855C38.1133 107.219 39.4312 105.897 41.0634 105.897H87.5891C89.2214 105.897 90.5392 107.219 90.5392 108.855C90.5392 110.492 89.2214 111.814 87.5891 111.814Z" fill="#20C3C5"/>
<path d="M70.0211 124.69H41.0634C39.4312 124.69 38.1133 123.368 38.1133 121.731C38.1133 120.095 39.4312 118.773 41.0634 118.773H70.0211C71.6533 118.773 72.9712 120.095 72.9712 121.731C72.9712 123.368 71.6533 124.69 70.0211 124.69Z" fill="#FF6224"/>
<path d="M70.0211 138.524H41.0634C39.4312 138.524 38.1133 137.202 38.1133 135.566C38.1133 133.929 39.4312 132.607 41.0634 132.607H70.0211C71.6533 132.607 72.9712 133.929 72.9712 135.566C72.9712 137.202 71.6533 138.524 70.0211 138.524Z" fill="#FF6224"/>
<path d="M364.797 326.684C361.895 335.123 358.437 342.483 354.809 349.127C342.295 372.054 327.75 386.652 327.206 408.028C327.206 408.028 322.696 387.877 326.311 364.925C328.343 352.037 332.937 338.263 342.32 326.672C368.46 294.445 364.591 265.128 364.591 265.128C364.591 265.128 377.697 289.171 364.784 326.672L364.797 326.684Z" fill="#169799"/>
<path d="M334.473 430.676C334.473 430.676 325.332 414.999 346.962 395.661C368.593 376.322 385.532 350.74 382.231 330.043C361.532 354.147 306.506 388.338 322.031 430.664H334.46L334.473 430.676Z" fill="#20C3C5"/>
<path d="M23.9791 317.13C23.9791 317.13 12.6863 306.812 6.68921 281.023C41.257 310.413 49.7206 336.59 49.7206 336.59L23.967 317.142L23.9791 317.13Z" fill="#169799"/>
<path d="M49.0191 331.631C42.8044 326.018 33.6033 320.452 24.8374 314.451C13.1939 306.485 2.33632 297.731 0.329236 287.037C-4.24111 325.605 40.4951 342.98 40.4951 342.98L40.5797 343.113L56.8298 366.877C56.8298 366.877 63.4677 344.714 49.007 331.631H49.0191Z" fill="#20C3C5"/>
<path d="M367.529 447.893H66.938C62.1984 447.893 58.3535 444.038 58.3535 439.285C58.3535 434.532 62.1984 430.677 66.938 430.677H367.529C372.269 430.677 376.113 434.532 376.113 439.285C376.113 444.038 372.269 447.893 367.529 447.893Z" fill="#EAF9F8"/>
</svg>
