<svg width="414" height="413" viewBox="0 0 414 413" fill="none" xmlns="http://www.w3.org/2000/svg">
<path d="M70.8668 407.344C-3.26743 359.619 66.6973 328.744 27.6461 246.75C-24.2278 137.826 -14.9071 0.140183 159.044 7.92953e-05C273.556 -0.0925313 370.435 80.9489 390.187 176.718C419.695 319.803 369.109 407.344 369.109 407.344H70.8668Z" fill="url(#paint0_linear_34_237)"/>
<path d="M408.202 412.789L10.143 412.789C7.17981 412.789 4.77176 410.35 4.77176 407.344C4.77176 404.338 7.17746 401.899 10.143 401.899L408.202 401.899C411.168 401.899 413.574 404.338 413.574 407.344C413.574 410.35 411.168 412.789 408.202 412.789Z" fill="#565C82"/>
<path d="M237.084 203.572C237.084 203.572 234.704 218.616 228.616 221.27C224.547 223.044 221.323 229.069 203.509 228.333L202.682 239.852C202.682 239.852 237.084 242.355 244.863 238.921C255.781 234.103 237.081 203.572 237.081 203.572H237.084Z" fill="#FFE354"/>
<path d="M295.588 257.038C300.32 258.161 305.057 255.183 306.165 250.386L314.516 214.256C315.624 209.46 312.686 204.658 307.954 203.535C303.223 202.412 298.486 205.389 297.378 210.186L289.027 246.316C287.919 251.113 290.857 255.914 295.588 257.038Z" fill="#288397"/>
<path d="M295.588 257.038C300.32 258.161 305.057 255.183 306.165 250.386L314.516 214.256C315.624 209.46 312.686 204.658 307.954 203.535C303.223 202.412 298.486 205.389 297.378 210.186L289.027 246.316C287.919 251.113 290.857 255.914 295.588 257.038Z" fill="#288397"/>
<path d="M295.588 257.038C300.32 258.161 305.057 255.183 306.165 250.386L314.516 214.256C315.624 209.46 312.686 204.658 307.954 203.535C303.223 202.412 298.486 205.389 297.378 210.186L289.027 246.316C287.919 251.113 290.857 255.914 295.588 257.038Z" fill="white"/>
<path d="M289.027 246.318L297.378 210.186C298.577 205 304.035 201.915 309.13 203.914C304.829 203.518 300.786 206.372 299.772 210.756L291.421 246.888C290.407 251.272 292.78 255.651 296.807 257.23C296.401 257.192 295.994 257.137 295.588 257.04C290.857 255.916 287.919 251.115 289.027 246.318Z" fill="#C6D4D6"/>
<path d="M307.14 246.751L311.016 245.295L316.652 220.915L313.748 218.16L307.14 246.751Z" fill="#0A2126"/>
<path d="M323.604 305.425C329.388 296.525 312.993 273.612 311.7 262.105C310.17 248.489 311.655 242.027 311.669 241.965L308.971 241.293C308.903 241.569 307.343 248.22 308.94 262.423C310.568 276.918 333.11 306.327 315.216 306.005C294.944 305.625 283.581 306.002 283.468 306.005L283.562 308.821C283.674 308.816 294.974 308.443 315.164 308.821C318.415 308.883 321.81 308.184 323.606 305.423L323.604 305.425Z" fill="#0A2126"/>
<path d="M229.475 313.941H284.904L287.821 306.898H226.219L229.475 313.941Z" fill="#0A2126"/>
<path d="M250.03 337.497H263.412V310.419H250.03V337.497Z" fill="#0A2126"/>
<path d="M253.366 381.95H260.077V337.288H253.366V381.95Z" fill="#EDF7F9"/>
<path d="M251.812 392.803H261.693V384.244V377.358H251.812V392.803Z" fill="#0A2126"/>
<path d="M298.133 403.027L261.693 384.244V392.802L287.821 403.027V404.906H298.133V403.027Z" fill="#0A2126"/>
<path d="M215.38 403.022V404.905H225.69V403.022L251.808 392.802V384.246L215.38 403.022Z" fill="#0A2126"/>
<path d="M251.808 404.905V406.359H262.524V404.905H260.076V384.246H253.368L254.07 404.905H251.808Z" fill="#0A2126"/>
<path opacity="0.39" d="M253.368 384.246L254.071 404.905H256.716L258.953 384.246H253.368Z" fill="#9CAAAD"/>
<path opacity="0.39" d="M215.38 403.022V403.082L251.808 388.637V384.246L215.38 403.022Z" fill="#9CAAAD"/>
<path d="M226.031 306.898H289.873C293.396 306.898 296.251 304.003 296.251 300.431C296.251 296.86 293.396 293.965 289.873 293.965H226.031C222.508 293.965 219.653 296.86 219.653 300.431C219.653 304.003 222.508 306.898 226.031 306.898Z" fill="white"/>
<path d="M226.174 293.965H289.873C291.709 293.965 293.354 294.763 294.516 296.024C293.708 296.01 246.476 296.017 230.597 296.015C225.01 296.015 222.148 302.77 225.954 306.888C222.501 306.845 219.707 304.029 219.655 300.531C223.218 300.61 226.151 297.577 226.174 293.965Z" fill="#C6D4D6"/>
<path d="M233.52 265.434C233.52 265.434 172.457 270.442 172.457 288.779C172.457 303.877 199.941 364.85 205.027 388.312C205.973 392.679 200.253 399.078 200.534 399.791C201.86 403.16 208.988 398.361 208.988 398.361L214.474 381.511C214.474 381.511 193.478 302.386 199.871 295.905C206.263 289.425 267.924 276.041 267.924 276.041L233.52 265.432V265.434Z" fill="#E76A53"/>
<g style="mix-blend-mode:multiply" opacity="0.68">
<path d="M189.724 289.194C194.748 273.913 240.752 270.646 240.752 270.646L260.421 273.731L267.924 276.044C267.924 276.044 206.261 289.429 199.871 295.907C195.868 299.966 202.607 332.515 208.203 356.278C199.145 329.629 186.887 297.826 189.724 289.192V289.194Z" fill="#FF7F4C"/>
</g>
<path d="M214.101 381.254C214.101 381.254 215.411 380.392 217.233 383.161C219.056 385.93 218.269 401.524 218.269 401.524L215.385 402.17C215.385 402.17 215.298 390.733 214.628 390.862C213.961 390.99 212.829 402.863 211.281 403.628C209.733 404.392 199.14 407.159 197.154 405.786C195.167 404.414 200.531 399.793 200.531 399.793C200.531 399.793 206.057 399.489 206.629 398.641C207.2 397.791 214.099 381.254 214.099 381.254H214.101Z" fill="#09434C"/>
<path d="M289.491 276.571C289.491 276.571 291.34 285.124 286.228 290.306C281.117 295.487 224.214 292.735 221.412 300.441C216.439 314.123 229.538 381.252 229.538 381.252L223.884 397.993C223.884 397.993 216.163 403.274 215.441 401.296C215.097 400.353 220.869 392.861 220.194 386.87C217.676 364.534 188.681 300.773 192.891 287.969C197.915 272.688 243.919 269.421 243.919 269.421L289.494 276.569L289.491 276.571Z" fill="#FFA283"/>
<path d="M289.491 279.413C289.491 279.413 291.293 287.971 287.915 291.393C284.539 294.817 221.412 300.44 221.412 300.44C221.412 300.44 223.518 289.928 211.218 285.281C198.918 280.636 186.196 279.078 176.517 281.08C176.517 281.08 178.416 274.835 196.746 269.423C215.076 264.011 235.254 263.767 235.254 263.767L289.491 279.415V279.413Z" fill="#0001E4"/>
<path d="M269.18 115.17C267.254 115.578 249.878 115.775 249.878 128.589C249.878 141.402 250.128 146.496 246.863 152.098C243.598 157.699 249.037 171.294 253.11 171.342C257.184 171.387 257.521 186.226 257.521 186.226C257.521 186.226 281.03 196.924 287.561 194.122C289.194 193.421 291.046 193.293 292.909 193.497C304.452 194.756 312.543 181.548 305.155 172.47C304.844 172.087 304.506 171.71 304.143 171.344C294.15 161.214 295.35 162.033 295.35 150.573C295.35 139.113 293.34 142.423 288.566 135.547C283.792 128.67 280.983 112.662 269.177 115.172L269.18 115.17Z" fill="#160862"/>
<path d="M254.617 171.51C251.101 175.075 230.032 194.027 234.284 205.729C243.726 231.717 227.285 261.274 227.285 265.349C227.285 269.424 277.472 283.177 288.526 283.177C299.58 283.177 275.233 247.387 279.753 235.162C284.277 222.938 290.285 173.921 286.516 170.1C284.003 167.552 255.322 170.798 254.617 171.513V171.51Z" fill="#FCC332"/>
<g style="mix-blend-mode:multiply" opacity="0.29">
<path d="M279.753 235.16C279.782 235.084 279.81 235.008 279.838 234.932L237.085 246.751C237.085 246.751 245.628 264.914 287.048 264.914C282.829 254.178 277.409 241.498 279.753 235.16Z" fill="#A5375C"/>
</g>
<path d="M262.942 148.36L261.016 171.546C261.016 171.546 248.086 199.189 254.27 201.48C260.454 203.772 274.593 172.605 274.593 172.605V142.927L262.939 148.358L262.942 148.36Z" fill="#FFA283"/>
<g style="mix-blend-mode:multiply" opacity="0.68">
<path d="M274.596 142.929V157.944C270.75 163.852 265.306 167.989 261.305 168.093L262.944 148.36L274.598 142.929H274.596Z" fill="#FF7F4C"/>
</g>
<path d="M262.942 121.536C262.942 121.536 256.158 118.48 253.898 132.231C251.637 145.985 253.542 160.606 260.241 161.624C266.941 162.643 279.274 151.722 279.274 140.381C279.274 130.633 268.306 120.085 262.944 121.536H262.942Z" fill="#FFA283"/>
<path d="M229.119 380.084C229.119 380.084 230.553 379.141 232.546 382.171C234.542 385.201 233.68 402.267 233.68 402.267L230.525 402.975C230.525 402.975 230.429 390.458 229.698 390.598C228.967 390.738 227.728 403.735 226.034 404.571C224.338 405.407 212.745 408.437 210.572 406.933C208.398 405.43 214.27 400.375 214.27 400.375C214.27 400.375 220.319 400.045 220.944 399.114C221.569 398.183 229.119 380.086 229.119 380.086V380.084Z" fill="#09434C"/>
<path d="M205.804 229.684C205.804 229.684 205.28 228.331 203.509 228.331C201.738 228.331 200.061 228.722 197.8 229.007C195.542 229.292 184.956 238.076 190.508 239.852H205.802C205.802 239.852 208.964 232.89 205.802 229.684H205.804Z" fill="#E76A53"/>
<path d="M238.538 234.374C238.538 234.374 230.201 234.2 226.783 231.631C223.366 229.062 220.904 227.511 216.134 228.739C211.365 229.966 210.292 230.731 209.07 232.303C207.84 233.885 205.041 238.933 207.238 240.137C209.435 241.341 226.35 241.975 226.959 241.692C227.568 241.412 241.143 243.794 241.143 243.794L238.535 234.371L238.538 234.374Z" fill="#FFA283"/>
<path d="M292.487 242.277C282.335 256.812 249.456 249.332 237.083 246.75C237.083 246.75 238.072 239.607 237.299 233.545C237.072 231.757 267.261 232.847 271.677 230.266C276.093 227.684 285.718 171.42 285.718 171.42C285.718 171.42 292.368 174.258 295.451 184.119C301.646 203.95 300.529 230.767 292.49 242.281L292.487 242.277Z" fill="#FFE354"/>
<path d="M298.409 193.05C301.178 192.222 303.656 190.405 305.375 188.064C308.962 183.184 308.985 176.319 304.143 171.408C294.15 161.278 295.35 162.097 295.35 150.637C295.35 139.177 296.486 136.479 291.712 129.603C286.938 122.726 280.983 112.726 269.177 115.236C269.025 115.269 268.777 115.3 268.446 115.336C268.219 115.395 255.584 115.445 257.891 122.692C257.891 122.692 260.955 121.163 263.063 124.533C266.994 130.814 267.083 132.811 271.604 134.848C276.127 136.886 274.377 144.781 274.377 150.001C274.377 154.002 274.937 157.989 274.832 161.99C274.712 166.545 266.125 198.241 291.433 193.556C293.757 193.126 296.085 193.744 298.404 193.05H298.409Z" fill="#003C8E"/>
<path d="M76.6572 239.852H227.425C231.574 239.852 234.942 243.267 234.942 247.472V251.927H76.6572V239.85V239.852Z" fill="white"/>
<path d="M158.704 251.927H86.6338V405.293H158.704V251.927Z" fill="#002F69"/>
<path d="M158.705 405.293V269.302H149.684C125.022 269.302 105.032 289.567 105.032 314.567V405.295H158.702L158.705 405.293Z" fill="#002799"/>
<path d="M209.564 223.144L132.855 221.28L117.969 176.817L193.614 175.502L209.564 223.144Z" fill="#003F8C"/>
<path d="M132.855 221.28L209.566 223.144L208.236 219.167C198.493 218.635 177.882 216.524 158.964 208.167C142.476 200.884 130.37 186.774 123.748 176.715L117.971 176.815L132.858 221.275L132.855 221.28Z" fill="#002F69"/>
<path d="M163.947 199.661C156.528 207.058 151.215 218.801 152.216 234.231L141.068 232.545C144.104 214.952 153.085 203.067 162.52 197.121L163.947 199.664V199.661Z" fill="#0064B8"/>
<path d="M176.76 239.291H133.478V231.246H168.826C173.209 231.246 176.762 234.848 176.762 239.291H176.76Z" fill="#003F8C"/>
<path d="M174.148 239.291H130.867V231.246H166.214C170.597 231.246 174.148 234.848 174.148 239.291Z" fill="#002F69"/>
<path d="M156.515 52.7526V86.5959C156.515 88.98 154.608 90.9129 152.256 90.9129H72.5395L50.6024 108.637L53.1229 90.9129C50.771 90.9129 48.8643 88.98 48.8643 86.5959V52.7526C48.8643 50.3685 50.771 48.4355 53.1229 48.4355H152.256C154.608 48.4355 156.515 50.3685 156.515 52.7526Z" fill="white"/>
<path d="M144.141 61.2608H92.3187C90.9952 61.2608 89.9224 60.1733 89.9224 58.8316C89.9224 57.4899 90.9952 56.4023 92.3187 56.4023H144.141C145.465 56.4023 146.537 57.4899 146.537 58.8316C146.537 60.1733 145.465 61.2608 144.141 61.2608Z" fill="#B0F3FF"/>
<path d="M144.141 68.546H92.3187C90.9952 68.546 89.9224 67.4584 89.9224 66.1167C89.9224 64.7751 90.9952 63.6875 92.3187 63.6875H144.141C145.465 63.6875 146.537 64.7751 146.537 66.1167C146.537 67.4584 145.465 68.546 144.141 68.546Z" fill="#B0F3FF"/>
<path d="M126.552 76.4698H92.888C91.5645 76.4698 90.4917 75.3822 90.4917 74.0406C90.4917 72.6989 91.5645 71.6113 92.888 71.6113H126.552C127.875 71.6113 128.948 72.6989 128.948 74.0406C128.948 75.3822 127.875 76.4698 126.552 76.4698Z" fill="#B0F3FF"/>
<path d="M71.2714 84.1883C79.1832 83.9643 85.4179 77.2808 85.1969 69.2604C84.9759 61.2399 78.3829 54.9196 70.4711 55.1437C62.5593 55.3677 56.3247 62.0512 56.5457 70.0716C56.7667 78.0921 63.3596 84.4124 71.2714 84.1883Z" fill="#B0F3FF"/>
<path d="M70.8669 82.1263C64.0925 82.1263 58.583 76.5412 58.583 69.6738C58.583 62.8063 64.0948 57.2212 70.8669 57.2212C77.6389 57.2212 83.1508 62.8087 83.1508 69.6738C83.1508 76.5388 77.6389 82.1263 70.8669 82.1263Z" fill="white"/>
<path d="M74.7622 65.1053C74.7622 67.4301 73.0171 69.3132 70.8667 69.3132C68.7163 69.3132 66.9712 67.4301 66.9712 65.1053C66.9712 62.7805 68.7163 60.8975 70.8667 60.8975C73.0171 60.8975 74.7622 62.7805 74.7622 65.1053Z" fill="#009AF3"/>
<path d="M70.8664 71.4028C68.3225 71.4028 66.2588 73.4925 66.2588 76.0737V79.7093C67.6596 80.3718 69.2197 80.7423 70.8664 80.7423C72.5132 80.7423 74.0732 80.3718 75.4717 79.7093V76.0737C75.4717 73.4949 73.4103 71.4028 70.8664 71.4028Z" fill="#009AF3"/>
<path d="M70.8666 70.7117C71.2531 70.7117 71.6279 70.7545 71.9886 70.8328V69.8545C71.6279 69.9519 71.2531 70.0041 70.8666 70.0041C70.4801 70.0041 70.1029 69.9519 69.7422 69.8545V70.8328C70.1053 70.7521 70.4801 70.7117 70.8666 70.7117Z" fill="#009AF3"/>
<path d="M105.219 105.809V139.652C105.219 142.036 107.126 143.969 109.478 143.969H189.194L211.131 161.693L208.611 143.969C210.963 143.969 212.869 142.036 212.869 139.652V105.809C212.869 103.425 210.963 101.492 208.611 101.492H109.478C107.126 101.492 105.219 103.425 105.219 105.809Z" fill="white"/>
<path d="M200.946 114.315H149.124C147.8 114.315 146.728 113.227 146.728 111.886C146.728 110.544 147.8 109.457 149.124 109.457H200.946C202.27 109.457 203.343 110.544 203.343 111.886C203.343 113.227 202.27 114.315 200.946 114.315Z" fill="#FE978E"/>
<path d="M200.946 121.603H149.124C147.8 121.603 146.728 120.516 146.728 119.174C146.728 117.832 147.8 116.745 149.124 116.745H200.946C202.27 116.745 203.343 117.832 203.343 119.174C203.343 120.516 202.27 121.603 200.946 121.603Z" fill="#FE978E"/>
<path d="M173.839 129.527H149.693C148.369 129.527 147.296 128.439 147.296 127.098C147.296 125.756 148.369 124.668 149.693 124.668H173.839C175.162 124.668 176.235 125.756 176.235 127.098C176.235 128.439 175.162 129.527 173.839 129.527Z" fill="#FE978E"/>
<path d="M141.996 122.253C142.26 130.652 135.488 137.517 127.203 137.249C119.7 137.007 113.586 130.811 113.347 123.203C113.083 114.804 119.855 107.939 128.14 108.207C135.643 108.45 141.754 114.645 141.996 122.253Z" fill="#FE978E"/>
<path d="M127.672 135.183C134.456 135.183 139.955 129.608 139.955 122.731C139.955 115.854 134.456 110.278 127.672 110.278C120.887 110.278 115.388 115.854 115.388 122.731C115.388 129.608 120.887 135.183 127.672 135.183Z" fill="white"/>
<path d="M127.671 122.37C129.823 122.37 131.567 120.486 131.567 118.162C131.567 115.838 129.823 113.954 127.671 113.954C125.52 113.954 123.776 115.838 123.776 118.162C123.776 120.486 125.52 122.37 127.671 122.37Z" fill="#C25076"/>
<path d="M127.672 124.459C125.128 124.459 123.066 126.549 123.066 129.13V132.765C124.467 133.428 126.027 133.798 127.672 133.798C129.316 133.798 130.879 133.428 132.279 132.765V129.13C132.279 126.551 130.218 124.459 127.672 124.459Z" fill="#C25076"/>
<path d="M127.671 123.768C128.058 123.768 128.433 123.811 128.796 123.889V122.911C128.435 123.008 128.06 123.061 127.671 123.061C127.283 123.061 126.908 123.008 126.549 122.911V123.889C126.912 123.809 127.287 123.768 127.671 123.768Z" fill="#C25076"/>
<defs>
<linearGradient id="paint0_linear_34_237" x1="0.000312652" y1="203.672" x2="399.43" y2="203.672" gradientUnits="userSpaceOnUse">
<stop stop-color="#BCE3F1"/>
<stop offset="1" stop-color="#D0F7FF"/>
</linearGradient>
</defs>
</svg>
