<svg width="1600" height="819" viewBox="0 0 1600 819" fill="none" xmlns="http://www.w3.org/2000/svg">
<g opacity="0.5">
<path style="mix-blend-mode:color-dodge" d="M1529.68 -152.308C1529.68 -152.308 1363.49 365.029 1095.21 662.632" stroke="url(#paint0_linear_9_4531)" stroke-width="0.25" stroke-miterlimit="10"/>
<path style="mix-blend-mode:color-dodge" d="M1545.79 -132.581C1545.79 -132.581 1380.8 377.496 1095.21 662.632" stroke="url(#paint1_linear_9_4531)" stroke-width="0.25" stroke-miterlimit="10"/>
<path style="mix-blend-mode:color-dodge" d="M1561.91 -112.855C1561.91 -112.855 1398.11 389.96 1095.21 662.632" stroke="url(#paint2_linear_9_4531)" stroke-width="0.25" stroke-miterlimit="10"/>
<path style="mix-blend-mode:color-dodge" d="M1578.02 -93.1275C1578.02 -93.1275 1415.42 402.435 1095.21 662.632" stroke="url(#paint3_linear_9_4531)" stroke-width="0.25" stroke-miterlimit="10"/>
<path style="mix-blend-mode:color-dodge" d="M1594.14 -73.3994C1594.14 -73.3994 1432.73 414.901 1095.21 662.632" stroke="url(#paint4_linear_9_4531)" stroke-width="0.25" stroke-miterlimit="10"/>
<path style="mix-blend-mode:color-dodge" d="M1610.25 -53.6716C1610.25 -53.6716 1450.04 427.368 1095.21 662.632" stroke="url(#paint5_linear_9_4531)" stroke-width="0.25" stroke-miterlimit="10"/>
<path style="mix-blend-mode:color-dodge" d="M1626.37 -33.9463C1626.37 -33.9463 1467.36 439.832 1095.21 662.632" stroke="url(#paint6_linear_9_4531)" stroke-width="0.25" stroke-miterlimit="10"/>
<path style="mix-blend-mode:color-dodge" d="M1642.48 -14.2185C1642.48 -14.2185 1484.67 452.307 1095.21 662.632" stroke="url(#paint7_linear_9_4531)" stroke-width="0.25" stroke-miterlimit="10"/>
<path style="mix-blend-mode:color-dodge" d="M1658.6 5.50933C1658.6 5.50933 1501.98 464.773 1095.21 662.632" stroke="url(#paint8_linear_9_4531)" stroke-width="0.25" stroke-miterlimit="10"/>
<path style="mix-blend-mode:color-dodge" d="M1674.71 25.2371C1674.71 25.2371 1519.28 477.24 1095.21 662.632" stroke="url(#paint9_linear_9_4531)" stroke-width="0.25" stroke-miterlimit="10"/>
<path style="mix-blend-mode:color-dodge" d="M1690.83 44.963C1690.83 44.963 1536.59 489.706 1095.21 662.632" stroke="url(#paint10_linear_9_4531)" stroke-width="0.25" stroke-miterlimit="10"/>
<path style="mix-blend-mode:color-dodge" d="M1706.94 64.6905C1706.94 64.6905 1553.9 502.173 1095.21 662.632" stroke="url(#paint11_linear_9_4531)" stroke-width="0.25" stroke-miterlimit="10"/>
<path style="mix-blend-mode:color-dodge" d="M1723.06 84.4183C1723.06 84.4183 1571.21 514.648 1095.21 662.632" stroke="url(#paint12_linear_9_4531)" stroke-width="0.25" stroke-miterlimit="10"/>
<path style="mix-blend-mode:color-dodge" d="M1739.18 104.144C1739.18 104.144 1588.53 527.112 1095.21 662.632" stroke="url(#paint13_linear_9_4531)" stroke-width="0.25" stroke-miterlimit="10"/>
<path style="mix-blend-mode:color-dodge" d="M1755.29 123.872C1755.29 123.872 1605.84 539.578 1095.21 662.632" stroke="url(#paint14_linear_9_4531)" stroke-width="0.25" stroke-miterlimit="10"/>
<path style="mix-blend-mode:color-dodge" d="M1771.4 143.599C1771.4 143.599 1623.14 552.045 1095.21 662.632" stroke="url(#paint15_linear_9_4531)" stroke-width="0.25" stroke-miterlimit="10"/>
<path style="mix-blend-mode:color-dodge" d="M1787.52 163.327C1787.52 163.327 1640.45 564.52 1095.21 662.632" stroke="url(#paint16_linear_9_4531)" stroke-width="0.25" stroke-miterlimit="10"/>
</g>
<g style="mix-blend-mode:color-dodge" opacity="0.3">
<path d="M813.226 713.604C813.226 713.604 390.777 538.24 162.575 996.157" stroke="url(#paint17_linear_9_4531)" stroke-width="0.25" stroke-miterlimit="10"/>
<path d="M813.226 713.604C813.226 713.604 710.61 677.084 578.707 697.891C449.006 718.234 288.927 793.453 171.287 1006.84" stroke="url(#paint18_linear_9_4531)" stroke-width="0.25" stroke-miterlimit="10"/>
<path d="M813.226 713.604C813.226 713.604 715.325 685.114 587.201 712.272C461.306 738.733 302.105 817.851 180.015 1017.5" stroke="url(#paint19_linear_9_4531)" stroke-width="0.25" stroke-miterlimit="10"/>
<path d="M813.226 713.604C813.226 713.604 720.041 693.144 595.69 726.664C473.594 759.255 315.275 842.251 188.73 1028.19" stroke="url(#paint20_linear_9_4531)" stroke-width="0.25" stroke-miterlimit="10"/>
<path d="M813.226 713.604C813.226 713.604 724.748 701.177 604.185 741.046C485.894 779.754 328.451 866.641 197.457 1038.86" stroke="url(#paint21_linear_9_4531)" stroke-width="0.25" stroke-miterlimit="10"/>
<path d="M813.226 713.604C813.226 713.604 729.464 709.207 612.682 755.436C498.188 800.264 341.63 891.039 206.178 1049.54" stroke="url(#paint22_linear_9_4531)" stroke-width="0.25" stroke-miterlimit="10"/>
<path d="M813.226 713.604C813.226 713.604 734.284 717.465 621.168 769.819C510.584 820.994 354.799 915.439 214.888 1060.21" stroke="url(#paint23_linear_9_4531)" stroke-width="0.25" stroke-miterlimit="10"/>
<path d="M813.226 713.604C813.226 713.604 739.02 725.5 629.665 784.209C522.909 841.516 367.987 939.835 223.618 1070.89" stroke="url(#paint24_linear_9_4531)" stroke-width="0.25" stroke-miterlimit="10"/>
<path d="M813.226 713.604C813.226 713.604 743.745 733.528 638.159 798.59C535.218 862.013 381.163 964.224 232.34 1081.56" stroke="url(#paint25_linear_9_4531)" stroke-width="0.25" stroke-miterlimit="10"/>
<path d="M813.226 713.604C813.226 713.604 748.468 741.547 646.648 812.982C547.521 882.521 394.333 988.625 241.052 1092.24" stroke="url(#paint26_linear_9_4531)" stroke-width="0.25" stroke-miterlimit="10"/>
<path d="M813.226 713.604C813.226 713.604 753.188 749.557 655.143 827.364C559.826 903 407.509 1013.01 249.78 1102.91" stroke="url(#paint27_linear_9_4531)" stroke-width="0.25" stroke-miterlimit="10"/>
<path d="M813.226 713.604C813.226 713.604 757.742 757.392 663.639 841.753C571.969 923.322 420.689 1037.42 258.501 1113.59" stroke="url(#paint28_linear_9_4531)" stroke-width="0.25" stroke-miterlimit="10"/>
<path d="M813.226 713.604C813.226 713.604 762.458 765.423 672.125 856.137C584.263 943.833 433.856 1061.81 267.22 1124.26" stroke="url(#paint29_linear_9_4531)" stroke-width="0.25" stroke-miterlimit="10"/>
<path d="M813.226 713.604C813.226 713.604 767.174 773.452 680.623 870.527C596.557 964.343 447.035 1086.21 275.943 1134.95" stroke="url(#paint30_linear_9_4531)" stroke-width="0.25" stroke-miterlimit="10"/>
<path d="M813.226 713.604C813.226 713.604 771.88 781.485 689.117 884.908C608.858 984.842 460.211 1110.6 284.662 1145.62" stroke="url(#paint31_linear_9_4531)" stroke-width="0.25" stroke-miterlimit="10"/>
<path d="M813.226 713.604C813.226 713.604 776.597 789.515 697.606 899.3C621.154 1005.36 473.383 1135.01 293.383 1156.29" stroke="url(#paint32_linear_9_4531)" stroke-width="0.25" stroke-miterlimit="10"/>
<path d="M813.226 713.604C813.226 713.604 781.312 797.546 706.1 913.681C633.446 1025.86 486.568 1159.4 302.102 1166.96" stroke="url(#paint33_linear_9_4531)" stroke-width="0.25" stroke-miterlimit="10"/>
</g>
<g style="mix-blend-mode:color-dodge" opacity="0.8">
<path d="M1646.97 -8.72282C1646.97 -8.72282 1408.81 35.9213 1197.82 515.997C1085.07 772.543 900.199 738.213 807.39 814.421C667.574 929.223 707.451 1134.82 316.059 1184.05" stroke="url(#paint34_linear_9_4531)" stroke-width="0.5" stroke-miterlimit="10"/>
<path d="M1660.02 7.25531C1660.02 7.25531 1392.39 36.7355 1181.46 510.208C1062.64 774.121 903.275 753.916 805.569 832.816C663.796 947.899 685.456 1140.93 318.541 1187.09" stroke="url(#paint35_linear_9_4531)" stroke-width="0.5" stroke-miterlimit="10"/>
<path d="M1673.08 23.2227C1673.08 23.2227 1377.68 38.3119 1165.11 504.41C1041.19 776.143 906.159 769.376 803.752 851.191C659.771 966.221 663.475 1147.02 321.016 1190.1" stroke="url(#paint36_linear_9_4531)" stroke-width="0.5" stroke-miterlimit="10"/>
<path d="M1686.12 39.201C1686.12 39.201 1361.84 39.4061 1148.75 498.623C1019.16 777.914 909.159 784.996 801.931 869.586C655.91 984.785 641.49 1153.14 323.488 1193.14" stroke="url(#paint37_linear_9_4531)" stroke-width="0.5" stroke-miterlimit="10"/>
<path d="M1699.17 55.1794C1699.17 55.1794 1345.86 40.4493 1132.4 492.834C997.062 779.663 912.178 800.62 800.119 887.978C652.091 1003.37 619.513 1159.25 325.979 1196.18" stroke="url(#paint38_linear_9_4531)" stroke-width="0.5" stroke-miterlimit="10"/>
<path d="M1712.23 71.1556C1712.23 71.1556 1329.75 41.4238 1116.05 487.046C974.906 781.39 915.213 816.268 798.298 906.373C648.281 1021.99 597.53 1165.37 328.452 1199.21" stroke="url(#paint39_linear_9_4531)" stroke-width="0.5" stroke-miterlimit="10"/>
<path d="M1725.28 87.134C1725.28 87.134 1313.51 42.3449 1099.69 481.259C952.666 783.081 918.252 831.934 796.475 924.759C644.484 1040.62 575.533 1171.48 330.922 1202.25" stroke="url(#paint40_linear_9_4531)" stroke-width="0.5" stroke-miterlimit="10"/>
<path d="M1738.33 103.112C1738.33 103.112 1297.15 43.2194 1083.34 475.472C930.362 784.741 921.304 847.616 794.654 943.154C640.711 1059.27 553.548 1177.59 333.395 1205.28" stroke="url(#paint41_linear_9_4531)" stroke-width="0.5" stroke-miterlimit="10"/>
<path d="M1751.39 119.089C1751.39 119.089 1280.69 44.0339 1066.99 469.681C908.003 786.368 924.39 863.317 792.85 961.545C636.963 1077.95 531.58 1183.7 335.892 1208.31" stroke="url(#paint42_linear_9_4531)" stroke-width="0.5" stroke-miterlimit="10"/>
<path d="M1764.43 135.067C1764.43 135.067 1264.13 44.7994 1050.64 463.894C885.547 787.952 927.468 879.03 791.02 979.942C633.212 1096.66 509.586 1189.81 338.356 1211.35" stroke="url(#paint43_linear_9_4531)" stroke-width="0.5" stroke-miterlimit="10"/>
<path d="M1777.49 151.043C1777.49 151.043 1247.49 45.5273 1034.29 458.105C863.035 789.495 930.561 894.758 789.206 998.325C629.48 1115.36 487.607 1195.91 340.836 1214.38" stroke="url(#paint44_linear_9_4531)" stroke-width="0.5" stroke-miterlimit="10"/>
<path d="M1790.54 167.021C1790.54 167.021 1230.77 46.2018 1017.94 452.316C840.438 791.001 933.675 910.499 787.394 1016.72C625.762 1134.09 465.63 1202.02 343.317 1217.42" stroke="url(#paint45_linear_9_4531)" stroke-width="0.5" stroke-miterlimit="10"/>
<path d="M1803.59 183C1803.59 183 1213.96 46.8388 1001.58 446.529C817.755 792.464 936.785 926.261 785.572 1035.11C622.049 1152.83 443.638 1208.15 345.798 1220.45" stroke="url(#paint46_linear_9_4531)" stroke-width="0.5" stroke-miterlimit="10"/>
<path d="M1816.64 198.976C1816.64 198.976 1197.1 47.4335 985.227 440.74C794.992 793.871 940.126 942.341 783.751 1053.51C618.563 1171.91 421.653 1214.26 348.271 1223.49" stroke="url(#paint47_linear_9_4531)" stroke-width="0.5" stroke-miterlimit="10"/>
<path d="M1829.69 214.954C1829.69 214.954 1180.18 47.9793 968.877 434.951C772.151 795.231 943.202 958.045 781.937 1071.89C614.799 1190.57 399.674 1220.36 350.749 1226.51" stroke="url(#paint48_linear_9_4531)" stroke-width="0.5" stroke-miterlimit="10"/>
<path d="M1842.74 230.933C1842.74 230.933 1162.57 48.1478 952.517 429.164C748.61 796.201 946.268 973.742 780.116 1090.29C611.031 1209.24 377.688 1226.48 353.23 1229.55" stroke="url(#paint49_linear_9_4531)" stroke-width="0.5" stroke-miterlimit="10"/>
<path d="M1855.8 246.909C1855.8 246.909 1146.16 48.9689 936.165 423.366C726.18 797.77 949.334 989.439 778.302 1108.67C607.26 1227.9 355.71 1232.58 355.71 1232.58" stroke="url(#paint50_linear_9_4531)" stroke-width="0.5" stroke-miterlimit="10"/>
</g>
<g style="mix-blend-mode:color-dodge" opacity="0.8">
<path d="M1649.74 -5.33296C1649.74 -5.33296 1411.58 39.3112 1200.58 519.387C1087.83 775.933 902.966 741.603 810.157 817.811C670.341 932.613 710.218 1138.21 318.826 1187.44" stroke="url(#paint51_linear_9_4531)" stroke-width="0.25" stroke-miterlimit="10"/>
<path d="M1662.79 10.6454C1662.79 10.6454 1395.16 40.1257 1184.23 513.598C1065.4 777.511 906.043 757.307 808.336 836.206C666.564 951.289 688.224 1144.32 321.308 1190.48" stroke="url(#paint52_linear_9_4531)" stroke-width="0.25" stroke-miterlimit="10"/>
<path d="M1675.85 26.6216C1675.85 26.6216 1380.45 41.7108 1167.88 507.809C1043.96 779.542 908.929 772.775 806.522 854.59C662.541 969.62 666.245 1150.42 323.785 1193.5" stroke="url(#paint53_linear_9_4531)" stroke-width="0.25" stroke-miterlimit="10"/>
<path d="M1688.89 42.5999C1688.89 42.5999 1364.61 42.805 1151.52 502.022C1021.92 781.313 911.928 788.394 804.701 872.985C658.68 988.184 644.259 1156.54 326.258 1196.54" stroke="url(#paint54_linear_9_4531)" stroke-width="0.25" stroke-miterlimit="10"/>
<path d="M1701.95 58.5761C1701.95 58.5761 1348.64 43.8461 1135.18 496.231C999.84 783.06 914.956 804.016 802.897 891.375C654.869 1006.76 622.292 1162.64 328.757 1199.57" stroke="url(#paint55_linear_9_4531)" stroke-width="0.25" stroke-miterlimit="10"/>
<path d="M1715 74.5455C1715 74.5455 1332.52 44.8137 1118.82 490.435C977.674 784.779 917.98 819.658 801.065 909.763C651.048 1025.38 600.297 1168.76 331.219 1202.6" stroke="url(#paint56_linear_9_4531)" stroke-width="0.25" stroke-miterlimit="10"/>
<path d="M1728.05 90.5239C1728.05 90.5239 1316.27 45.7347 1102.46 484.649C955.434 786.471 921.019 835.324 799.242 928.149C647.251 1044.01 578.301 1174.87 333.69 1205.64" stroke="url(#paint57_linear_9_4531)" stroke-width="0.25" stroke-miterlimit="10"/>
<path d="M1741.1 106.5C1741.1 106.5 1299.93 46.6071 1086.11 478.86C933.138 788.129 924.08 851.003 797.43 946.542C643.487 1062.66 556.324 1180.98 336.171 1208.67" stroke="url(#paint58_linear_9_4531)" stroke-width="0.25" stroke-miterlimit="10"/>
<path d="M1754.15 122.478C1754.15 122.478 1283.46 47.4237 1069.76 473.071C910.77 789.758 927.157 866.707 795.618 964.935C639.73 1081.34 534.348 1187.09 338.66 1211.7" stroke="url(#paint59_linear_9_4531)" stroke-width="0.25" stroke-miterlimit="10"/>
<path d="M1767.2 138.457C1767.2 138.457 1266.9 48.1893 1053.4 467.284C888.315 791.342 930.236 882.42 793.788 983.332C635.98 1100.05 512.353 1193.2 341.123 1214.74" stroke="url(#paint60_linear_9_4531)" stroke-width="0.25" stroke-miterlimit="10"/>
<path d="M1780.26 154.433C1780.26 154.433 1250.26 48.9172 1037.05 461.495C865.802 792.885 933.328 898.148 791.973 1001.72C632.247 1118.75 490.374 1199.3 343.603 1217.77" stroke="url(#paint61_linear_9_4531)" stroke-width="0.25" stroke-miterlimit="10"/>
<path d="M1793.31 170.411C1793.31 170.411 1233.53 49.5916 1020.7 455.706C843.205 794.391 936.442 913.889 790.161 1020.11C628.53 1137.48 468.398 1205.41 346.084 1220.81" stroke="url(#paint62_linear_9_4531)" stroke-width="0.25" stroke-miterlimit="10"/>
<path d="M1806.36 186.39C1806.36 186.39 1216.73 50.2287 1004.34 449.919C820.522 795.854 939.553 929.651 788.34 1038.5C624.817 1156.22 446.406 1211.54 348.566 1223.84" stroke="url(#paint63_linear_9_4531)" stroke-width="0.25" stroke-miterlimit="10"/>
<path d="M1819.41 202.366C1819.41 202.366 1199.87 50.8234 987.994 444.13C797.759 797.261 942.893 945.731 786.519 1056.9C621.33 1175.3 424.42 1217.65 351.039 1226.88" stroke="url(#paint64_linear_9_4531)" stroke-width="0.25" stroke-miterlimit="10"/>
<path d="M1832.46 218.344C1832.46 218.344 1182.94 51.3692 971.644 438.341C774.919 798.621 945.97 961.435 784.704 1075.28C617.566 1193.96 402.441 1223.75 353.516 1229.9" stroke="url(#paint65_linear_9_4531)" stroke-width="0.25" stroke-miterlimit="10"/>
<path d="M1845.52 234.32C1845.52 234.32 1165.35 51.5355 955.294 432.552C751.386 799.589 949.044 977.13 782.892 1093.67C613.807 1212.63 380.465 1229.86 356.006 1232.94" stroke="url(#paint66_linear_9_4531)" stroke-width="0.25" stroke-miterlimit="10"/>
<path d="M1858.57 250.299C1858.57 250.299 1148.93 52.3588 938.933 426.756C728.947 801.16 952.101 992.829 781.069 1112.06C610.028 1231.29 358.477 1235.97 358.477 1235.97" stroke="url(#paint67_linear_9_4531)" stroke-width="0.25" stroke-miterlimit="10"/>
</g>
<path style="mix-blend-mode:color-dodge" d="M1602.8 -62.7835C1602.8 -62.7835 1632.23 340.399 1381.84 553.13C1134.57 763.217 436.277 594.051 260.342 1115.84" stroke="url(#paint68_linear_9_4531)" stroke-miterlimit="10"/>
<path style="mix-blend-mode:color-dodge" d="M1879.15 275.498C1879.15 275.498 1310.83 54.8274 1023.73 268.637C715.213 498.385 871.251 879.628 746.48 1067.93C605.642 1280.48 429.505 1322.93 429.505 1322.93" stroke="url(#paint69_linear_9_4531)" stroke-miterlimit="10"/>
<path style="mix-blend-mode:color-dodge" d="M1574.2 -97.8175C1574.2 -97.8175 1402.31 -52.6902 1287.92 91.9839C1183.38 224.204 1113.23 710.097 1014.2 868.853C902.744 1047.55 619.605 1203.49 192.071 1032.26" stroke="url(#paint70_linear_9_4531)" stroke-miterlimit="10"/>
<path style="mix-blend-mode:color-dodge" d="M1792.36 169.253C1792.36 169.253 1702.94 377.42 1483.44 501.922C1295.18 608.704 889.173 539.533 696.414 697.434C511.043 849.29 454.337 1025.97 467.152 1369.01" stroke="url(#paint71_linear_9_4531)" stroke-miterlimit="10"/>
<path style="mix-blend-mode:color-dodge" d="M229.153 1077.67C229.153 1077.67 350.534 552.419 963.704 458.987C1443.42 385.89 1555.84 384.839 1683.01 35.3805" stroke="url(#paint72_linear_9_4531)" stroke-miterlimit="10"/>
<path style="mix-blend-mode:color-dodge" d="M234.034 1083.64C234.034 1083.64 355.415 558.392 968.576 464.962C1448.29 391.865 1560.71 390.814 1687.88 41.3554" stroke="url(#paint73_linear_9_4531)" stroke-width="0.25" stroke-miterlimit="10"/>
<path style="mix-blend-mode:screen" d="M1242.11 587.213C1253.45 581.471 1257.98 567.625 1252.24 556.286C1246.5 544.948 1232.65 540.412 1221.31 546.154C1209.98 551.896 1205.44 565.743 1211.18 577.081C1216.92 588.419 1230.77 592.956 1242.11 587.213Z" fill="url(#paint74_radial_9_4531)"/>
<path style="mix-blend-mode:screen" d="M1197 361.625C1208.39 355.978 1213.04 342.17 1207.39 330.784C1201.75 319.398 1187.94 314.745 1176.55 320.392C1165.17 326.04 1160.51 339.848 1166.16 351.233C1171.81 362.619 1185.62 367.272 1197 361.625Z" fill="url(#paint75_radial_9_4531)"/>
<path style="mix-blend-mode:screen" d="M785.653 743.742C797.074 738.167 801.813 724.388 796.238 712.967C790.663 701.546 776.884 696.807 765.463 702.382C754.042 707.958 749.303 721.736 754.878 733.157C760.454 744.579 774.232 749.318 785.653 743.742Z" fill="url(#paint76_radial_9_4531)"/>
<path style="mix-blend-mode:screen" d="M787.884 742.697C799.305 737.122 804.044 723.344 798.469 711.922C792.893 700.501 779.115 695.762 767.694 701.338C756.272 706.913 751.533 720.692 757.109 732.113C762.684 743.534 776.463 748.273 787.884 742.697Z" fill="url(#paint77_radial_9_4531)"/>
<path style="mix-blend-mode:screen" d="M924.749 405.249C936.17 399.674 940.909 385.895 935.334 374.474C929.758 363.053 915.98 358.314 904.559 363.889C893.138 369.465 888.399 383.243 893.974 394.665C899.55 406.086 913.328 410.825 924.749 405.249Z" fill="url(#paint78_radial_9_4531)"/>
<path style="mix-blend-mode:screen" d="M1494.98 455.418C1506.4 449.843 1511.14 436.065 1505.57 424.643C1499.99 413.222 1486.21 408.483 1474.79 414.059C1463.37 419.634 1458.63 433.413 1464.21 444.834C1469.78 456.255 1483.56 460.994 1494.98 455.418Z" fill="url(#paint79_radial_9_4531)"/>
<path style="mix-blend-mode:screen" d="M922.009 404.87C933.381 399.195 938 385.376 932.325 374.004C926.65 362.632 912.831 358.013 901.459 363.688C890.087 369.363 885.468 383.183 891.143 394.555C896.818 405.927 910.637 410.545 922.009 404.87Z" fill="url(#paint80_radial_9_4531)"/>
<path style="mix-blend-mode:screen" d="M1493 458.028C1504.37 452.345 1508.97 438.522 1503.29 427.154C1497.61 415.786 1483.79 411.177 1472.42 416.86C1461.05 422.543 1456.44 436.365 1462.12 447.733C1467.81 459.102 1481.63 463.71 1493 458.028Z" fill="url(#paint81_radial_9_4531)"/>
<defs>
<linearGradient id="paint0_linear_9_4531" x1="1641.99" y1="-15.35" x2="982.121" y2="523.789" gradientUnits="userSpaceOnUse">
<stop stop-color="#87888A"/>
<stop offset="0.5" stop-color="#E5E5E5"/>
<stop offset="1" stop-color="#7D7E80"/>
</linearGradient>
<linearGradient id="paint1_linear_9_4531" x1="1650.05" y1="-5.48738" x2="990.186" y2="533.646" gradientUnits="userSpaceOnUse">
<stop stop-color="#87888A"/>
<stop offset="0.5" stop-color="#E5E5E5"/>
<stop offset="1" stop-color="#7D7E80"/>
</linearGradient>
<linearGradient id="paint2_linear_9_4531" x1="1658.11" y1="4.37501" x2="998.251" y2="543.503" gradientUnits="userSpaceOnUse">
<stop stop-color="#87888A"/>
<stop offset="0.5" stop-color="#E5E5E5"/>
<stop offset="1" stop-color="#7D7E80"/>
</linearGradient>
<linearGradient id="paint3_linear_9_4531" x1="1666.17" y1="14.2376" x2="1006.31" y2="553.365" gradientUnits="userSpaceOnUse">
<stop stop-color="#87888A"/>
<stop offset="0.5" stop-color="#E5E5E5"/>
<stop offset="1" stop-color="#7D7E80"/>
</linearGradient>
<linearGradient id="paint4_linear_9_4531" x1="1674.61" y1="24.5678" x2="1014.75" y2="563.695" gradientUnits="userSpaceOnUse">
<stop stop-color="#87888A"/>
<stop offset="0.5" stop-color="#E5E5E5"/>
<stop offset="1" stop-color="#7D7E80"/>
</linearGradient>
<linearGradient id="paint5_linear_9_4531" x1="1683.7" y1="35.6977" x2="1023.84" y2="574.831" gradientUnits="userSpaceOnUse">
<stop stop-color="#87888A"/>
<stop offset="0.5" stop-color="#E5E5E5"/>
<stop offset="1" stop-color="#7D7E80"/>
</linearGradient>
<linearGradient id="paint6_linear_9_4531" x1="1693.39" y1="47.5496" x2="1033.52" y2="586.683" gradientUnits="userSpaceOnUse">
<stop stop-color="#87888A"/>
<stop offset="0.5" stop-color="#E5E5E5"/>
<stop offset="1" stop-color="#7D7E80"/>
</linearGradient>
<linearGradient id="paint7_linear_9_4531" x1="1703.61" y1="60.0601" x2="1043.73" y2="599.199" gradientUnits="userSpaceOnUse">
<stop stop-color="#87888A"/>
<stop offset="0.5" stop-color="#E5E5E5"/>
<stop offset="1" stop-color="#7D7E80"/>
</linearGradient>
<linearGradient id="paint8_linear_9_4531" x1="1714.33" y1="73.1796" x2="1054.45" y2="612.325" gradientUnits="userSpaceOnUse">
<stop stop-color="#87888A"/>
<stop offset="0.5" stop-color="#E5E5E5"/>
<stop offset="1" stop-color="#7D7E80"/>
</linearGradient>
<linearGradient id="paint9_linear_9_4531" x1="1725.49" y1="86.8442" x2="1065.61" y2="625.989" gradientUnits="userSpaceOnUse">
<stop stop-color="#87888A"/>
<stop offset="0.5" stop-color="#E5E5E5"/>
<stop offset="1" stop-color="#7D7E80"/>
</linearGradient>
<linearGradient id="paint10_linear_9_4531" x1="1737.07" y1="101.019" x2="1077.19" y2="640.164" gradientUnits="userSpaceOnUse">
<stop stop-color="#87888A"/>
<stop offset="0.5" stop-color="#E5E5E5"/>
<stop offset="1" stop-color="#7D7E80"/>
</linearGradient>
<linearGradient id="paint11_linear_9_4531" x1="1749.03" y1="115.653" x2="1089.14" y2="654.804" gradientUnits="userSpaceOnUse">
<stop stop-color="#87888A"/>
<stop offset="0.5" stop-color="#E5E5E5"/>
<stop offset="1" stop-color="#7D7E80"/>
</linearGradient>
<linearGradient id="paint12_linear_9_4531" x1="1761.33" y1="130.713" x2="1101.45" y2="669.863" gradientUnits="userSpaceOnUse">
<stop stop-color="#87888A"/>
<stop offset="0.5" stop-color="#E5E5E5"/>
<stop offset="1" stop-color="#7D7E80"/>
</linearGradient>
<linearGradient id="paint13_linear_9_4531" x1="1773.95" y1="146.154" x2="1114.05" y2="685.311" gradientUnits="userSpaceOnUse">
<stop stop-color="#87888A"/>
<stop offset="0.5" stop-color="#E5E5E5"/>
<stop offset="1" stop-color="#7D7E80"/>
</linearGradient>
<linearGradient id="paint14_linear_9_4531" x1="1786.75" y1="161.816" x2="1126.85" y2="700.972" gradientUnits="userSpaceOnUse">
<stop stop-color="#87888A"/>
<stop offset="0.5" stop-color="#E5E5E5"/>
<stop offset="1" stop-color="#7D7E80"/>
</linearGradient>
<linearGradient id="paint15_linear_9_4531" x1="1791.87" y1="168.088" x2="1131.98" y2="707.245" gradientUnits="userSpaceOnUse">
<stop stop-color="#87888A"/>
<stop offset="0.5" stop-color="#E5E5E5"/>
<stop offset="1" stop-color="#7D7E80"/>
</linearGradient>
<linearGradient id="paint16_linear_9_4531" x1="1797.23" y1="174.652" x2="1137.33" y2="713.814" gradientUnits="userSpaceOnUse">
<stop stop-color="#87888A"/>
<stop offset="0.5" stop-color="#E5E5E5"/>
<stop offset="1" stop-color="#7D7E80"/>
</linearGradient>
<linearGradient id="paint17_linear_9_4531" x1="732.704" y1="614.442" x2="203.947" y2="1046.45" gradientUnits="userSpaceOnUse">
<stop stop-color="#87888A"/>
<stop offset="0.5" stop-color="#E5E5E5"/>
<stop offset="1" stop-color="#7D7E80"/>
</linearGradient>
<linearGradient id="paint18_linear_9_4531" x1="739.876" y1="623.234" x2="211.126" y2="1055.24" gradientUnits="userSpaceOnUse">
<stop stop-color="#87888A"/>
<stop offset="0.5" stop-color="#E5E5E5"/>
<stop offset="1" stop-color="#7D7E80"/>
</linearGradient>
<linearGradient id="paint19_linear_9_4531" x1="747.031" y1="631.992" x2="218.289" y2="1063.99" gradientUnits="userSpaceOnUse">
<stop stop-color="#87888A"/>
<stop offset="0.5" stop-color="#E5E5E5"/>
<stop offset="1" stop-color="#7D7E80"/>
</linearGradient>
<linearGradient id="paint20_linear_9_4531" x1="754.157" y1="640.728" x2="225.429" y2="1072.72" gradientUnits="userSpaceOnUse">
<stop stop-color="#87888A"/>
<stop offset="0.5" stop-color="#E5E5E5"/>
<stop offset="1" stop-color="#7D7E80"/>
</linearGradient>
<linearGradient id="paint21_linear_9_4531" x1="761.249" y1="649.409" x2="232.52" y2="1081.4" gradientUnits="userSpaceOnUse">
<stop stop-color="#87888A"/>
<stop offset="0.5" stop-color="#E5E5E5"/>
<stop offset="1" stop-color="#7D7E80"/>
</linearGradient>
<linearGradient id="paint22_linear_9_4531" x1="768.259" y1="658.002" x2="239.544" y2="1089.98" gradientUnits="userSpaceOnUse">
<stop stop-color="#87888A"/>
<stop offset="0.5" stop-color="#E5E5E5"/>
<stop offset="1" stop-color="#7D7E80"/>
</linearGradient>
<linearGradient id="paint23_linear_9_4531" x1="775.135" y1="666.433" x2="246.435" y2="1098.4" gradientUnits="userSpaceOnUse">
<stop stop-color="#87888A"/>
<stop offset="0.5" stop-color="#E5E5E5"/>
<stop offset="1" stop-color="#7D7E80"/>
</linearGradient>
<linearGradient id="paint24_linear_9_4531" x1="781.613" y1="674.376" x2="252.92" y2="1106.34" gradientUnits="userSpaceOnUse">
<stop stop-color="#87888A"/>
<stop offset="0.5" stop-color="#E5E5E5"/>
<stop offset="1" stop-color="#7D7E80"/>
</linearGradient>
<linearGradient id="paint25_linear_9_4531" x1="786.777" y1="680.711" x2="258.098" y2="1112.66" gradientUnits="userSpaceOnUse">
<stop stop-color="#87888A"/>
<stop offset="0.5" stop-color="#E5E5E5"/>
<stop offset="1" stop-color="#7D7E80"/>
</linearGradient>
<linearGradient id="paint26_linear_9_4531" x1="791.125" y1="686.061" x2="262.453" y2="1118" gradientUnits="userSpaceOnUse">
<stop stop-color="#87888A"/>
<stop offset="0.5" stop-color="#E5E5E5"/>
<stop offset="1" stop-color="#7D7E80"/>
</linearGradient>
<linearGradient id="paint27_linear_9_4531" x1="795.472" y1="691.411" x2="266.808" y2="1123.35" gradientUnits="userSpaceOnUse">
<stop stop-color="#87888A"/>
<stop offset="0.5" stop-color="#E5E5E5"/>
<stop offset="1" stop-color="#7D7E80"/>
</linearGradient>
<linearGradient id="paint28_linear_9_4531" x1="801.742" y1="699.099" x2="273.077" y2="1131.04" gradientUnits="userSpaceOnUse">
<stop stop-color="#87888A"/>
<stop offset="0.5" stop-color="#E5E5E5"/>
<stop offset="1" stop-color="#7D7E80"/>
</linearGradient>
<linearGradient id="paint29_linear_9_4531" x1="812.699" y1="712.496" x2="284.02" y2="1144.44" gradientUnits="userSpaceOnUse">
<stop stop-color="#87888A"/>
<stop offset="0.5" stop-color="#E5E5E5"/>
<stop offset="1" stop-color="#7D7E80"/>
</linearGradient>
<linearGradient id="paint30_linear_9_4531" x1="823.976" y1="726.269" x2="295.276" y2="1158.24" gradientUnits="userSpaceOnUse">
<stop stop-color="#87888A"/>
<stop offset="0.5" stop-color="#E5E5E5"/>
<stop offset="1" stop-color="#7D7E80"/>
</linearGradient>
<linearGradient id="paint31_linear_9_4531" x1="835.315" y1="740.133" x2="306.601" y2="1172.11" gradientUnits="userSpaceOnUse">
<stop stop-color="#87888A"/>
<stop offset="0.5" stop-color="#E5E5E5"/>
<stop offset="1" stop-color="#7D7E80"/>
</linearGradient>
<linearGradient id="paint32_linear_9_4531" x1="842.421" y1="748.815" x2="313.692" y2="1180.8" gradientUnits="userSpaceOnUse">
<stop stop-color="#87888A"/>
<stop offset="0.5" stop-color="#E5E5E5"/>
<stop offset="1" stop-color="#7D7E80"/>
</linearGradient>
<linearGradient id="paint33_linear_9_4531" x1="849.566" y1="757.546" x2="320.83" y2="1189.54" gradientUnits="userSpaceOnUse">
<stop stop-color="#87888A"/>
<stop offset="0.5" stop-color="#E5E5E5"/>
<stop offset="1" stop-color="#7D7E80"/>
</linearGradient>
<linearGradient id="paint34_linear_9_4531" x1="1695.19" y1="49.6803" x2="312.475" y2="1179.4" gradientUnits="userSpaceOnUse">
<stop stop-color="#87888A"/>
<stop offset="0.5" stop-color="#E5E5E5"/>
<stop offset="1" stop-color="#7D7E80"/>
</linearGradient>
<linearGradient id="paint35_linear_9_4531" x1="1696.53" y1="51.2969" x2="313.805" y2="1181.03" gradientUnits="userSpaceOnUse">
<stop stop-color="#87888A"/>
<stop offset="0.5" stop-color="#E5E5E5"/>
<stop offset="1" stop-color="#7D7E80"/>
</linearGradient>
<linearGradient id="paint36_linear_9_4531" x1="1697.24" y1="52.155" x2="314.511" y2="1181.89" gradientUnits="userSpaceOnUse">
<stop stop-color="#87888A"/>
<stop offset="0.5" stop-color="#E5E5E5"/>
<stop offset="1" stop-color="#7D7E80"/>
</linearGradient>
<linearGradient id="paint37_linear_9_4531" x1="1697.22" y1="52.1067" x2="314.477" y2="1181.85" gradientUnits="userSpaceOnUse">
<stop stop-color="#87888A"/>
<stop offset="0.5" stop-color="#E5E5E5"/>
<stop offset="1" stop-color="#7D7E80"/>
</linearGradient>
<linearGradient id="paint38_linear_9_4531" x1="1696.72" y1="51.4921" x2="313.979" y2="1181.24" gradientUnits="userSpaceOnUse">
<stop stop-color="#87888A"/>
<stop offset="0.5" stop-color="#E5E5E5"/>
<stop offset="1" stop-color="#7D7E80"/>
</linearGradient>
<linearGradient id="paint39_linear_9_4531" x1="1695.95" y1="50.5235" x2="313.193" y2="1180.28" gradientUnits="userSpaceOnUse">
<stop stop-color="#87888A"/>
<stop offset="0.5" stop-color="#E5E5E5"/>
<stop offset="1" stop-color="#7D7E80"/>
</linearGradient>
<linearGradient id="paint40_linear_9_4531" x1="1695.11" y1="49.504" x2="312.36" y2="1179.26" gradientUnits="userSpaceOnUse">
<stop stop-color="#87888A"/>
<stop offset="0.5" stop-color="#E5E5E5"/>
<stop offset="1" stop-color="#7D7E80"/>
</linearGradient>
<linearGradient id="paint41_linear_9_4531" x1="1694.84" y1="49.1514" x2="312.076" y2="1178.91" gradientUnits="userSpaceOnUse">
<stop stop-color="#87888A"/>
<stop offset="0.5" stop-color="#E5E5E5"/>
<stop offset="1" stop-color="#7D7E80"/>
</linearGradient>
<linearGradient id="paint42_linear_9_4531" x1="1696.35" y1="51.0064" x2="313.592" y2="1180.77" gradientUnits="userSpaceOnUse">
<stop stop-color="#87888A"/>
<stop offset="0.5" stop-color="#E5E5E5"/>
<stop offset="1" stop-color="#7D7E80"/>
</linearGradient>
<linearGradient id="paint43_linear_9_4531" x1="1697.64" y1="52.578" x2="314.876" y2="1182.34" gradientUnits="userSpaceOnUse">
<stop stop-color="#87888A"/>
<stop offset="0.5" stop-color="#E5E5E5"/>
<stop offset="1" stop-color="#7D7E80"/>
</linearGradient>
<linearGradient id="paint44_linear_9_4531" x1="1698.71" y1="53.8821" x2="315.946" y2="1183.65" gradientUnits="userSpaceOnUse">
<stop stop-color="#87888A"/>
<stop offset="0.5" stop-color="#E5E5E5"/>
<stop offset="1" stop-color="#7D7E80"/>
</linearGradient>
<linearGradient id="paint45_linear_9_4531" x1="1699.61" y1="54.9794" x2="316.842" y2="1184.75" gradientUnits="userSpaceOnUse">
<stop stop-color="#87888A"/>
<stop offset="0.5" stop-color="#E5E5E5"/>
<stop offset="1" stop-color="#7D7E80"/>
</linearGradient>
<linearGradient id="paint46_linear_9_4531" x1="1700.35" y1="55.8859" x2="317.583" y2="1185.65" gradientUnits="userSpaceOnUse">
<stop stop-color="#87888A"/>
<stop offset="0.5" stop-color="#E5E5E5"/>
<stop offset="1" stop-color="#7D7E80"/>
</linearGradient>
<linearGradient id="paint47_linear_9_4531" x1="1700.96" y1="56.6362" x2="318.196" y2="1186.4" gradientUnits="userSpaceOnUse">
<stop stop-color="#87888A"/>
<stop offset="0.5" stop-color="#E5E5E5"/>
<stop offset="1" stop-color="#7D7E80"/>
</linearGradient>
<linearGradient id="paint48_linear_9_4531" x1="1701.46" y1="57.2252" x2="318.682" y2="1187" gradientUnits="userSpaceOnUse">
<stop stop-color="#87888A"/>
<stop offset="0.5" stop-color="#E5E5E5"/>
<stop offset="1" stop-color="#7D7E80"/>
</linearGradient>
<linearGradient id="paint49_linear_9_4531" x1="1703.68" y1="59.951" x2="320.909" y2="1189.72" gradientUnits="userSpaceOnUse">
<stop stop-color="#87888A"/>
<stop offset="0.5" stop-color="#E5E5E5"/>
<stop offset="1" stop-color="#7D7E80"/>
</linearGradient>
<linearGradient id="paint50_linear_9_4531" x1="1706.41" y1="63.2857" x2="323.62" y2="1193.07" gradientUnits="userSpaceOnUse">
<stop stop-color="#87888A"/>
<stop offset="0.5" stop-color="#E5E5E5"/>
<stop offset="1" stop-color="#7D7E80"/>
</linearGradient>
<linearGradient id="paint51_linear_9_4531" x1="1697.91" y1="53.1062" x2="315.289" y2="1182.76" gradientUnits="userSpaceOnUse">
<stop stop-color="#87888A"/>
<stop offset="0.5" stop-color="#E5E5E5"/>
<stop offset="1" stop-color="#7D7E80"/>
</linearGradient>
<linearGradient id="paint52_linear_9_4531" x1="1699.25" y1="54.7288" x2="316.619" y2="1184.39" gradientUnits="userSpaceOnUse">
<stop stop-color="#87888A"/>
<stop offset="0.5" stop-color="#E5E5E5"/>
<stop offset="1" stop-color="#7D7E80"/>
</linearGradient>
<linearGradient id="paint53_linear_9_4531" x1="1699.96" y1="55.5869" x2="317.325" y2="1185.25" gradientUnits="userSpaceOnUse">
<stop stop-color="#87888A"/>
<stop offset="0.5" stop-color="#E5E5E5"/>
<stop offset="1" stop-color="#7D7E80"/>
</linearGradient>
<linearGradient id="paint54_linear_9_4531" x1="1699.93" y1="55.5444" x2="317.29" y2="1185.21" gradientUnits="userSpaceOnUse">
<stop stop-color="#87888A"/>
<stop offset="0.5" stop-color="#E5E5E5"/>
<stop offset="1" stop-color="#7D7E80"/>
</linearGradient>
<linearGradient id="paint55_linear_9_4531" x1="1699.43" y1="54.9228" x2="316.787" y2="1184.59" gradientUnits="userSpaceOnUse">
<stop stop-color="#87888A"/>
<stop offset="0.5" stop-color="#E5E5E5"/>
<stop offset="1" stop-color="#7D7E80"/>
</linearGradient>
<linearGradient id="paint56_linear_9_4531" x1="1698.65" y1="53.9668" x2="316.006" y2="1183.64" gradientUnits="userSpaceOnUse">
<stop stop-color="#87888A"/>
<stop offset="0.5" stop-color="#E5E5E5"/>
<stop offset="1" stop-color="#7D7E80"/>
</linearGradient>
<linearGradient id="paint57_linear_9_4531" x1="1697.82" y1="52.9472" x2="315.173" y2="1182.62" gradientUnits="userSpaceOnUse">
<stop stop-color="#87888A"/>
<stop offset="0.5" stop-color="#E5E5E5"/>
<stop offset="1" stop-color="#7D7E80"/>
</linearGradient>
<linearGradient id="paint58_linear_9_4531" x1="1697.54" y1="52.5947" x2="314.889" y2="1182.27" gradientUnits="userSpaceOnUse">
<stop stop-color="#87888A"/>
<stop offset="0.5" stop-color="#E5E5E5"/>
<stop offset="1" stop-color="#7D7E80"/>
</linearGradient>
<linearGradient id="paint59_linear_9_4531" x1="1699.06" y1="54.4497" x2="316.405" y2="1184.13" gradientUnits="userSpaceOnUse">
<stop stop-color="#87888A"/>
<stop offset="0.5" stop-color="#E5E5E5"/>
<stop offset="1" stop-color="#7D7E80"/>
</linearGradient>
<linearGradient id="paint60_linear_9_4531" x1="1700.34" y1="56.0214" x2="317.689" y2="1185.7" gradientUnits="userSpaceOnUse">
<stop stop-color="#87888A"/>
<stop offset="0.5" stop-color="#E5E5E5"/>
<stop offset="1" stop-color="#7D7E80"/>
</linearGradient>
<linearGradient id="paint61_linear_9_4531" x1="1701.41" y1="57.3312" x2="318.759" y2="1187.01" gradientUnits="userSpaceOnUse">
<stop stop-color="#87888A"/>
<stop offset="0.5" stop-color="#E5E5E5"/>
<stop offset="1" stop-color="#7D7E80"/>
</linearGradient>
<linearGradient id="paint62_linear_9_4531" x1="1702.31" y1="58.4285" x2="319.656" y2="1188.1" gradientUnits="userSpaceOnUse">
<stop stop-color="#87888A"/>
<stop offset="0.5" stop-color="#E5E5E5"/>
<stop offset="1" stop-color="#7D7E80"/>
</linearGradient>
<linearGradient id="paint63_linear_9_4531" x1="1703.05" y1="59.335" x2="320.396" y2="1189.01" gradientUnits="userSpaceOnUse">
<stop stop-color="#87888A"/>
<stop offset="0.5" stop-color="#E5E5E5"/>
<stop offset="1" stop-color="#7D7E80"/>
</linearGradient>
<linearGradient id="paint64_linear_9_4531" x1="1703.66" y1="60.0854" x2="321.009" y2="1189.76" gradientUnits="userSpaceOnUse">
<stop stop-color="#87888A"/>
<stop offset="0.5" stop-color="#E5E5E5"/>
<stop offset="1" stop-color="#7D7E80"/>
</linearGradient>
<linearGradient id="paint65_linear_9_4531" x1="1704.14" y1="60.673" x2="321.49" y2="1190.35" gradientUnits="userSpaceOnUse">
<stop stop-color="#87888A"/>
<stop offset="0.5" stop-color="#E5E5E5"/>
<stop offset="1" stop-color="#7D7E80"/>
</linearGradient>
<linearGradient id="paint66_linear_9_4531" x1="1706.4" y1="63.4214" x2="323.74" y2="1193.1" gradientUnits="userSpaceOnUse">
<stop stop-color="#87888A"/>
<stop offset="0.5" stop-color="#E5E5E5"/>
<stop offset="1" stop-color="#7D7E80"/>
</linearGradient>
<linearGradient id="paint67_linear_9_4531" x1="1709.13" y1="66.756" x2="326.457" y2="1196.44" gradientUnits="userSpaceOnUse">
<stop stop-color="#87888A"/>
<stop offset="0.5" stop-color="#E5E5E5"/>
<stop offset="1" stop-color="#7D7E80"/>
</linearGradient>
<linearGradient id="paint68_linear_9_4531" x1="1703.06" y1="58.8936" x2="320.048" y2="1188.86" gradientUnits="userSpaceOnUse">
<stop stop-color="#87888A"/>
<stop offset="0.5" stop-color="#E5E5E5"/>
<stop offset="1" stop-color="#7D7E80"/>
</linearGradient>
<linearGradient id="paint69_linear_9_4531" x1="1705.92" y1="62.3597" x2="322.922" y2="1192.32" gradientUnits="userSpaceOnUse">
<stop stop-color="#87888A"/>
<stop offset="0.5" stop-color="#E5E5E5"/>
<stop offset="1" stop-color="#7D7E80"/>
</linearGradient>
<linearGradient id="paint70_linear_9_4531" x1="1691.8" y1="45.4083" x2="308.808" y2="1175.36" gradientUnits="userSpaceOnUse">
<stop stop-color="#87888A"/>
<stop offset="0.5" stop-color="#E5E5E5"/>
<stop offset="1" stop-color="#7D7E80"/>
</linearGradient>
<linearGradient id="paint71_linear_9_4531" x1="1730.83" y1="93.1451" x2="347.848" y2="1223.09" gradientUnits="userSpaceOnUse">
<stop stop-color="#87888A"/>
<stop offset="0.5" stop-color="#E5E5E5"/>
<stop offset="1" stop-color="#7D7E80"/>
</linearGradient>
<linearGradient id="paint72_linear_9_4531" x1="1633.73" y1="-25.7404" x2="250.8" y2="1104.16" gradientUnits="userSpaceOnUse">
<stop stop-color="#87888A"/>
<stop offset="0.5" stop-color="#E5E5E5"/>
<stop offset="1" stop-color="#7D7E80"/>
</linearGradient>
<linearGradient id="paint73_linear_9_4531" x1="1638.47" y1="-19.6616" x2="255.832" y2="1110" gradientUnits="userSpaceOnUse">
<stop stop-color="#87888A"/>
<stop offset="0.5" stop-color="#E5E5E5"/>
<stop offset="1" stop-color="#7D7E80"/>
</linearGradient>
<radialGradient id="paint74_radial_9_4531" cx="0" cy="0" r="1" gradientUnits="userSpaceOnUse" gradientTransform="translate(1231.68 566.764) rotate(-39.24) scale(23.0124 23.0124)">
<stop stop-color="#FFADFF"/>
<stop offset="0.08" stop-color="#CB89CB"/>
<stop offset="0.17" stop-color="#9B699B"/>
<stop offset="0.26" stop-color="#724D72"/>
<stop offset="0.36" stop-color="#4E354E"/>
<stop offset="0.46" stop-color="#322132"/>
<stop offset="0.56" stop-color="#1B121B"/>
<stop offset="0.68" stop-color="#0C080C"/>
<stop offset="0.81" stop-color="#020102"/>
<stop offset="1"/>
</radialGradient>
<radialGradient id="paint75_radial_9_4531" cx="0" cy="0" r="1" gradientUnits="userSpaceOnUse" gradientTransform="translate(1186.87 340.707) rotate(-39.25) scale(23.0124 23.0124)">
<stop stop-color="#FFADFF"/>
<stop offset="0.08" stop-color="#CB89CB"/>
<stop offset="0.17" stop-color="#9B699B"/>
<stop offset="0.26" stop-color="#724D72"/>
<stop offset="0.36" stop-color="#4E354E"/>
<stop offset="0.46" stop-color="#322132"/>
<stop offset="0.56" stop-color="#1B121B"/>
<stop offset="0.68" stop-color="#0C080C"/>
<stop offset="0.81" stop-color="#020102"/>
<stop offset="1"/>
</radialGradient>
<radialGradient id="paint76_radial_9_4531" cx="0" cy="0" r="1" gradientUnits="userSpaceOnUse" gradientTransform="translate(775.655 722.86) rotate(-39.25) scale(23.0124 23.0124)">
<stop stop-color="#FFADFF"/>
<stop offset="0.08" stop-color="#CB89CB"/>
<stop offset="0.17" stop-color="#9B699B"/>
<stop offset="0.26" stop-color="#724D72"/>
<stop offset="0.36" stop-color="#4E354E"/>
<stop offset="0.46" stop-color="#322132"/>
<stop offset="0.56" stop-color="#1B121B"/>
<stop offset="0.68" stop-color="#0C080C"/>
<stop offset="0.81" stop-color="#020102"/>
<stop offset="1"/>
</radialGradient>
<radialGradient id="paint77_radial_9_4531" cx="0" cy="0" r="1" gradientUnits="userSpaceOnUse" gradientTransform="translate(777.876 721.818) rotate(-39.25) scale(0.45714)">
<stop stop-color="#FFADFF"/>
<stop offset="0.08" stop-color="#CB89CB"/>
<stop offset="0.17" stop-color="#9B699B"/>
<stop offset="0.26" stop-color="#724D72"/>
<stop offset="0.36" stop-color="#4E354E"/>
<stop offset="0.46" stop-color="#322132"/>
<stop offset="0.56" stop-color="#1B121B"/>
<stop offset="0.68" stop-color="#0C080C"/>
<stop offset="0.81" stop-color="#020102"/>
<stop offset="1"/>
</radialGradient>
<radialGradient id="paint78_radial_9_4531" cx="0" cy="0" r="1" gradientUnits="userSpaceOnUse" gradientTransform="translate(914.728 384.353) rotate(-39.25) scale(23.0124 23.0124)">
<stop stop-color="#FFADFF"/>
<stop offset="0.08" stop-color="#CB89CB"/>
<stop offset="0.17" stop-color="#9B699B"/>
<stop offset="0.26" stop-color="#724D72"/>
<stop offset="0.36" stop-color="#4E354E"/>
<stop offset="0.46" stop-color="#322132"/>
<stop offset="0.56" stop-color="#1B121B"/>
<stop offset="0.68" stop-color="#0C080C"/>
<stop offset="0.81" stop-color="#020102"/>
<stop offset="1"/>
</radialGradient>
<radialGradient id="paint79_radial_9_4531" cx="0" cy="0" r="1" gradientUnits="userSpaceOnUse" gradientTransform="translate(1484.97 434.501) rotate(-39.25) scale(23.0124 23.0124)">
<stop stop-color="#FFADFF"/>
<stop offset="0.08" stop-color="#CB89CB"/>
<stop offset="0.17" stop-color="#9B699B"/>
<stop offset="0.26" stop-color="#724D72"/>
<stop offset="0.36" stop-color="#4E354E"/>
<stop offset="0.46" stop-color="#322132"/>
<stop offset="0.56" stop-color="#1B121B"/>
<stop offset="0.68" stop-color="#0C080C"/>
<stop offset="0.81" stop-color="#020102"/>
<stop offset="1"/>
</radialGradient>
<radialGradient id="paint80_radial_9_4531" cx="0" cy="0" r="1" gradientUnits="userSpaceOnUse" gradientTransform="translate(911.746 384.234) rotate(-39.25) scale(23.0124 23.0124)">
<stop stop-color="#FFADFF"/>
<stop offset="0.08" stop-color="#CB89CB"/>
<stop offset="0.17" stop-color="#9B699B"/>
<stop offset="0.26" stop-color="#724D72"/>
<stop offset="0.36" stop-color="#4E354E"/>
<stop offset="0.46" stop-color="#322132"/>
<stop offset="0.56" stop-color="#1B121B"/>
<stop offset="0.68" stop-color="#0C080C"/>
<stop offset="0.81" stop-color="#020102"/>
<stop offset="1"/>
</radialGradient>
<radialGradient id="paint81_radial_9_4531" cx="0" cy="0" r="1" gradientUnits="userSpaceOnUse" gradientTransform="translate(1482.65 437.628) rotate(-39.24) scale(23.0124)">
<stop stop-color="#FFADFF"/>
<stop offset="0.08" stop-color="#CB89CB"/>
<stop offset="0.17" stop-color="#9B699B"/>
<stop offset="0.26" stop-color="#724D72"/>
<stop offset="0.36" stop-color="#4E354E"/>
<stop offset="0.46" stop-color="#322132"/>
<stop offset="0.56" stop-color="#1B121B"/>
<stop offset="0.68" stop-color="#0C080C"/>
<stop offset="0.81" stop-color="#020102"/>
<stop offset="1"/>
</radialGradient>
</defs>
</svg>
