<svg width="46" height="46" viewBox="0 0 46 46" fill="none" xmlns="http://www.w3.org/2000/svg">
<g id="Group">
<g id="Group_2" style="mix-blend-mode:multiply" opacity="0.5">
<path id="Vector" opacity="0.02" d="M26.5304 45.255C36.8717 45.255 45.255 36.8717 45.255 26.5304C45.255 16.189 36.8717 7.80566 26.5304 7.80566C16.189 7.80566 7.80566 16.189 7.80566 26.5304C7.80566 36.8717 16.189 45.255 26.5304 45.255Z" fill="#FCFCFC"/>
<path id="Vector_2" opacity="0.04" d="M26.398 45.1226C36.7394 45.1226 45.1227 36.7393 45.1227 26.3979C45.1227 16.0565 36.7394 7.67322 26.398 7.67322C16.0567 7.67322 7.67334 16.0565 7.67334 26.3979C7.67334 36.7393 16.0567 45.1226 26.398 45.1226Z" fill="#F8F8F9"/>
<path id="Vector_3" opacity="0.06" d="M26.2691 44.9937C36.6105 44.9937 44.9938 36.6104 44.9938 26.269C44.9938 15.9276 36.6105 7.54431 26.2691 7.54431C15.9278 7.54431 7.54443 15.9276 7.54443 26.269C7.54443 36.6104 15.9278 44.9937 26.2691 44.9937Z" fill="#F5F5F6"/>
<path id="Vector_4" opacity="0.08" d="M26.1405 44.8649C36.4818 44.8649 44.8651 36.4816 44.8651 26.1402C44.8651 15.7989 36.4818 7.41553 26.1405 7.41553C15.7991 7.41553 7.41577 15.7989 7.41577 26.1402C7.41577 36.4816 15.7991 44.8649 26.1405 44.8649Z" fill="#F2F2F3"/>
<path id="Vector_5" opacity="0.1" d="M26.0116 44.7361C36.3529 44.7361 44.7362 36.3528 44.7362 26.0114C44.7362 15.6701 36.3529 7.28674 26.0116 7.28674C15.6702 7.28674 7.28687 15.6701 7.28687 26.0114C7.28687 36.3528 15.6702 44.7361 26.0116 44.7361Z" fill="#EEEFF0"/>
<path id="Vector_6" opacity="0.12" d="M25.879 44.6037C36.2203 44.6037 44.6037 36.2203 44.6037 25.879C44.6037 15.5376 36.2203 7.1543 25.879 7.1543C15.5376 7.1543 7.1543 15.5376 7.1543 25.879C7.1543 36.2203 15.5376 44.6037 25.879 44.6037Z" fill="#EBEBEE"/>
<path id="Vector_7" opacity="0.14" d="M25.7503 44.4748C36.0917 44.4748 44.475 36.0914 44.475 25.7501C44.475 15.4087 36.0917 7.02539 25.7503 7.02539C15.409 7.02539 7.02563 15.4087 7.02563 25.7501C7.02563 36.0914 15.409 44.4748 25.7503 44.4748Z" fill="#E7E8EB"/>
<path id="Vector_8" opacity="0.16" d="M25.6214 44.346C35.9628 44.346 44.3461 35.9627 44.3461 25.6213C44.3461 15.2799 35.9628 6.89661 25.6214 6.89661C15.2801 6.89661 6.89673 15.2799 6.89673 25.6213C6.89673 35.9627 15.2801 44.346 25.6214 44.346Z" fill="#E4E5E8"/>
<path id="Vector_9" opacity="0.18" d="M25.4891 44.2135C35.8305 44.2135 44.2138 35.8302 44.2138 25.4888C44.2138 15.1475 35.8305 6.76416 25.4891 6.76416C15.1477 6.76416 6.7644 15.1475 6.7644 25.4888C6.7644 35.8302 15.1477 44.2135 25.4891 44.2135Z" fill="#E1E1E5"/>
<path id="Vector_10" opacity="0.2" d="M25.3602 44.0848C35.7015 44.0848 44.0849 35.7014 44.0849 25.3601C44.0849 15.0187 35.7015 6.63538 25.3602 6.63538C15.0188 6.63538 6.6355 15.0187 6.6355 25.3601C6.6355 35.7014 15.0188 44.0848 25.3602 44.0848Z" fill="#DDDEE2"/>
<path id="Vector_11" opacity="0.22" d="M25.2313 43.956C35.5726 43.956 43.956 35.5726 43.956 25.2313C43.956 14.8899 35.5726 6.50659 25.2313 6.50659C14.8899 6.50659 6.50659 14.8899 6.50659 25.2313C6.50659 35.5726 14.8899 43.956 25.2313 43.956Z" fill="#DADBDF"/>
<path id="Vector_12" opacity="0.24" d="M25.1026 43.8272C35.444 43.8272 43.8273 35.4439 43.8273 25.1025C43.8273 14.7611 35.444 6.37781 25.1026 6.37781C14.7613 6.37781 6.37793 14.7611 6.37793 25.1025C6.37793 35.4439 14.7613 43.8272 25.1026 43.8272Z" fill="#D7D7DC"/>
<path id="Vector_13" opacity="0.25" d="M24.97 43.6946C35.3114 43.6946 43.6947 35.3113 43.6947 24.9699C43.6947 14.6286 35.3114 6.24524 24.97 6.24524C14.6287 6.24524 6.24536 14.6286 6.24536 24.9699C6.24536 35.3113 14.6287 43.6946 24.97 43.6946Z" fill="#D3D4D9"/>
<path id="Vector_14" opacity="0.27" d="M24.8411 43.5658C35.1825 43.5658 43.5658 35.1825 43.5658 24.8411C43.5658 14.4998 35.1825 6.11646 24.8411 6.11646C14.4998 6.11646 6.11646 14.4998 6.11646 24.8411C6.11646 35.1825 14.4998 43.5658 24.8411 43.5658Z" fill="#D0D1D6"/>
<path id="Vector_15" opacity="0.29" d="M24.7125 43.437C35.0538 43.437 43.4372 35.0537 43.4372 24.7124C43.4372 14.371 35.0538 5.98767 24.7125 5.98767C14.3711 5.98767 5.98779 14.371 5.98779 24.7124C5.98779 35.0537 14.3711 43.437 24.7125 43.437Z" fill="#CCCED3"/>
<path id="Vector_16" opacity="0.31" d="M24.5836 43.3083C34.9249 43.3083 43.3083 34.9249 43.3083 24.5836C43.3083 14.2422 34.9249 5.85889 24.5836 5.85889C14.2422 5.85889 5.85889 14.2422 5.85889 24.5836C5.85889 34.9249 14.2422 43.3083 24.5836 43.3083Z" fill="#C9CAD1"/>
<path id="Vector_17" opacity="0.33" d="M24.4513 43.1757C34.7926 43.1757 43.1759 34.7924 43.1759 24.451C43.1759 14.1096 34.7926 5.72632 24.4513 5.72632C14.1099 5.72632 5.72656 14.1096 5.72656 24.451C5.72656 34.7924 14.1099 43.1757 24.4513 43.1757Z" fill="#C6C7CE"/>
<path id="Vector_18" opacity="0.35" d="M24.3223 43.0469C34.6637 43.0469 43.047 34.6636 43.047 24.3222C43.047 13.9809 34.6637 5.59753 24.3223 5.59753C13.981 5.59753 5.59766 13.9809 5.59766 24.3222C5.59766 34.6636 13.981 43.0469 24.3223 43.0469Z" fill="#C2C4CB"/>
<path id="Vector_19" opacity="0.37" d="M24.1934 42.9181C34.5348 42.9181 42.9181 34.5348 42.9181 24.1934C42.9181 13.8521 34.5348 5.46875 24.1934 5.46875C13.8521 5.46875 5.46875 13.8521 5.46875 24.1934C5.46875 34.5348 13.8521 42.9181 24.1934 42.9181Z" fill="#BFC0C8"/>
<path id="Vector_20" opacity="0.39" d="M24.0611 42.7856C34.4025 42.7856 42.7858 34.4022 42.7858 24.0609C42.7858 13.7195 34.4025 5.33618 24.0611 5.33618C13.7198 5.33618 5.33643 13.7195 5.33643 24.0609C5.33643 34.4022 13.7198 42.7856 24.0611 42.7856Z" fill="#BCBDC5"/>
<path id="Vector_21" opacity="0.41" d="M23.9322 42.6568C34.2736 42.6568 42.6569 34.2734 42.6569 23.9321C42.6569 13.5907 34.2736 5.2074 23.9322 5.2074C13.5908 5.2074 5.20752 13.5907 5.20752 23.9321C5.20752 34.2734 13.5908 42.6568 23.9322 42.6568Z" fill="#B8BAC2"/>
<path id="Vector_22" opacity="0.43" d="M23.8035 42.528C34.1449 42.528 42.5282 34.1447 42.5282 23.8033C42.5282 13.4619 34.1449 5.07861 23.8035 5.07861C13.4622 5.07861 5.07886 13.4619 5.07886 23.8033C5.07886 34.1447 13.4622 42.528 23.8035 42.528Z" fill="#B5B7BF"/>
<path id="Vector_23" opacity="0.45" d="M23.6746 42.3992C34.016 42.3992 42.3993 34.0159 42.3993 23.6745C42.3993 13.3332 34.016 4.94983 23.6746 4.94983C13.3333 4.94983 4.94995 13.3332 4.94995 23.6745C4.94995 34.0159 13.3333 42.3992 23.6746 42.3992Z" fill="#B1B3BC"/>
<path id="Vector_24" opacity="0.47" d="M23.5421 42.2668C33.8834 42.2668 42.2668 33.8834 42.2668 23.5421C42.2668 13.2007 33.8834 4.81738 23.5421 4.81738C13.2007 4.81738 4.81738 13.2007 4.81738 23.5421C4.81738 33.8834 13.2007 42.2668 23.5421 42.2668Z" fill="#AEB0B9"/>
<path id="Vector_25" opacity="0.49" d="M23.4134 42.1379C33.7548 42.1379 42.1381 33.7545 42.1381 23.4132C42.1381 13.0718 33.7548 4.68848 23.4134 4.68848C13.0721 4.68848 4.68872 13.0718 4.68872 23.4132C4.68872 33.7545 13.0721 42.1379 23.4134 42.1379Z" fill="#ABADB6"/>
<path id="Vector_26" opacity="0.51" d="M23.2845 42.0092C33.6259 42.0092 42.0092 33.6259 42.0092 23.2845C42.0092 12.9431 33.6259 4.55981 23.2845 4.55981C12.9431 4.55981 4.55981 12.9431 4.55981 23.2845C4.55981 33.6259 12.9431 42.0092 23.2845 42.0092Z" fill="#A7A9B4"/>
<path id="Vector_27" opacity="0.53" d="M23.1556 41.8803C33.497 41.8803 41.8803 33.497 41.8803 23.1556C41.8803 12.8142 33.497 4.43091 23.1556 4.43091C12.8142 4.43091 4.43091 12.8142 4.43091 23.1556C4.43091 33.497 12.8142 41.8803 23.1556 41.8803Z" fill="#A4A6B1"/>
<path id="Vector_28" opacity="0.55" d="M23.0233 41.7478C33.3646 41.7478 41.748 33.3645 41.748 23.0231C41.748 12.6818 33.3646 4.29846 23.0233 4.29846C12.6819 4.29846 4.29858 12.6818 4.29858 23.0231C4.29858 33.3645 12.6819 41.7478 23.0233 41.7478Z" fill="#A1A3AE"/>
<path id="Vector_29" opacity="0.57" d="M22.8944 41.6189C33.2357 41.6189 41.6191 33.2356 41.6191 22.8942C41.6191 12.5529 33.2357 4.16956 22.8944 4.16956C12.553 4.16956 4.16968 12.5529 4.16968 22.8942C4.16968 33.2356 12.553 41.6189 22.8944 41.6189Z" fill="#9D9FAB"/>
<path id="Vector_30" opacity="0.59" d="M22.7657 41.4901C33.1071 41.4901 41.4904 33.1068 41.4904 22.7655C41.4904 12.4241 33.1071 4.04077 22.7657 4.04077C12.4243 4.04077 4.04102 12.4241 4.04102 22.7655C4.04102 33.1068 12.4243 41.4901 22.7657 41.4901Z" fill="#9A9CA8"/>
<path id="Vector_31" opacity="0.61" d="M22.6331 41.3577C32.9745 41.3577 41.3578 32.9744 41.3578 22.633C41.3578 12.2917 32.9745 3.90833 22.6331 3.90833C12.2918 3.90833 3.90845 12.2917 3.90845 22.633C3.90845 32.9744 12.2918 41.3577 22.6331 41.3577Z" fill="#9699A5"/>
<path id="Vector_32" opacity="0.63" d="M22.5045 41.2289C32.8458 41.2289 41.2292 32.8456 41.2292 22.5042C41.2292 12.1629 32.8458 3.77954 22.5045 3.77954C12.1631 3.77954 3.77979 12.1629 3.77979 22.5042C3.77979 32.8456 12.1631 41.2289 22.5045 41.2289Z" fill="#9396A2"/>
<path id="Vector_33" opacity="0.65" d="M22.3756 41.1001C32.7169 41.1001 41.1003 32.7168 41.1003 22.3754C41.1003 12.0341 32.7169 3.65076 22.3756 3.65076C12.0342 3.65076 3.65088 12.0341 3.65088 22.3754C3.65088 32.7168 12.0342 41.1001 22.3756 41.1001Z" fill="#90929F"/>
<path id="Vector_34" opacity="0.67" d="M22.2467 40.9713C32.588 40.9713 40.9713 32.588 40.9713 22.2467C40.9713 11.9053 32.588 3.52197 22.2467 3.52197C11.9053 3.52197 3.52197 11.9053 3.52197 22.2467C3.52197 32.588 11.9053 40.9713 22.2467 40.9713Z" fill="#8C8F9C"/>
<path id="Vector_35" opacity="0.69" d="M22.1143 40.8388C32.4557 40.8388 40.839 32.4555 40.839 22.1141C40.839 11.7727 32.4557 3.3894 22.1143 3.3894C11.773 3.3894 3.38965 11.7727 3.38965 22.1141C3.38965 32.4555 11.773 40.8388 22.1143 40.8388Z" fill="#898C99"/>
<path id="Vector_36" opacity="0.71" d="M21.9854 40.71C32.3268 40.71 40.7101 32.3267 40.7101 21.9853C40.7101 11.6439 32.3268 3.26062 21.9854 3.26062C11.6441 3.26062 3.26074 11.6439 3.26074 21.9853C3.26074 32.3267 11.6441 40.71 21.9854 40.71Z" fill="#868897"/>
<path id="Vector_37" opacity="0.73" d="M21.8565 40.5812C32.1979 40.5812 40.5812 32.1979 40.5812 21.8565C40.5812 11.5152 32.1979 3.13184 21.8565 3.13184C11.5152 3.13184 3.13184 11.5152 3.13184 21.8565C3.13184 32.1979 11.5152 40.5812 21.8565 40.5812Z" fill="#828594"/>
<path id="Vector_38" opacity="0.75" d="M21.7279 40.4488C32.0692 40.4488 40.4525 32.0654 40.4525 21.7241C40.4525 11.3827 32.0692 2.99939 21.7279 2.99939C11.3865 2.99939 3.00317 11.3827 3.00317 21.7241C3.00317 32.0654 11.3865 40.4488 21.7279 40.4488Z" fill="#7F8291"/>
<path id="Vector_39" opacity="0.76" d="M21.5953 40.3199C31.9367 40.3199 40.32 31.9365 40.32 21.5952C40.32 11.2538 31.9367 2.87048 21.5953 2.87048C11.2539 2.87048 2.87061 11.2538 2.87061 21.5952C2.87061 31.9365 11.2539 40.3199 21.5953 40.3199Z" fill="#7B7F8E"/>
<path id="Vector_40" opacity="0.78" d="M21.4666 40.1911C31.808 40.1911 40.1913 31.8077 40.1913 21.4664C40.1913 11.125 31.808 2.7417 21.4666 2.7417C11.1253 2.7417 2.74194 11.125 2.74194 21.4664C2.74194 31.8077 11.1253 40.1911 21.4666 40.1911Z" fill="#787B8B"/>
<path id="Vector_41" opacity="0.8" d="M21.3377 40.0623C31.6791 40.0623 40.0624 31.679 40.0624 21.3376C40.0624 10.9962 31.6791 2.61292 21.3377 2.61292C10.9964 2.61292 2.61304 10.9962 2.61304 21.3376C2.61304 31.679 10.9964 40.0623 21.3377 40.0623Z" fill="#757888"/>
<path id="Vector_42" opacity="0.82" d="M21.2052 39.9298C31.5465 39.9298 39.9298 31.5465 39.9298 21.2052C39.9298 10.8638 31.5465 2.48047 21.2052 2.48047C10.8638 2.48047 2.48047 10.8638 2.48047 21.2052C2.48047 31.5465 10.8638 39.9298 21.2052 39.9298Z" fill="#717585"/>
<path id="Vector_43" opacity="0.84" d="M21.0765 39.8011C31.4179 39.8011 39.8012 31.4177 39.8012 21.0764C39.8012 10.735 31.4179 2.35168 21.0765 2.35168C10.7351 2.35168 2.35181 10.735 2.35181 21.0764C2.35181 31.4177 10.7351 39.8011 21.0765 39.8011Z" fill="#6E7182"/>
<path id="Vector_44" opacity="0.86" d="M20.9476 39.6722C31.2889 39.6722 39.6723 31.2888 39.6723 20.9475C39.6723 10.6061 31.2889 2.22278 20.9476 2.22278C10.6062 2.22278 2.2229 10.6061 2.2229 20.9475C2.2229 31.2888 10.6062 39.6722 20.9476 39.6722Z" fill="#6B6E7F"/>
<path id="Vector_45" opacity="0.88" d="M20.8189 39.5434C31.1603 39.5434 39.5436 31.16 39.5436 20.8187C39.5436 10.4773 31.1603 2.09399 20.8189 2.09399C10.4776 2.09399 2.09424 10.4773 2.09424 20.8187C2.09424 31.16 10.4776 39.5434 20.8189 39.5434Z" fill="#676B7C"/>
<path id="Vector_46" opacity="0.9" d="M20.6864 39.4109C31.0277 39.4109 39.411 31.0276 39.411 20.6862C39.411 10.3449 31.0277 1.96155 20.6864 1.96155C10.345 1.96155 1.96167 10.3449 1.96167 20.6862C1.96167 31.0276 10.345 39.4109 20.6864 39.4109Z" fill="#64677A"/>
<path id="Vector_47" opacity="0.92" d="M20.5575 39.282C30.8988 39.282 39.2821 30.8987 39.2821 20.5573C39.2821 10.216 30.8988 1.83264 20.5575 1.83264C10.2161 1.83264 1.83276 10.216 1.83276 20.5573C1.83276 30.8987 10.2161 39.282 20.5575 39.282Z" fill="#606477"/>
<path id="Vector_48" opacity="0.94" d="M20.4288 39.1532C30.7701 39.1532 39.1535 30.7699 39.1535 20.4285C39.1535 10.0872 30.7701 1.70386 20.4288 1.70386C10.0874 1.70386 1.7041 10.0872 1.7041 20.4285C1.7041 30.7699 10.0874 39.1532 20.4288 39.1532Z" fill="#5D6174"/>
<path id="Vector_49" opacity="0.96" d="M20.2962 39.0208C30.6376 39.0208 39.0209 30.6375 39.0209 20.2961C39.0209 9.95474 30.6376 1.57141 20.2962 1.57141C9.95486 1.57141 1.57153 9.95474 1.57153 20.2961C1.57153 30.6375 9.95486 39.0208 20.2962 39.0208Z" fill="#5A5E71"/>
<path id="Vector_50" opacity="0.98" d="M20.1673 38.892C30.5087 38.892 38.892 30.5087 38.892 20.1673C38.892 9.82596 30.5087 1.44263 20.1673 1.44263C9.82596 1.44263 1.44263 9.82596 1.44263 20.1673C1.44263 30.5087 9.82596 38.892 20.1673 38.892Z" fill="#565A6E"/>
<path id="Vector_51" d="M20.0387 38.7632C30.38 38.7632 38.7633 30.3799 38.7633 20.0385C38.7633 9.69717 30.38 1.31384 20.0387 1.31384C9.69729 1.31384 1.31396 9.69717 1.31396 20.0385C1.31396 30.3799 9.69729 38.7632 20.0387 38.7632Z" fill="#53576B"/>
</g>
<path id="Vector_52" d="M19.8803 39.7568C8.92072 39.7568 0 30.8398 0 19.8803C0 8.92072 8.91704 0 19.8803 0C30.8435 0 39.7568 8.91704 39.7568 19.8766C39.7568 30.8361 30.8398 39.7532 19.8803 39.7532V39.7568ZM19.8803 0.636669C9.27034 0.636669 0.636669 9.27034 0.636669 19.8803C0.636669 30.4902 9.27034 39.1239 19.8803 39.1239C30.4902 39.1239 39.1239 30.4902 39.1239 19.8803C39.1239 9.27034 30.4902 0.636669 19.8803 0.636669Z" fill="url(#paint0_linear_9_4644)"/>
<path id="Vector_53" d="M19.8804 39.4404C30.6831 39.4404 39.4405 30.683 39.4405 19.8803C39.4405 9.07754 30.6831 0.32019 19.8804 0.32019C9.07766 0.32019 0.320312 9.07754 0.320312 19.8803C0.320312 30.683 9.07766 39.4404 19.8804 39.4404Z" fill="url(#paint1_linear_9_4644)"/>
</g>
<defs>
<linearGradient id="paint0_linear_9_4644" x1="5.83185" y1="5.82894" x2="33.9312" y2="33.9283" gradientUnits="userSpaceOnUse">
<stop stop-color="white"/>
<stop offset="1" stop-color="#E6E6E6"/>
</linearGradient>
<linearGradient id="paint1_linear_9_4644" x1="6.16074" y1="6.16061" x2="33.2872" y2="33.2871" gradientUnits="userSpaceOnUse">
<stop stop-color="#E2E1E6"/>
<stop offset="0.84" stop-color="white"/>
</linearGradient>
</defs>
</svg>
