<svg width="191" height="25" viewBox="0 0 191 25" fill="none" xmlns="http://www.w3.org/2000/svg">
<path d="M13.0208 0.318359C10.0106 0.318359 7.67764 1.44719 6.32304 3.47908V0.995657H0.453125V23.5723H6.32304V11.3809C6.32304 7.39236 8.43019 5.73674 11.2899 5.73674C13.9238 5.73674 15.73 7.31711 15.73 10.4026V23.5723H21.5999V9.72528C21.5999 3.70485 17.8371 0.318359 13.0208 0.318359Z" fill="#0DB2B2"/>
<path fill-rule="evenodd" clip-rule="evenodd" d="M37.8552 18.9064C40.1128 18.9064 41.919 17.9281 42.8973 16.6488L47.6384 19.358C45.5312 22.4434 42.1447 24.1743 37.7799 24.1743C30.1791 24.1743 25.3628 18.9817 25.3628 12.284C25.3628 5.58623 30.2544 0.318359 37.3284 0.318359C44.0261 0.318359 48.7672 5.58623 48.7672 12.284C48.7672 13.1118 48.6919 13.8643 48.5414 14.6921H31.4585C32.2863 17.6271 34.7697 18.9064 37.8552 18.9064ZM42.8973 10.1768C42.22 6.86557 39.7366 5.58623 37.3284 5.58623C34.2429 5.58623 32.0605 7.24185 31.3832 10.1768H42.8973Z" fill="#0DB2B2"/>
<path d="M78.2672 0.995605L74.4291 14.9178L70.3653 0.995605H64.7964L60.7327 14.8426L56.8946 0.995605H50.6484L57.873 23.5722H63.4418L67.5809 9.87573L71.7199 23.5722H77.2888L84.5133 0.995605H78.2672Z" fill="#0DB2B2"/>
<path d="M93.4685 4.83374V0.995721H87.6738V23.5723H93.4685V12.7356C93.4685 7.99447 97.3065 6.63987 100.392 7.01615V0.544189C97.5323 0.544189 94.6726 1.74827 93.4685 4.83374Z" fill="#101A1E"/>
<path fill-rule="evenodd" clip-rule="evenodd" d="M102.575 12.284C102.575 5.51098 107.843 0.318359 114.54 0.318359C121.238 0.318359 126.506 5.51098 126.506 12.284C126.506 19.0569 121.163 24.1743 114.54 24.1743C107.918 24.1743 102.575 18.9817 102.575 12.284ZM120.636 12.284C120.636 8.59645 118.002 6.03777 114.54 6.03777C111.079 6.03777 108.445 8.59645 108.445 12.284C108.445 15.9715 111.079 18.5302 114.54 18.5302C118.002 18.5302 120.636 15.8962 120.636 12.284Z" fill="#101A1E"/>
<path fill-rule="evenodd" clip-rule="evenodd" d="M129.441 12.284C129.441 5.51098 134.709 0.318359 141.407 0.318359C148.104 0.318359 153.372 5.51098 153.372 12.284C153.372 19.0569 148.029 24.1743 141.407 24.1743C134.784 24.1743 129.441 18.9817 129.441 12.284ZM147.502 12.284C147.502 8.59645 144.868 6.03777 141.407 6.03777C137.945 6.03777 135.236 8.59645 135.236 12.284C135.236 15.9715 137.945 18.5302 141.407 18.5302C144.868 18.5302 147.502 15.8962 147.502 12.284Z" fill="#101A1E"/>
<path d="M182.496 0.318359C179.411 0.318359 177.153 1.52244 175.723 3.55434C174.519 1.52244 172.412 0.318359 169.627 0.318359C166.692 0.318359 164.585 1.44719 163.306 3.32857V0.995657H157.511V23.5723H163.306V10.8541C163.306 7.46762 165.112 5.73674 167.595 5.73674C170.079 5.73674 171.358 7.39236 171.358 10.0263V23.5723H177.228V10.8541C177.228 7.46762 178.808 5.73674 181.367 5.73674C183.926 5.73674 185.205 7.39236 185.205 10.0263V23.5723H191V9.65002C191 4.00587 187.613 0.318359 182.496 0.318359Z" fill="#101A1E"/>
</svg>
