<svg width="43" height="43" viewBox="0 0 43 43" fill="none" xmlns="http://www.w3.org/2000/svg">
<g id="Group 2491">
<path id="Vector" d="M22.8484 26.3243L23.1585 27.0419L19.4907 26.4749V22.8602C20.5671 22.2388 21.4611 21.3452 22.0831 20.2692C22.7051 19.1931 23.0332 17.9724 23.0345 16.7295C24.133 16.7295 25.3468 16.8359 26.1884 15.4626C26.2504 17.1902 26.1884 15.7727 26.4188 22.7539L22.8484 26.3243ZM5.31567 27.5646L12.4032 26.4749V22.8602C11.3268 22.2388 10.4328 21.3452 9.8108 20.2692C9.1888 19.1931 8.86071 17.9724 8.85943 16.7295C7.76087 16.7295 6.54713 16.8359 5.70549 15.4626L5.31567 27.5646ZM15.947 28.2468L12.4032 31.7905L8.48734 27.0773L12.4032 26.4749L15.947 28.2468Z" fill="#514F73"/>
<path id="Vector_2" d="M42.5251 34.0054V31.3476L40.452 30.5148C40.2816 29.8986 40.0408 29.304 39.7344 28.7429L40.6203 26.6875L38.7421 24.8093L36.6868 25.6953C36.1256 25.3889 35.5311 25.1481 34.9149 24.9777L34.1087 22.9312H31.4509L30.6181 25.0043C30.0019 25.1746 29.4073 25.4154 28.8462 25.7219L26.7908 24.8359L24.9126 26.7141L25.7986 28.7695C25.4921 29.3306 25.2513 29.9252 25.0809 30.5414L23.0344 31.3476V34.0054L25.1075 34.8382C25.2779 35.4544 25.5187 36.0489 25.8251 36.6101L24.9392 38.6654L26.8174 40.5436L28.8728 39.6577C29.4339 39.9641 30.0284 40.2049 30.6446 40.3753L31.4509 42.4218H34.1087L34.9415 40.3487C35.5577 40.1783 36.1522 39.9375 36.7133 39.6311L38.7687 40.5171L40.6469 38.6389L39.761 36.5835C40.0674 36.0224 40.3082 35.4278 40.4786 34.8116L42.5251 34.0054ZM29.865 33.8194C29.99 33.9433 30.0752 34.1016 30.1098 34.2741C30.1444 34.4467 30.1268 34.6256 30.0594 34.7881C29.9919 34.9506 29.8775 35.0894 29.7309 35.1867C29.5843 35.2839 29.412 35.3353 29.236 35.3343C28.7487 35.3343 28.7222 35.1926 26.8351 33.3055C26.7521 33.2231 26.6862 33.1252 26.6412 33.0172C26.5962 32.9092 26.573 32.7934 26.573 32.6765C26.573 32.5595 26.5962 32.4437 26.6412 32.3358C26.6862 32.2278 26.7521 32.1298 26.8351 32.0475L28.607 30.2756C28.7738 30.1088 29.0001 30.015 29.236 30.015C29.4719 30.015 29.6982 30.1088 29.865 30.2756C30.0318 30.4424 30.1256 30.6687 30.1256 30.9046C30.1256 31.1405 30.0318 31.3668 29.865 31.5336L28.7133 32.6765L29.865 33.8194ZM34.5073 30.2756L32.7355 35.5912C32.6603 35.8145 32.4995 35.9987 32.2885 36.1033C32.0775 36.208 31.8335 36.2246 31.6103 36.1494C31.3871 36.0742 31.2029 35.9134 31.0982 35.7024C30.9936 35.4914 30.977 35.2475 31.0522 35.0242L32.8241 29.7086C32.9028 29.4795 33.0693 29.2911 33.2869 29.1847C33.5046 29.0784 33.7555 29.0629 33.9846 29.1416C34.2137 29.2203 34.4022 29.3868 34.5085 29.6045C34.6148 29.8221 34.6304 30.0731 34.5516 30.3022L34.5073 30.2756ZM38.7244 33.2789C36.8462 35.1837 36.8108 35.3343 36.3235 35.3343C36.1476 35.3353 35.9753 35.2839 35.8286 35.1867C35.682 35.0894 35.5676 34.9506 35.5002 34.7881C35.4327 34.6256 35.4151 34.4467 35.4497 34.2741C35.4844 34.1016 35.5696 33.9433 35.6945 33.8194L36.8462 32.6765L35.6945 31.5336C35.5277 31.3668 35.434 31.1405 35.434 30.9046C35.434 30.6687 35.5277 30.4424 35.6945 30.2756C35.8613 30.1088 36.0876 30.015 36.3235 30.015C36.5594 30.015 36.7857 30.1088 36.9525 30.2756L38.7244 32.0475C38.8075 32.1298 38.8734 32.2278 38.9183 32.3358C38.9633 32.4437 38.9865 32.5595 38.9865 32.6765C38.9865 32.7934 38.9633 32.9092 38.9183 33.0172C38.8734 33.1252 38.8075 33.2231 38.7244 33.3055V33.2789Z" fill="#4EB7EB"/>
<path id="Vector_3" d="M7.50391 40.65C7.20927 40.1349 7.07235 39.5447 7.11015 38.9525C7.14795 38.3603 7.3588 37.7923 7.71654 37.3189C9.03659 35.3344 8.8594 35.8836 8.8594 34.4484C8.8594 34.2135 8.76606 33.9881 8.59991 33.822C8.43377 33.6558 8.20842 33.5625 7.97346 33.5625C7.73849 33.5625 7.51315 33.6558 7.347 33.822C7.18086 33.9881 7.08752 34.2135 7.08752 34.4484V35.0686C6.20158 36.3443 4.7132 38.2137 5.53712 40.65H1.77188V32.0475C1.77256 31.2018 2.07567 30.3842 2.62646 29.7424C3.17724 29.1007 3.93939 28.677 4.77522 28.5481L12.2614 27.3609C15.8052 29.1328 15.8052 29.2657 16.3456 28.9999L19.6324 27.3609L23.566 27.9633L22.8484 26.2889L23.0433 26.094L20.3855 25.6776V23.3565C21.3484 22.7103 22.1587 21.8619 22.7601 20.8704C23.3614 19.8788 23.7392 18.7681 23.8672 17.6156C24.8071 17.6226 25.7113 17.256 26.3808 16.5964C27.0504 15.9368 27.4305 15.0382 27.4376 14.0984C27.4446 13.1585 27.078 12.2544 26.4184 11.5848C25.7588 10.9152 24.8602 10.5351 23.9204 10.528H23.0344C22.7995 10.528 22.5741 10.6214 22.408 10.7875C22.2418 10.9537 22.1485 11.179 22.1485 11.414V16.7296C22.1485 18.3744 21.4951 19.9518 20.3321 21.1148C19.1691 22.2778 17.5917 22.9312 15.9469 22.9312C14.3022 22.9312 12.7248 22.2778 11.5617 21.1148C10.3987 19.9518 9.74534 18.3744 9.74534 16.7296V11.414C9.74534 11.179 9.652 10.9537 9.48585 10.7875C9.31971 10.6214 9.09436 10.528 8.8594 10.528C7.8007 10.3775 6.72431 10.634 5.8472 11.2457C5.25213 11.6957 4.81429 12.3222 4.59608 13.0356C4.37787 13.7491 4.39042 14.5133 4.63196 15.2192C4.87349 15.9252 5.33167 16.5369 5.94121 16.9671C6.55075 17.3974 7.28055 17.6244 8.02662 17.6156C8.15562 18.7688 8.53481 19.8801 9.13771 20.8716C9.7406 21.8632 10.5527 22.7112 11.5172 23.3565V25.7131L4.50943 26.7939C3.25413 26.9865 2.10928 27.6222 1.28211 28.5859C0.454938 29.5496 0.000124924 30.7775 0 32.0475L0 41.5359C0 41.7709 0.0933398 41.9962 0.259486 42.1624C0.425632 42.3285 0.650974 42.4219 0.88594 42.4219H26.2415L24.4697 40.65H7.50391ZM23.9204 12.2999C24.3903 12.2999 24.841 12.4866 25.1733 12.8189C25.5056 13.1512 25.6923 13.6019 25.6923 14.0718C25.6923 14.5417 25.5056 14.9924 25.1733 15.3247C24.841 15.657 24.3903 15.8437 23.9204 15.8437V12.2999ZM13.2891 24.2335C15.0052 24.8623 16.8886 24.8623 18.6047 24.2335V25.9257L15.9469 27.2546L13.2891 25.9257V24.2335ZM7.97346 15.8437C7.50353 15.8437 7.05284 15.657 6.72055 15.3247C6.38826 14.9924 6.20158 14.5417 6.20158 14.0718C6.20158 13.6019 6.38826 13.1512 6.72055 12.8189C7.05284 12.4866 7.50353 12.2999 7.97346 12.2999V15.8437Z" fill="#514F73"/>
<path id="Vector_4" d="M26.0555 11.414H22.689C21.7059 11.4136 20.7381 11.1709 19.8711 10.7073C19.0042 10.2437 18.265 9.57355 17.7188 8.75614C13.0942 11.5203 9.37328 11.414 5.83838 11.414L5.89154 9.64208C6.00044 7.04825 7.10746 4.59684 8.9813 2.80002C10.8551 1.00321 13.3508 0 15.947 0C18.5431 0 21.0388 1.00321 22.9126 2.80002C24.7864 4.59684 25.8935 7.04825 26.0024 9.64208L26.0555 11.414Z" fill="#514F73"/>
</g>
</svg>
