<svg width="32" height="32" viewBox="0 0 32 32" fill="none" xmlns="http://www.w3.org/2000/svg">
<path opacity="0.1" d="M15.2335 1.1634C15.5664 0.319257 16.7611 0.319258 17.094 1.1634L20.8404 10.6625C20.942 10.9202 21.146 11.1242 21.4038 11.2259L30.9029 14.9723C31.747 15.3052 31.747 16.4999 30.9029 16.8328L21.4038 20.5792C21.146 20.6808 20.942 20.8848 20.8404 21.1425L17.094 30.6416C16.7611 31.4858 15.5664 31.4858 15.2335 30.6416L11.4871 21.1425C11.3855 20.8848 11.1814 20.6808 10.9237 20.5792L1.42463 16.8328C0.580488 16.4999 0.580488 15.3052 1.42463 14.9723L10.9237 11.2259C11.1814 11.1242 11.3855 10.9202 11.4871 10.6625L15.2335 1.1634Z" fill="#1F37FF"/>
</svg>
