<svg width="91" height="95" viewBox="0 0 91 95" fill="none" xmlns="http://www.w3.org/2000/svg">
<path d="M45.5 95C70.629 95 91 74.732 91 49.7302C91 24.7284 70.629 4.46045 45.5 4.46045C20.371 4.46045 0 24.7284 0 49.7302C0 74.732 20.371 95 45.5 95Z" fill="#E8D4CF"/>
<path d="M45.3616 62.0817C52.8616 62.0817 58.9415 61.2248 58.9415 60.1677C58.9415 59.1107 52.8616 58.2538 45.3616 58.2538C37.8617 58.2538 31.7817 59.1107 31.7817 60.1677C31.7817 61.2248 37.8617 62.0817 45.3616 62.0817Z" fill="#94A5E4"/>
<path d="M57.5314 43.7694H33.4609V70.8242H57.5314V43.7694Z" fill="#E2988F"/>
<path d="M69.8073 26.2357C68.4379 22.9755 65.642 24.5813 65.642 24.5813C67.256 9.77249 59.6916 0 45.5004 0C31.3092 0 23.7449 9.77249 25.3588 24.5813C25.3588 24.5813 22.5629 22.9836 21.1935 26.2357C19.8241 29.4878 22.3265 37.1274 23.8753 39.5604C25.424 41.9852 28.1628 43.8262 28.1628 43.8262C28.1628 43.8262 28.3421 46.5511 29.0594 48.4489C29.7767 50.3466 37.8709 59.0567 40.251 60.3867C43.3729 62.2115 47.9702 62.2115 50.7742 60.3867C53.1544 59.0567 61.2485 50.3385 61.9658 48.4489C62.6831 46.5511 62.8625 43.8262 62.8625 43.8262C62.8625 43.8262 65.6013 41.9933 67.15 39.5604C68.6987 37.1355 71.193 29.4959 69.8317 26.2357H69.8073Z" fill="#E2988F"/>
<path d="M23.0357 33.5509C22.9053 33.0724 21.7886 28.8309 23.321 27.6793C23.8264 27.3549 24.2421 27.3873 24.5029 27.4684C25.2936 27.7279 25.693 28.7417 25.7175 28.7903L25.1469 29.0093C25.0572 28.7903 24.7475 28.1821 24.3155 28.0523C24.1198 27.9874 23.9079 28.028 23.6797 28.1821C22.7912 28.8552 23.1743 31.7424 23.6307 33.3968L23.0439 33.559L23.0357 33.5509Z" fill="#C46966"/>
<path d="M67.9651 33.5509L67.3782 33.3887C67.7043 32.1965 68.3319 28.9282 67.313 28.1577C67.1011 28.0199 66.8891 27.9793 66.6935 28.0442C66.2696 28.1821 65.9518 28.7822 65.8621 29.0012L65.2915 28.7822C65.3078 28.7417 65.7072 27.7198 66.506 27.4603C66.7669 27.3792 67.1826 27.3386 67.6635 27.6549C69.2122 28.8228 68.1037 33.0643 67.9732 33.5427L67.9651 33.5509Z" fill="#C46966"/>
<path d="M45.5003 0C31.309 0 23.7447 9.77249 25.3587 24.5813C27.2334 25.7978 27.6655 29.0985 27.372 32.3668C27.372 32.3668 26.7444 42.7719 28.8066 47.6865C30.8607 52.5931 34.4472 60.2651 45.5003 60.1759C56.5533 60.2732 60.1398 52.6012 62.1939 47.6865C64.248 42.78 63.6285 32.3668 63.6285 32.3668C63.3351 29.2445 63.327 25.814 65.6419 24.5813C67.2558 9.77249 59.6915 0 45.5003 0ZM61.0283 22.7484C61.0283 22.7484 60.7512 36.3326 58.6482 39.3089C56.537 42.2853 57.1973 35.6838 45.5084 35.5703C33.8196 35.4567 34.4717 42.2853 32.3605 39.3089C30.2575 36.3407 29.9804 22.8052 29.9804 22.7484C30.119 19.7477 30.4124 16.8768 31.7084 15.5954C33.3876 13.9329 35.8411 14.2005 37.936 14.7358C40.3813 15.3603 42.9082 16.1956 45.4921 16.2605C48.2228 16.3334 50.823 15.3359 53.4395 14.7033C55.4773 14.2167 57.6863 13.9978 59.3003 15.5954C60.5963 16.8849 60.8897 19.7477 61.0283 22.7565V22.7484Z" fill="#4C224B"/>
<path d="M86.6719 69.0076C75.2684 66.2583 58.9333 65.5203 58.9333 65.5203C50.505 72.1867 39.2319 72.2759 31.7735 65.5203C31.7735 65.5203 15.7401 66.5584 4.42627 69.2347C11.746 84.4733 27.3882 95 45.492 95C63.6936 95 79.3847 84.3679 86.6637 69.0076H86.6719Z" fill="#94A5E4"/>
<path d="M31.7817 60.1677V66.9395C41.4165 74.0114 50.4806 74.1087 58.9415 66.9395V60.1677C54.1486 63.2576 34.8547 62.8359 31.7817 60.1677Z" fill="#94A5E4"/>
<path d="M45.0357 69.6726C43.7152 69.6726 42.4029 69.6159 41.1313 69.5023C38.6126 69.2833 32.6296 68.4805 31.4966 65.8123L32.059 65.5771C32.7519 67.2153 36.1672 68.4561 41.1884 68.8941C48.1495 69.5023 56.8142 68.3913 58.6808 65.5284L59.1944 65.8609C57.5315 68.4156 51.2714 69.6645 45.0357 69.6645V69.6726Z" fill="#6C82BC"/>
<path d="M45.0846 64.0362C42.6148 64.0362 40.2102 63.9226 38.2458 63.7118C34.7897 63.3468 32.7274 62.7467 32.1079 61.9195L32.597 61.5545C32.8252 61.8627 33.8523 62.6331 38.311 63.1035C45.3862 63.8496 56.1539 63.2495 58.1591 61.5059L58.5586 61.96C56.8794 63.4198 50.8068 64.0281 45.0765 64.0281L45.0846 64.0362Z" fill="#6C82BC"/>
</svg>
