<svg width="615" height="325" viewBox="0 0 615 325" fill="none" xmlns="http://www.w3.org/2000/svg">
<path style="mix-blend-mode:multiply" d="M248.295 68.3237C248.295 66.204 252.857 64.4786 258.49 64.4786C264.123 64.4786 268.685 66.204 268.685 68.3237C268.685 70.4434 264.123 72.1687 258.49 72.1687C252.857 72.1687 248.295 70.4434 248.295 68.3237Z" fill="url(#paint0_radial_702_14)"/>
<path d="M281.944 23.399C281.944 10.4671 271.436 0 258.49 0C245.544 0 235.036 10.4835 235.036 23.399C235.036 23.399 233.982 31.5163 243.255 44.7275C247.438 50.6759 258.49 68.3237 258.49 68.3237C258.49 68.3237 269.558 50.6759 273.741 44.7275C283.014 31.5163 281.96 23.399 281.96 23.399H281.944Z" fill="#FF9514"/>
<path d="M258.49 40.866C267.932 40.866 275.586 33.2297 275.586 23.8098C275.586 14.3898 267.932 6.75348 258.49 6.75348C249.048 6.75348 241.394 14.3898 241.394 23.8098C241.394 33.2297 249.048 40.866 258.49 40.866Z" fill="white"/>
<path d="M281.944 23.3989C281.944 20.8849 281.548 18.4694 280.807 16.2018C280.84 16.6947 280.89 17.1877 280.89 17.6807C280.89 32.8308 268.586 45.1054 253.4 45.1054C249.233 45.1054 245.281 44.1524 241.74 42.4928C242.201 43.2158 242.695 43.9716 243.238 44.7275C247.422 50.6758 258.473 68.3237 258.473 68.3237C258.473 68.3237 269.541 50.6758 273.725 44.7275C282.998 31.5163 281.944 23.3989 281.944 23.3989Z" fill="#E87900"/>
<path d="M241.937 24.4999C241.937 15.298 249.415 7.82154 258.654 7.82154C267.894 7.82154 275.372 15.2816 275.372 24.4999C275.372 26.636 274.96 28.6571 274.219 30.5468C275.108 28.4764 275.602 26.2088 275.602 23.8262C275.602 14.4107 267.944 6.7699 258.506 6.7699C249.069 6.7699 241.41 14.4107 241.41 23.8262C241.41 28.6736 243.436 33.028 246.697 36.1336C243.765 33.1266 241.953 29.0351 241.953 24.5163L241.937 24.4999Z" fill="#E87900"/>
<path style="mix-blend-mode:multiply" d="M339.346 231.332C339.346 229.64 342.988 228.263 347.485 228.263C351.981 228.263 355.623 229.64 355.623 231.332C355.623 233.024 351.981 234.401 347.485 234.401C342.988 234.401 339.346 233.024 339.346 231.332Z" fill="url(#paint1_radial_702_14)"/>
<path d="M372.472 204.678C372.472 194.355 364.084 186 353.75 186C343.417 186 335.029 194.368 335.029 204.678C335.029 204.678 334.187 211.157 341.589 221.703C344.929 226.451 353.75 240.538 353.75 240.538C353.75 240.538 362.585 226.451 365.925 221.703C373.326 211.157 372.485 204.678 372.485 204.678H372.472Z" fill="#FF9514"/>
<path d="M353.75 191.404C346.217 191.404 340.104 197.503 340.104 205.019C340.104 212.535 346.217 218.634 353.75 218.634C361.284 218.634 367.397 212.535 367.397 205.019C367.397 197.503 361.284 191.404 353.75 191.404Z" fill="white"/>
<path d="M372.472 204.678C372.472 202.671 372.156 200.743 371.565 198.933C371.591 199.326 371.63 199.72 371.63 200.113C371.63 212.207 361.809 222.005 349.688 222.005C346.362 222.005 343.206 221.244 340.38 219.919C340.748 220.496 341.142 221.1 341.576 221.703C344.915 226.451 353.737 240.538 353.737 240.538C353.737 240.538 362.572 226.451 365.911 221.703C373.313 211.157 372.472 204.678 372.472 204.678Z" fill="#E87900"/>
<path d="M340.537 205.557C340.537 198.211 346.506 192.243 353.882 192.243C361.257 192.243 367.226 198.198 367.226 205.557C367.226 207.262 366.897 208.875 366.306 210.383C367.016 208.731 367.41 206.921 367.41 205.019C367.41 197.503 361.297 191.404 353.763 191.404C346.23 191.404 340.117 197.503 340.117 205.019C340.117 208.888 341.734 212.364 344.337 214.843C341.997 212.443 340.551 209.177 340.551 205.57L340.537 205.557Z" fill="#E87900"/>
<path d="M6.05951 237.651C5.82837 237.651 5.59722 237.574 5.36608 237.446C4.80107 237.062 4.62129 236.293 5.00653 235.729C5.69995 234.679 6.39338 233.654 7.0868 232.603C7.47204 232.04 8.24251 231.886 8.80753 232.27C9.37254 232.655 9.52664 233.423 9.1414 233.987C8.44797 235.012 7.75455 236.062 7.0868 237.087C6.85566 237.446 6.44474 237.651 6.03383 237.651H6.05951Z" fill="white"/>
<path d="M12.2608 225C12.0036 225 11.7721 224.908 11.5407 224.724C10.9748 224.265 10.8205 223.315 11.232 222.641C12.6723 220.191 14.1127 217.74 15.553 215.29C15.9645 214.616 16.7361 214.463 17.302 214.953C17.8678 215.443 17.9964 216.362 17.5849 217.036C16.1446 219.456 14.7042 221.906 13.2639 224.357C13.0324 224.786 12.6209 225 12.2351 225H12.2608ZM21.0057 210.42C20.7485 210.42 20.4913 210.328 20.2598 210.113C19.694 209.623 19.5911 208.704 20.0026 208.03C21.4944 205.611 23.0119 203.221 24.5294 200.832C24.9409 200.189 25.7382 200.036 26.2784 200.557C26.8185 201.047 26.9214 201.996 26.5098 202.639C24.9924 204.998 23.5006 207.387 22.0088 209.776C21.7516 210.175 21.3915 210.389 21.0057 210.389V210.42ZM30.1364 196.176C29.8535 196.176 29.5963 196.084 29.3648 195.87C28.8247 195.349 28.7218 194.43 29.159 193.787C30.728 191.428 32.2969 189.101 33.8916 186.773C34.3288 186.129 35.1261 186.037 35.6405 186.558C36.1807 187.079 36.2578 188.028 35.8206 188.641C34.2516 190.938 32.6827 193.266 31.1138 195.625C30.8566 195.992 30.4965 196.207 30.1364 196.207V196.176ZM39.6529 182.27C39.37 182.27 39.087 182.147 38.8556 181.933C38.3154 181.412 38.264 180.463 38.7012 179.819C40.3216 177.522 41.9677 175.255 43.6138 172.989C44.0768 172.376 44.8484 172.315 45.3885 172.835C45.9029 173.387 45.9544 174.306 45.5171 174.949C43.871 177.185 42.2506 179.452 40.6303 181.749C40.3731 182.086 40.0387 182.27 39.6786 182.27H39.6529ZM49.5552 168.762C49.2465 168.762 48.9636 168.639 48.7064 168.363C48.192 167.812 48.1663 166.862 48.6293 166.25C50.3268 164.014 52.0243 161.839 53.7476 159.634C54.2106 159.021 55.0079 158.99 55.5223 159.572C56.0367 160.124 56.0624 161.073 55.5737 161.686C53.8762 163.861 52.1787 166.035 50.5068 168.241C50.2496 168.578 49.9153 168.731 49.5809 168.731L49.5552 168.762ZM59.8433 155.713C59.5347 155.713 59.226 155.56 58.9688 155.284C58.4801 154.702 58.4544 153.752 58.9688 153.17C60.7178 151.026 62.4925 148.882 64.2672 146.799C64.7559 146.217 65.5532 146.217 66.0419 146.799C66.5306 147.381 66.5306 148.331 66.0419 148.913C64.2672 150.996 62.5182 153.109 60.7692 155.253C60.512 155.56 60.2034 155.713 59.869 155.713H59.8433ZM70.5429 143.123C70.2086 143.123 69.8742 142.97 69.6427 142.664C69.1797 142.082 69.1797 141.132 69.6942 140.55C71.5203 138.468 73.3722 136.446 75.224 134.424C75.7384 133.873 76.51 133.904 76.9987 134.516C77.4617 135.129 77.436 136.078 76.9215 136.63C75.0954 138.621 73.2693 140.642 71.4431 142.725C71.2116 143.001 70.903 143.123 70.5686 143.123H70.5429ZM81.6284 131.055C81.2683 131.055 80.9339 130.871 80.6767 130.534C80.2137 129.922 80.2652 128.972 80.8053 128.421C82.7086 126.43 84.6119 124.5 86.5409 122.57C87.081 122.049 87.8527 122.141 88.3156 122.754C88.7529 123.397 88.7014 124.316 88.1613 124.867C86.258 126.767 84.3547 128.696 82.4771 130.657C82.2456 130.902 81.937 131.024 81.6541 131.024L81.6284 131.055ZM93.151 119.568C92.791 119.568 92.4309 119.384 92.1737 119.017C91.7364 118.374 91.8393 117.424 92.3794 116.934C94.3599 115.065 96.3403 113.197 98.3208 111.39C98.8609 110.9 99.6583 111.022 100.07 111.665C100.481 112.309 100.378 113.258 99.8383 113.748C97.8578 115.525 95.9031 117.363 93.9484 119.231C93.7169 119.446 93.434 119.568 93.1767 119.568H93.151ZM105.111 108.725C104.725 108.725 104.339 108.51 104.108 108.112C103.696 107.438 103.825 106.519 104.391 106.029C106.448 104.253 108.506 102.537 110.564 100.853C111.129 100.393 111.901 100.577 112.313 101.251C112.698 101.925 112.544 102.844 111.978 103.334C109.921 104.988 107.889 106.703 105.857 108.449C105.625 108.633 105.368 108.725 105.137 108.725H105.111ZM117.508 98.6167C117.097 98.6167 116.685 98.3716 116.454 97.9428C116.068 97.2383 116.248 96.3193 116.839 95.8905C118.974 94.2671 121.109 92.6742 123.244 91.1427C123.835 90.7139 124.607 90.9589 124.967 91.6328C125.327 92.3373 125.147 93.2562 124.555 93.6851C122.421 95.2166 120.312 96.7788 118.203 98.4022C117.997 98.5554 117.765 98.6473 117.534 98.6473L117.508 98.6167ZM130.368 89.3661C129.931 89.3661 129.519 89.0904 129.288 88.6003C128.954 87.8958 129.159 86.9769 129.777 86.5787C131.989 85.1084 134.201 83.6687 136.413 82.2904C137.03 81.8922 137.776 82.1985 138.11 82.9336C138.419 83.6687 138.187 84.557 137.57 84.9552C135.384 86.303 133.172 87.7427 130.986 89.1823C130.78 89.3048 130.574 89.3661 130.368 89.3661ZM143.691 81.0957C143.228 81.0957 142.765 80.7894 142.56 80.2381C142.251 79.5029 142.534 78.6146 143.151 78.2471C145.44 76.9606 147.729 75.7047 150.019 74.5101C150.662 74.1731 151.382 74.5101 151.665 75.2759C151.948 76.0416 151.665 76.8993 151.022 77.2362C148.758 78.4002 146.495 79.6255 144.231 80.912C144.051 81.0039 143.871 81.0651 143.691 81.0651V81.0957ZM266.763 76.2561C266.583 76.2561 266.377 76.1948 266.197 76.1029C263.985 74.7858 261.696 73.5299 259.432 72.3966C258.789 72.0596 258.507 71.2019 258.764 70.4362C259.047 69.6704 259.767 69.3335 260.41 69.6398C262.725 70.8037 265.039 72.0902 267.303 73.438C267.92 73.8056 268.177 74.6939 267.869 75.429C267.637 75.9497 267.2 76.2561 266.737 76.2561H266.763ZM157.477 73.9894C156.989 73.9894 156.5 73.6218 156.32 73.0398C156.063 72.274 156.397 71.4164 157.04 71.11C159.406 70.0073 161.773 68.9965 164.139 68.0163C164.808 67.7713 165.502 68.1695 165.734 68.9353C165.965 69.701 165.605 70.5587 164.962 70.8344C162.621 71.7839 160.281 72.7948 157.94 73.8975C157.786 73.9587 157.632 73.9894 157.477 73.9894ZM252.951 69.2416C252.822 69.2416 252.668 69.2416 252.539 69.1497C250.199 68.1695 247.807 67.2505 245.466 66.4541C244.798 66.2397 244.412 65.4127 244.618 64.6163C244.798 63.8199 245.492 63.3604 246.161 63.6055C248.579 64.4325 250.996 65.3514 253.388 66.3623C254.031 66.6379 254.391 67.4956 254.16 68.2614C253.98 68.874 253.491 69.2416 252.977 69.2416H252.951ZM171.701 68.2001C171.161 68.2001 170.672 67.7713 170.492 67.128C170.286 66.3316 170.672 65.5046 171.341 65.2902C173.758 64.4325 176.227 63.6667 178.645 62.9622C179.314 62.7784 179.983 63.2685 180.163 64.0649C180.317 64.8613 179.905 65.6577 179.237 65.8722C176.845 66.5767 174.427 67.3424 172.035 68.1695C171.906 68.2001 171.804 68.2307 171.675 68.2307L171.701 68.2001ZM238.522 64.31C238.522 64.31 238.342 64.31 238.265 64.2793C235.847 63.6361 233.404 63.0847 230.96 62.6559C230.266 62.5334 229.803 61.7676 229.906 60.9406C230.009 60.1135 230.652 59.5622 231.346 59.6847C233.841 60.1442 236.336 60.6955 238.805 61.3388C239.474 61.5226 239.911 62.319 239.756 63.1154C239.628 63.8199 239.113 64.2793 238.548 64.2793L238.522 64.31ZM186.284 63.973C185.693 63.973 185.178 63.4829 185.049 62.7784C184.921 61.982 185.358 61.1856 186.053 61.0325C188.522 60.4505 191.042 59.9604 193.537 59.5622C194.232 59.4703 194.849 60.0216 194.952 60.818C195.055 61.6451 194.566 62.3802 193.897 62.5027C191.454 62.9009 188.985 63.391 186.541 63.9424C186.464 63.9424 186.387 63.9424 186.31 63.9424L186.284 63.973ZM223.681 61.5838C223.681 61.5838 223.604 61.5838 223.553 61.5838C221.109 61.3081 218.614 61.1244 216.12 61.0325C215.425 61.0325 214.885 60.3279 214.911 59.5009C214.911 58.6739 215.477 58.0306 216.197 58.0613C218.717 58.1532 221.289 58.3369 223.784 58.6126C224.479 58.6739 224.967 59.409 224.916 60.2361C224.864 61.0018 224.299 61.5838 223.681 61.5838ZM201.15 61.5226C200.507 61.5226 199.967 60.9406 199.916 60.1442C199.864 59.3171 200.379 58.6126 201.047 58.5207C203.594 58.2757 206.14 58.0919 208.635 58C209.355 58 209.895 58.6126 209.921 59.4396C209.921 60.2667 209.407 60.9406 208.712 60.9712C206.269 61.0631 203.774 61.2162 201.279 61.4613C201.253 61.4613 201.202 61.4613 201.176 61.4613L201.15 61.5226Z" fill="#A9A8AD"/>
<path d="M276.341 109.334C276.11 109.334 275.905 109.283 275.699 109.154C274.646 108.514 273.568 107.873 272.515 107.284C271.924 106.951 271.719 106.182 272.052 105.593C272.386 105.004 273.157 104.799 273.748 105.132C274.826 105.747 275.931 106.387 277.009 107.053C277.6 107.412 277.78 108.181 277.42 108.77C277.189 109.154 276.778 109.359 276.341 109.359V109.334Z" fill="white"/>
<path d="M277.061 108.873C276.83 108.873 276.573 108.796 276.367 108.668C275.802 108.283 275.648 107.515 276.033 106.925C276.753 105.875 277.472 104.85 278.191 103.825C278.602 103.261 279.372 103.133 279.937 103.543C280.502 103.953 280.631 104.722 280.22 105.285C279.501 106.285 278.781 107.31 278.088 108.335C277.857 108.693 277.446 108.873 277.061 108.873Z" fill="white"/>
<path d="M542.176 84.4737C541.843 84.4737 541.509 84.3456 541.252 84.0637C539.634 82.2958 537.939 80.5022 536.141 78.7087C535.653 78.2218 535.653 77.4275 536.141 76.9407C536.629 76.4539 537.425 76.4539 537.913 76.9407C539.737 78.7599 541.457 80.5791 543.101 82.3727C543.563 82.8851 543.538 83.6794 543.024 84.1406C542.793 84.3712 542.485 84.4737 542.176 84.4737ZM531.647 73.8916C531.338 73.8916 531.03 73.7892 530.799 73.5586C529.027 71.9187 527.178 70.2533 525.277 68.6134C524.764 68.1522 524.687 67.3836 525.149 66.8455C525.611 66.333 526.382 66.2818 526.921 66.7174C528.847 68.3828 530.722 70.0483 532.52 71.7394C533.034 72.2006 533.059 72.9949 532.597 73.5073C532.34 73.7635 532.006 73.8916 531.672 73.8916H531.647ZM520.346 64.1039C520.064 64.1039 519.781 64.0014 519.55 63.822C517.65 62.2847 515.698 60.7473 513.695 59.2356C513.155 58.8257 513.053 58.0314 513.463 57.4933C513.874 56.9552 514.671 56.8527 515.21 57.2627C517.239 58.8 519.191 60.3374 521.117 61.9004C521.656 62.3359 521.733 63.1302 521.297 63.6427C521.04 63.9501 520.68 64.1039 520.321 64.1039H520.346ZM272.947 55.8278C272.665 55.8278 272.408 55.751 272.177 55.5716C271.638 55.136 271.535 54.3674 271.972 53.8293C273.538 51.8564 275.156 49.9091 276.774 48.0386C277.236 47.5262 278.007 47.4749 278.546 47.9105C279.06 48.3717 279.111 49.1404 278.675 49.6784C277.057 51.4976 275.464 53.4193 273.949 55.3666C273.692 55.6741 273.333 55.8535 272.973 55.8535L272.947 55.8278ZM508.481 55.0335C508.224 55.0335 507.967 54.9567 507.762 54.8029C505.759 53.3681 503.73 51.9588 501.675 50.5496C501.11 50.1653 500.956 49.3966 501.341 48.8073C501.727 48.2436 502.497 48.0899 503.088 48.4742C505.168 49.8834 507.223 51.3183 509.252 52.7788C509.817 53.1887 509.945 53.9574 509.534 54.5211C509.277 54.8542 508.918 55.0335 508.507 55.0335H508.481ZM496.102 46.655C495.871 46.655 495.64 46.6038 495.434 46.45C493.354 45.1177 491.248 43.8109 489.117 42.5298C488.526 42.1711 488.346 41.4024 488.706 40.8131C489.065 40.2238 489.836 40.0444 490.426 40.3775C492.584 41.6843 494.715 42.991 496.796 44.349C497.386 44.7333 497.54 45.502 497.181 46.0657C496.95 46.4244 496.539 46.6294 496.128 46.6294L496.102 46.655ZM282.784 44.6308C282.476 44.6308 282.167 44.5027 281.911 44.2721C281.423 43.7853 281.397 42.991 281.911 42.5042C283.657 40.7106 285.48 38.9426 287.304 37.2516C287.818 36.7904 288.588 36.816 289.076 37.3284C289.538 37.8409 289.513 38.6352 288.999 39.0964C287.201 40.7362 285.429 42.4785 283.683 44.2465C283.426 44.5027 283.118 44.6308 282.784 44.6308ZM483.312 38.9426C483.107 38.9426 482.901 38.8914 482.696 38.7889C480.539 37.559 478.381 36.3804 476.173 35.2018C475.556 34.8687 475.325 34.1256 475.659 33.5107C475.993 32.8958 476.738 32.6908 477.354 32.9982C479.563 34.1769 481.771 35.3811 483.929 36.611C484.519 36.9441 484.751 37.7128 484.391 38.3021C484.16 38.712 483.749 38.9426 483.312 38.9426ZM293.802 34.5612C293.442 34.5612 293.083 34.4075 292.826 34.1C292.389 33.5619 292.466 32.7933 293.005 32.3577C294.957 30.7691 296.961 29.2318 298.989 27.7713C299.554 27.3613 300.325 27.4894 300.736 28.0531C301.147 28.6168 301.018 29.3855 300.453 29.7954C298.476 31.2303 296.498 32.742 294.598 34.2794C294.367 34.4587 294.084 34.5612 293.802 34.5612ZM470.137 31.9221C469.957 31.9221 469.752 31.8709 469.572 31.794C467.364 30.6922 465.129 29.6161 462.869 28.5656C462.253 28.2837 461.97 27.5407 462.278 26.9001C462.561 26.2852 463.306 26.0033 463.948 26.3108C466.233 27.3613 468.468 28.4631 470.702 29.5648C471.319 29.8723 471.575 30.6154 471.267 31.2303C471.036 31.6659 470.599 31.9221 470.137 31.9221ZM305.924 25.8496C305.513 25.8496 305.102 25.6446 304.871 25.2603C304.511 24.671 304.665 23.9023 305.256 23.5436C307.388 22.2112 309.571 20.9301 311.754 19.7258C312.37 19.3927 313.115 19.6233 313.449 20.2127C313.783 20.8276 313.551 21.5706 312.961 21.9037C310.803 23.0824 308.672 24.3379 306.591 25.6446C306.386 25.7727 306.155 25.824 305.924 25.824V25.8496ZM456.603 25.5934C456.448 25.5934 456.269 25.5677 456.115 25.4909C453.829 24.4916 451.543 23.5436 449.232 22.6212C448.59 22.3649 448.281 21.6475 448.538 21.0069C448.795 20.3664 449.514 20.0589 450.156 20.3151C452.493 21.2376 454.805 22.2112 457.091 23.2105C457.733 23.4923 458.015 24.2098 457.733 24.8503C457.527 25.3115 457.065 25.5934 456.577 25.5934H456.603ZM442.708 20.0333C442.554 20.0333 442.426 20.0333 442.272 19.9564C439.935 19.1109 437.598 18.291 435.26 17.4967C434.618 17.2661 434.259 16.5743 434.464 15.9081C434.67 15.2675 435.389 14.9088 436.057 15.1138C438.445 15.9081 440.808 16.728 443.145 17.5992C443.787 17.8298 444.121 18.5472 443.89 19.1878C443.71 19.7002 443.222 20.0077 442.708 20.0077V20.0333ZM319.047 18.7009C318.585 18.7009 318.123 18.4447 317.917 17.9835C317.635 17.3686 317.917 16.6255 318.534 16.318C320.794 15.2675 323.131 14.2682 325.468 13.3458C326.11 13.0896 326.829 13.3971 327.086 14.0376C327.343 14.6782 327.035 15.3956 326.393 15.6519C324.107 16.5486 321.821 17.5223 319.612 18.5728C319.433 18.6497 319.253 18.7009 319.073 18.7009H319.047ZM428.532 15.3188C428.532 15.3188 428.301 15.3188 428.172 15.2675C425.809 14.5501 423.421 13.8839 421.007 13.269C420.339 13.0896 419.928 12.4234 420.108 11.7573C420.288 11.0911 420.955 10.7067 421.623 10.8605C424.037 11.501 426.451 12.1672 428.866 12.8846C429.533 13.0896 429.893 13.7814 429.713 14.422C429.559 14.9601 429.045 15.3188 428.506 15.3188H428.532ZM332.942 13.2434C332.402 13.2434 331.914 12.9103 331.76 12.3722C331.555 11.706 331.914 11.0142 332.556 10.8092C334.945 10.0405 337.385 9.34874 339.799 8.70818C340.467 8.52882 341.134 8.93878 341.314 9.60497C341.494 10.2712 341.083 10.963 340.415 11.1167C338.027 11.7316 335.638 12.4234 333.301 13.1665C333.173 13.2177 333.044 13.2177 332.916 13.2177L332.942 13.2434ZM414.072 11.5266C414.072 11.5266 413.893 11.5266 413.79 11.501C411.376 10.963 408.962 10.4505 406.522 10.0149C405.854 9.88681 405.392 9.24625 405.52 8.55445C405.649 7.88826 406.291 7.42706 406.984 7.55517C409.45 8.01637 411.889 8.5032 414.329 9.06689C414.997 9.22063 415.434 9.88681 415.28 10.553C415.151 11.1423 414.637 11.5266 414.072 11.5266ZM347.401 9.5281C346.81 9.5281 346.296 9.11814 346.168 8.52882C346.04 7.86264 346.476 7.19646 347.144 7.06835C349.584 6.58152 352.075 6.17156 354.592 5.83847C355.285 5.7616 355.902 6.2228 356.004 6.88899C356.107 7.58079 355.619 8.19573 354.952 8.29822C352.486 8.63131 350.046 9.04127 347.658 9.50247C347.581 9.50247 347.504 9.50247 347.427 9.50247L347.401 9.5281ZM399.408 8.81067C399.408 8.81067 399.279 8.81067 399.228 8.81067C396.788 8.45195 394.323 8.14449 391.883 7.88826C391.189 7.8114 390.701 7.19646 390.778 6.53027C390.856 5.83847 391.498 5.37726 392.14 5.42851C394.631 5.68473 397.122 5.9922 399.588 6.37654C400.281 6.47903 400.743 7.11959 400.641 7.78577C400.538 8.40071 400.024 8.86191 399.408 8.86191V8.81067ZM362.194 7.47831C361.552 7.47831 361.013 6.99148 360.961 6.32529C360.91 5.63349 361.423 5.04417 362.091 4.9673C364.557 4.76232 367.099 4.60859 369.616 4.53172C370.233 4.53172 370.875 5.04417 370.9 5.73598C370.9 6.42778 370.387 6.99148 369.693 7.0171C367.228 7.09397 364.737 7.2477 362.297 7.45268C362.271 7.45268 362.22 7.45268 362.194 7.45268V7.47831ZM384.563 7.27333C384.563 7.27333 384.512 7.27333 384.486 7.27333C382.021 7.11959 379.555 7.0171 377.09 6.99148C376.396 6.99148 375.857 6.40216 375.857 5.73598C375.857 5.04417 376.371 4.5061 377.115 4.5061C379.607 4.55735 382.123 4.63421 384.615 4.78795C385.308 4.83919 385.822 5.42851 385.796 6.12031C385.745 6.7865 385.205 7.29894 384.563 7.29894V7.27333Z" fill="#A9A8AD"/>
<path d="M560.133 137.083C559.748 137.083 559.388 136.904 559.131 136.596C558.386 135.648 557.642 134.674 556.845 133.701C556.409 133.163 556.486 132.394 557.025 131.958C557.565 131.523 558.361 131.6 558.772 132.138C559.593 133.137 560.364 134.111 561.109 135.11C561.52 135.648 561.417 136.442 560.878 136.852C560.646 137.032 560.39 137.108 560.133 137.108V137.083Z" fill="white"/>
<path d="M355.007 226.659C354.75 226.659 354.493 226.582 354.288 226.428C353.723 226.018 353.595 225.25 354.005 224.686C354.75 223.661 355.469 222.662 356.214 221.637C356.625 221.073 357.396 220.945 357.961 221.355C358.526 221.765 358.654 222.534 358.243 223.097C357.524 224.097 356.779 225.096 356.06 226.121C355.829 226.454 355.444 226.633 355.033 226.633L355.007 226.659Z" fill="white"/>
<path d="M383.252 201.157C382.995 201.157 382.738 201.08 382.507 200.9C381.942 200.49 381.839 199.696 382.25 199.158C383.74 197.16 385.229 195.212 386.744 193.291C387.155 192.752 387.951 192.65 388.491 193.06C389.03 193.47 389.133 194.264 388.722 194.802C387.232 196.724 385.743 198.671 384.253 200.644C383.996 200.977 383.637 201.131 383.252 201.131V201.157ZM392.292 189.498C392.009 189.498 391.752 189.422 391.521 189.217C390.982 188.781 390.905 188.012 391.316 187.474C392.882 185.527 394.423 183.605 395.99 181.735C396.427 181.197 397.223 181.12 397.736 181.581C398.276 182.017 398.353 182.811 397.891 183.349C396.35 185.219 394.809 187.116 393.242 189.037C392.985 189.345 392.626 189.498 392.266 189.498H392.292ZM401.692 178.148C401.409 178.148 401.127 178.045 400.87 177.84C400.356 177.405 400.279 176.61 400.741 176.072C402.359 174.176 404.003 172.331 405.621 170.512C406.083 170 406.879 169.949 407.393 170.41C407.907 170.871 407.958 171.665 407.496 172.178C405.878 173.971 404.285 175.816 402.667 177.712C402.411 177.994 402.077 178.148 401.717 178.148H401.692ZM411.502 167.156C411.194 167.156 410.886 167.053 410.655 166.823C410.141 166.361 410.115 165.567 410.578 165.055C412.273 163.21 413.968 161.442 415.663 159.674C416.151 159.187 416.947 159.161 417.435 159.648C417.923 160.135 417.949 160.904 417.461 161.416C415.791 163.159 414.096 164.927 412.401 166.746C412.144 167.002 411.81 167.156 411.477 167.156H411.502ZM421.775 156.574C421.441 156.574 421.133 156.445 420.876 156.215C420.388 155.728 420.388 154.934 420.876 154.447C422.648 152.679 424.446 150.962 426.218 149.297C426.706 148.836 427.502 148.836 427.99 149.348C428.453 149.861 428.453 150.629 427.939 151.116C426.193 152.756 424.42 154.473 422.648 156.215C422.417 156.445 422.083 156.574 421.775 156.574ZM432.51 146.478C432.177 146.478 431.817 146.35 431.586 146.068C431.124 145.556 431.175 144.762 431.689 144.3C433.563 142.635 435.413 140.995 437.287 139.432C437.827 138.997 438.597 139.048 439.059 139.586C439.496 140.124 439.445 140.893 438.905 141.354C437.056 142.917 435.233 144.505 433.358 146.171C433.127 146.376 432.819 146.478 432.536 146.478H432.51ZM443.785 136.972C443.425 136.972 443.066 136.819 442.809 136.511C442.373 135.973 442.475 135.179 443.015 134.769C444.992 133.206 446.944 131.694 448.896 130.234C449.461 129.824 450.231 129.926 450.642 130.49C451.053 131.028 450.95 131.822 450.385 132.232C448.459 133.667 446.533 135.153 444.581 136.716C444.35 136.896 444.068 136.998 443.811 136.998L443.785 136.972ZM455.599 128.158C455.214 128.158 454.803 127.979 454.572 127.62C454.186 127.057 454.315 126.288 454.88 125.878C456.96 124.443 459.015 123.059 461.044 121.753C461.634 121.368 462.405 121.548 462.764 122.137C463.15 122.726 462.97 123.495 462.379 123.854C460.35 125.135 458.321 126.493 456.292 127.928C456.087 128.081 455.83 128.158 455.573 128.158H455.599ZM468.029 120.215C467.593 120.215 467.182 119.985 466.951 119.6C466.591 119.011 466.797 118.242 467.387 117.884C469.57 116.603 471.728 115.398 473.885 114.271C474.501 113.963 475.246 114.194 475.58 114.783C475.914 115.398 475.683 116.141 475.066 116.474C472.96 117.602 470.829 118.781 468.671 120.036C468.466 120.164 468.26 120.215 468.029 120.215ZM572.865 113.81C572.634 113.81 572.403 113.759 572.197 113.605C570.168 112.298 568.062 111.094 565.905 109.992C565.289 109.685 565.058 108.916 565.366 108.327C565.674 107.712 566.444 107.481 567.035 107.788C569.244 108.916 571.452 110.171 573.533 111.529C574.123 111.914 574.278 112.682 573.918 113.246C573.687 113.605 573.276 113.81 572.865 113.81ZM481.076 113.323C480.614 113.323 480.151 113.067 479.946 112.606C479.663 111.991 479.92 111.248 480.537 110.94C482.797 109.864 485.108 108.865 487.342 107.942C487.985 107.686 488.704 107.993 488.96 108.608C489.217 109.249 488.909 109.966 488.293 110.223C486.084 111.119 483.824 112.119 481.59 113.169C481.41 113.246 481.23 113.297 481.05 113.297L481.076 113.323ZM494.713 107.737C494.2 107.737 493.712 107.404 493.532 106.892C493.301 106.251 493.66 105.534 494.302 105.303C496.665 104.483 499.054 103.74 501.416 103.074C502.084 102.895 502.778 103.279 502.957 103.945C503.137 104.611 502.752 105.303 502.084 105.482C499.773 106.123 497.436 106.866 495.124 107.686C494.996 107.737 494.842 107.763 494.713 107.763V107.737ZM559.741 107.071C559.587 107.071 559.433 107.045 559.279 106.994C557.045 106.123 554.733 105.329 552.396 104.663C551.728 104.483 551.343 103.791 551.549 103.125C551.728 102.459 552.422 102.075 553.09 102.28C555.478 102.971 557.892 103.791 560.178 104.688C560.82 104.944 561.128 105.662 560.871 106.302C560.666 106.789 560.204 107.097 559.716 107.097L559.741 107.071ZM508.916 103.74C508.351 103.74 507.811 103.33 507.683 102.766C507.529 102.1 507.965 101.434 508.633 101.28C511.099 100.768 513.564 100.307 515.978 99.9736C516.672 99.8712 517.288 100.358 517.391 101.024C517.494 101.716 517.006 102.331 516.338 102.433C513.975 102.766 511.561 103.202 509.147 103.715C509.07 103.715 508.967 103.74 508.89 103.74H508.916ZM545.565 102.971C545.565 102.971 545.41 102.971 545.333 102.971C542.971 102.51 540.556 102.177 538.142 101.921C537.449 101.844 536.961 101.255 537.012 100.563C537.089 99.8712 537.706 99.3587 538.373 99.4356C540.865 99.6918 543.356 100.051 545.796 100.512C546.463 100.64 546.926 101.306 546.797 101.972C546.695 102.562 546.155 102.971 545.565 102.971ZM523.503 101.69C522.861 101.69 522.296 101.178 522.271 100.537C522.219 99.8455 522.759 99.2562 523.426 99.205C525.481 99.0769 527.535 99 529.564 99H530.9C531.593 99 532.133 99.5893 532.133 100.281C532.133 100.973 531.593 101.511 530.874 101.511H529.564C527.587 101.511 525.584 101.562 523.58 101.69C523.555 101.69 523.529 101.69 523.503 101.69Z" fill="#A9A8AD"/>
<path d="M553.243 317.234C552.961 317.234 552.678 317.132 552.447 316.952C551.908 316.517 551.856 315.722 552.293 315.184C553.089 314.236 553.885 313.263 554.681 312.315C555.118 311.777 555.914 311.7 556.428 312.161C556.967 312.596 557.044 313.391 556.582 313.929C555.786 314.877 554.99 315.851 554.168 316.799C553.911 317.08 553.577 317.234 553.218 317.234H553.243Z" fill="white"/>
<path d="M560.357 287.546C560.075 287.546 559.818 287.47 559.587 287.265C559.047 286.829 558.97 286.06 559.381 285.522C560.948 283.549 562.489 281.602 563.978 279.68C564.389 279.142 565.185 279.04 565.725 279.45C566.264 279.86 566.367 280.654 565.956 281.192C564.466 283.139 562.925 285.112 561.333 287.085C561.076 287.393 560.717 287.546 560.357 287.546ZM569.449 275.709C569.192 275.709 568.935 275.632 568.704 275.478C568.139 275.068 568.036 274.3 568.447 273.736C569.937 271.712 571.4 269.713 572.787 267.715C573.198 267.151 573.969 267.023 574.534 267.407C575.099 267.792 575.227 268.586 574.842 269.149C573.429 271.148 571.965 273.172 570.45 275.222C570.219 275.555 569.834 275.734 569.449 275.734V275.709ZM578.052 263.513C577.821 263.513 577.564 263.436 577.359 263.308C576.794 262.923 576.64 262.155 577.025 261.591C578.437 259.49 579.799 257.44 581.083 255.39C581.468 254.801 582.213 254.647 582.803 255.006C583.394 255.365 583.548 256.133 583.189 256.723C581.879 258.798 580.492 260.873 579.08 262.974C578.848 263.333 578.437 263.538 578.052 263.538V263.513ZM586.065 250.932C585.834 250.932 585.629 250.881 585.423 250.753C584.832 250.394 584.627 249.625 584.986 249.036C586.296 246.884 587.529 244.731 588.736 242.63C589.07 242.041 589.84 241.81 590.431 242.143C591.022 242.477 591.253 243.245 590.893 243.835C589.686 245.961 588.428 248.139 587.118 250.291C586.887 250.676 586.476 250.906 586.039 250.906L586.065 250.932ZM593.41 237.941C593.205 237.941 593.025 237.89 592.82 237.788C592.203 237.48 591.972 236.712 592.306 236.097C593.487 233.867 594.592 231.664 595.67 229.486C595.979 228.871 596.723 228.615 597.34 228.922C597.956 229.23 598.213 229.973 597.905 230.588C596.826 232.791 595.696 235.02 594.515 237.275C594.284 237.711 593.847 237.941 593.41 237.941ZM599.934 224.541C599.754 224.541 599.6 224.515 599.42 224.438C598.778 224.157 598.495 223.413 598.778 222.799C599.805 220.493 600.756 218.212 601.654 215.983C601.911 215.342 602.63 215.035 603.272 215.291C603.914 215.547 604.223 216.265 603.966 216.905C603.067 219.186 602.091 221.492 601.038 223.823C600.833 224.285 600.37 224.566 599.908 224.566L599.934 224.541ZM605.481 210.705C605.353 210.705 605.199 210.705 605.07 210.628C604.428 210.397 604.069 209.68 604.3 209.039C605.147 206.656 605.918 204.325 606.611 202.019C606.817 201.353 607.51 200.994 608.178 201.199C608.845 201.404 609.205 202.096 609 202.762C608.28 205.093 607.51 207.476 606.637 209.885C606.457 210.397 605.969 210.705 605.455 210.705H605.481ZM609.821 196.459C609.821 196.459 609.616 196.459 609.513 196.433C608.845 196.254 608.435 195.588 608.614 194.921C609.231 192.487 609.77 190.053 610.232 187.721C610.361 187.055 611.028 186.62 611.696 186.748C612.364 186.876 612.826 187.542 612.672 188.208C612.21 190.591 611.645 193.051 611.028 195.536C610.874 196.1 610.386 196.484 609.821 196.484V196.459ZM612.672 181.828C612.672 181.828 612.569 181.828 612.492 181.828C611.799 181.726 611.337 181.111 611.414 180.419C611.748 177.959 612.004 175.5 612.159 173.091C612.21 172.399 612.826 171.912 613.494 171.938C614.187 171.989 614.701 172.579 614.65 173.27C614.47 175.73 614.213 178.267 613.879 180.752C613.802 181.367 613.263 181.828 612.646 181.828H612.672ZM613.674 166.967C612.98 166.967 612.441 166.404 612.415 165.737C612.415 163.252 612.287 160.792 612.081 158.409C612.03 157.718 612.518 157.128 613.212 157.051C613.905 157 614.496 157.487 614.573 158.179C614.778 160.639 614.907 163.175 614.932 165.712C614.932 166.404 614.393 166.967 613.699 166.967H613.674ZM612.313 152.157C611.722 152.157 611.208 151.748 611.08 151.133C610.618 148.698 610.053 146.29 609.385 144.01C609.179 143.343 609.565 142.652 610.232 142.472C610.9 142.267 611.593 142.652 611.773 143.318C612.492 145.675 613.083 148.16 613.545 150.697C613.674 151.363 613.211 152.029 612.544 152.157C612.467 152.157 612.39 152.157 612.313 152.157ZM608.024 137.911C607.536 137.911 607.073 137.63 606.868 137.168C605.892 134.914 604.762 132.736 603.529 130.712C603.17 130.122 603.349 129.354 603.94 128.995C604.531 128.636 605.301 128.815 605.661 129.405C606.945 131.531 608.126 133.812 609.154 136.169C609.436 136.81 609.154 137.527 608.512 137.809C608.358 137.886 608.178 137.911 608.024 137.911ZM600.242 125.254C599.882 125.254 599.548 125.1 599.292 124.818C597.699 122.948 595.979 121.231 594.155 119.745C593.616 119.31 593.539 118.515 594.001 117.977C594.438 117.439 595.234 117.362 595.747 117.823C597.674 119.412 599.523 121.231 601.192 123.204C601.629 123.717 601.577 124.511 601.038 124.972C600.807 125.177 600.524 125.28 600.242 125.28V125.254ZM588.787 115.825C588.582 115.825 588.377 115.774 588.197 115.671C586.065 114.518 583.831 113.596 581.545 112.904C580.877 112.699 580.518 112.007 580.698 111.341C580.903 110.675 581.571 110.29 582.264 110.495C584.704 111.213 587.092 112.212 589.378 113.468C589.995 113.801 590.2 114.544 589.866 115.159C589.635 115.569 589.224 115.799 588.762 115.799L588.787 115.825ZM567.137 111.828C566.521 111.828 565.981 111.367 565.904 110.752C565.802 110.06 566.29 109.445 566.983 109.342C569.551 108.984 572.171 108.907 574.688 109.112C575.381 109.163 575.895 109.752 575.844 110.444C575.792 111.136 575.124 111.648 574.508 111.597C572.145 111.418 569.705 111.495 567.317 111.828C567.266 111.828 567.214 111.828 567.137 111.828Z" fill="#A9A8AD"/>
<path d="M559.337 317.234C558.926 317.234 558.515 317.029 558.284 316.645C557.616 315.594 556.974 314.518 556.306 313.493C555.946 312.904 556.101 312.135 556.691 311.777C557.282 311.418 558.052 311.572 558.412 312.161C559.08 313.212 559.747 314.288 560.415 315.338C560.775 315.928 560.595 316.696 560.004 317.055C559.799 317.183 559.568 317.234 559.337 317.234Z" fill="white"/>
<path d="M553.404 307.959C552.993 307.959 552.608 307.754 552.351 307.395C551.016 305.371 549.654 303.347 548.293 301.374C547.908 300.81 548.036 300.042 548.627 299.632C549.192 299.247 549.963 299.375 550.373 299.965C551.76 301.963 553.096 303.987 554.457 306.037C554.842 306.601 554.688 307.395 554.097 307.754C553.892 307.882 553.635 307.959 553.404 307.959ZM545.16 295.942C544.775 295.942 544.389 295.763 544.133 295.43C542.72 293.457 541.282 291.484 539.844 289.562C539.433 288.998 539.535 288.23 540.1 287.82C540.64 287.41 541.436 287.512 541.847 288.076C543.285 290.023 544.723 291.996 546.162 293.995C546.572 294.558 546.418 295.327 545.879 295.737C545.648 295.891 545.417 295.968 545.16 295.968V295.942ZM536.454 284.258C536.068 284.258 535.709 284.079 535.478 283.771C533.988 281.85 532.473 279.954 530.983 278.083C530.547 277.545 530.624 276.751 531.163 276.341C531.702 275.905 532.473 275.982 532.909 276.52C534.425 278.416 535.94 280.312 537.455 282.26C537.866 282.798 537.763 283.592 537.224 284.002C536.993 284.181 536.736 284.258 536.454 284.258ZM527.285 272.907C526.925 272.907 526.566 272.754 526.335 272.472C524.768 270.601 523.176 268.782 521.609 266.963C521.147 266.451 521.198 265.656 521.712 265.195C522.226 264.734 523.022 264.785 523.484 265.298C525.076 267.117 526.669 268.962 528.261 270.832C528.697 271.37 528.646 272.139 528.107 272.6C527.876 272.805 527.593 272.882 527.311 272.882L527.285 272.907ZM517.654 261.967C517.32 261.967 516.986 261.839 516.729 261.557C515.086 259.763 513.416 257.995 511.747 256.279C511.259 255.792 511.285 254.997 511.773 254.511C512.261 254.024 513.057 254.049 513.545 254.536C515.214 256.279 516.884 258.046 518.553 259.866C519.015 260.378 518.989 261.172 518.476 261.634C518.245 261.864 517.937 261.967 517.628 261.967H517.654ZM507.535 251.462C507.227 251.462 506.893 251.333 506.662 251.103C504.916 249.386 503.195 247.695 501.448 246.055C500.935 245.594 500.935 244.8 501.397 244.287C501.885 243.775 502.655 243.775 503.169 244.236C504.941 245.901 506.688 247.593 508.434 249.335C508.922 249.822 508.922 250.616 508.434 251.103C508.177 251.359 507.869 251.462 507.535 251.462ZM496.928 241.469C496.62 241.469 496.338 241.366 496.106 241.161C494.283 239.521 492.46 237.933 490.636 236.396C490.122 235.96 490.045 235.166 490.482 234.628C490.919 234.09 491.715 234.038 492.254 234.474C494.103 236.037 495.952 237.651 497.776 239.291C498.289 239.752 498.341 240.546 497.879 241.059C497.622 241.341 497.288 241.469 496.954 241.469H496.928ZM485.782 232.04C485.5 232.04 485.243 231.963 485.012 231.758C483.111 230.246 481.185 228.76 479.259 227.325C478.694 226.915 478.591 226.121 479.002 225.583C479.413 225.045 480.209 224.917 480.748 225.327C482.675 226.761 484.626 228.273 486.553 229.811C487.092 230.246 487.169 231.015 486.758 231.553C486.501 231.86 486.142 232.014 485.782 232.014V232.04ZM474.097 223.302C473.84 223.302 473.609 223.226 473.377 223.072C471.374 221.663 469.371 220.33 467.368 219.049C466.777 218.665 466.623 217.896 467.008 217.332C467.368 216.743 468.164 216.589 468.729 216.974C470.758 218.28 472.787 219.638 474.816 221.048C475.381 221.432 475.509 222.226 475.124 222.79C474.893 223.149 474.482 223.328 474.097 223.328V223.302ZM361.685 217.819C361.402 217.819 361.094 217.717 360.863 217.512C360.349 217.051 360.298 216.256 360.76 215.744C362.429 213.873 364.176 212.105 365.974 210.466C366.487 210.004 367.283 210.03 367.746 210.568C368.208 211.081 368.157 211.875 367.643 212.336C365.897 213.899 364.227 215.616 362.609 217.409C362.352 217.691 362.018 217.819 361.685 217.819ZM461.846 215.411C461.641 215.411 461.409 215.36 461.204 215.231C459.098 213.976 456.992 212.797 454.886 211.695C454.27 211.362 454.039 210.619 454.373 210.004C454.706 209.389 455.451 209.184 456.068 209.492C458.199 210.619 460.331 211.824 462.462 213.079C463.053 213.438 463.259 214.181 462.899 214.796C462.668 215.18 462.257 215.411 461.82 215.411H461.846ZM448.979 208.57C448.799 208.57 448.62 208.518 448.44 208.441C446.231 207.391 443.997 206.417 441.839 205.52C441.197 205.264 440.889 204.521 441.172 203.906C441.429 203.266 442.173 202.958 442.79 203.24C444.998 204.137 447.258 205.136 449.519 206.212C450.135 206.52 450.417 207.263 450.109 207.878C449.904 208.339 449.441 208.595 448.979 208.595V208.57ZM372.523 208.108C372.137 208.108 371.752 207.929 371.495 207.57C371.11 207.007 371.238 206.238 371.803 205.828C373.832 204.393 375.99 203.112 378.173 201.959C378.789 201.652 379.534 201.882 379.868 202.497C380.176 203.112 379.945 203.855 379.328 204.188C377.222 205.29 375.194 206.52 373.242 207.878C373.036 208.031 372.779 208.108 372.523 208.108ZM435.47 203.035C435.342 203.035 435.188 203.035 435.059 202.958C432.748 202.164 430.411 201.447 428.176 200.857C427.509 200.678 427.123 199.986 427.303 199.32C427.483 198.654 428.176 198.269 428.844 198.449C431.156 199.064 433.518 199.807 435.907 200.601C436.549 200.832 436.908 201.523 436.677 202.19C436.498 202.702 436.01 203.035 435.496 203.035H435.47ZM385.415 201.37C384.902 201.37 384.439 201.062 384.234 200.55C384.003 199.909 384.336 199.192 384.979 198.961C387.29 198.116 389.704 197.424 392.118 196.86C392.786 196.706 393.454 197.142 393.608 197.808C393.762 198.474 393.325 199.141 392.658 199.294C390.321 199.832 388.035 200.498 385.826 201.293C385.672 201.344 385.544 201.37 385.389 201.37H385.415ZM421.396 199.269C421.396 199.269 421.242 199.269 421.165 199.269C418.777 198.807 416.388 198.474 414.051 198.218C413.358 198.141 412.87 197.526 412.947 196.86C413.024 196.168 413.64 195.681 414.308 195.758C416.696 196.015 419.162 196.373 421.627 196.834C422.295 196.963 422.757 197.629 422.629 198.295C422.526 198.884 421.987 199.32 421.396 199.32V199.269ZM399.618 198.167C398.975 198.167 398.436 197.68 398.385 197.039C398.308 196.348 398.821 195.733 399.489 195.681C401.775 195.451 404.138 195.323 406.5 195.323H406.911C407.605 195.323 408.144 195.886 408.144 196.578C408.144 197.27 407.579 197.808 406.886 197.808H406.5C404.215 197.808 401.929 197.911 399.746 198.141C399.695 198.141 399.669 198.141 399.618 198.141V198.167Z" fill="#A9A8AD"/>
<path d="M355.007 226.659C354.776 226.659 354.545 226.582 354.339 226.454C353.749 226.07 353.595 225.301 353.98 224.737C354.673 223.661 355.392 222.611 356.112 221.611C356.522 221.048 357.293 220.92 357.858 221.329C358.423 221.739 358.551 222.508 358.14 223.072C357.447 224.045 356.754 225.07 356.06 226.095C355.829 226.454 355.418 226.659 355.007 226.659Z" fill="white"/>
<path d="M559.336 317.234C559.131 317.234 558.951 317.183 558.771 317.106L555.433 315.415C554.816 315.107 554.585 314.364 554.893 313.749C555.201 313.135 555.972 312.904 556.563 313.211L559.901 314.928C560.518 315.236 560.749 316.004 560.441 316.594C560.209 317.029 559.773 317.26 559.336 317.26V317.234Z" fill="white"/>
<path d="M549.295 324.361C549.115 324.361 548.909 324.31 548.73 324.233C546.495 323.105 544.235 322.004 542.001 320.902C541.384 320.594 541.128 319.851 541.436 319.236C541.744 318.621 542.489 318.365 543.105 318.673C545.365 319.774 547.599 320.902 549.86 322.029C550.476 322.337 550.733 323.08 550.425 323.695C550.219 324.13 549.757 324.387 549.32 324.387L549.295 324.361ZM535.811 317.725C535.631 317.725 535.452 317.673 535.272 317.597C533.012 316.495 530.752 315.419 528.492 314.343C527.875 314.035 527.593 313.292 527.901 312.677C528.209 312.062 528.954 311.806 529.57 312.088C531.83 313.164 534.091 314.266 536.351 315.342C536.967 315.649 537.224 316.392 536.916 317.007C536.71 317.443 536.248 317.699 535.786 317.699L535.811 317.725ZM522.225 311.268C522.045 311.268 521.866 311.242 521.686 311.14C519.426 310.089 517.14 309.013 514.88 307.988C514.264 307.706 513.981 306.963 514.264 306.323C514.546 305.708 515.291 305.426 515.933 305.708C518.219 306.758 520.479 307.809 522.765 308.885C523.381 309.167 523.663 309.91 523.355 310.55C523.15 311.012 522.688 311.268 522.225 311.268ZM508.562 304.99C508.382 304.99 508.203 304.965 508.049 304.888C505.763 303.863 503.477 302.838 501.191 301.813C500.549 301.531 500.267 300.788 500.549 300.173C500.832 299.558 501.577 299.251 502.193 299.533C504.479 300.558 506.79 301.583 509.076 302.607C509.692 302.889 509.975 303.632 509.692 304.247C509.487 304.708 509.024 304.99 508.562 304.99ZM494.796 298.892C494.642 298.892 494.463 298.867 494.308 298.79C492.023 297.79 489.711 296.791 487.4 295.817C486.758 295.536 486.475 294.818 486.732 294.178C487.015 293.537 487.734 293.255 488.376 293.511C490.687 294.485 492.999 295.484 495.284 296.484C495.926 296.766 496.209 297.483 495.926 298.124C495.721 298.585 495.259 298.867 494.771 298.867L494.796 298.892ZM480.954 292.973C480.799 292.973 480.62 292.948 480.466 292.871C478.154 291.897 475.843 290.949 473.506 290.001C472.864 289.745 472.555 289.002 472.838 288.387C473.095 287.746 473.84 287.439 474.456 287.721C476.767 288.669 479.104 289.642 481.416 290.616C482.058 290.872 482.34 291.615 482.084 292.256C481.878 292.743 481.416 293.025 480.928 293.025L480.954 292.973ZM467.034 287.26C466.88 287.26 466.726 287.234 466.571 287.157C464.234 286.209 461.923 285.287 459.586 284.364C458.944 284.108 458.636 283.391 458.892 282.75C459.149 282.109 459.868 281.802 460.51 282.058C462.847 282.981 465.185 283.903 467.522 284.851C468.164 285.107 468.472 285.825 468.215 286.465C468.01 286.952 467.547 287.234 467.059 287.234L467.034 287.26ZM453.011 281.751C452.857 281.751 452.703 281.725 452.549 281.674C450.212 280.777 447.875 279.88 445.512 278.984C444.87 278.727 444.536 278.01 444.793 277.369C445.05 276.729 445.769 276.396 446.411 276.652C448.773 277.549 451.111 278.445 453.448 279.342C454.09 279.598 454.424 280.316 454.167 280.956C453.987 281.443 453.499 281.751 453.011 281.751ZM438.911 276.421C438.757 276.421 438.629 276.421 438.475 276.344C436.112 275.473 433.775 274.628 431.412 273.757C430.77 273.526 430.436 272.809 430.667 272.168C430.898 271.527 431.618 271.194 432.26 271.425C434.622 272.27 436.985 273.142 439.348 274.013C439.99 274.243 440.324 274.961 440.093 275.601C439.913 276.114 439.425 276.421 438.911 276.421ZM424.735 271.322C424.606 271.322 424.452 271.322 424.324 271.246C421.961 270.4 419.598 269.58 417.21 268.786C416.568 268.555 416.208 267.863 416.439 267.197C416.67 266.557 417.39 266.198 418.032 266.429C420.42 267.248 422.783 268.068 425.146 268.914C425.788 269.145 426.147 269.862 425.916 270.503C425.736 271.015 425.248 271.322 424.735 271.322ZM410.481 266.429C410.353 266.429 410.224 266.429 410.096 266.352C407.707 265.557 405.344 264.763 402.956 263.994C402.288 263.789 401.954 263.072 402.16 262.431C402.365 261.765 403.084 261.432 403.726 261.637C406.115 262.406 408.503 263.2 410.892 263.994C411.534 264.225 411.893 264.917 411.688 265.583C411.508 266.095 411.02 266.429 410.507 266.429H410.481ZM396.15 261.765C396.15 261.765 395.893 261.765 395.765 261.714C393.376 260.945 390.988 260.202 388.574 259.459C387.906 259.254 387.547 258.562 387.752 257.896C387.957 257.23 388.651 256.871 389.319 257.076C391.707 257.819 394.121 258.562 396.51 259.331C397.177 259.536 397.537 260.228 397.332 260.894C397.152 261.432 396.664 261.765 396.15 261.765ZM381.742 257.307C381.742 257.307 381.511 257.307 381.383 257.256C378.969 256.538 376.58 255.821 374.166 255.129C373.498 254.924 373.113 254.232 373.318 253.592C373.524 252.951 374.192 252.541 374.859 252.746C377.274 253.438 379.688 254.155 382.102 254.898C382.77 255.103 383.129 255.795 382.949 256.461C382.795 257 382.282 257.358 381.742 257.358V257.307ZM367.257 253.079C367.257 253.079 367.026 253.079 366.924 253.028C364.509 252.336 362.095 251.67 359.681 251.004C359.013 250.825 358.628 250.133 358.808 249.467C358.988 248.8 359.681 248.416 360.349 248.595C362.763 249.262 365.203 249.928 367.617 250.62C368.285 250.799 368.67 251.491 368.49 252.157C368.336 252.695 367.822 253.054 367.283 253.054L367.257 253.079ZM352.721 249.108C352.721 249.108 352.516 249.108 352.413 249.057C349.973 248.416 347.559 247.775 345.119 247.16C344.451 246.981 344.041 246.315 344.22 245.649C344.4 244.983 345.068 244.573 345.736 244.752C348.175 245.367 350.615 246.007 353.055 246.648C353.723 246.827 354.108 247.519 353.954 248.16C353.8 248.723 353.312 249.082 352.747 249.082L352.721 249.108ZM338.108 245.393C338.108 245.393 337.902 245.393 337.8 245.367C335.36 244.778 332.92 244.188 330.48 243.599C329.812 243.445 329.402 242.779 329.556 242.087C329.71 241.421 330.377 240.986 331.071 241.165C333.511 241.754 335.976 242.343 338.416 242.933C339.084 243.087 339.495 243.778 339.341 244.445C339.212 245.008 338.699 245.393 338.134 245.393H338.108ZM18.1561 245.264C17.6167 245.264 17.1288 244.931 16.9747 244.393C16.7692 243.727 17.1288 243.035 17.7965 242.83C20.185 242.062 22.5991 241.344 25.0133 240.627C25.681 240.422 26.3744 240.806 26.5799 241.472C26.7854 242.138 26.4001 242.83 25.7324 243.01C23.3439 243.727 20.9554 244.445 18.567 245.213C18.4386 245.264 18.3102 245.264 18.1817 245.264H18.1561ZM323.418 241.934C323.418 241.934 323.238 241.934 323.135 241.908C320.695 241.344 318.23 240.806 315.79 240.268C315.122 240.114 314.686 239.448 314.84 238.782C314.994 238.116 315.661 237.68 316.329 237.834C318.795 238.372 321.235 238.91 323.7 239.474C324.368 239.628 324.804 240.294 324.65 240.96C324.522 241.549 324.008 241.934 323.443 241.934H323.418ZM32.5639 240.986C32.0246 240.986 31.5109 240.627 31.3568 240.063C31.1771 239.397 31.5623 238.705 32.23 238.526C34.6442 237.86 37.084 237.193 39.5239 236.578C40.1916 236.399 40.885 236.809 41.0391 237.475C41.2189 238.141 40.808 238.833 40.1402 238.987C37.7261 239.627 35.3119 240.268 32.8978 240.934C32.7951 240.96 32.6666 240.986 32.5639 240.986ZM308.676 238.731C308.676 238.731 308.496 238.731 308.419 238.705C305.953 238.193 303.488 237.706 301.048 237.219C300.38 237.091 299.944 236.425 300.072 235.759C300.201 235.092 300.843 234.631 301.536 234.785C304.002 235.272 306.467 235.784 308.933 236.297C309.6 236.425 310.037 237.091 309.909 237.783C309.78 238.372 309.266 238.782 308.676 238.782V238.731ZM47.1259 237.219C46.5608 237.219 46.0472 236.835 45.9188 236.271C45.7647 235.605 46.1756 234.939 46.8433 234.759C49.2832 234.17 51.723 233.606 54.1885 233.043C54.8563 232.889 55.524 233.324 55.6781 233.991C55.8322 234.657 55.3956 235.323 54.7279 235.477C52.288 236.015 49.8482 236.604 47.434 237.168C47.3313 237.168 47.2286 237.193 47.1259 237.193V237.219ZM293.883 235.81C293.883 235.81 293.729 235.81 293.652 235.81C291.186 235.349 288.721 234.887 286.255 234.452C285.587 234.324 285.125 233.683 285.253 233.017C285.382 232.351 286.024 231.89 286.692 232.018C289.157 232.453 291.648 232.914 294.114 233.376C294.782 233.504 295.244 234.144 295.115 234.836C295.013 235.425 294.473 235.861 293.883 235.861V235.81ZM61.8162 233.914C61.2255 233.914 60.7119 233.504 60.5835 232.914C60.455 232.248 60.866 231.582 61.5594 231.454C64.0249 230.942 66.4904 230.455 68.9559 229.993C69.6493 229.865 70.2914 230.301 70.4198 230.993C70.5482 231.659 70.1116 232.325 69.4182 232.453C66.9527 232.914 64.5129 233.401 62.0473 233.914C61.9703 233.914 61.8676 233.939 61.7905 233.939L61.8162 233.914ZM279.038 233.145C279.038 233.145 278.91 233.145 278.833 233.145C276.367 232.735 273.876 232.325 271.411 231.941C270.717 231.838 270.255 231.198 270.383 230.506C270.486 229.814 271.128 229.353 271.822 229.481C274.313 229.865 276.804 230.275 279.269 230.685C279.937 230.788 280.399 231.454 280.297 232.12C280.194 232.735 279.655 233.171 279.064 233.171L279.038 233.145ZM76.6093 231.095C76.0186 231.095 75.4793 230.66 75.3765 230.07C75.2481 229.404 75.7104 228.738 76.4038 228.635C78.8693 228.2 81.3605 227.79 83.8517 227.406C84.5195 227.303 85.1615 227.764 85.29 228.431C85.3927 229.122 84.9304 229.737 84.2627 229.865C81.7971 230.25 79.3316 230.66 76.8661 231.095C76.7891 231.095 76.712 231.095 76.6607 231.095H76.6093ZM264.142 230.813C264.142 230.813 264.014 230.813 263.963 230.813C261.471 230.455 258.98 230.096 256.515 229.763C255.821 229.66 255.359 229.045 255.436 228.354C255.539 227.662 256.155 227.201 256.849 227.277C259.34 227.611 261.831 227.969 264.322 228.354C265.016 228.456 265.478 229.097 265.375 229.763C265.272 230.378 264.759 230.813 264.142 230.813ZM249.195 228.764C249.195 228.764 249.093 228.764 249.041 228.764C246.55 228.456 244.059 228.149 241.568 227.867C240.874 227.79 240.386 227.175 240.463 226.483C240.54 225.791 241.182 225.33 241.85 225.381C244.341 225.663 246.858 225.971 249.349 226.278C250.043 226.355 250.531 226.996 250.428 227.662C250.351 228.302 249.812 228.764 249.195 228.764ZM91.4794 228.764C90.863 228.764 90.3237 228.328 90.2467 227.687C90.1439 226.996 90.6319 226.381 91.2996 226.278C93.7908 225.92 96.282 225.586 98.7732 225.279C99.4667 225.202 100.083 225.663 100.16 226.355C100.237 227.047 99.7749 227.662 99.0814 227.739C96.5902 228.046 94.1247 228.379 91.6335 228.738C91.5822 228.738 91.5051 228.738 91.4537 228.738L91.4794 228.764ZM234.222 227.047C234.222 227.047 234.145 227.047 234.094 227.047C231.603 226.791 229.086 226.534 226.595 226.304C225.901 226.253 225.413 225.638 225.465 224.946C225.516 224.254 226.132 223.767 226.826 223.818C229.343 224.049 231.834 224.305 234.351 224.562C235.044 224.638 235.532 225.253 235.455 225.92C235.378 226.56 234.839 227.047 234.222 227.047ZM106.401 226.868C105.785 226.868 105.22 226.406 105.168 225.766C105.091 225.074 105.579 224.459 106.273 224.382C108.764 224.1 111.255 223.844 113.772 223.588C114.465 223.511 115.082 224.023 115.133 224.715C115.21 225.407 114.696 226.022 114.003 226.073C111.512 226.329 109.021 226.586 106.529 226.868C106.478 226.868 106.427 226.868 106.401 226.868ZM219.198 225.663C219.198 225.663 219.121 225.663 219.095 225.663C216.579 225.458 214.087 225.253 211.596 225.1C210.903 225.048 210.389 224.459 210.44 223.767C210.492 223.075 211.108 222.589 211.776 222.614C214.293 222.794 216.81 222.973 219.327 223.178C220.02 223.229 220.534 223.844 220.457 224.51C220.405 225.151 219.866 225.663 219.224 225.663H219.198ZM121.399 225.407C120.757 225.407 120.218 224.92 120.167 224.254C120.115 223.562 120.629 222.973 121.297 222.896C123.788 222.691 126.305 222.486 128.822 222.332C129.515 222.281 130.106 222.794 130.157 223.485C130.209 224.177 129.695 224.766 129.001 224.818C126.51 224.997 124.019 225.176 121.528 225.381C121.502 225.381 121.451 225.381 121.425 225.381L121.399 225.407ZM204.148 224.587C204.148 224.587 204.097 224.587 204.071 224.587C201.554 224.433 199.063 224.305 196.546 224.177C195.853 224.152 195.314 223.562 195.365 222.87C195.391 222.179 196.007 221.641 196.675 221.692C199.192 221.82 201.708 221.948 204.225 222.102C204.919 222.153 205.432 222.742 205.407 223.409C205.355 224.075 204.816 224.587 204.174 224.587H204.148ZM136.398 224.357C135.73 224.357 135.191 223.844 135.14 223.178C135.114 222.486 135.628 221.897 136.321 221.871C138.838 221.743 141.329 221.615 143.846 221.512C144.514 221.436 145.13 222.025 145.156 222.717C145.181 223.409 144.642 223.998 143.949 224.023C141.432 224.126 138.941 224.254 136.449 224.382C136.449 224.382 136.398 224.382 136.372 224.382L136.398 224.357ZM189.073 223.87H189.021C186.504 223.793 184.013 223.716 181.496 223.639C180.803 223.639 180.264 223.05 180.264 222.358C180.264 221.666 180.752 221.154 181.548 221.128C184.065 221.179 186.581 221.256 189.098 221.333C189.792 221.333 190.331 221.922 190.305 222.614C190.305 223.28 189.715 223.818 189.047 223.818L189.073 223.87ZM151.448 223.716C150.78 223.716 150.215 223.178 150.189 222.512C150.189 221.82 150.703 221.256 151.397 221.231C153.913 221.154 156.405 221.102 158.947 221.077C159.641 221.077 160.206 221.615 160.206 222.307C160.206 222.999 159.666 223.562 158.973 223.562C156.456 223.613 153.965 223.665 151.474 223.716H151.448ZM174.023 223.511C171.968 223.511 169.939 223.485 167.885 223.485H166.524C165.83 223.485 165.265 222.922 165.265 222.255C165.265 221.564 165.83 221 166.498 221H167.885C169.939 221 171.994 221 174.048 221.026C174.742 221.026 175.281 221.589 175.281 222.281C175.281 222.973 174.716 223.511 174.023 223.511Z" fill="#A9A8AD"/>
<path d="M8.3196 236.242C7.80596 236.242 7.31799 235.909 7.13821 235.396C6.90707 234.756 7.26662 234.038 7.90868 233.808C9.09008 233.398 10.2715 232.988 11.4785 232.603C12.1206 232.373 12.8397 232.731 13.0709 233.398C13.302 234.038 12.9424 234.756 12.2747 234.986C11.0933 235.371 9.91191 235.78 8.73052 236.19C8.60211 236.242 8.44802 236.267 8.3196 236.267V236.242Z" fill="white"/>
<path d="M277.061 108.873C276.496 108.873 275.982 108.488 275.854 107.925C275.674 107.258 276.085 106.592 276.753 106.413C277.985 106.105 279.218 105.824 280.425 105.542C281.093 105.388 281.761 105.824 281.915 106.49C282.069 107.156 281.632 107.822 280.965 107.976C279.758 108.232 278.55 108.54 277.343 108.821C277.241 108.821 277.138 108.847 277.035 108.847L277.061 108.873Z" fill="white"/>
<path d="M552.017 304.577C551.606 304.577 551.221 304.372 550.964 304.013L546.906 297.838C546.521 297.274 546.701 296.48 547.266 296.121C547.857 295.737 548.627 295.891 548.987 296.48L553.044 302.655C553.43 303.219 553.25 304.013 552.685 304.372C552.479 304.5 552.248 304.577 551.991 304.577H552.017ZM543.876 292.227C543.465 292.227 543.08 292.022 542.823 291.663C541.513 289.69 540.126 287.64 538.714 285.514C538.328 284.95 538.483 284.156 539.048 283.771C539.613 283.387 540.383 283.541 540.768 284.104C542.181 286.231 543.568 288.281 544.877 290.254C545.263 290.818 545.109 291.612 544.518 291.971C544.312 292.099 544.056 292.176 543.824 292.176L543.876 292.227ZM535.606 279.954C535.195 279.954 534.81 279.774 534.579 279.416C533.218 277.443 531.831 275.393 530.393 273.317C530.007 272.754 530.136 271.985 530.701 271.575C531.266 271.191 532.036 271.319 532.447 271.883C533.885 273.958 535.272 275.982 536.633 277.981C537.019 278.544 536.864 279.313 536.299 279.723C536.094 279.877 535.837 279.928 535.606 279.928V279.954ZM527.182 267.809C526.797 267.809 526.412 267.629 526.155 267.271C524.768 265.298 523.33 263.273 521.892 261.249C521.481 260.686 521.609 259.917 522.174 259.507C522.739 259.097 523.51 259.225 523.921 259.789C525.384 261.839 526.823 263.837 528.21 265.836C528.595 266.399 528.466 267.168 527.901 267.578C527.696 267.732 527.439 267.809 527.182 267.809ZM518.579 255.792C518.193 255.792 517.808 255.612 517.577 255.279C516.139 253.306 514.675 251.333 513.211 249.335C512.8 248.771 512.928 248.002 513.468 247.593C514.033 247.183 514.803 247.311 515.214 247.849C516.704 249.847 518.168 251.846 519.606 253.819C520.017 254.382 519.888 255.151 519.323 255.561C519.092 255.715 518.835 255.792 518.579 255.792ZM509.77 243.929C509.384 243.929 509.025 243.749 508.768 243.442C507.304 241.494 505.814 239.547 504.273 237.574C503.863 237.036 503.965 236.242 504.505 235.832C505.044 235.422 505.84 235.524 506.251 236.062C507.766 238.035 509.282 239.983 510.745 241.956C511.156 242.494 511.054 243.288 510.489 243.698C510.257 243.877 510.001 243.954 509.744 243.954L509.77 243.929ZM500.729 232.219C500.37 232.219 499.985 232.065 499.753 231.732C498.238 229.811 496.697 227.889 495.156 225.967C494.72 225.429 494.797 224.635 495.336 224.225C495.875 223.789 496.646 223.866 497.082 224.404C498.649 226.326 500.19 228.273 501.705 230.195C502.142 230.733 502.039 231.527 501.5 231.937C501.269 232.117 500.986 232.193 500.729 232.193V232.219ZM491.458 220.715C491.098 220.715 490.739 220.561 490.482 220.253C488.915 218.357 487.349 216.487 485.756 214.591C485.32 214.053 485.371 213.284 485.911 212.823C486.45 212.387 487.22 212.439 487.683 212.977C489.275 214.873 490.867 216.769 492.434 218.665C492.87 219.203 492.793 219.972 492.254 220.407C492.023 220.586 491.74 220.689 491.458 220.689V220.715ZM481.93 209.415C481.57 209.415 481.236 209.261 480.98 208.98C479.387 207.135 477.769 205.29 476.126 203.445C475.663 202.933 475.715 202.138 476.228 201.677C476.742 201.216 477.538 201.267 478 201.78C479.644 203.624 481.262 205.495 482.88 207.34C483.342 207.852 483.265 208.646 482.752 209.108C482.52 209.313 482.212 209.415 481.93 209.415ZM472.119 198.372C471.785 198.372 471.451 198.244 471.194 197.962C469.551 196.143 467.881 194.349 466.186 192.556C465.724 192.043 465.75 191.274 466.238 190.788C466.751 190.326 467.522 190.352 468.01 190.839C469.705 192.632 471.374 194.452 473.044 196.271C473.506 196.783 473.48 197.578 472.967 198.039C472.735 198.244 472.427 198.372 472.119 198.372ZM462 187.585C461.666 187.585 461.358 187.457 461.101 187.2C459.406 185.432 457.686 183.69 455.939 181.948C455.451 181.461 455.451 180.667 455.939 180.18C456.427 179.693 457.223 179.693 457.711 180.18C459.458 181.922 461.178 183.69 462.899 185.458C463.387 185.945 463.361 186.739 462.873 187.226C462.642 187.457 462.308 187.585 462 187.585ZM451.547 177.105C451.239 177.105 450.931 176.977 450.674 176.746C448.902 175.03 447.13 173.339 445.332 171.648C444.819 171.186 444.793 170.392 445.281 169.88C445.743 169.367 446.539 169.367 447.053 169.828C448.851 171.52 450.649 173.236 452.421 174.953C452.909 175.44 452.934 176.234 452.421 176.721C452.164 176.977 451.856 177.105 451.522 177.105H451.547ZM440.761 166.984C440.453 166.984 440.17 166.882 439.913 166.651C438.09 165.011 436.266 163.372 434.417 161.757C433.904 161.296 433.852 160.527 434.289 159.989C434.751 159.477 435.522 159.426 436.061 159.861C437.936 161.476 439.759 163.115 441.608 164.781C442.122 165.242 442.148 166.036 441.685 166.549C441.429 166.831 441.095 166.959 440.761 166.959V166.984ZM429.615 157.299C429.332 157.299 429.05 157.197 428.818 157.017C426.944 155.454 425.043 153.891 423.117 152.38C422.578 151.944 422.501 151.175 422.912 150.637C423.348 150.099 424.119 150.022 424.658 150.432C426.584 151.97 428.485 153.533 430.385 155.121C430.924 155.557 430.976 156.351 430.539 156.889C430.282 157.197 429.949 157.325 429.589 157.325L429.615 157.299ZM418.083 148.075C417.826 148.075 417.544 147.998 417.338 147.819C415.387 146.333 413.409 144.872 411.431 143.437C410.866 143.027 410.738 142.259 411.149 141.695C411.56 141.131 412.33 141.003 412.895 141.413C414.899 142.874 416.876 144.334 418.854 145.846C419.393 146.256 419.496 147.05 419.085 147.588C418.828 147.921 418.468 148.075 418.083 148.075ZM406.115 139.415C405.884 139.415 405.627 139.338 405.422 139.184C403.393 137.8 401.338 136.442 399.284 135.11C398.693 134.726 398.539 133.957 398.924 133.393C399.309 132.83 400.08 132.65 400.645 133.035C402.725 134.367 404.78 135.751 406.834 137.16C407.399 137.544 407.553 138.338 407.168 138.902C406.937 139.261 406.526 139.44 406.141 139.44L406.115 139.415ZM393.685 131.395C393.454 131.395 393.248 131.344 393.043 131.215C390.937 129.934 388.831 128.704 386.699 127.5C386.109 127.167 385.877 126.398 386.211 125.809C386.545 125.22 387.316 124.989 387.906 125.322C390.064 126.527 392.195 127.782 394.327 129.063C394.918 129.422 395.097 130.191 394.738 130.78C394.507 131.164 394.096 131.369 393.659 131.369L393.685 131.395ZM380.792 124.144C380.587 124.144 380.407 124.092 380.227 124.016C378.044 122.888 375.861 121.786 373.653 120.761C373.036 120.454 372.754 119.711 373.062 119.096C373.37 118.481 374.115 118.225 374.731 118.507C376.966 119.557 379.174 120.659 381.383 121.812C381.999 122.119 382.231 122.888 381.922 123.503C381.691 123.939 381.255 124.169 380.818 124.169L380.792 124.144ZM367.437 117.815C367.283 117.815 367.104 117.789 366.949 117.712C364.689 116.739 362.429 115.816 360.144 114.971C359.502 114.715 359.168 113.997 359.425 113.357C359.681 112.716 360.4 112.409 361.043 112.639C363.354 113.51 365.665 114.458 367.951 115.432C368.593 115.714 368.876 116.431 368.593 117.072C368.388 117.533 367.925 117.815 367.437 117.815ZM353.62 112.562C353.492 112.562 353.363 112.562 353.235 112.511C350.898 111.742 348.561 111.025 346.224 110.359C345.556 110.179 345.171 109.488 345.351 108.821C345.53 108.155 346.224 107.771 346.892 107.95C349.28 108.616 351.643 109.359 354.006 110.128C354.648 110.333 355.007 111.051 354.802 111.691C354.622 112.204 354.134 112.537 353.62 112.537V112.562ZM339.392 108.565C339.392 108.565 339.212 108.565 339.11 108.54C336.721 107.976 334.307 107.489 331.944 107.079C331.277 106.951 330.814 106.31 330.943 105.644C331.071 104.978 331.713 104.517 332.381 104.645C334.795 105.081 337.235 105.567 339.675 106.131C340.342 106.285 340.753 106.951 340.599 107.617C340.471 108.206 339.957 108.591 339.392 108.591V108.565ZM288.002 106.644C287.411 106.644 286.872 106.208 286.769 105.593C286.666 104.901 287.128 104.261 287.796 104.158C290.262 103.748 292.753 103.415 295.193 103.184C295.886 103.108 296.503 103.62 296.554 104.286C296.631 104.978 296.117 105.593 295.45 105.644C293.035 105.9 290.596 106.208 288.181 106.618C288.104 106.618 288.053 106.618 287.976 106.618L288.002 106.644ZM324.856 106.003C324.856 106.003 324.753 106.003 324.702 106.003C322.288 105.695 319.822 105.465 317.408 105.311C316.715 105.26 316.201 104.671 316.252 103.979C316.304 103.287 316.894 102.775 317.588 102.826C320.053 103.005 322.545 103.236 325.01 103.543C325.703 103.62 326.191 104.261 326.089 104.927C326.012 105.567 325.472 106.029 324.856 106.029V106.003ZM302.718 105.132C302.05 105.132 301.511 104.619 301.459 103.953C301.434 103.261 301.973 102.672 302.641 102.646C304.618 102.544 306.57 102.518 308.548 102.518H310.114C310.808 102.518 311.347 103.108 311.347 103.799C311.347 104.491 310.782 105.029 310.089 105.029H308.522C306.596 105.029 304.67 105.055 302.743 105.157C302.743 105.157 302.718 105.157 302.692 105.157L302.718 105.132Z" fill="#A9A8AD"/>
<path d="M558.053 313.775C557.642 313.775 557.256 313.57 557 313.212L554.945 310.086C554.56 309.522 554.74 308.728 555.305 308.369C555.87 307.985 556.666 308.138 557.025 308.728L559.08 311.828C559.465 312.392 559.311 313.186 558.72 313.545C558.515 313.673 558.258 313.75 558.027 313.75L558.053 313.775Z" fill="white"/>
<path d="M351.155 228.837C350.77 228.837 350.359 228.657 350.128 228.299C349.408 227.274 348.689 226.249 347.97 225.25C347.559 224.686 347.713 223.917 348.253 223.507C348.818 223.097 349.588 223.251 349.999 223.789C350.718 224.814 351.437 225.839 352.156 226.864C352.542 227.428 352.413 228.196 351.848 228.606C351.643 228.76 351.386 228.837 351.129 228.837H351.155Z" fill="white"/>
<path d="M14.5094 230.272C14.2012 230.272 13.893 230.144 13.6361 229.913C13.1482 229.426 13.1225 228.657 13.6105 228.145C15.3055 226.377 17.0776 224.609 18.901 222.841C19.389 222.354 20.1852 222.38 20.6731 222.841C21.1611 223.328 21.1354 224.122 20.6731 224.609C18.8754 226.351 17.129 228.094 15.4339 229.862C15.1771 230.118 14.8689 230.246 14.535 230.246L14.5094 230.272ZM25.1676 219.895C24.8337 219.895 24.4998 219.766 24.243 219.485C23.7807 218.972 23.8064 218.203 24.32 217.717C26.1435 216.051 27.9926 214.386 29.8931 212.72C30.4068 212.259 31.2029 212.31 31.6652 212.848C32.1275 213.361 32.0761 214.155 31.5625 214.616C29.6877 216.256 27.8385 217.922 26.0408 219.561C25.8096 219.792 25.5014 219.895 25.1932 219.895H25.1676ZM344.606 219.792C344.22 219.792 343.861 219.613 343.604 219.305C342.089 217.307 340.574 215.359 339.058 213.463C338.622 212.925 338.724 212.131 339.264 211.721C339.803 211.285 340.599 211.362 341.01 211.926C342.551 213.848 344.092 215.821 345.607 217.819C346.018 218.357 345.915 219.151 345.35 219.561C345.119 219.741 344.863 219.818 344.606 219.818V219.792ZM36.3651 210.081C36.0055 210.081 35.646 209.927 35.4149 209.646C34.9783 209.108 35.0553 208.339 35.5689 207.878C37.4694 206.289 39.3956 204.726 41.3732 203.163C41.9125 202.728 42.7087 202.83 43.1196 203.368C43.5562 203.906 43.4535 204.7 42.9141 205.11C40.9623 206.648 39.0361 208.211 37.1613 209.774C36.9301 209.979 36.6476 210.056 36.3651 210.056V210.081ZM335.283 208.185C334.923 208.185 334.59 208.031 334.333 207.75C332.715 205.853 331.071 204.009 329.427 202.215C328.965 201.703 328.991 200.908 329.504 200.447C330.018 199.986 330.814 200.012 331.277 200.524C332.946 202.343 334.59 204.214 336.233 206.135C336.67 206.648 336.618 207.442 336.105 207.903C335.874 208.108 335.591 208.211 335.283 208.211V208.185ZM48.0249 200.831C47.6397 200.831 47.2801 200.652 47.0233 200.345C46.6124 199.807 46.7151 199.012 47.2545 198.602C49.232 197.116 51.2352 195.63 53.2641 194.17C53.8292 193.76 54.5996 193.888 55.0106 194.451C55.4215 195.015 55.2931 195.784 54.728 196.194C52.6991 197.654 50.7216 199.115 48.7697 200.601C48.5386 200.78 48.2818 200.857 48.0249 200.857V200.831ZM325.267 197.219C324.933 197.219 324.625 197.091 324.368 196.834C322.622 195.041 320.875 193.324 319.103 191.633C318.615 191.146 318.589 190.378 319.052 189.865C319.54 189.378 320.31 189.353 320.824 189.814C322.622 191.505 324.394 193.273 326.14 195.066C326.628 195.553 326.602 196.348 326.14 196.834C325.909 197.065 325.575 197.193 325.267 197.193V197.219ZM60.1214 192.145C59.7104 192.145 59.3252 191.966 59.0941 191.607C58.7088 191.044 58.8372 190.275 59.4279 189.865C61.4825 188.456 63.5371 187.098 65.6431 185.714C66.2081 185.33 67.0042 185.509 67.3638 186.073C67.749 186.662 67.5693 187.431 67.0043 187.79C64.924 189.148 62.8694 190.506 60.8405 191.915C60.635 192.069 60.3782 192.12 60.147 192.12L60.1214 192.145ZM314.506 186.97C314.223 186.97 313.915 186.867 313.684 186.662C311.809 185.022 309.934 183.408 308.06 181.871C307.52 181.435 307.443 180.641 307.88 180.129C308.316 179.59 309.113 179.514 309.626 179.949C311.527 181.512 313.427 183.126 315.328 184.792C315.841 185.253 315.893 186.047 315.43 186.56C315.174 186.842 314.84 186.97 314.506 186.97ZM72.603 184.049C72.1921 184.049 71.7812 183.844 71.55 183.459C71.1905 182.87 71.3703 182.101 71.961 181.743C74.0669 180.436 76.1986 179.155 78.3559 177.899C78.9466 177.541 79.7171 177.746 80.0766 178.335C80.4362 178.924 80.2307 179.693 79.64 180.052C77.5084 181.307 75.3767 182.588 73.2964 183.869C73.091 183.998 72.8598 184.049 72.6287 184.049H72.603ZM302.974 177.566C302.718 177.566 302.435 177.489 302.23 177.31C300.252 175.824 298.249 174.363 296.246 172.98C295.681 172.596 295.527 171.801 295.937 171.238C296.323 170.674 297.119 170.52 297.684 170.93C299.713 172.339 301.742 173.8 303.745 175.312C304.284 175.721 304.413 176.516 303.976 177.054C303.719 177.387 303.36 177.541 302.974 177.541V177.566ZM85.4442 176.541C85.0076 176.541 84.571 176.311 84.3399 175.901C84.006 175.312 84.2115 174.543 84.8279 174.21C87.0109 173.005 89.1939 171.827 91.4026 170.674C92.0189 170.366 92.7637 170.597 93.0976 171.212C93.4058 171.827 93.1747 172.57 92.5583 172.903C90.3496 174.056 88.1923 175.209 86.0349 176.413C85.8552 176.516 85.624 176.567 85.4186 176.567L85.4442 176.541ZM98.645 169.649C98.1827 169.649 97.7461 169.393 97.515 168.957C97.2068 168.342 97.4636 167.599 98.08 167.292C100.314 166.19 102.574 165.114 104.834 164.063C105.451 163.781 106.196 164.063 106.504 164.678C106.786 165.293 106.504 166.036 105.887 166.344C103.627 167.369 101.393 168.445 99.1843 169.546C99.0046 169.623 98.8248 169.675 98.645 169.675V169.649ZM290.724 169.137C290.493 169.137 290.262 169.085 290.056 168.932C287.95 167.599 285.844 166.344 283.713 165.139C283.122 164.806 282.916 164.038 283.25 163.448C283.584 162.859 284.355 162.654 284.945 162.987C287.103 164.217 289.234 165.498 291.366 166.83C291.957 167.189 292.111 167.958 291.751 168.547C291.52 168.932 291.109 169.137 290.698 169.137H290.724ZM112.18 163.423C111.692 163.423 111.229 163.141 111.024 162.68C110.741 162.039 111.024 161.322 111.666 161.04C113.952 160.066 116.263 159.093 118.575 158.17C119.217 157.914 119.936 158.221 120.193 158.862C120.449 159.502 120.141 160.22 119.499 160.476C117.188 161.399 114.902 162.347 112.642 163.32C112.488 163.397 112.308 163.423 112.154 163.423H112.18ZM277.806 161.783C277.626 161.783 277.42 161.732 277.241 161.655C275.032 160.527 272.823 159.451 270.589 158.426C269.973 158.144 269.69 157.401 269.973 156.786C270.255 156.172 271 155.89 271.616 156.172C273.876 157.196 276.111 158.298 278.371 159.451C278.987 159.759 279.218 160.527 278.91 161.117C278.679 161.552 278.242 161.783 277.806 161.783ZM126.022 157.94C125.509 157.94 125.047 157.632 124.841 157.12C124.61 156.479 124.944 155.762 125.586 155.531C127.923 154.66 130.286 153.84 132.649 153.046C133.291 152.815 134.01 153.174 134.241 153.84C134.472 154.48 134.112 155.198 133.445 155.429C131.108 156.223 128.771 157.017 126.459 157.888C126.305 157.94 126.177 157.965 126.022 157.965V157.94ZM264.271 155.608C264.117 155.608 263.963 155.582 263.809 155.505C261.523 154.583 259.212 153.712 256.9 152.918C256.258 152.687 255.899 151.969 256.13 151.329C256.361 150.688 257.08 150.355 257.722 150.56C260.059 151.38 262.422 152.277 264.733 153.199C265.375 153.456 265.684 154.173 265.427 154.814C265.221 155.3 264.759 155.582 264.271 155.582V155.608ZM140.148 153.225C139.608 153.225 139.121 152.866 138.941 152.328C138.735 151.662 139.121 150.97 139.788 150.765C142.177 150.048 144.565 149.356 146.979 148.715C147.647 148.536 148.341 148.92 148.52 149.587C148.7 150.253 148.315 150.945 147.647 151.124C145.259 151.764 142.896 152.456 140.533 153.148C140.405 153.174 140.302 153.199 140.174 153.199L140.148 153.225ZM250.223 150.688C250.223 150.688 249.992 150.688 249.863 150.637C247.5 149.92 245.112 149.279 242.749 148.69C242.081 148.536 241.67 147.844 241.85 147.178C242.004 146.512 242.698 146.102 243.366 146.281C245.78 146.896 248.22 147.562 250.608 148.254C251.276 148.459 251.635 149.151 251.456 149.817C251.301 150.355 250.788 150.714 250.248 150.714L250.223 150.688ZM154.53 149.356C153.965 149.356 153.451 148.972 153.323 148.408C153.169 147.742 153.58 147.076 154.247 146.896C156.687 146.333 159.127 145.794 161.567 145.308C162.235 145.18 162.902 145.615 163.031 146.281C163.159 146.947 162.723 147.614 162.055 147.742C159.641 148.229 157.227 148.741 154.812 149.33C154.71 149.33 154.607 149.356 154.53 149.356ZM235.789 147.076C235.789 147.076 235.635 147.076 235.532 147.076C233.118 146.589 230.678 146.153 228.264 145.769C227.571 145.666 227.109 145.026 227.211 144.334C227.314 143.642 227.956 143.181 228.649 143.283C231.115 143.668 233.581 144.103 236.046 144.616C236.714 144.744 237.15 145.41 237.022 146.076C236.894 146.666 236.38 147.076 235.789 147.076ZM169.143 146.435C168.553 146.435 168.013 145.999 167.911 145.385C167.808 144.693 168.27 144.052 168.938 143.95C171.403 143.54 173.869 143.181 176.334 142.848C177.053 142.745 177.644 143.232 177.747 143.924C177.824 144.616 177.362 145.231 176.668 145.333C174.228 145.641 171.789 145.999 169.349 146.409C169.272 146.409 169.22 146.409 169.143 146.409V146.435ZM221.073 144.795C221.073 144.795 220.97 144.795 220.945 144.795C218.505 144.513 216.039 144.308 213.574 144.129C212.88 144.078 212.367 143.488 212.418 142.797C212.47 142.105 213.086 141.618 213.754 141.644C216.245 141.823 218.736 142.028 221.227 142.31C221.921 142.387 222.409 143.002 222.332 143.693C222.255 144.334 221.715 144.795 221.099 144.795H221.073ZM183.911 144.539C183.269 144.539 182.729 144.052 182.678 143.412C182.627 142.72 183.115 142.13 183.808 142.054C186.299 141.823 188.79 141.644 191.282 141.516C191.975 141.49 192.566 142.002 192.591 142.694C192.617 143.386 192.103 143.975 191.41 144.001C188.944 144.129 186.479 144.308 184.039 144.539C183.988 144.539 183.962 144.539 183.911 144.539ZM206.229 143.77H206.203C203.738 143.693 201.272 143.693 198.807 143.719C198.113 143.719 197.548 143.181 197.548 142.489C197.548 141.797 198.087 141.234 198.781 141.234C201.272 141.208 203.763 141.234 206.28 141.285C206.974 141.285 207.513 141.874 207.487 142.566C207.487 143.232 206.922 143.77 206.229 143.77Z" fill="#A9A8AD"/>
<path d="M6.90747 238.471C6.62497 238.471 6.31677 238.368 6.08563 238.163C5.57198 237.702 5.52062 236.933 5.9829 236.395C6.80474 235.473 7.62658 234.525 8.49978 233.603C8.96207 233.09 9.75822 233.064 10.2719 233.526C10.7855 233.987 10.8112 234.781 10.3489 235.294C9.5014 236.216 8.67956 237.138 7.88341 238.061C7.62658 238.343 7.29271 238.496 6.93316 238.496L6.90747 238.471Z" fill="white"/>
<path d="M28.6256 214.268C28.6256 206.383 22.218 200 14.3239 200C6.42974 200 0.0220561 206.393 0.0220561 214.268C0.0220561 214.268 -0.620724 219.218 5.03371 227.274C7.58473 230.901 14.3239 241.663 14.3239 241.663C14.3239 241.663 21.073 230.901 23.624 227.274C29.2785 219.218 28.6357 214.268 28.6357 214.268H28.6256Z" fill="#FF9514"/>
<path d="M14.324 224.92C20.0816 224.92 24.749 220.263 24.749 214.519C24.749 208.775 20.0816 204.118 14.324 204.118C8.56638 204.118 3.89893 208.775 3.89893 214.519C3.89893 220.263 8.56638 224.92 14.324 224.92Z" fill="white"/>
<path d="M28.6258 214.268C28.6258 212.735 28.3847 211.262 27.9328 209.88C27.9529 210.18 27.983 210.481 27.983 210.781C27.983 220.02 20.4806 227.505 11.2206 227.505C8.6796 227.505 6.26919 226.924 4.10986 225.912C4.39108 226.352 4.69238 226.813 5.02381 227.274C7.57483 230.901 14.314 241.663 14.314 241.663C14.314 241.663 21.0631 230.901 23.6141 227.274C29.2686 219.218 28.6258 214.268 28.6258 214.268Z" fill="#E87900"/>
<path d="M4.23032 214.94C4.23032 209.329 8.79003 204.769 14.4244 204.769C20.0587 204.769 24.6184 209.318 24.6184 214.94C24.6184 216.242 24.3673 217.475 23.9154 218.627C24.4577 217.365 24.759 215.982 24.759 214.529C24.759 208.787 20.0889 204.128 14.334 204.128C8.57912 204.128 3.90894 208.787 3.90894 214.529C3.90894 217.485 5.14427 220.14 7.13287 222.034C5.34514 220.2 4.24037 217.705 4.24037 214.95L4.23032 214.94Z" fill="#E87900"/>
<defs>
<radialGradient id="paint0_radial_702_14" cx="0" cy="0" r="1" gradientUnits="userSpaceOnUse" gradientTransform="translate(287.633 154.539) scale(9.63565 3.20438)">
<stop stop-color="#A09F9F"/>
<stop offset="0.18" stop-color="#AAAAAA"/>
<stop offset="0.51" stop-color="#C8C7C7"/>
<stop offset="0.93" stop-color="#F6F6F6"/>
<stop offset="1" stop-color="white"/>
</radialGradient>
<radialGradient id="paint1_radial_702_14" cx="0" cy="0" r="1" gradientUnits="userSpaceOnUse" gradientTransform="translate(368.544 290) scale(7.69147 2.55783)">
<stop stop-color="#A09F9F"/>
<stop offset="0.18" stop-color="#AAAAAA"/>
<stop offset="0.51" stop-color="#C8C7C7"/>
<stop offset="0.93" stop-color="#F6F6F6"/>
<stop offset="1" stop-color="white"/>
</radialGradient>
</defs>
</svg>
