<svg width="112" height="115" viewBox="0 0 112 115" fill="none" xmlns="http://www.w3.org/2000/svg">
<path d="M55.82 114.219C86.6485 114.219 111.64 89.2277 111.64 58.3992C111.64 27.5706 86.6485 2.57916 55.82 2.57916C24.9915 2.57916 0 27.5706 0 58.3992C0 89.2277 24.9915 114.219 55.82 114.219Z" fill="#FCE8E3"/>
<path d="M88.3203 53.9192C92.2703 30.9392 82.8103 1.72915 56.7803 0.0591514C48.4803 -0.470849 40.3703 2.57915 36.1803 8.46915C21.8203 14.1292 20.6103 39.3492 22.2203 48.0292C26.6203 71.8291 5.41027 67.7292 10.7903 90.0692L55.1203 87.6292H56.8203L100.36 88.1892C104.03 71.3392 86.5203 72.4692 88.3103 53.9292L88.3203 53.9192Z" fill="#4C224B"/>
<path d="M68.8702 51.0492H42.7202V84.4092H68.8702V51.0492Z" fill="#E2988F"/>
<path d="M103.79 86.9291C91.4802 81.7591 69.0302 77.8591 69.0302 77.8591C60.4102 85.1191 49.5102 85.0691 42.7302 77.8591C42.7302 77.8591 19.9902 81.2291 7.16016 85.7191C16.3302 102.009 33.4302 113.239 53.2402 114.139C54.1302 114.169 55.0102 114.199 55.9102 114.199C76.2802 114.169 94.0802 103.229 103.8 86.9191L103.79 86.9291Z" fill="#D85D63"/>
<path d="M78.9402 47.0191C77.9702 47.0191 77.1802 48.4291 77.1802 50.1591C77.1802 51.8891 77.9702 53.2991 78.9402 53.2991C79.9102 53.2991 80.7002 51.8891 80.7002 50.1591C80.7002 48.4291 79.9102 47.0191 78.9402 47.0191ZM78.9402 51.9291C78.2702 51.9291 77.7302 50.9591 77.7302 49.7691C77.7302 48.5791 78.2702 47.6091 78.9402 47.6091C79.6102 47.6091 80.1502 48.5791 80.1502 49.7691C80.1502 50.9591 79.6102 51.9291 78.9402 51.9291Z" fill="white"/>
<path d="M30.8003 50.1591C30.8003 51.8891 31.5903 53.2991 32.5603 53.2991C33.5303 53.2991 34.3203 51.8891 34.3203 50.1591C34.3203 48.4291 33.5303 47.0191 32.5603 47.0191C31.5903 47.0191 30.8003 48.4291 30.8003 50.1591ZM31.3503 49.7591C31.3503 48.5691 31.8903 47.5991 32.5603 47.5991C33.2303 47.5991 33.7703 48.5691 33.7703 49.7591C33.7703 50.9491 33.2303 51.9191 32.5603 51.9191C31.8903 51.9191 31.3503 50.9491 31.3503 49.7591Z" fill="white"/>
<path d="M55.7701 10.6491C38.9101 10.6691 35.0801 23.2891 35.4301 35.9991C35.4301 45.1591 35.3701 51.9191 36.2201 54.1791C37.0701 56.4391 42.9801 70.0691 55.7601 70.0991C68.5401 70.0791 74.4501 56.4491 75.3001 54.1791C76.1501 51.9091 76.1001 45.1591 76.1001 35.9991C76.4501 23.2891 72.6201 10.6691 55.7601 10.6491H55.7701Z" fill="#E2988F"/>
<path d="M55.7701 70.4791C50.7601 70.4791 46.2401 68.4291 42.3301 64.4291L42.8701 63.9091C46.6301 67.7691 50.9701 69.7291 55.7701 69.7391C60.4901 69.7391 64.7701 67.8291 68.4901 64.0991L69.0201 64.6291C65.1601 68.5091 60.7001 70.4791 55.7701 70.4891V70.4791Z" fill="#C46966"/>
<path d="M36.1702 35.5692C36.1702 35.5692 32.7802 30.5792 29.3002 33.4992C25.8202 36.4192 29.2102 52.9792 36.1702 50.0592C43.1302 47.1392 36.1702 35.5692 36.1702 35.5692Z" fill="#E2988F"/>
<path d="M75.4302 35.5692C75.4302 35.5692 78.8203 30.5792 82.3003 33.4992C85.7803 36.4192 82.3902 52.9792 75.4302 50.0592C68.4702 47.1392 75.4302 35.5692 75.4302 35.5692Z" fill="#E2988F"/>
<path d="M35.6112 44.8687L34.8633 44.9241L35.2603 50.2794L36.0083 50.224L35.6112 44.8687Z" fill="#C46966"/>
<path d="M75.9979 44.2923L75.5566 50.2159L76.3046 50.2716L76.7458 44.348L75.9979 44.2923Z" fill="#C46966"/>
<path d="M31.0301 42.0692C30.2301 39.4092 30.2201 37.5592 31.0101 36.5792C31.5901 35.8492 32.4001 35.8892 32.4301 35.8892L32.3801 36.6392C32.3801 36.6392 31.9201 36.6192 31.5801 37.0592C31.2401 37.4992 30.8001 38.7192 31.7401 41.8592L31.0201 42.0792L31.0301 42.0692Z" fill="#C46966"/>
<path d="M80.8502 42.0692L80.1302 41.8492C81.0702 38.7092 80.6402 37.4992 80.2902 37.0492C79.9502 36.6092 79.5102 36.6292 79.4902 36.6292L79.4502 35.8792C79.4502 35.8792 80.2802 35.8292 80.8702 36.5692C81.6602 37.5592 81.6502 39.4092 80.8502 42.0592V42.0692Z" fill="#C46966"/>
<path d="M34.0501 50.9792C33.9301 50.9792 33.8001 50.9592 33.6901 50.9392C33.6601 50.9392 33.6301 50.9092 33.6101 50.8892C33.4001 51.5092 33.0201 51.9292 32.5801 51.9292C31.9101 51.9292 31.3701 50.9592 31.3701 49.7692C31.3701 48.5792 31.9101 47.6192 32.5701 47.6092C32.9701 47.5592 32.8701 47.0092 32.5701 47.0292C31.6001 47.0292 30.8101 48.4392 30.8101 50.1692C30.8101 51.8992 31.6001 53.3092 32.5701 53.3092C33.3801 53.3092 34.0601 52.3192 34.2701 50.9892C34.2001 50.9892 34.1301 50.9892 34.0501 50.9892V50.9792Z" fill="white"/>
<path d="M78.9501 47.0191C78.6501 47.0091 78.5501 47.5591 78.9501 47.5991C79.6201 47.5991 80.1501 48.5691 80.1501 49.7591C80.1501 50.9491 79.6101 51.9191 78.9401 51.9191C78.5701 51.9191 78.2401 51.6091 78.0201 51.1291C77.9601 51.1791 77.9001 51.2291 77.8301 51.2791C77.6801 51.3691 77.5301 51.4591 77.3701 51.5491C77.6601 52.5791 78.2501 53.2991 78.9401 53.2991C79.9101 53.2991 80.7001 51.8891 80.7001 50.1591C80.7001 48.4291 79.9201 47.0291 78.9401 47.0191H78.9501Z" fill="white"/>
<path d="M35.3201 34.5491C35.1601 25.6191 41.8301 20.9791 41.8301 20.9791C47.8301 31.4991 64.3701 35.0691 79.4801 29.8491C79.4801 29.8491 78.0101 4.57914 54.4101 6.05914C30.8101 7.53914 35.3301 34.5391 35.3301 34.5391L35.3201 34.5491Z" fill="#4C224B"/>
</svg>
