<svg width="611" height="325" viewBox="0 0 611 325" fill="none" xmlns="http://www.w3.org/2000/svg">
<path d="M1.25775 237.651C1.02661 237.651 0.795465 237.574 0.564323 237.446C-0.000690273 237.062 -0.180466 236.293 0.204771 235.729C0.898197 234.679 1.59162 233.654 2.28505 232.603C2.67028 232.04 3.44076 231.886 4.00577 232.27C4.57078 232.655 4.72488 233.423 4.33964 233.987C3.64622 235.012 2.95279 236.062 2.28505 237.087C2.0539 237.446 1.64299 237.651 1.23207 237.651H1.25775Z" fill="white"/>
<path d="M7.45906 225C7.20186 225 6.97038 224.908 6.7389 224.724C6.17305 224.265 6.01873 223.315 6.43026 222.641C7.87059 220.191 9.31092 217.74 10.7513 215.29C11.1628 214.616 11.9344 214.463 12.5002 214.953C13.0661 215.443 13.1947 216.362 12.7832 217.036C11.3428 219.456 9.90249 221.906 8.46216 224.357C8.23068 224.786 7.81915 225 7.43335 225H7.45906ZM16.204 210.42C15.9468 210.42 15.6895 210.328 15.4581 210.113C14.8922 209.623 14.7893 208.704 15.2009 208.03C16.6926 205.611 18.2101 203.221 19.7276 200.832C20.1392 200.189 20.9365 200.036 21.4766 200.557C22.0167 201.047 22.1196 201.996 21.7081 202.639C20.1906 204.998 18.6988 207.387 17.207 209.776C16.9498 210.175 16.5898 210.389 16.204 210.389V210.42ZM25.3346 196.176C25.0517 196.176 24.7945 196.084 24.563 195.87C24.0229 195.349 23.92 194.43 24.3573 193.787C25.9262 191.428 27.4951 189.101 29.0898 186.773C29.527 186.129 30.3244 186.037 30.8388 186.558C31.3789 187.079 31.4561 188.028 31.0188 188.641C29.4499 190.938 27.8809 193.266 26.312 195.625C26.0548 195.992 25.6947 196.207 25.3346 196.207V196.176ZM34.8511 182.27C34.5682 182.27 34.2853 182.147 34.0538 181.933C33.5137 181.412 33.4622 180.463 33.8995 179.819C35.5199 177.522 37.166 175.255 38.8121 172.989C39.275 172.376 40.0466 172.315 40.5868 172.835C41.1012 173.387 41.1526 174.306 40.7154 174.949C39.0693 177.185 37.4489 179.452 35.8285 181.749C35.5713 182.086 35.2369 182.27 34.8769 182.27H34.8511ZM44.7534 168.762C44.4448 168.762 44.1619 168.639 43.9047 168.363C43.3903 167.812 43.3645 166.862 43.8275 166.25C45.525 164.014 47.2226 161.839 48.9458 159.634C49.4088 159.021 50.2061 158.99 50.7205 159.572C51.2349 160.124 51.2607 161.073 50.772 161.686C49.0744 163.861 47.3769 166.035 45.7051 168.241C45.4479 168.578 45.1135 168.731 44.7792 168.731L44.7534 168.762ZM55.0415 155.713C54.7329 155.713 54.4243 155.56 54.1671 155.284C53.6784 154.702 53.6526 153.752 54.1671 153.17C55.916 151.026 57.6907 148.882 59.4654 146.799C59.9541 146.217 60.7514 146.217 61.2401 146.799C61.7288 147.381 61.7288 148.331 61.2401 148.913C59.4654 150.996 57.7165 153.109 55.9675 155.253C55.7103 155.56 55.4016 155.713 55.0673 155.713H55.0415ZM65.7412 143.123C65.4068 143.123 65.0724 142.97 64.841 142.664C64.378 142.082 64.378 141.132 64.8924 140.55C66.7185 138.468 68.5704 136.446 70.4223 134.424C70.9367 133.873 71.7083 133.904 72.1969 134.516C72.6599 135.129 72.6342 136.078 72.1198 136.63C70.2937 138.621 68.4675 140.642 66.6414 142.725C66.4099 143.001 66.1012 143.123 65.7669 143.123H65.7412ZM76.8266 131.055C76.4665 131.055 76.1321 130.871 75.8749 130.534C75.412 129.922 75.4634 128.972 76.0035 128.421C77.9068 126.43 79.8101 124.5 81.7392 122.57C82.2793 122.049 83.0509 122.141 83.5139 122.754C83.9511 123.397 83.8997 124.316 83.3595 124.867C81.4562 126.767 79.5529 128.696 77.6754 130.657C77.4439 130.902 77.1352 131.024 76.8523 131.024L76.8266 131.055ZM88.3493 119.568C87.9892 119.568 87.6291 119.384 87.3719 119.017C86.9347 118.374 87.0375 117.424 87.5777 116.934C89.5581 115.065 91.5386 113.197 93.519 111.39C94.0592 110.9 94.8565 111.022 95.268 111.665C95.6795 112.309 95.5767 113.258 95.0365 113.748C93.0561 115.525 91.1013 117.363 89.1466 119.231C88.9151 119.446 88.6322 119.568 88.375 119.568H88.3493ZM100.309 108.725C99.9234 108.725 99.5376 108.51 99.3061 108.112C98.8946 107.438 99.0232 106.519 99.589 106.029C101.647 104.253 103.704 102.537 105.762 100.853C106.328 100.393 107.099 100.577 107.511 101.251C107.897 101.925 107.742 102.844 107.177 103.334C105.119 104.988 103.087 106.703 101.055 108.449C100.824 108.633 100.566 108.725 100.335 108.725H100.309ZM112.706 98.6167C112.295 98.6167 111.883 98.3716 111.652 97.9428C111.266 97.2383 111.446 96.3193 112.038 95.8905C114.172 94.2671 116.307 92.6742 118.442 91.1427C119.034 90.7139 119.805 90.9589 120.165 91.6328C120.525 92.3373 120.345 93.2562 119.754 93.6851C117.619 95.2166 115.51 96.7788 113.401 98.4022C113.195 98.5554 112.964 98.6473 112.732 98.6473L112.706 98.6167ZM125.566 89.3661C125.129 89.3661 124.718 89.0904 124.486 88.6003C124.152 87.8958 124.358 86.9769 124.975 86.5787C127.187 85.1084 129.399 83.6687 131.611 82.2904C132.228 81.8922 132.974 82.1985 133.308 82.9336C133.617 83.6687 133.385 84.557 132.768 84.9552C130.582 86.303 128.37 87.7427 126.184 89.1823C125.978 89.3048 125.772 89.3661 125.566 89.3661ZM138.89 81.0957C138.427 81.0957 137.964 80.7894 137.758 80.2381C137.449 79.5029 137.732 78.6146 138.349 78.2471C140.639 76.9606 142.928 75.7047 145.217 74.5101C145.86 74.1731 146.58 74.5101 146.863 75.2759C147.146 76.0416 146.863 76.8993 146.22 77.2362C143.956 78.4002 141.693 79.6255 139.43 80.912C139.25 81.0039 139.07 81.0651 138.89 81.0651V81.0957ZM261.961 76.2561C261.781 76.2561 261.575 76.1948 261.395 76.1029C259.183 74.7858 256.894 73.5299 254.631 72.3966C253.988 72.0596 253.705 71.2019 253.962 70.4362C254.245 69.6704 254.965 69.3335 255.608 69.6398C257.923 70.8037 260.238 72.0902 262.501 73.438C263.118 73.8056 263.376 74.6939 263.067 75.429C262.835 75.9497 262.398 76.2561 261.935 76.2561H261.961ZM152.676 73.9894C152.187 73.9894 151.698 73.6218 151.518 73.0398C151.261 72.274 151.595 71.4164 152.238 71.11C154.605 70.0073 156.971 68.9965 159.337 68.0163C160.006 67.7713 160.7 68.1695 160.932 68.9353C161.163 69.701 160.803 70.5587 160.16 70.8344C157.82 71.7839 155.479 72.7948 153.139 73.8975C152.984 73.9587 152.83 73.9894 152.676 73.9894ZM248.149 69.2416C248.021 69.2416 247.866 69.2416 247.738 69.1497C245.397 68.1695 243.005 67.2505 240.665 66.4541C239.996 66.2397 239.61 65.4127 239.816 64.6163C239.996 63.8199 240.69 63.3604 241.359 63.6055C243.777 64.4325 246.194 65.3514 248.586 66.3623C249.229 66.6379 249.59 67.4956 249.358 68.2614C249.178 68.874 248.689 69.2416 248.175 69.2416H248.149ZM166.899 68.2001C166.359 68.2001 165.87 67.7713 165.69 67.128C165.484 66.3316 165.87 65.5046 166.539 65.2902C168.957 64.4325 171.426 63.6667 173.843 62.9622C174.512 62.7784 175.181 63.2685 175.361 64.0649C175.515 64.8613 175.104 65.6577 174.435 65.8722C172.043 66.5767 169.625 67.3424 167.233 68.1695C167.105 68.2001 167.002 68.2307 166.873 68.2307L166.899 68.2001ZM233.72 64.31C233.72 64.31 233.54 64.31 233.463 64.2793C231.045 63.6361 228.602 63.0847 226.158 62.6559C225.464 62.5334 225.001 61.7676 225.104 60.9406C225.207 60.1135 225.85 59.5622 226.544 59.6847C229.039 60.1442 231.534 60.6955 234.003 61.3388C234.672 61.5226 235.109 62.319 234.955 63.1154C234.826 63.8199 234.312 64.2793 233.746 64.2793L233.72 64.31ZM181.482 63.973C180.891 63.973 180.376 63.4829 180.248 62.7784C180.119 61.982 180.556 61.1856 181.251 61.0325C183.72 60.4505 186.241 59.9604 188.735 59.5622C189.43 59.4703 190.047 60.0216 190.15 60.818C190.253 61.6451 189.764 62.3802 189.096 62.5027C186.652 62.9009 184.183 63.391 181.74 63.9424C181.662 63.9424 181.585 63.9424 181.508 63.9424L181.482 63.973ZM218.88 61.5838C218.88 61.5838 218.802 61.5838 218.751 61.5838C216.308 61.3081 213.813 61.1244 211.318 61.0325C210.623 61.0325 210.083 60.3279 210.109 59.5009C210.109 58.6739 210.675 58.0306 211.395 58.0613C213.916 58.1532 216.488 58.3369 218.982 58.6126C219.677 58.6739 220.166 59.409 220.114 60.2361C220.063 61.0018 219.497 61.5838 218.88 61.5838ZM196.349 61.5226C195.706 61.5226 195.165 60.9406 195.114 60.1442C195.063 59.3171 195.577 58.6126 196.246 58.5207C198.792 58.2757 201.338 58.0919 203.833 58C204.553 58 205.094 58.6126 205.119 59.4396C205.119 60.2667 204.605 60.9406 203.91 60.9712C201.467 61.0631 198.972 61.2162 196.477 61.4613C196.452 61.4613 196.4 61.4613 196.374 61.4613L196.349 61.5226Z" fill="#A9A8AD"/>
<path d="M271.54 109.334C271.309 109.334 271.103 109.283 270.898 109.154C269.845 108.514 268.766 107.873 267.713 107.284C267.122 106.951 266.917 106.182 267.251 105.593C267.585 105.004 268.355 104.799 268.946 105.132C270.024 105.747 271.129 106.387 272.207 107.053C272.798 107.412 272.978 108.181 272.618 108.77C272.387 109.154 271.976 109.359 271.54 109.359V109.334Z" fill="white"/>
<path d="M272.259 108.873C272.028 108.873 271.771 108.796 271.566 108.668C271.001 108.283 270.846 107.515 271.232 106.925C271.951 105.875 272.67 104.85 273.389 103.825C273.8 103.261 274.57 103.133 275.135 103.543C275.7 103.953 275.829 104.722 275.418 105.285C274.699 106.285 273.98 107.31 273.286 108.334C273.055 108.693 272.644 108.873 272.259 108.873Z" fill="white"/>
<path d="M537.375 84.4737C537.041 84.4737 536.707 84.3456 536.45 84.0637C534.832 82.2958 533.137 80.5022 531.339 78.7087C530.851 78.2218 530.851 77.4275 531.339 76.9407C531.827 76.4539 532.623 76.4539 533.111 76.9407C534.935 78.7599 536.656 80.5791 538.299 82.3727C538.762 82.8851 538.736 83.6794 538.222 84.1406C537.991 84.3712 537.683 84.4737 537.375 84.4737ZM526.845 73.8916C526.537 73.8916 526.229 73.7892 525.997 73.5586C524.225 71.9187 522.376 70.2533 520.476 68.6134C519.962 68.1522 519.885 67.3836 520.347 66.8455C520.81 66.333 521.58 66.2818 522.119 66.7174C524.046 68.3828 525.92 70.0483 527.718 71.7394C528.232 72.2006 528.257 72.9949 527.795 73.5073C527.538 73.7635 527.204 73.8916 526.871 73.8916H526.845ZM515.545 64.1039C515.262 64.1039 514.98 64.0014 514.748 63.822C512.848 62.2847 510.896 60.7473 508.893 59.2356C508.354 58.8257 508.251 58.0314 508.662 57.4933C509.073 56.9552 509.869 56.8527 510.408 57.2627C512.437 58.8 514.389 60.3374 516.315 61.9004C516.854 62.3359 516.931 63.1302 516.495 63.6427C516.238 63.9501 515.879 64.1039 515.519 64.1039H515.545ZM268.146 55.8278C267.863 55.8278 267.606 55.751 267.375 55.5716C266.836 55.136 266.733 54.3674 267.17 53.8293C268.736 51.8564 270.354 49.9091 271.972 48.0386C272.435 47.5262 273.205 47.4749 273.744 47.9105C274.258 48.3717 274.309 49.1404 273.873 49.6784C272.255 51.4976 270.663 53.4193 269.147 55.3666C268.89 55.6741 268.531 55.8535 268.171 55.8535L268.146 55.8278ZM503.679 55.0335C503.423 55.0335 503.166 54.9567 502.96 54.8029C500.957 53.3681 498.928 51.9588 496.873 50.5496C496.308 50.1653 496.154 49.3966 496.54 48.8073C496.925 48.2436 497.695 48.0899 498.286 48.4742C500.366 49.8834 502.421 51.3183 504.45 52.7788C505.015 53.1887 505.143 53.9574 504.732 54.5211C504.475 54.8542 504.116 55.0335 503.705 55.0335H503.679ZM491.3 46.655C491.069 46.655 490.838 46.6038 490.633 46.45C488.552 45.1177 486.446 43.8109 484.315 42.5298C483.724 42.1711 483.544 41.4024 483.904 40.8131C484.263 40.2238 485.034 40.0444 485.625 40.3775C487.782 41.6843 489.914 42.991 491.994 44.349C492.585 44.7333 492.739 45.502 492.379 46.0657C492.148 46.4244 491.737 46.6294 491.326 46.6294L491.3 46.655ZM277.982 44.6308C277.674 44.6308 277.366 44.5027 277.109 44.2721C276.621 43.7853 276.595 42.991 277.109 42.5042C278.855 40.7106 280.679 38.9426 282.502 37.2516C283.016 36.7904 283.786 36.816 284.274 37.3284C284.737 37.8409 284.711 38.6352 284.197 39.0964C282.399 40.7362 280.627 42.4785 278.881 44.2465C278.624 44.5027 278.316 44.6308 277.982 44.6308ZM478.511 38.9426C478.305 38.9426 478.1 38.8914 477.894 38.7889C475.737 37.559 473.58 36.3804 471.371 35.2018C470.754 34.8687 470.523 34.1256 470.857 33.5107C471.191 32.8958 471.936 32.6908 472.552 32.9982C474.761 34.1769 476.97 35.3811 479.127 36.611C479.718 36.9441 479.949 37.7128 479.589 38.3021C479.358 38.712 478.947 38.9426 478.511 38.9426ZM289 34.5612C288.64 34.5612 288.281 34.4075 288.024 34.1C287.587 33.5619 287.664 32.7933 288.204 32.3577C290.156 30.7691 292.159 29.2318 294.188 27.7713C294.753 27.3613 295.523 27.4894 295.934 28.0531C296.345 28.6168 296.217 29.3855 295.652 29.7954C293.674 31.2303 291.697 32.742 289.796 34.2794C289.565 34.4587 289.282 34.5612 289 34.5612ZM465.335 31.9221C465.156 31.9221 464.95 31.8709 464.77 31.794C462.562 30.6922 460.327 29.6161 458.067 28.5656C457.451 28.2837 457.168 27.5407 457.477 26.9001C457.759 26.2852 458.504 26.0033 459.146 26.3108C461.432 27.3613 463.666 28.4631 465.9 29.5648C466.517 29.8723 466.774 30.6154 466.465 31.2303C466.234 31.6659 465.798 31.9221 465.335 31.9221ZM301.122 25.8496C300.711 25.8496 300.3 25.6446 300.069 25.2603C299.709 24.671 299.864 23.9023 300.454 23.5436C302.586 22.2112 304.769 20.9301 306.952 19.7258C307.568 19.3927 308.313 19.6233 308.647 20.2127C308.981 20.8276 308.75 21.5706 308.159 21.9037C306.002 23.0824 303.87 24.3379 301.79 25.6446C301.584 25.7727 301.353 25.824 301.122 25.824V25.8496ZM451.801 25.5934C451.647 25.5934 451.467 25.5677 451.313 25.4909C449.027 24.4916 446.741 23.5436 444.43 22.6212C443.788 22.3649 443.48 21.6475 443.737 21.0069C443.993 20.3664 444.712 20.0589 445.355 20.3151C447.692 21.2376 450.003 22.2112 452.289 23.2105C452.931 23.4923 453.213 24.2098 452.931 24.8503C452.725 25.3115 452.263 25.5934 451.775 25.5934H451.801ZM437.907 20.0333C437.753 20.0333 437.624 20.0333 437.47 19.9564C435.133 19.1109 432.796 18.291 430.459 17.4967C429.817 17.2661 429.457 16.5743 429.663 15.9081C429.868 15.2675 430.587 14.9088 431.255 15.1138C433.643 15.9081 436.006 16.728 438.343 17.5992C438.985 17.8298 439.319 18.5472 439.088 19.1878C438.908 19.7002 438.42 20.0077 437.907 20.0077V20.0333ZM314.246 18.7009C313.783 18.7009 313.321 18.4447 313.116 17.9835C312.833 17.3686 313.116 16.6255 313.732 16.318C315.992 15.2675 318.329 14.2682 320.666 13.3458C321.308 13.0896 322.027 13.3971 322.284 14.0376C322.541 14.6782 322.233 15.3956 321.591 15.6519C319.305 16.5486 317.019 17.5223 314.811 18.5728C314.631 18.6497 314.451 18.7009 314.271 18.7009H314.246ZM423.73 15.3188C423.73 15.3188 423.499 15.3188 423.37 15.2675C421.008 14.5501 418.619 13.8839 416.205 13.269C415.537 13.0896 415.126 12.4234 415.306 11.7573C415.486 11.0911 416.154 10.7067 416.821 10.8605C419.235 11.501 421.65 12.1672 424.064 12.8846C424.732 13.0896 425.091 13.7814 424.911 14.422C424.757 14.9601 424.244 15.3188 423.704 15.3188H423.73ZM328.14 13.2434C327.601 13.2434 327.113 12.9103 326.958 12.3722C326.753 11.706 327.113 11.0142 327.755 10.8092C330.143 10.0405 332.583 9.34874 334.997 8.70818C335.665 8.52882 336.333 8.93878 336.512 9.60497C336.692 10.2712 336.281 10.963 335.613 11.1167C333.225 11.7316 330.837 12.4234 328.499 13.1665C328.371 13.2177 328.243 13.2177 328.114 13.2177L328.14 13.2434ZM409.271 11.5266C409.271 11.5266 409.091 11.5266 408.988 11.501C406.574 10.963 404.16 10.4505 401.72 10.0149C401.052 9.88681 400.59 9.24625 400.718 8.55445C400.847 7.88826 401.489 7.42706 402.182 7.55517C404.648 8.01637 407.088 8.5032 409.528 9.06689C410.195 9.22063 410.632 9.88681 410.478 10.553C410.349 11.1423 409.836 11.5266 409.271 11.5266ZM342.599 9.5281C342.008 9.5281 341.495 9.11814 341.366 8.52882C341.238 7.86264 341.675 7.19646 342.342 7.06835C344.782 6.58152 347.273 6.17156 349.79 5.83847C350.484 5.7616 351.1 6.2228 351.203 6.88899C351.305 7.58079 350.817 8.19573 350.15 8.29822C347.684 8.63131 345.244 9.04127 342.856 9.50247C342.779 9.50247 342.702 9.50247 342.625 9.50247L342.599 9.5281ZM394.606 8.81067C394.606 8.81067 394.478 8.81067 394.426 8.81067C391.986 8.45195 389.521 8.14449 387.081 7.88826C386.388 7.8114 385.9 7.19646 385.977 6.53027C386.054 5.83847 386.696 5.37726 387.338 5.42851C389.829 5.68473 392.32 5.9922 394.786 6.37654C395.479 6.47903 395.942 7.11959 395.839 7.78577C395.736 8.40071 395.222 8.86191 394.606 8.86191V8.81067ZM357.392 7.47831C356.75 7.47831 356.211 6.99148 356.159 6.32529C356.108 5.63349 356.622 5.04417 357.289 4.9673C359.755 4.76232 362.298 4.60859 364.814 4.53172C365.431 4.53172 366.073 5.04417 366.099 5.73598C366.099 6.42778 365.585 6.99148 364.891 7.0171C362.426 7.09397 359.935 7.2477 357.495 7.45268C357.469 7.45268 357.418 7.45268 357.392 7.45268V7.47831ZM379.762 7.27333C379.762 7.27333 379.71 7.27333 379.685 7.27333C377.219 7.11959 374.754 7.0171 372.288 6.99148C371.595 6.99148 371.055 6.40216 371.055 5.73598C371.055 5.04417 371.569 4.5061 372.314 4.5061C374.805 4.55735 377.322 4.63421 379.813 4.78795C380.506 4.83919 381.02 5.42851 380.994 6.12031C380.943 6.7865 380.404 7.29894 379.762 7.29894V7.27333Z" fill="#A9A8AD"/>
<path d="M555.331 137.083C554.946 137.083 554.586 136.903 554.329 136.596C553.585 135.648 552.84 134.674 552.044 133.701C551.607 133.163 551.684 132.394 552.223 131.958C552.763 131.523 553.559 131.6 553.97 132.138C554.792 133.137 555.562 134.111 556.307 135.11C556.718 135.648 556.615 136.442 556.076 136.852C555.845 137.032 555.588 137.108 555.331 137.108V137.083Z" fill="white"/>
<path d="M350.205 226.659C349.949 226.659 349.692 226.582 349.486 226.428C348.921 226.018 348.793 225.25 349.204 224.686C349.949 223.661 350.668 222.662 351.412 221.637C351.823 221.073 352.594 220.945 353.159 221.355C353.724 221.765 353.852 222.534 353.441 223.097C352.722 224.097 351.977 225.096 351.258 226.121C351.027 226.454 350.642 226.633 350.231 226.633L350.205 226.659Z" fill="white"/>
<path d="M378.45 201.157C378.193 201.157 377.936 201.08 377.705 200.9C377.14 200.49 377.037 199.696 377.448 199.158C378.938 197.16 380.427 195.212 381.943 193.291C382.354 192.752 383.15 192.65 383.689 193.06C384.228 193.47 384.331 194.264 383.92 194.802C382.431 196.724 380.941 198.671 379.451 200.644C379.195 200.977 378.835 201.131 378.45 201.131V201.157ZM387.49 189.498C387.208 189.498 386.951 189.422 386.72 189.217C386.18 188.781 386.103 188.012 386.514 187.474C388.081 185.527 389.622 183.605 391.188 181.735C391.625 181.197 392.421 181.12 392.935 181.581C393.474 182.017 393.551 182.811 393.089 183.349C391.548 185.219 390.007 187.116 388.44 189.037C388.183 189.345 387.824 189.498 387.464 189.498H387.49ZM396.89 178.148C396.607 178.148 396.325 178.045 396.068 177.84C395.554 177.405 395.477 176.61 395.94 176.072C397.558 174.176 399.201 172.331 400.819 170.512C401.281 170 402.078 169.949 402.591 170.41C403.105 170.871 403.156 171.665 402.694 172.178C401.076 173.971 399.484 175.816 397.866 177.712C397.609 177.994 397.275 178.148 396.915 178.148H396.89ZM406.7 167.156C406.392 167.156 406.084 167.053 405.853 166.823C405.339 166.361 405.314 165.567 405.776 165.055C407.471 163.21 409.166 161.442 410.861 159.674C411.349 159.187 412.145 159.161 412.633 159.648C413.121 160.135 413.147 160.904 412.659 161.416C410.989 163.159 409.294 164.927 407.599 166.746C407.343 167.002 407.009 167.156 406.675 167.156H406.7ZM416.973 156.574C416.64 156.574 416.331 156.445 416.075 156.215C415.587 155.728 415.587 154.934 416.075 154.447C417.847 152.679 419.644 150.962 421.417 149.297C421.904 148.836 422.701 148.836 423.189 149.348C423.651 149.861 423.651 150.629 423.137 151.116C421.391 152.756 419.619 154.473 417.847 156.215C417.615 156.445 417.282 156.574 416.973 156.574ZM427.709 146.478C427.375 146.478 427.015 146.35 426.784 146.068C426.322 145.556 426.373 144.762 426.887 144.3C428.762 142.635 430.611 140.995 432.486 139.432C433.025 138.997 433.795 139.048 434.258 139.586C434.694 140.124 434.643 140.893 434.104 141.354C432.254 142.917 430.431 144.505 428.556 146.171C428.325 146.376 428.017 146.478 427.734 146.478H427.709ZM438.983 136.972C438.624 136.972 438.264 136.819 438.007 136.511C437.571 135.973 437.674 135.179 438.213 134.769C440.19 133.206 442.142 131.694 444.094 130.234C444.659 129.824 445.43 129.926 445.841 130.49C446.251 131.028 446.149 131.822 445.584 132.232C443.658 133.667 441.731 135.153 439.779 136.716C439.548 136.896 439.266 136.998 439.009 136.998L438.983 136.972ZM450.797 128.158C450.412 128.158 450.001 127.979 449.77 127.62C449.385 127.057 449.513 126.288 450.078 125.878C452.158 124.443 454.213 123.059 456.242 121.753C456.833 121.368 457.603 121.548 457.963 122.137C458.348 122.726 458.168 123.495 457.577 123.854C455.548 125.135 453.52 126.493 451.491 127.928C451.285 128.081 451.028 128.158 450.772 128.158H450.797ZM463.228 120.215C462.791 120.215 462.38 119.985 462.149 119.6C461.789 119.011 461.995 118.242 462.585 117.884C464.768 116.603 466.926 115.398 469.083 114.271C469.699 113.963 470.444 114.194 470.778 114.783C471.112 115.398 470.881 116.141 470.265 116.474C468.159 117.602 466.027 118.781 463.87 120.036C463.664 120.164 463.459 120.215 463.228 120.215ZM568.063 113.81C567.832 113.81 567.601 113.759 567.395 113.605C565.367 112.298 563.261 111.094 561.103 109.992C560.487 109.685 560.256 108.916 560.564 108.327C560.872 107.712 561.643 107.481 562.233 107.788C564.442 108.916 566.651 110.171 568.731 111.529C569.322 111.914 569.476 112.682 569.116 113.246C568.885 113.605 568.474 113.81 568.063 113.81ZM476.274 113.323C475.812 113.323 475.35 113.067 475.144 112.606C474.862 111.991 475.118 111.248 475.735 110.94C477.995 109.864 480.306 108.865 482.541 107.942C483.183 107.686 483.902 107.993 484.159 108.608C484.416 109.249 484.107 109.966 483.491 110.223C481.282 111.119 479.022 112.119 476.788 113.169C476.608 113.246 476.428 113.297 476.249 113.297L476.274 113.323ZM489.912 107.737C489.398 107.737 488.91 107.404 488.73 106.892C488.499 106.251 488.859 105.534 489.501 105.303C491.863 104.483 494.252 103.74 496.615 103.074C497.282 102.895 497.976 103.279 498.156 103.945C498.335 104.611 497.95 105.303 497.282 105.482C494.971 106.123 492.634 106.866 490.322 107.686C490.194 107.737 490.04 107.763 489.912 107.763V107.737ZM554.94 107.071C554.785 107.071 554.631 107.045 554.477 106.994C552.243 106.123 549.931 105.329 547.594 104.663C546.927 104.483 546.541 103.791 546.747 103.125C546.927 102.459 547.62 102.075 548.288 102.28C550.676 102.971 553.09 103.791 555.376 104.688C556.018 104.944 556.326 105.662 556.07 106.302C555.864 106.789 555.402 107.097 554.914 107.097L554.94 107.071ZM504.114 103.74C503.549 103.74 503.01 103.33 502.881 102.766C502.727 102.1 503.164 101.434 503.831 101.28C506.297 100.768 508.762 100.307 511.177 99.9736C511.87 99.8712 512.486 100.358 512.589 101.024C512.692 101.716 512.204 102.331 511.536 102.433C509.173 102.766 506.759 103.202 504.345 103.715C504.268 103.715 504.165 103.74 504.088 103.74H504.114ZM540.763 102.971C540.763 102.971 540.609 102.971 540.532 102.971C538.169 102.51 535.755 102.177 533.341 101.921C532.647 101.844 532.159 101.255 532.211 100.563C532.288 99.8712 532.904 99.3587 533.572 99.4356C536.063 99.6918 538.554 100.051 540.994 100.512C541.662 100.64 542.124 101.306 541.996 101.972C541.893 102.562 541.353 102.971 540.763 102.971ZM518.702 101.69C518.06 101.69 517.495 101.178 517.469 100.537C517.417 99.8455 517.957 99.2562 518.625 99.205C520.679 99.0769 522.734 99 524.763 99H526.098C526.792 99 527.331 99.5893 527.331 100.281C527.331 100.973 526.792 101.511 526.072 101.511H524.763C522.785 101.511 520.782 101.562 518.779 101.69C518.753 101.69 518.727 101.69 518.702 101.69Z" fill="#A9A8AD"/>
<path d="M548.441 317.234C548.159 317.234 547.876 317.132 547.645 316.952C547.106 316.517 547.055 315.722 547.491 315.184C548.287 314.236 549.084 313.263 549.88 312.315C550.316 311.777 551.112 311.7 551.626 312.161C552.165 312.597 552.242 313.391 551.78 313.929C550.984 314.877 550.188 315.851 549.366 316.799C549.109 317.08 548.775 317.234 548.416 317.234H548.441Z" fill="white"/>
<path d="M555.555 287.546C555.273 287.546 555.016 287.47 554.785 287.265C554.245 286.829 554.168 286.06 554.579 285.522C556.146 283.549 557.687 281.602 559.176 279.68C559.587 279.142 560.384 279.04 560.923 279.45C561.462 279.86 561.565 280.654 561.154 281.192C559.664 283.139 558.124 285.112 556.531 287.085C556.274 287.393 555.915 287.546 555.555 287.546ZM564.647 275.709C564.39 275.709 564.133 275.632 563.902 275.478C563.337 275.068 563.234 274.3 563.645 273.736C565.135 271.712 566.599 269.713 567.986 267.715C568.396 267.151 569.167 267.023 569.732 267.407C570.297 267.792 570.425 268.586 570.04 269.149C568.628 271.148 567.164 273.172 565.648 275.222C565.417 275.555 565.032 275.734 564.647 275.734V275.709ZM573.25 263.513C573.019 263.513 572.763 263.436 572.557 263.308C571.992 262.923 571.838 262.155 572.223 261.591C573.636 259.49 574.997 257.44 576.281 255.39C576.666 254.801 577.411 254.647 578.002 255.006C578.592 255.365 578.747 256.133 578.387 256.723C577.077 258.798 575.69 260.873 574.278 262.974C574.047 263.333 573.636 263.538 573.25 263.538V263.513ZM581.263 250.932C581.032 250.932 580.827 250.881 580.621 250.753C580.031 250.394 579.825 249.625 580.185 249.036C581.495 246.884 582.727 244.731 583.934 242.63C584.268 242.041 585.039 241.81 585.629 242.143C586.22 242.477 586.451 243.245 586.092 243.835C584.885 245.961 583.626 248.139 582.316 250.291C582.085 250.676 581.674 250.906 581.238 250.906L581.263 250.932ZM588.609 237.941C588.403 237.941 588.223 237.89 588.018 237.788C587.402 237.48 587.17 236.712 587.504 236.097C588.686 233.867 589.79 231.664 590.869 229.486C591.177 228.871 591.922 228.615 592.538 228.922C593.154 229.23 593.411 229.973 593.103 230.588C592.024 232.791 590.894 235.02 589.713 237.275C589.482 237.711 589.045 237.941 588.609 237.941ZM595.132 224.541C594.952 224.541 594.798 224.515 594.618 224.438C593.976 224.157 593.694 223.413 593.976 222.799C595.003 220.493 595.954 218.212 596.853 215.983C597.109 215.342 597.829 215.035 598.471 215.291C599.113 215.547 599.421 216.265 599.164 216.905C598.265 219.186 597.289 221.492 596.236 223.823C596.031 224.285 595.569 224.566 595.106 224.566L595.132 224.541ZM600.679 210.705C600.551 210.705 600.397 210.705 600.268 210.628C599.626 210.397 599.267 209.68 599.498 209.039C600.345 206.656 601.116 204.325 601.809 202.019C602.015 201.353 602.708 200.994 603.376 201.199C604.044 201.404 604.403 202.096 604.198 202.762C603.479 205.093 602.708 207.476 601.835 209.885C601.655 210.397 601.167 210.705 600.654 210.705H600.679ZM605.02 196.459C605.02 196.459 604.814 196.459 604.711 196.433C604.044 196.254 603.633 195.588 603.813 194.921C604.429 192.487 604.968 190.053 605.431 187.721C605.559 187.055 606.227 186.62 606.894 186.748C607.562 186.876 608.024 187.542 607.87 188.208C607.408 190.591 606.843 193.051 606.227 195.536C606.073 196.1 605.585 196.484 605.02 196.484V196.459ZM607.87 181.828C607.87 181.828 607.768 181.828 607.691 181.828C606.997 181.726 606.535 181.111 606.612 180.419C606.946 177.959 607.203 175.5 607.357 173.091C607.408 172.399 608.025 171.912 608.692 171.938C609.386 171.989 609.899 172.579 609.848 173.27C609.668 175.73 609.411 178.267 609.077 180.752C609 181.367 608.461 181.828 607.845 181.828H607.87ZM608.872 166.967C608.179 166.967 607.639 166.404 607.614 165.737C607.614 163.252 607.485 160.792 607.28 158.409C607.228 157.718 607.716 157.128 608.41 157.051C609.103 157 609.694 157.487 609.771 158.179C609.976 160.639 610.105 163.175 610.13 165.712C610.13 166.404 609.591 166.967 608.898 166.967H608.872ZM607.511 152.157C606.92 152.157 606.407 151.748 606.278 151.133C605.816 148.698 605.251 146.29 604.583 144.01C604.378 143.343 604.763 142.652 605.431 142.472C606.098 142.267 606.792 142.652 606.971 143.318C607.691 145.675 608.281 148.16 608.744 150.697C608.872 151.363 608.41 152.029 607.742 152.157C607.665 152.157 607.588 152.157 607.511 152.157ZM603.222 137.911C602.734 137.911 602.272 137.63 602.066 137.168C601.09 134.914 599.96 132.736 598.727 130.712C598.368 130.122 598.548 129.354 599.138 128.995C599.729 128.636 600.5 128.815 600.859 129.405C602.143 131.531 603.325 133.812 604.352 136.169C604.634 136.81 604.352 137.527 603.71 137.809C603.556 137.886 603.376 137.911 603.222 137.911ZM595.44 125.254C595.081 125.254 594.747 125.1 594.49 124.818C592.898 122.948 591.177 121.231 589.353 119.745C588.814 119.31 588.737 118.515 589.199 117.977C589.636 117.439 590.432 117.362 590.946 117.823C592.872 119.412 594.721 121.231 596.39 123.204C596.827 123.717 596.776 124.511 596.236 124.972C596.005 125.177 595.723 125.28 595.44 125.28V125.254ZM583.986 115.825C583.78 115.825 583.575 115.774 583.395 115.671C581.263 114.518 579.029 113.596 576.743 112.904C576.076 112.699 575.716 112.007 575.896 111.341C576.101 110.675 576.769 110.29 577.462 110.495C579.902 111.213 582.291 112.212 584.576 113.468C585.193 113.801 585.398 114.544 585.064 115.159C584.833 115.569 584.422 115.799 583.96 115.799L583.986 115.825ZM562.335 111.828C561.719 111.828 561.18 111.367 561.103 110.752C561 110.06 561.488 109.445 562.181 109.342C564.75 108.984 567.369 108.907 569.886 109.112C570.58 109.163 571.093 109.752 571.042 110.444C570.99 111.136 570.323 111.648 569.706 111.597C567.344 111.418 564.904 111.495 562.515 111.828C562.464 111.828 562.413 111.828 562.335 111.828Z" fill="#A9A8AD"/>
<path d="M554.535 317.234C554.124 317.234 553.713 317.029 553.482 316.645C552.814 315.594 552.172 314.518 551.504 313.493C551.145 312.904 551.299 312.135 551.889 311.777C552.48 311.418 553.251 311.572 553.61 312.161C554.278 313.212 554.946 314.288 555.613 315.338C555.973 315.928 555.793 316.696 555.202 317.055C554.997 317.183 554.766 317.234 554.535 317.234Z" fill="white"/>
<path d="M548.602 307.959C548.192 307.959 547.806 307.754 547.549 307.395C546.214 305.371 544.853 303.347 543.492 301.374C543.106 300.81 543.235 300.042 543.826 299.632C544.391 299.247 545.161 299.375 545.572 299.965C546.959 301.963 548.294 303.987 549.655 306.037C550.041 306.601 549.887 307.395 549.296 307.754C549.09 307.882 548.834 307.959 548.602 307.959ZM540.358 295.942C539.973 295.942 539.588 295.763 539.331 295.43C537.919 293.457 536.48 291.484 535.042 289.562C534.631 288.998 534.734 288.23 535.299 287.82C535.838 287.41 536.634 287.512 537.045 288.076C538.484 290.023 539.922 291.996 541.36 293.995C541.771 294.558 541.617 295.327 541.077 295.737C540.846 295.891 540.615 295.968 540.358 295.968V295.942ZM531.652 284.258C531.267 284.258 530.907 284.079 530.676 283.771C529.187 281.85 527.671 279.954 526.182 278.083C525.745 277.545 525.822 276.751 526.361 276.341C526.901 275.905 527.671 275.982 528.108 276.52C529.623 278.416 531.138 280.312 532.654 282.26C533.065 282.798 532.962 283.592 532.423 284.002C532.191 284.181 531.935 284.258 531.652 284.258ZM522.483 272.907C522.124 272.907 521.764 272.754 521.533 272.472C519.967 270.601 518.374 268.782 516.808 266.963C516.345 266.451 516.397 265.656 516.91 265.195C517.424 264.734 518.22 264.785 518.682 265.298C520.275 267.117 521.867 268.962 523.459 270.832C523.896 271.37 523.845 272.139 523.305 272.6C523.074 272.805 522.792 272.882 522.509 272.882L522.483 272.907ZM512.853 261.967C512.519 261.967 512.185 261.839 511.928 261.557C510.284 259.763 508.615 257.995 506.946 256.279C506.458 255.792 506.483 254.997 506.971 254.511C507.459 254.024 508.255 254.049 508.743 254.536C510.413 256.279 512.082 258.046 513.751 259.866C514.214 260.378 514.188 261.172 513.674 261.634C513.443 261.864 513.135 261.967 512.827 261.967H512.853ZM502.734 251.462C502.425 251.462 502.092 251.333 501.86 251.103C500.114 249.386 498.393 247.695 496.647 246.055C496.133 245.594 496.133 244.8 496.596 244.287C497.083 243.775 497.854 243.775 498.368 244.236C500.14 245.901 501.886 247.593 503.632 249.335C504.12 249.822 504.12 250.616 503.632 251.103C503.376 251.359 503.068 251.462 502.734 251.462ZM492.127 241.469C491.819 241.469 491.536 241.366 491.305 241.161C489.482 239.521 487.658 237.933 485.835 236.396C485.321 235.96 485.244 235.166 485.68 234.628C486.117 234.09 486.913 234.038 487.453 234.474C489.302 236.037 491.151 237.651 492.974 239.291C493.488 239.752 493.539 240.546 493.077 241.059C492.82 241.341 492.486 241.469 492.152 241.469H492.127ZM480.981 232.04C480.698 232.04 480.441 231.963 480.21 231.758C478.31 230.246 476.383 228.76 474.457 227.325C473.892 226.915 473.79 226.121 474.2 225.583C474.611 225.045 475.407 224.917 475.947 225.327C477.873 226.761 479.825 228.273 481.751 229.811C482.29 230.246 482.367 231.015 481.957 231.553C481.7 231.86 481.34 232.014 480.981 232.014V232.04ZM469.295 223.302C469.038 223.302 468.807 223.226 468.576 223.072C466.573 221.663 464.57 220.33 462.566 219.049C461.976 218.665 461.822 217.896 462.207 217.332C462.566 216.743 463.362 216.589 463.927 216.974C465.956 218.28 467.985 219.638 470.014 221.048C470.579 221.432 470.708 222.226 470.322 222.79C470.091 223.149 469.68 223.328 469.295 223.328V223.302ZM356.883 217.819C356.601 217.819 356.292 217.717 356.061 217.512C355.548 217.051 355.496 216.256 355.958 215.744C357.628 213.873 359.374 212.105 361.172 210.466C361.686 210.004 362.482 210.03 362.944 210.568C363.406 211.081 363.355 211.875 362.841 212.336C361.095 213.899 359.426 215.616 357.808 217.409C357.551 217.691 357.217 217.819 356.883 217.819ZM457.045 215.411C456.839 215.411 456.608 215.36 456.402 215.231C454.297 213.976 452.191 212.797 450.085 211.695C449.468 211.362 449.237 210.619 449.571 210.004C449.905 209.389 450.65 209.184 451.266 209.492C453.398 210.619 455.529 211.824 457.661 213.079C458.252 213.438 458.457 214.181 458.098 214.796C457.866 215.18 457.455 215.411 457.019 215.411H457.045ZM444.178 208.57C443.998 208.57 443.818 208.518 443.638 208.441C441.43 207.391 439.195 206.417 437.038 205.52C436.396 205.264 436.088 204.521 436.37 203.906C436.627 203.266 437.372 202.958 437.988 203.24C440.197 204.137 442.457 205.136 444.717 206.212C445.333 206.52 445.616 207.263 445.308 207.878C445.102 208.339 444.64 208.595 444.178 208.595V208.57ZM367.721 208.108C367.336 208.108 366.951 207.929 366.694 207.57C366.309 207.007 366.437 206.238 367.002 205.828C369.031 204.393 371.188 203.112 373.371 201.959C373.988 201.652 374.732 201.882 375.066 202.497C375.374 203.112 375.143 203.855 374.527 204.188C372.421 205.29 370.392 206.52 368.44 207.878C368.235 208.031 367.978 208.108 367.721 208.108ZM430.669 203.035C430.54 203.035 430.386 203.035 430.258 202.958C427.946 202.164 425.609 201.447 423.375 200.857C422.707 200.678 422.322 199.986 422.502 199.32C422.681 198.654 423.375 198.269 424.043 198.449C426.354 199.064 428.717 199.807 431.105 200.601C431.747 200.832 432.107 201.523 431.876 202.19C431.696 202.702 431.208 203.035 430.694 203.035H430.669ZM380.614 201.37C380.1 201.37 379.638 201.062 379.432 200.55C379.201 199.909 379.535 199.192 380.177 198.961C382.488 198.116 384.903 197.424 387.317 196.86C387.984 196.706 388.652 197.142 388.806 197.808C388.96 198.474 388.524 199.141 387.856 199.294C385.519 199.832 383.233 200.498 381.025 201.293C380.87 201.344 380.742 201.37 380.588 201.37H380.614ZM416.595 199.269C416.595 199.269 416.441 199.269 416.364 199.269C413.975 198.807 411.587 198.474 409.25 198.218C408.556 198.141 408.068 197.526 408.145 196.86C408.222 196.168 408.839 195.681 409.506 195.758C411.895 196.015 414.36 196.373 416.826 196.834C417.494 196.963 417.956 197.629 417.827 198.295C417.725 198.884 417.185 199.32 416.595 199.32V199.269ZM394.816 198.167C394.174 198.167 393.635 197.68 393.583 197.039C393.506 196.348 394.02 195.733 394.688 195.681C396.973 195.451 399.336 195.323 401.699 195.323H402.11C402.803 195.323 403.343 195.886 403.343 196.578C403.343 197.27 402.778 197.808 402.084 197.808H401.699C399.413 197.808 397.127 197.911 394.944 198.141C394.893 198.141 394.867 198.141 394.816 198.141V198.167Z" fill="#A9A8AD"/>
<path d="M350.205 226.659C349.974 226.659 349.743 226.582 349.538 226.454C348.947 226.07 348.793 225.301 349.178 224.737C349.872 223.661 350.591 222.611 351.31 221.611C351.721 221.048 352.491 220.92 353.056 221.33C353.621 221.739 353.75 222.508 353.339 223.072C352.645 224.046 351.952 225.07 351.258 226.095C351.027 226.454 350.616 226.659 350.205 226.659Z" fill="white"/>
<path d="M554.535 317.234C554.329 317.234 554.149 317.183 553.97 317.106L550.631 315.415C550.014 315.108 549.783 314.364 550.091 313.75C550.4 313.135 551.17 312.904 551.761 313.211L555.1 314.928C555.716 315.236 555.947 316.004 555.639 316.594C555.408 317.029 554.971 317.26 554.535 317.26V317.234Z" fill="white"/>
<path d="M544.493 324.361C544.313 324.361 544.108 324.31 543.928 324.233C541.693 323.105 539.433 322.004 537.199 320.902C536.583 320.594 536.326 319.851 536.634 319.236C536.942 318.621 537.687 318.365 538.303 318.673C540.563 319.774 542.798 320.902 545.058 322.029C545.674 322.337 545.931 323.08 545.623 323.695C545.417 324.13 544.955 324.387 544.518 324.387L544.493 324.361ZM531.009 317.725C530.83 317.725 530.65 317.673 530.47 317.597C528.21 316.495 525.95 315.419 523.69 314.343C523.074 314.035 522.791 313.292 523.099 312.677C523.407 312.062 524.152 311.806 524.769 312.088C527.029 313.164 529.289 314.266 531.549 315.342C532.165 315.649 532.422 316.392 532.114 317.007C531.908 317.443 531.446 317.699 530.984 317.699L531.009 317.725ZM517.423 311.268C517.244 311.268 517.064 311.242 516.884 311.14C514.624 310.089 512.338 309.013 510.078 307.988C509.462 307.706 509.179 306.963 509.462 306.323C509.744 305.708 510.489 305.426 511.131 305.708C513.417 306.758 515.677 307.809 517.963 308.885C518.579 309.167 518.862 309.91 518.554 310.55C518.348 311.012 517.886 311.268 517.423 311.268ZM503.76 304.99C503.581 304.99 503.401 304.965 503.247 304.888C500.961 303.863 498.675 302.838 496.39 301.813C495.748 301.531 495.465 300.788 495.748 300.173C496.03 299.558 496.775 299.251 497.391 299.533C499.677 300.558 501.988 301.583 504.274 302.607C504.89 302.889 505.173 303.632 504.89 304.247C504.685 304.708 504.223 304.99 503.76 304.99ZM489.995 298.892C489.841 298.892 489.661 298.867 489.507 298.79C487.221 297.79 484.91 296.791 482.598 295.817C481.956 295.536 481.674 294.818 481.93 294.178C482.213 293.537 482.932 293.255 483.574 293.511C485.885 294.485 488.197 295.484 490.483 296.484C491.125 296.766 491.407 297.483 491.125 298.124C490.919 298.585 490.457 298.867 489.969 298.867L489.995 298.892ZM476.152 292.973C475.998 292.973 475.818 292.948 475.664 292.871C473.352 291.897 471.041 290.949 468.704 290.001C468.062 289.745 467.754 289.002 468.036 288.387C468.293 287.746 469.038 287.439 469.654 287.721C471.966 288.669 474.303 289.642 476.614 290.616C477.256 290.872 477.539 291.615 477.282 292.256C477.076 292.743 476.614 293.025 476.126 293.025L476.152 292.973ZM462.232 287.26C462.078 287.26 461.924 287.234 461.77 287.157C459.433 286.209 457.121 285.287 454.784 284.364C454.142 284.108 453.834 283.391 454.091 282.75C454.347 282.109 455.067 281.802 455.709 282.058C458.046 282.981 460.383 283.903 462.72 284.851C463.362 285.107 463.67 285.825 463.413 286.465C463.208 286.952 462.746 287.234 462.258 287.234L462.232 287.26ZM448.209 281.751C448.055 281.751 447.901 281.725 447.747 281.674C445.41 280.777 443.073 279.88 440.71 278.984C440.068 278.727 439.734 278.01 439.991 277.369C440.248 276.729 440.967 276.396 441.609 276.652C443.972 277.549 446.309 278.445 448.646 279.342C449.288 279.598 449.622 280.316 449.365 280.956C449.185 281.443 448.697 281.751 448.209 281.751ZM434.11 276.421C433.956 276.421 433.827 276.421 433.673 276.344C431.31 275.473 428.973 274.628 426.61 273.757C425.968 273.526 425.634 272.809 425.866 272.168C426.097 271.527 426.816 271.194 427.458 271.425C429.821 272.27 432.183 273.142 434.546 274.013C435.188 274.243 435.522 274.961 435.291 275.601C435.111 276.114 434.623 276.421 434.11 276.421ZM419.933 271.322C419.805 271.322 419.65 271.322 419.522 271.246C417.159 270.4 414.796 269.58 412.408 268.786C411.766 268.555 411.406 267.863 411.638 267.197C411.869 266.557 412.588 266.198 413.23 266.429C415.618 267.248 417.981 268.068 420.344 268.914C420.986 269.145 421.346 269.862 421.114 270.503C420.935 271.015 420.447 271.322 419.933 271.322ZM405.679 266.429C405.551 266.429 405.422 266.429 405.294 266.352C402.906 265.557 400.543 264.763 398.154 263.994C397.487 263.789 397.153 263.072 397.358 262.431C397.564 261.765 398.283 261.432 398.925 261.637C401.313 262.406 403.702 263.2 406.09 263.994C406.732 264.225 407.092 264.917 406.886 265.583C406.706 266.095 406.219 266.429 405.705 266.429H405.679ZM391.348 261.765C391.348 261.765 391.092 261.765 390.963 261.714C388.575 260.945 386.186 260.202 383.772 259.459C383.104 259.254 382.745 258.562 382.95 257.896C383.156 257.23 383.849 256.871 384.517 257.076C386.905 257.819 389.32 258.562 391.708 259.331C392.376 259.536 392.735 260.228 392.53 260.894C392.35 261.432 391.862 261.765 391.348 261.765ZM376.941 257.307C376.941 257.307 376.709 257.307 376.581 257.256C374.167 256.538 371.778 255.821 369.364 255.129C368.696 254.924 368.311 254.232 368.517 253.592C368.722 252.951 369.39 252.541 370.058 252.746C372.472 253.438 374.886 254.155 377.3 254.898C377.968 255.103 378.327 255.795 378.148 256.461C377.994 257 377.48 257.358 376.941 257.358V257.307ZM362.456 253.079C362.456 253.079 362.225 253.079 362.122 253.028C359.708 252.336 357.293 251.67 354.879 251.004C354.212 250.825 353.826 250.133 354.006 249.467C354.186 248.8 354.879 248.416 355.547 248.595C357.961 249.262 360.401 249.928 362.815 250.62C363.483 250.799 363.868 251.491 363.688 252.157C363.534 252.695 363.021 253.054 362.481 253.054L362.456 253.079ZM347.919 249.108C347.919 249.108 347.714 249.108 347.611 249.057C345.171 248.416 342.757 247.775 340.317 247.16C339.65 246.981 339.239 246.315 339.419 245.649C339.598 244.983 340.266 244.573 340.934 244.752C343.374 245.367 345.813 246.007 348.253 246.648C348.921 246.827 349.306 247.519 349.152 248.16C348.998 248.723 348.51 249.082 347.945 249.082L347.919 249.108ZM333.306 245.393C333.306 245.393 333.101 245.393 332.998 245.367C330.558 244.778 328.118 244.188 325.678 243.599C325.011 243.445 324.6 242.779 324.754 242.087C324.908 241.421 325.576 240.986 326.269 241.165C328.709 241.754 331.174 242.343 333.614 242.933C334.282 243.087 334.693 243.778 334.539 244.445C334.41 245.008 333.897 245.393 333.332 245.393H333.306ZM13.3543 245.264C12.815 245.264 12.327 244.931 12.1729 244.393C11.9675 243.727 12.327 243.035 12.9948 242.83C15.3832 242.062 17.7974 241.344 20.2115 240.627C20.8793 240.422 21.5727 240.806 21.7781 241.472C21.9836 242.138 21.5984 242.83 20.9306 243.01C18.5422 243.727 16.1537 244.445 13.7652 245.213C13.6368 245.264 13.5084 245.264 13.38 245.264H13.3543ZM318.616 241.934C318.616 241.934 318.436 241.934 318.333 241.908C315.893 241.344 313.428 240.806 310.988 240.268C310.32 240.114 309.884 239.448 310.038 238.782C310.192 238.116 310.86 237.68 311.527 237.834C313.993 238.372 316.433 238.91 318.898 239.474C319.566 239.628 320.003 240.294 319.849 240.96C319.72 241.549 319.206 241.934 318.641 241.934H318.616ZM27.7622 240.986C27.2228 240.986 26.7092 240.627 26.5551 240.063C26.3753 239.397 26.7605 238.705 27.4283 238.526C29.8424 237.86 32.2823 237.193 34.7221 236.578C35.3898 236.399 36.0833 236.809 36.2374 237.475C36.4171 238.141 36.0062 238.833 35.3385 238.987C32.9243 239.627 30.5102 240.268 28.096 240.934C27.9933 240.96 27.8649 240.986 27.7622 240.986ZM303.874 238.731C303.874 238.731 303.694 238.731 303.617 238.705C301.152 238.193 298.686 237.706 296.246 237.219C295.579 237.091 295.142 236.425 295.27 235.759C295.399 235.092 296.041 234.631 296.734 234.785C299.2 235.272 301.665 235.784 304.131 236.297C304.799 236.425 305.235 237.091 305.107 237.783C304.978 238.372 304.465 238.782 303.874 238.782V238.731ZM42.3241 237.219C41.7591 237.219 41.2454 236.835 41.117 236.271C40.9629 235.605 41.3738 234.939 42.0416 234.759C44.4814 234.17 46.9212 233.606 49.3868 233.043C50.0545 232.889 50.7223 233.324 50.8763 233.991C51.0304 234.657 50.5938 235.323 49.9261 235.477C47.4863 236.015 45.0464 236.604 42.6323 237.168C42.5296 237.168 42.4268 237.193 42.3241 237.193V237.219ZM289.081 235.81C289.081 235.81 288.927 235.81 288.85 235.81C286.384 235.349 283.919 234.887 281.453 234.452C280.786 234.324 280.323 233.683 280.452 233.017C280.58 232.351 281.222 231.89 281.89 232.018C284.355 232.453 286.847 232.914 289.312 233.376C289.98 233.504 290.442 234.144 290.314 234.836C290.211 235.425 289.672 235.861 289.081 235.861V235.81ZM57.0144 233.914C56.4238 233.914 55.9101 233.504 55.7817 232.914C55.6533 232.248 56.0642 231.582 56.7576 231.454C59.2231 230.942 61.6886 230.455 64.1542 229.993C64.8476 229.865 65.4897 230.301 65.6181 230.993C65.7465 231.659 65.3099 232.325 64.6164 232.453C62.1509 232.914 59.7111 233.401 57.2456 233.914C57.1685 233.914 57.0658 233.939 56.9888 233.939L57.0144 233.914ZM274.237 233.145C274.237 233.145 274.108 233.145 274.031 233.145C271.566 232.735 269.074 232.325 266.609 231.941C265.915 231.838 265.453 231.198 265.582 230.506C265.684 229.814 266.326 229.353 267.02 229.481C269.511 229.865 272.002 230.275 274.468 230.685C275.135 230.788 275.598 231.454 275.495 232.12C275.392 232.735 274.853 233.171 274.262 233.171L274.237 233.145ZM71.8075 231.095C71.2168 231.095 70.6775 230.66 70.5748 230.07C70.4464 229.404 70.9086 228.738 71.6021 228.635C74.0676 228.2 76.5588 227.79 79.05 227.406C79.7177 227.303 80.3598 227.764 80.4882 228.431C80.5909 229.122 80.1286 229.737 79.4609 229.865C76.9954 230.25 74.5299 230.66 72.0644 231.095C71.9873 231.095 71.9103 231.095 71.8589 231.095H71.8075ZM259.341 230.813C259.341 230.813 259.212 230.813 259.161 230.813C256.67 230.455 254.179 230.096 251.713 229.763C251.02 229.66 250.557 229.045 250.634 228.354C250.737 227.662 251.353 227.201 252.047 227.277C254.538 227.611 257.029 227.969 259.52 228.354C260.214 228.456 260.676 229.097 260.573 229.763C260.471 230.378 259.957 230.813 259.341 230.813ZM244.394 228.764C244.394 228.764 244.291 228.764 244.239 228.764C241.748 228.456 239.257 228.149 236.766 227.867C236.072 227.79 235.584 227.175 235.661 226.483C235.739 225.791 236.381 225.33 237.048 225.381C239.54 225.663 242.056 225.971 244.548 226.278C245.241 226.355 245.729 226.996 245.626 227.662C245.549 228.302 245.01 228.764 244.394 228.764ZM86.6777 228.764C86.0613 228.764 85.522 228.328 85.4449 227.687C85.3422 226.996 85.8301 226.381 86.4979 226.278C88.9891 225.92 91.4803 225.586 93.9715 225.279C94.6649 225.202 95.2813 225.663 95.3583 226.355C95.4354 227.047 94.9731 227.662 94.2797 227.739C91.7885 228.046 89.323 228.379 86.8318 228.738C86.7804 228.738 86.7033 228.738 86.652 228.738L86.6777 228.764ZM229.421 227.047C229.421 227.047 229.344 227.047 229.292 227.047C226.801 226.791 224.284 226.534 221.793 226.304C221.1 226.253 220.612 225.638 220.663 224.946C220.714 224.254 221.331 223.767 222.024 223.818C224.541 224.049 227.032 224.305 229.549 224.562C230.242 224.638 230.73 225.253 230.653 225.92C230.576 226.56 230.037 227.047 229.421 227.047ZM101.599 226.868C100.983 226.868 100.418 226.406 100.366 225.766C100.289 225.074 100.777 224.459 101.471 224.382C103.962 224.1 106.453 223.844 108.97 223.588C109.663 223.511 110.28 224.023 110.331 224.715C110.408 225.407 109.895 226.022 109.201 226.073C106.71 226.329 104.219 226.586 101.728 226.868C101.676 226.868 101.625 226.868 101.599 226.868ZM214.396 225.663C214.396 225.663 214.319 225.663 214.294 225.663C211.777 225.458 209.286 225.253 206.794 225.1C206.101 225.048 205.587 224.459 205.639 223.767C205.69 223.075 206.306 222.589 206.974 222.614C209.491 222.794 212.008 222.973 214.525 223.178C215.218 223.229 215.732 223.844 215.655 224.51C215.604 225.151 215.064 225.663 214.422 225.663H214.396ZM116.598 225.407C115.956 225.407 115.416 224.92 115.365 224.254C115.314 223.562 115.827 222.973 116.495 222.896C118.986 222.691 121.503 222.486 124.02 222.332C124.713 222.281 125.304 222.794 125.355 223.485C125.407 224.177 124.893 224.766 124.2 224.818C121.709 224.997 119.217 225.176 116.726 225.381C116.7 225.381 116.649 225.381 116.623 225.381L116.598 225.407ZM199.347 224.587C199.347 224.587 199.295 224.587 199.269 224.587C196.753 224.433 194.261 224.305 191.745 224.177C191.051 224.152 190.512 223.562 190.563 222.87C190.589 222.179 191.205 221.641 191.873 221.692C194.39 221.82 196.907 221.948 199.424 222.102C200.117 222.153 200.631 222.742 200.605 223.409C200.554 224.075 200.014 224.587 199.372 224.587H199.347ZM131.596 224.357C130.929 224.357 130.389 223.844 130.338 223.178C130.312 222.486 130.826 221.897 131.519 221.871C134.036 221.743 136.527 221.615 139.044 221.512C139.712 221.436 140.328 222.025 140.354 222.717C140.38 223.409 139.84 223.998 139.147 224.023C136.63 224.126 134.139 224.254 131.648 224.382C131.648 224.382 131.596 224.382 131.571 224.382L131.596 224.357ZM184.271 223.87H184.22C181.703 223.793 179.211 223.716 176.695 223.639C176.001 223.639 175.462 223.05 175.462 222.358C175.462 221.666 175.95 221.154 176.746 221.128C179.263 221.179 181.78 221.256 184.297 221.333C184.99 221.333 185.529 221.922 185.504 222.614C185.504 223.28 184.913 223.818 184.245 223.818L184.271 223.87ZM146.646 223.716C145.978 223.716 145.413 223.178 145.388 222.512C145.388 221.82 145.901 221.256 146.595 221.231C149.112 221.154 151.603 221.102 154.145 221.077C154.839 221.077 155.404 221.615 155.404 222.307C155.404 222.999 154.865 223.562 154.171 223.562C151.654 223.613 149.163 223.665 146.672 223.716H146.646ZM169.221 223.511C167.166 223.511 165.138 223.485 163.083 223.485H161.722C161.028 223.485 160.463 222.922 160.463 222.255C160.463 221.564 161.028 221 161.696 221H163.083C165.138 221 167.192 221 169.247 221.026C169.94 221.026 170.479 221.589 170.479 222.281C170.479 222.973 169.914 223.511 169.221 223.511Z" fill="#A9A8AD"/>
<path d="M3.51785 236.242C3.0042 236.242 2.51623 235.909 2.33645 235.396C2.10531 234.756 2.46486 234.038 3.10693 233.808C4.28832 233.398 5.46971 232.988 6.67679 232.603C7.31885 232.373 8.03795 232.731 8.2691 233.398C8.50024 234.038 8.14068 234.756 7.47294 234.986C6.29155 235.371 5.11016 235.78 3.92876 236.19C3.80035 236.242 3.64626 236.267 3.51785 236.267V236.242Z" fill="white"/>
<path d="M272.259 108.873C271.694 108.873 271.18 108.488 271.052 107.925C270.872 107.258 271.283 106.592 271.951 106.413C273.184 106.105 274.416 105.824 275.624 105.542C276.291 105.388 276.959 105.824 277.113 106.49C277.267 107.156 276.831 107.822 276.163 107.976C274.956 108.232 273.749 108.54 272.542 108.821C272.439 108.821 272.336 108.847 272.233 108.847L272.259 108.873Z" fill="white"/>
<path d="M547.215 304.577C546.804 304.577 546.419 304.372 546.162 304.013L542.104 297.838C541.719 297.274 541.899 296.48 542.464 296.121C543.055 295.737 543.825 295.891 544.185 296.48L548.242 302.655C548.628 303.219 548.448 304.013 547.883 304.372C547.677 304.5 547.446 304.577 547.189 304.577H547.215ZM539.074 292.227C538.663 292.227 538.278 292.022 538.021 291.663C536.711 289.69 535.324 287.64 533.912 285.514C533.526 284.95 533.68 284.156 534.246 283.771C534.811 283.387 535.581 283.541 535.966 284.104C537.379 286.231 538.766 288.281 540.075 290.254C540.461 290.818 540.307 291.612 539.716 291.971C539.51 292.099 539.254 292.176 539.022 292.176L539.074 292.227ZM530.804 279.954C530.393 279.954 530.008 279.774 529.777 279.416C528.416 277.443 527.029 275.393 525.591 273.317C525.205 272.754 525.334 271.985 525.899 271.575C526.464 271.191 527.234 271.319 527.645 271.883C529.083 273.958 530.47 275.982 531.831 277.981C532.217 278.544 532.062 279.313 531.497 279.723C531.292 279.877 531.035 279.928 530.804 279.928V279.954ZM522.38 267.809C521.995 267.809 521.61 267.629 521.353 267.271C519.966 265.298 518.528 263.273 517.09 261.249C516.679 260.686 516.807 259.917 517.372 259.507C517.937 259.097 518.708 259.225 519.119 259.789C520.582 261.839 522.021 263.837 523.408 265.836C523.793 266.399 523.664 267.168 523.099 267.578C522.894 267.732 522.637 267.809 522.38 267.809ZM513.777 255.792C513.391 255.792 513.006 255.612 512.775 255.279C511.337 253.306 509.873 251.333 508.409 249.335C507.998 248.771 508.126 248.002 508.666 247.593C509.231 247.183 510.001 247.311 510.412 247.849C511.902 249.847 513.366 251.846 514.804 253.819C515.215 254.382 515.086 255.151 514.521 255.561C514.29 255.715 514.033 255.792 513.777 255.792ZM504.968 243.929C504.582 243.929 504.223 243.749 503.966 243.442C502.502 241.494 501.012 239.547 499.471 237.574C499.061 237.036 499.163 236.242 499.703 235.832C500.242 235.422 501.038 235.524 501.449 236.062C502.964 238.035 504.48 239.983 505.943 241.956C506.354 242.494 506.252 243.288 505.687 243.698C505.455 243.877 505.199 243.954 504.942 243.954L504.968 243.929ZM495.927 232.219C495.568 232.219 495.183 232.065 494.951 231.732C493.436 229.811 491.895 227.889 490.354 225.967C489.918 225.429 489.995 224.635 490.534 224.225C491.073 223.789 491.844 223.866 492.28 224.404C493.847 226.326 495.388 228.273 496.903 230.195C497.34 230.733 497.237 231.527 496.698 231.937C496.467 232.117 496.184 232.193 495.927 232.193V232.219ZM486.656 220.715C486.296 220.715 485.937 220.561 485.68 220.253C484.113 218.357 482.547 216.487 480.954 214.591C480.518 214.053 480.569 213.284 481.109 212.823C481.648 212.387 482.418 212.439 482.881 212.977C484.473 214.873 486.065 216.769 487.632 218.665C488.068 219.203 487.991 219.972 487.452 220.407C487.221 220.586 486.938 220.689 486.656 220.689V220.715ZM477.128 209.415C476.768 209.415 476.434 209.261 476.178 208.98C474.585 207.135 472.967 205.29 471.324 203.445C470.861 202.933 470.913 202.138 471.426 201.677C471.94 201.216 472.736 201.267 473.198 201.78C474.842 203.624 476.46 205.495 478.078 207.34C478.54 207.852 478.463 208.646 477.95 209.108C477.718 209.313 477.41 209.415 477.128 209.415ZM467.317 198.372C466.983 198.372 466.649 198.244 466.392 197.962C464.749 196.143 463.079 194.349 461.384 192.556C460.922 192.043 460.948 191.274 461.436 190.788C461.949 190.326 462.72 190.352 463.208 190.839C464.903 192.632 466.572 194.452 468.242 196.271C468.704 196.783 468.678 197.578 468.165 198.039C467.933 198.244 467.625 198.372 467.317 198.372ZM457.198 187.585C456.864 187.585 456.556 187.457 456.299 187.2C454.604 185.432 452.884 183.69 451.137 181.948C450.649 181.461 450.649 180.667 451.137 180.18C451.625 179.693 452.421 179.693 452.909 180.18C454.656 181.922 456.376 183.69 458.097 185.458C458.585 185.945 458.559 186.739 458.071 187.226C457.84 187.457 457.506 187.585 457.198 187.585ZM446.745 177.105C446.437 177.105 446.129 176.977 445.872 176.746C444.1 175.03 442.328 173.339 440.53 171.648C440.017 171.186 439.991 170.392 440.479 169.88C440.941 169.367 441.737 169.367 442.251 169.828C444.049 171.52 445.847 173.236 447.619 174.953C448.107 175.44 448.132 176.234 447.619 176.721C447.362 176.977 447.054 177.105 446.72 177.105H446.745ZM435.959 166.984C435.651 166.984 435.368 166.882 435.111 166.651C433.288 165.011 431.464 163.372 429.615 161.757C429.102 161.296 429.05 160.527 429.487 159.989C429.949 159.477 430.72 159.426 431.259 159.861C433.134 161.476 434.957 163.115 436.806 164.781C437.32 165.242 437.346 166.036 436.883 166.549C436.627 166.831 436.293 166.959 435.959 166.959V166.984ZM424.813 157.299C424.53 157.299 424.248 157.197 424.016 157.017C422.142 155.454 420.241 153.891 418.315 152.38C417.776 151.944 417.699 151.175 418.11 150.637C418.546 150.099 419.317 150.022 419.856 150.432C421.782 151.97 423.683 153.533 425.583 155.121C426.122 155.557 426.174 156.351 425.737 156.889C425.48 157.197 425.147 157.325 424.787 157.325L424.813 157.299ZM413.281 148.075C413.024 148.075 412.742 147.998 412.536 147.819C410.585 146.333 408.607 144.872 406.629 143.437C406.064 143.027 405.936 142.259 406.347 141.695C406.758 141.131 407.528 141.003 408.093 141.413C410.097 142.874 412.074 144.334 414.052 145.846C414.591 146.256 414.694 147.05 414.283 147.588C414.026 147.921 413.666 148.075 413.281 148.075ZM401.313 139.415C401.082 139.415 400.825 139.338 400.62 139.184C398.591 137.8 396.536 136.442 394.482 135.11C393.891 134.726 393.737 133.957 394.122 133.393C394.507 132.83 395.278 132.65 395.843 133.035C397.923 134.367 399.978 135.751 402.032 137.16C402.597 137.544 402.751 138.338 402.366 138.902C402.135 139.261 401.724 139.44 401.339 139.44L401.313 139.415ZM388.883 131.395C388.652 131.395 388.446 131.344 388.241 131.215C386.135 129.934 384.029 128.704 381.897 127.5C381.307 127.167 381.075 126.398 381.409 125.809C381.743 125.22 382.514 124.989 383.104 125.322C385.262 126.527 387.393 127.782 389.525 129.063C390.116 129.422 390.295 130.191 389.936 130.78C389.705 131.164 389.294 131.369 388.857 131.369L388.883 131.395ZM375.99 124.144C375.785 124.144 375.605 124.092 375.425 124.016C373.242 122.888 371.059 121.786 368.851 120.761C368.234 120.454 367.952 119.711 368.26 119.096C368.568 118.481 369.313 118.225 369.929 118.507C372.164 119.557 374.372 120.659 376.581 121.812C377.197 122.119 377.429 122.888 377.12 123.503C376.889 123.939 376.453 124.169 376.016 124.169L375.99 124.144ZM362.635 117.815C362.481 117.815 362.302 117.789 362.147 117.712C359.887 116.739 357.627 115.816 355.342 114.971C354.7 114.715 354.366 113.997 354.623 113.357C354.879 112.716 355.598 112.409 356.241 112.639C358.552 113.51 360.863 114.458 363.149 115.432C363.791 115.714 364.074 116.431 363.791 117.072C363.586 117.533 363.123 117.815 362.635 117.815ZM348.818 112.562C348.69 112.562 348.561 112.562 348.433 112.511C346.096 111.742 343.759 111.025 341.422 110.359C340.754 110.179 340.369 109.488 340.549 108.821C340.728 108.155 341.422 107.771 342.09 107.95C344.478 108.616 346.841 109.359 349.204 110.128C349.846 110.333 350.205 111.051 350 111.691C349.82 112.204 349.332 112.537 348.818 112.537V112.562ZM334.59 108.565C334.59 108.565 334.41 108.565 334.308 108.54C331.919 107.976 329.505 107.489 327.142 107.079C326.475 106.951 326.012 106.31 326.141 105.644C326.269 104.978 326.911 104.517 327.579 104.645C329.993 105.081 332.433 105.567 334.873 106.131C335.54 106.285 335.951 106.951 335.797 107.617C335.669 108.206 335.155 108.591 334.59 108.591V108.565ZM283.2 106.644C282.609 106.644 282.07 106.208 281.967 105.593C281.864 104.901 282.326 104.261 282.994 104.158C285.46 103.748 287.951 103.415 290.391 103.184C291.084 103.108 291.701 103.62 291.752 104.286C291.829 104.978 291.315 105.593 290.648 105.644C288.233 105.9 285.794 106.208 283.379 106.618C283.302 106.618 283.251 106.618 283.174 106.618L283.2 106.644ZM320.054 106.003C320.054 106.003 319.951 106.003 319.9 106.003C317.486 105.695 315.02 105.465 312.606 105.311C311.913 105.26 311.399 104.671 311.45 103.979C311.502 103.287 312.092 102.775 312.786 102.826C315.251 103.005 317.743 103.236 320.208 103.543C320.901 103.62 321.389 104.261 321.287 104.927C321.21 105.567 320.67 106.029 320.054 106.029V106.003ZM297.916 105.132C297.248 105.132 296.709 104.619 296.657 103.953C296.632 103.261 297.171 102.672 297.839 102.646C299.816 102.544 301.768 102.518 303.746 102.518H305.312C306.006 102.518 306.545 103.108 306.545 103.799C306.545 104.491 305.98 105.029 305.287 105.029H303.72C301.794 105.029 299.868 105.055 297.941 105.157C297.941 105.157 297.916 105.157 297.89 105.157L297.916 105.132Z" fill="#A9A8AD"/>
<path d="M553.251 313.775C552.84 313.775 552.455 313.57 552.198 313.212L550.143 310.086C549.758 309.522 549.938 308.728 550.503 308.369C551.068 307.985 551.864 308.138 552.224 308.728L554.278 311.828C554.663 312.392 554.509 313.186 553.919 313.545C553.713 313.673 553.456 313.75 553.225 313.75L553.251 313.775Z" fill="white"/>
<path d="M346.353 228.837C345.968 228.837 345.557 228.657 345.326 228.299C344.606 227.274 343.887 226.249 343.168 225.25C342.757 224.686 342.911 223.917 343.451 223.507C344.016 223.097 344.786 223.251 345.197 223.789C345.916 224.814 346.635 225.839 347.354 226.864C347.74 227.428 347.611 228.196 347.046 228.606C346.841 228.76 346.584 228.837 346.327 228.837H346.353Z" fill="white"/>
<path d="M9.70784 230.272C9.39965 230.272 9.09146 230.144 8.83463 229.913C8.34667 229.426 8.32099 228.657 8.80896 228.145C10.504 226.377 12.2761 224.609 14.0995 222.841C14.5875 222.354 15.3837 222.38 15.8716 222.841C16.3596 223.328 16.3339 224.122 15.8716 224.609C14.0739 226.351 12.3274 228.094 10.6324 229.862C10.3756 230.118 10.0674 230.246 9.73352 230.246L9.70784 230.272ZM20.3661 219.895C20.0322 219.895 19.6983 219.766 19.4415 219.485C18.9792 218.972 19.0049 218.203 19.5185 217.717C21.342 216.051 23.1911 214.386 25.0916 212.72C25.6053 212.259 26.4014 212.31 26.8637 212.848C27.326 213.361 27.2746 214.155 26.761 214.616C24.8862 216.256 23.037 217.922 21.2392 219.561C21.0081 219.792 20.6999 219.895 20.3917 219.895H20.3661ZM339.804 219.792C339.419 219.792 339.059 219.613 338.803 219.305C337.287 217.307 335.772 215.359 334.257 213.463C333.82 212.925 333.923 212.131 334.462 211.721C335.002 211.285 335.798 211.362 336.209 211.926C337.75 213.848 339.291 215.821 340.806 217.819C341.217 218.357 341.114 219.151 340.549 219.561C340.318 219.741 340.061 219.818 339.804 219.818V219.792ZM31.5636 210.081C31.204 210.081 30.8445 209.927 30.6133 209.646C30.1767 209.108 30.2538 208.339 30.7674 207.878C32.6679 206.289 34.5941 204.726 36.5717 203.163C37.111 202.728 37.9072 202.83 38.3181 203.368C38.7547 203.906 38.6519 204.7 38.1126 205.11C36.1607 206.648 34.2346 208.211 32.3597 209.774C32.1286 209.979 31.8461 210.056 31.5636 210.056V210.081ZM330.481 208.185C330.122 208.185 329.788 208.031 329.531 207.75C327.913 205.853 326.27 204.009 324.626 202.215C324.164 201.703 324.189 200.908 324.703 200.447C325.217 199.986 326.013 200.012 326.475 200.524C328.144 202.343 329.788 204.214 331.432 206.135C331.868 206.648 331.817 207.442 331.303 207.903C331.072 208.108 330.79 208.211 330.481 208.211V208.185ZM43.2234 200.831C42.8382 200.831 42.4786 200.652 42.2218 200.345C41.8109 199.807 41.9136 199.012 42.4529 198.602C44.4305 197.116 46.4337 195.63 48.4626 194.17C49.0276 193.76 49.7981 193.888 50.209 194.451C50.62 195.015 50.4915 195.784 49.9265 196.194C47.8976 197.654 45.9201 199.115 43.9682 200.601C43.7371 200.78 43.4802 200.857 43.2234 200.857V200.831ZM320.465 197.219C320.131 197.219 319.823 197.091 319.566 196.834C317.82 195.041 316.074 193.324 314.302 191.633C313.814 191.146 313.788 190.378 314.25 189.865C314.738 189.378 315.509 189.353 316.022 189.814C317.82 191.505 319.592 193.273 321.339 195.066C321.826 195.553 321.801 196.348 321.339 196.834C321.107 197.065 320.774 197.193 320.465 197.193V197.219ZM55.3198 192.145C54.9089 192.145 54.5237 191.966 54.2926 191.607C53.9073 191.044 54.0357 190.275 54.6264 189.865C56.681 188.456 58.7356 187.098 60.8416 185.714C61.4066 185.33 62.2027 185.509 62.5623 186.073C62.9475 186.662 62.7678 187.431 62.2027 187.79C60.1225 189.148 58.0679 190.506 56.0389 191.915C55.8335 192.069 55.5767 192.12 55.3455 192.12L55.3198 192.145ZM309.704 186.97C309.422 186.97 309.114 186.867 308.883 186.662C307.008 185.022 305.133 183.408 303.258 181.871C302.719 181.435 302.642 180.641 303.078 180.129C303.515 179.59 304.311 179.514 304.825 179.949C306.725 181.512 308.626 183.126 310.526 184.792C311.04 185.253 311.091 186.047 310.629 186.56C310.372 186.842 310.038 186.97 309.704 186.97ZM67.8015 184.049C67.3906 184.049 66.9797 183.844 66.7485 183.459C66.389 182.87 66.5688 182.101 67.1594 181.743C69.2654 180.436 71.3971 179.155 73.5544 177.899C74.1451 177.541 74.9155 177.746 75.2751 178.335C75.6347 178.924 75.4292 179.693 74.8385 180.052C72.7069 181.307 70.5752 182.588 68.4949 183.869C68.2895 183.998 68.0583 184.049 67.8272 184.049H67.8015ZM298.173 177.566C297.916 177.566 297.634 177.489 297.428 177.31C295.451 175.824 293.447 174.363 291.444 172.98C290.879 172.596 290.725 171.801 291.136 171.238C291.521 170.674 292.317 170.52 292.882 170.93C294.911 172.339 296.94 173.8 298.943 175.312C299.483 175.721 299.611 176.516 299.175 177.054C298.918 177.387 298.558 177.541 298.173 177.541V177.566ZM80.6427 176.541C80.2061 176.541 79.7695 176.311 79.5384 175.901C79.2045 175.312 79.41 174.543 80.0263 174.21C82.2093 173.005 84.3924 171.827 86.601 170.674C87.2174 170.366 87.9622 170.597 88.2961 171.212C88.6043 171.827 88.3731 172.57 87.7568 172.903C85.5481 174.056 83.3907 175.209 81.2334 176.413C81.0536 176.516 80.8225 176.567 80.617 176.567L80.6427 176.541ZM93.8435 169.649C93.3812 169.649 92.9446 169.393 92.7135 168.957C92.4053 168.342 92.6621 167.599 93.2785 167.292C95.5128 166.19 97.7729 165.114 100.033 164.063C100.649 163.781 101.394 164.063 101.702 164.678C101.985 165.293 101.702 166.036 101.086 166.344C98.8259 167.369 96.5915 168.445 94.3828 169.546C94.203 169.623 94.0233 169.675 93.8435 169.675V169.649ZM285.922 169.137C285.691 169.137 285.46 169.085 285.255 168.932C283.149 167.599 281.043 166.344 278.911 165.139C278.32 164.806 278.115 164.038 278.449 163.448C278.783 162.859 279.553 162.654 280.144 162.987C282.301 164.217 284.433 165.498 286.564 166.83C287.155 167.189 287.309 167.958 286.95 168.547C286.719 168.932 286.308 169.137 285.897 169.137H285.922ZM107.378 163.423C106.89 163.423 106.428 163.141 106.222 162.68C105.94 162.039 106.222 161.322 106.864 161.04C109.15 160.066 111.462 159.093 113.773 158.17C114.415 157.914 115.134 158.221 115.391 158.862C115.648 159.502 115.34 160.22 114.698 160.476C112.386 161.399 110.1 162.347 107.84 163.32C107.686 163.397 107.507 163.423 107.352 163.423H107.378ZM273.004 161.783C272.824 161.783 272.619 161.732 272.439 161.655C270.23 160.527 268.022 159.451 265.787 158.426C265.171 158.144 264.889 157.401 265.171 156.786C265.454 156.172 266.198 155.89 266.815 156.172C269.075 157.196 271.309 158.298 273.569 159.451C274.186 159.759 274.417 160.527 274.109 161.117C273.877 161.552 273.441 161.783 273.004 161.783ZM121.221 157.94C120.707 157.94 120.245 157.632 120.04 157.12C119.808 156.479 120.142 155.762 120.784 155.531C123.121 154.66 125.484 153.84 127.847 153.046C128.489 152.815 129.208 153.174 129.439 153.84C129.67 154.48 129.311 155.198 128.643 155.429C126.306 156.223 123.969 157.017 121.658 157.888C121.503 157.94 121.375 157.965 121.221 157.965V157.94ZM259.47 155.608C259.315 155.608 259.161 155.582 259.007 155.505C256.722 154.583 254.41 153.712 252.099 152.918C251.457 152.687 251.097 151.969 251.328 151.329C251.559 150.688 252.278 150.355 252.92 150.56C255.258 151.38 257.62 152.277 259.932 153.199C260.574 153.456 260.882 154.173 260.625 154.814C260.42 155.3 259.957 155.582 259.47 155.582V155.608ZM135.346 153.225C134.807 153.225 134.319 152.866 134.139 152.328C133.934 151.662 134.319 150.97 134.987 150.765C137.375 150.048 139.764 149.356 142.178 148.715C142.846 148.536 143.539 148.92 143.719 149.587C143.899 150.253 143.513 150.945 142.846 151.124C140.457 151.764 138.094 152.456 135.732 153.148C135.603 153.174 135.5 153.199 135.372 153.199L135.346 153.225ZM245.421 150.688C245.421 150.688 245.19 150.688 245.062 150.637C242.699 149.92 240.31 149.279 237.948 148.69C237.28 148.536 236.869 147.844 237.049 147.178C237.203 146.512 237.896 146.102 238.564 146.281C240.978 146.896 243.418 147.562 245.806 148.254C246.474 148.459 246.834 149.151 246.654 149.817C246.5 150.355 245.986 150.714 245.447 150.714L245.421 150.688ZM149.728 149.356C149.163 149.356 148.65 148.972 148.521 148.408C148.367 147.742 148.778 147.076 149.446 146.896C151.886 146.333 154.326 145.794 156.765 145.308C157.433 145.18 158.101 145.615 158.229 146.281C158.358 146.947 157.921 147.614 157.253 147.742C154.839 148.229 152.425 148.741 150.011 149.33C149.908 149.33 149.806 149.356 149.728 149.356ZM230.988 147.076C230.988 147.076 230.834 147.076 230.731 147.076C228.317 146.589 225.877 146.153 223.463 145.769C222.769 145.666 222.307 145.026 222.41 144.334C222.513 143.642 223.155 143.181 223.848 143.283C226.313 143.668 228.779 144.103 231.245 144.616C231.912 144.744 232.349 145.41 232.22 146.076C232.092 146.666 231.578 147.076 230.988 147.076ZM164.342 146.435C163.751 146.435 163.212 145.999 163.109 145.385C163.006 144.693 163.469 144.052 164.136 143.95C166.602 143.54 169.067 143.181 171.533 142.848C172.252 142.745 172.843 143.232 172.945 143.924C173.022 144.616 172.56 145.231 171.867 145.333C169.427 145.641 166.987 145.999 164.547 146.409C164.47 146.409 164.419 146.409 164.342 146.409V146.435ZM216.272 144.795C216.272 144.795 216.169 144.795 216.143 144.795C213.703 144.513 211.238 144.308 208.772 144.129C208.079 144.078 207.565 143.488 207.617 142.797C207.668 142.105 208.284 141.618 208.952 141.644C211.443 141.823 213.935 142.028 216.426 142.31C217.119 142.387 217.607 143.002 217.53 143.693C217.453 144.334 216.914 144.795 216.297 144.795H216.272ZM179.109 144.539C178.467 144.539 177.928 144.052 177.876 143.412C177.825 142.72 178.313 142.13 179.006 142.054C181.498 141.823 183.989 141.644 186.48 141.516C187.173 141.49 187.764 142.002 187.79 142.694C187.816 143.386 187.302 143.975 186.608 144.001C184.143 144.129 181.677 144.308 179.238 144.539C179.186 144.539 179.161 144.539 179.109 144.539ZM201.427 143.77H201.402C198.936 143.693 196.471 143.693 194.005 143.719C193.312 143.719 192.747 143.181 192.747 142.489C192.747 141.797 193.286 141.234 193.979 141.234C196.471 141.208 198.962 141.234 201.479 141.285C202.172 141.285 202.711 141.874 202.686 142.566C202.686 143.232 202.121 143.77 201.427 143.77Z" fill="#A9A8AD"/>
<path d="M2.10571 238.471C1.82321 238.471 1.51502 238.368 1.28388 238.163C0.770226 237.702 0.718862 236.933 1.18115 236.395C2.00298 235.473 2.82482 234.525 3.69803 233.603C4.16031 233.09 4.95646 233.064 5.47011 233.526C5.98376 233.987 6.00945 234.781 5.54716 235.294C4.69964 236.216 3.8778 237.138 3.08165 238.061C2.82482 238.343 2.49095 238.496 2.1314 238.496L2.10571 238.471Z" fill="white"/>
<path style="mix-blend-mode:multiply" d="M243.493 68.3237C243.493 66.204 248.055 64.4786 253.688 64.4786C259.321 64.4786 263.883 66.204 263.883 68.3237C263.883 70.4434 259.321 72.1687 253.688 72.1687C248.055 72.1687 243.493 70.4434 243.493 68.3237Z" fill="url(#paint0_radial_703_28)"/>
<path d="M277.142 23.399C277.142 10.4671 266.634 0 253.688 0C240.742 0 230.234 10.4835 230.234 23.399C230.234 23.399 229.18 31.5163 238.453 44.7275C242.637 50.6759 253.688 68.3237 253.688 68.3237C253.688 68.3237 264.756 50.6759 268.94 44.7275C278.213 31.5163 277.158 23.399 277.158 23.399H277.142Z" fill="#FF9514"/>
<path d="M253.688 40.8661C263.13 40.8661 270.784 33.2297 270.784 23.8098C270.784 14.3899 263.13 6.7535 253.688 6.7535C244.246 6.7535 236.592 14.3899 236.592 23.8098C236.592 33.2297 244.246 40.8661 253.688 40.8661Z" fill="white"/>
<path d="M277.142 23.3989C277.142 20.8849 276.746 18.4694 276.005 16.2018C276.038 16.6947 276.088 17.1877 276.088 17.6807C276.088 32.8308 263.784 45.1054 248.598 45.1054C244.431 45.1054 240.479 44.1524 236.938 42.4928C237.399 43.2158 237.893 43.9716 238.436 44.7275C242.62 50.6758 253.671 68.3237 253.671 68.3237C253.671 68.3237 264.739 50.6758 268.923 44.7275C278.196 31.5163 277.142 23.3989 277.142 23.3989Z" fill="#E87900"/>
<path d="M237.135 24.4999C237.135 15.298 244.613 7.82155 253.853 7.82155C263.093 7.82155 270.57 15.2816 270.57 24.4999C270.57 26.636 270.158 28.6572 269.417 30.5468C270.307 28.4764 270.801 26.2088 270.801 23.8262C270.801 14.4107 263.142 6.76991 253.705 6.76991C244.267 6.76991 236.608 14.4107 236.608 23.8262C236.608 28.6736 238.634 33.028 241.895 36.1337C238.964 33.1266 237.152 29.0351 237.152 24.5163L237.135 24.4999Z" fill="#E87900"/>
<path style="mix-blend-mode:multiply" d="M334.545 231.332C334.545 229.64 338.187 228.263 342.683 228.263C347.179 228.263 350.821 229.64 350.821 231.332C350.821 233.024 347.179 234.401 342.683 234.401C338.187 234.401 334.545 233.024 334.545 231.332Z" fill="url(#paint1_radial_703_28)"/>
<path d="M367.67 204.678C367.67 194.355 359.282 186 348.949 186C338.615 186 330.227 194.368 330.227 204.678C330.227 204.678 329.386 211.157 336.788 221.703C340.127 226.451 348.949 240.538 348.949 240.538C348.949 240.538 357.784 226.451 361.123 221.703C368.525 211.157 367.683 204.678 367.683 204.678H367.67Z" fill="#FF9514"/>
<path d="M348.948 191.404C341.415 191.404 335.302 197.503 335.302 205.019C335.302 212.535 341.415 218.634 348.948 218.634C356.482 218.634 362.595 212.535 362.595 205.019C362.595 197.503 356.482 191.404 348.948 191.404Z" fill="white"/>
<path d="M367.67 204.678C367.67 202.671 367.354 200.743 366.763 198.933C366.789 199.326 366.828 199.72 366.828 200.113C366.828 212.207 357.007 222.005 344.886 222.005C341.56 222.005 338.404 221.244 335.578 219.919C335.946 220.496 336.34 221.1 336.774 221.703C340.113 226.451 348.935 240.538 348.935 240.538C348.935 240.538 357.77 226.451 361.109 221.703C368.511 211.157 367.67 204.678 367.67 204.678Z" fill="#E87900"/>
<path d="M335.736 205.557C335.736 198.211 341.704 192.243 349.08 192.243C356.456 192.243 362.424 198.198 362.424 205.557C362.424 207.262 362.096 208.875 361.504 210.383C362.214 208.731 362.608 206.921 362.608 205.019C362.608 197.503 356.495 191.404 348.962 191.404C341.428 191.404 335.315 197.503 335.315 205.019C335.315 208.888 336.932 212.364 339.535 214.843C337.195 212.443 335.749 209.177 335.749 205.57L335.736 205.557Z" fill="#E87900"/>
<defs>
<radialGradient id="paint0_radial_703_28" cx="0" cy="0" r="1" gradientUnits="userSpaceOnUse" gradientTransform="translate(282.831 154.539) scale(9.63565 3.20438)">
<stop stop-color="#A09F9F"/>
<stop offset="0.18" stop-color="#AAAAAA"/>
<stop offset="0.51" stop-color="#C8C7C7"/>
<stop offset="0.93" stop-color="#F6F6F6"/>
<stop offset="1" stop-color="white"/>
</radialGradient>
<radialGradient id="paint1_radial_703_28" cx="0" cy="0" r="1" gradientUnits="userSpaceOnUse" gradientTransform="translate(363.743 290) scale(7.69147 2.55783)">
<stop stop-color="#A09F9F"/>
<stop offset="0.18" stop-color="#AAAAAA"/>
<stop offset="0.51" stop-color="#C8C7C7"/>
<stop offset="0.93" stop-color="#F6F6F6"/>
<stop offset="1" stop-color="white"/>
</radialGradient>
</defs>
</svg>
