<svg width="75" height="75" viewBox="0 0 75 75" fill="none" xmlns="http://www.w3.org/2000/svg">
<g id="Group 46788">
<circle id="Ellipse 40" cx="37.5" cy="37.5" r="37.5" fill="#F0F0F0"/>
<g id="Group 2416">
<path id="Vector" d="M35.0003 33.0001H45.0003C45.5308 33.0001 46.0395 33.2108 46.4146 33.5859C46.7896 33.961 47.0004 34.4697 47.0004 35.0001V45.0002C47.0004 45.5307 46.7896 46.0394 46.4146 46.4145C46.0395 46.7895 45.5308 47.0002 45.0003 47.0002H35.0003C34.4698 47.0002 33.9611 46.7895 33.586 46.4145C33.211 46.0394 33.0002 45.5307 33.0002 45.0002V35.0001C33.0002 34.4697 33.211 33.961 33.586 33.5859C33.9611 33.2108 34.4698 33.0001 35.0003 33.0001Z" fill="#268FC5"/>
<path id="Vector_2" d="M33.0001 35.0002C33.0001 34.4697 33.2108 33.961 33.5859 33.5859C33.961 33.2108 34.4697 33.0001 35.0002 33.0001H41.0002V29.0001C41.0002 28.4697 40.7895 27.961 40.4144 27.5859C40.0393 27.2108 39.5306 27.0001 39.0002 27.0001H29.0001C28.4697 27.0001 27.961 27.2108 27.5859 27.5859C27.2108 27.961 27.0001 28.4697 27.0001 29.0001V39.0002C27.0001 39.5306 27.2108 40.0393 27.5859 40.4144C27.961 40.7895 28.4697 41.0002 29.0001 41.0002H33.0001V35.0002ZM21 57.0003C19.9392 57.0003 18.9217 56.5789 18.1716 55.8288C17.4214 55.0786 17 54.0612 17 53.0003C17 51.9394 17.4214 50.922 18.1716 50.1719C18.9217 49.4217 19.9392 49.0003 21 49.0003C22.0609 49.0003 23.0783 49.4217 23.8285 50.1719C24.5786 50.922 25.0001 51.9394 25.0001 53.0003C25.0001 54.0612 24.5786 55.0786 23.8285 55.8288C23.0783 56.5789 22.0609 57.0003 21 57.0003ZM21 25.0001C19.9392 25.0001 18.9217 24.5786 18.1716 23.8285C17.4214 23.0783 17 22.0609 17 21C17 19.9392 17.4214 18.9217 18.1716 18.1716C18.9217 17.4214 19.9392 17 21 17C22.0609 17 23.0783 17.4214 23.8285 18.1716C24.5786 18.9217 25.0001 19.9392 25.0001 21C25.0001 22.0609 24.5786 23.0783 23.8285 23.8285C23.0783 24.5786 22.0609 25.0001 21 25.0001ZM53.0003 25.0001C51.9394 25.0001 50.922 24.5786 50.1719 23.8285C49.4217 23.0783 49.0003 22.0609 49.0003 21C49.0003 19.9392 49.4217 18.9217 50.1719 18.1716C50.922 17.4214 51.9394 17 53.0003 17C54.0612 17 55.0786 17.4214 55.8288 18.1716C56.5789 18.9217 57.0003 19.9392 57.0003 21C57.0003 22.0609 56.5789 23.0783 55.8288 23.8285C55.0786 24.5786 54.0612 25.0001 53.0003 25.0001ZM53.0003 57.0003C51.9394 57.0003 50.922 56.5789 50.1719 55.8288C49.4217 55.0786 49.0003 54.0612 49.0003 53.0003C49.0003 51.9394 49.4217 50.922 50.1719 50.1719C50.922 49.4217 51.9394 49.0003 53.0003 49.0003C54.0612 49.0003 55.0786 49.4217 55.8288 50.1719C56.5789 50.922 57.0003 51.9394 57.0003 53.0003C57.0003 54.0612 56.5789 55.0786 55.8288 55.8288C55.0786 56.5789 54.0612 57.0003 53.0003 57.0003Z" fill="#514F73"/>
<path id="Vector_3" d="M49.5563 23C49.1922 22.3964 48.9997 21.7049 48.9997 21C48.9997 20.2951 49.1922 19.6036 49.5563 19H24.444C24.8081 19.6036 25.0006 20.2951 25.0006 21C25.0006 21.7049 24.8081 22.3964 24.444 23H49.5563ZM53.0003 49.0003C53.7043 49.0043 54.3943 49.1963 55.0003 49.5563V24.444C54.3967 24.8081 53.7052 25.0006 53.0003 25.0006C52.2954 25.0006 51.6039 24.8081 51.0003 24.444V49.5563C51.6063 49.1963 52.2963 49.0043 53.0003 49.0003ZM21 49.0003C21.704 49.0043 22.394 49.1963 23 49.5563V24.444C22.3964 24.8081 21.7049 25.0006 21 25.0006C20.2951 25.0006 19.6036 24.8081 19 24.444V49.5563C19.606 49.1963 20.296 49.0043 21 49.0003ZM49.5563 51.0003H24.444C24.8081 51.6039 25.0006 52.2954 25.0006 53.0003C25.0006 53.7052 24.8081 54.3967 24.444 55.0003H49.5563C49.1922 54.3967 48.9997 53.7052 48.9997 53.0003C48.9997 52.2954 49.1922 51.6039 49.5563 51.0003Z" fill="#4EB7EB"/>
</g>
</g>
</svg>
