<svg width="115" height="122" viewBox="0 0 115 122" fill="none" xmlns="http://www.w3.org/2000/svg">
<g id="Group 46832">
<path id="Vector" d="M57.5 122C89.2564 122 115 96.1548 115 64.2731C115 32.3914 89.2564 6.54623 57.5 6.54623C25.7436 6.54623 0 32.3914 0 64.2731C0 96.1548 25.7436 122 57.5 122Z" fill="#FCE8E3"/>
<g id="Group">
<path id="Vector_2" d="M72.7039 56.6721H42.2852V91.1717H72.7039V56.6721Z" fill="#E2988F"/>
<g id="Group_2">
<path id="Vector_3" d="M87.29 32.452C85.611 28.4188 82.1808 30.4043 82.1808 30.4043C84.1585 12.0893 74.8877 0 57.4893 0C40.091 0 30.8201 12.0893 32.7979 30.4043C32.7979 30.4043 29.3677 28.4291 27.6886 32.452C26.0096 36.4749 29.0793 45.9271 30.9746 48.9365C32.87 51.9356 36.2281 54.2107 36.2281 54.2107C36.2281 54.2107 36.4445 57.5821 37.32 59.9193C38.1956 62.2669 48.1155 73.0428 51.0306 74.6871C54.8523 76.9519 60.4972 76.9519 63.9274 74.6871C66.8426 73.0428 76.7728 62.2669 77.638 59.9193C78.5136 57.5718 78.7299 54.2107 78.7299 54.2107C78.7299 54.2107 82.088 51.9356 83.9834 48.9365C85.8788 45.9374 88.9485 36.4852 87.2694 32.452H87.29Z" fill="#E2988F"/>
<g id="Group_3">
<path id="Vector_4" d="M57.654 76.7555C55.2642 76.7555 52.8229 76.1763 50.8554 75.0181C49.0939 74.0253 45.025 69.9403 42.0068 66.569L42.5837 66.0519C45.6637 69.4853 49.6296 73.4358 51.2468 74.3459C54.9449 76.5279 60.4353 76.5383 63.7419 74.3562C65.39 73.4255 69.3559 69.475 72.4256 66.0519L73.0025 66.569C69.974 69.9403 65.9154 74.0149 64.1436 75.0181C62.3925 76.1763 60.0541 76.7555 57.654 76.7555Z" fill="#C46966"/>
<path id="Vector_5" d="M35.6593 46.298L34.8926 46.3929L35.857 54.2448L36.6238 54.1498L35.6593 46.298Z" fill="#C46966"/>
<path id="Vector_6" d="M79.2791 46.3105L78.4087 54.163L79.1765 54.2488L80.047 46.3963L79.2791 46.3105Z" fill="#C46966"/>
<g id="Group_4">
<path id="Vector_7" d="M29.9446 41.5112C29.7798 40.9217 28.4201 35.6682 30.3051 34.2307C30.9335 33.8274 31.4382 33.8688 31.7576 33.9722C32.7156 34.2824 33.1997 35.4821 33.2512 35.6165L32.5301 35.8957C32.4271 35.6268 32.0357 34.8822 31.5206 34.7168C31.2837 34.634 31.0262 34.6961 30.7481 34.8719C29.6665 35.6992 30.13 39.2671 30.6863 41.3147L29.9446 41.5216V41.5112Z" fill="#C46966"/>
<path id="Vector_8" d="M85.0547 41.5112L84.313 41.3044C84.8692 39.2567 85.3431 35.6889 84.2306 34.8512C83.9731 34.6858 83.7155 34.634 83.4786 34.7064C82.8606 34.9133 82.4691 35.875 82.4691 35.8854L81.748 35.6062C81.7996 35.4717 82.2837 34.2824 83.2417 33.9618C83.561 33.8584 84.0761 33.8171 84.6735 34.21C86.5792 35.6579 85.2195 40.9114 85.0547 41.5009V41.5112Z" fill="#C46966"/>
</g>
</g>
<path id="Vector_9" d="M35.2802 40.0324C40.441 40.0634 36.5369 23.341 40.5852 19.2871C42.6454 17.2291 45.643 17.5704 48.2182 18.2219C51.2158 18.9872 54.3164 20.0317 57.4788 20.1144C60.8266 20.2075 64.0096 18.9665 67.2235 18.1909C69.7164 17.5807 72.4255 17.3119 74.4033 19.2871C78.4516 23.3307 74.5475 40.0531 79.7083 40.0324C79.3477 36.1646 79.3374 31.9349 82.1702 30.4043C84.148 12.0893 74.8771 0 57.4788 0C40.0805 0 30.8096 12.0893 32.7874 30.4043C35.0845 31.9039 35.6098 35.9888 35.2493 40.0324H35.2802Z" fill="#4C224B"/>
</g>
<path id="Vector_10" d="M106.646 94.2535C90.4115 86.9833 72.7144 84.4083 72.7144 84.4083C64.5972 92.9091 49.4651 93.0228 42.2956 84.4083C42.2956 84.4083 24.5986 86.9833 8.36426 94.2535C18.4592 110.883 36.6919 122 57.5102 122C78.3284 122 96.5611 110.893 106.656 94.2535H106.646Z" fill="#F4BA5D"/>
<path id="Vector_11" d="M38.1753 84.9977L42.2854 77.5931L55.5942 89.5894L47.4565 98.5452L38.1753 84.9977Z" fill="white"/>
<path id="Vector_12" d="M76.8037 84.9977L72.6936 77.5931L59.3848 89.5894L67.5328 98.5452L76.8037 84.9977Z" fill="white"/>
</g>
</g>
</svg>
