<svg width="46" height="46" viewBox="0 0 46 46" fill="none" xmlns="http://www.w3.org/2000/svg">
<g style="mix-blend-mode:multiply" opacity="0.5">
<path opacity="0.02" d="M26.5304 45.255C36.8717 45.255 45.255 36.8717 45.255 26.5304C45.255 16.189 36.8717 7.80566 26.5304 7.80566C16.189 7.80566 7.80566 16.189 7.80566 26.5304C7.80566 36.8717 16.189 45.255 26.5304 45.255Z" fill="#FCFCFC"/>
<path opacity="0.04" d="M26.398 45.1226C36.7394 45.1226 45.1227 36.7393 45.1227 26.3979C45.1227 16.0565 36.7394 7.67322 26.398 7.67322C16.0567 7.67322 7.67334 16.0565 7.67334 26.3979C7.67334 36.7393 16.0567 45.1226 26.398 45.1226Z" fill="#F8F8F9"/>
<path opacity="0.06" d="M26.2691 44.9937C36.6105 44.9937 44.9938 36.6104 44.9938 26.269C44.9938 15.9276 36.6105 7.54431 26.2691 7.54431C15.9278 7.54431 7.54443 15.9276 7.54443 26.269C7.54443 36.6104 15.9278 44.9937 26.2691 44.9937Z" fill="#F5F5F6"/>
<path opacity="0.08" d="M26.1402 44.8649C36.4816 44.8649 44.8649 36.4816 44.8649 26.1402C44.8649 15.7989 36.4816 7.41553 26.1402 7.41553C15.7989 7.41553 7.41553 15.7989 7.41553 26.1402C7.41553 36.4816 15.7989 44.8649 26.1402 44.8649Z" fill="#F2F2F3"/>
<path opacity="0.1" d="M26.0118 44.7361C36.3532 44.7361 44.7365 36.3528 44.7365 26.0114C44.7365 15.6701 36.3532 7.28674 26.0118 7.28674C15.6704 7.28674 7.28711 15.6701 7.28711 26.0114C7.28711 36.3528 15.6704 44.7361 26.0118 44.7361Z" fill="#EEEFF0"/>
<path opacity="0.12" d="M25.879 44.6037C36.2203 44.6037 44.6037 36.2203 44.6037 25.879C44.6037 15.5376 36.2203 7.1543 25.879 7.1543C15.5376 7.1543 7.1543 15.5376 7.1543 25.879C7.1543 36.2203 15.5376 44.6037 25.879 44.6037Z" fill="#EBEBEE"/>
<path opacity="0.14" d="M25.7501 44.4748C36.0914 44.4748 44.4748 36.0914 44.4748 25.7501C44.4748 15.4087 36.0914 7.02539 25.7501 7.02539C15.4087 7.02539 7.02539 15.4087 7.02539 25.7501C7.02539 36.0914 15.4087 44.4748 25.7501 44.4748Z" fill="#E7E8EB"/>
<path opacity="0.16" d="M25.6217 44.346C35.963 44.346 44.3463 35.9627 44.3463 25.6213C44.3463 15.2799 35.963 6.89661 25.6217 6.89661C15.2803 6.89661 6.89697 15.2799 6.89697 25.6213C6.89697 35.9627 15.2803 44.346 25.6217 44.346Z" fill="#E4E5E8"/>
<path opacity="0.18" d="M25.4888 44.2135C35.8302 44.2135 44.2135 35.8302 44.2135 25.4888C44.2135 15.1475 35.8302 6.76416 25.4888 6.76416C15.1475 6.76416 6.76416 15.1475 6.76416 25.4888C6.76416 35.8302 15.1475 44.2135 25.4888 44.2135Z" fill="#E1E1E5"/>
<path opacity="0.2" d="M25.3599 44.0848C35.7013 44.0848 44.0846 35.7014 44.0846 25.3601C44.0846 15.0187 35.7013 6.63538 25.3599 6.63538C15.0186 6.63538 6.63525 15.0187 6.63525 25.3601C6.63525 35.7014 15.0186 44.0848 25.3599 44.0848Z" fill="#DDDEE2"/>
<path opacity="0.22" d="M25.2315 43.956C35.5729 43.956 43.9562 35.5726 43.9562 25.2313C43.9562 14.8899 35.5729 6.50659 25.2315 6.50659C14.8902 6.50659 6.50684 14.8899 6.50684 25.2313C6.50684 35.5726 14.8902 43.956 25.2315 43.956Z" fill="#DADBDF"/>
<path opacity="0.24" d="M25.1026 43.8272C35.444 43.8272 43.8273 35.4439 43.8273 25.1025C43.8273 14.7611 35.444 6.37781 25.1026 6.37781C14.7613 6.37781 6.37793 14.7611 6.37793 25.1025C6.37793 35.4439 14.7613 43.8272 25.1026 43.8272Z" fill="#D7D7DC"/>
<path opacity="0.25" d="M24.9703 43.6946C35.3117 43.6946 43.695 35.3113 43.695 24.9699C43.695 14.6286 35.3117 6.24524 24.9703 6.24524C14.6289 6.24524 6.24561 14.6286 6.24561 24.9699C6.24561 35.3113 14.6289 43.6946 24.9703 43.6946Z" fill="#D3D4D9"/>
<path opacity="0.27" d="M24.8414 43.5658C35.1827 43.5658 43.5661 35.1825 43.5661 24.8411C43.5661 14.4998 35.1827 6.11646 24.8414 6.11646C14.5 6.11646 6.1167 14.4998 6.1167 24.8411C6.1167 35.1825 14.5 43.5658 24.8414 43.5658Z" fill="#D0D1D6"/>
<path opacity="0.29" d="M24.7125 43.437C35.0538 43.437 43.4372 35.0537 43.4372 24.7124C43.4372 14.371 35.0538 5.98767 24.7125 5.98767C14.3711 5.98767 5.98779 14.371 5.98779 24.7124C5.98779 35.0537 14.3711 43.437 24.7125 43.437Z" fill="#CCCED3"/>
<path opacity="0.31" d="M24.5836 43.3083C34.9249 43.3083 43.3083 34.9249 43.3083 24.5836C43.3083 14.2422 34.9249 5.85889 24.5836 5.85889C14.2422 5.85889 5.85889 14.2422 5.85889 24.5836C5.85889 34.9249 14.2422 43.3083 24.5836 43.3083Z" fill="#C9CAD1"/>
<path opacity="0.33" d="M24.4513 43.1757C34.7926 43.1757 43.1759 34.7924 43.1759 24.451C43.1759 14.1096 34.7926 5.72632 24.4513 5.72632C14.1099 5.72632 5.72656 14.1096 5.72656 24.451C5.72656 34.7924 14.1099 43.1757 24.4513 43.1757Z" fill="#C6C7CE"/>
<path opacity="0.35" d="M24.3223 43.0469C34.6637 43.0469 43.047 34.6636 43.047 24.3222C43.047 13.9809 34.6637 5.59753 24.3223 5.59753C13.981 5.59753 5.59766 13.9809 5.59766 24.3222C5.59766 34.6636 13.981 43.0469 24.3223 43.0469Z" fill="#C2C4CB"/>
<path opacity="0.37" d="M24.1934 42.9181C34.5348 42.9181 42.9181 34.5348 42.9181 24.1934C42.9181 13.8521 34.5348 5.46875 24.1934 5.46875C13.8521 5.46875 5.46875 13.8521 5.46875 24.1934C5.46875 34.5348 13.8521 42.9181 24.1934 42.9181Z" fill="#BFC0C8"/>
<path opacity="0.39" d="M24.0611 42.7856C34.4025 42.7856 42.7858 34.4022 42.7858 24.0609C42.7858 13.7195 34.4025 5.33618 24.0611 5.33618C13.7198 5.33618 5.33643 13.7195 5.33643 24.0609C5.33643 34.4022 13.7198 42.7856 24.0611 42.7856Z" fill="#BCBDC5"/>
<path opacity="0.41" d="M23.9322 42.6568C34.2736 42.6568 42.6569 34.2734 42.6569 23.9321C42.6569 13.5907 34.2736 5.2074 23.9322 5.2074C13.5908 5.2074 5.20752 13.5907 5.20752 23.9321C5.20752 34.2734 13.5908 42.6568 23.9322 42.6568Z" fill="#B8BAC2"/>
<path opacity="0.43" d="M23.8033 42.528C34.1447 42.528 42.528 34.1447 42.528 23.8033C42.528 13.4619 34.1447 5.07861 23.8033 5.07861C13.4619 5.07861 5.07861 13.4619 5.07861 23.8033C5.07861 34.1447 13.4619 42.528 23.8033 42.528Z" fill="#B5B7BF"/>
<path opacity="0.45" d="M23.6749 42.3992C34.0162 42.3992 42.3996 34.0159 42.3996 23.6745C42.3996 13.3332 34.0162 4.94983 23.6749 4.94983C13.3335 4.94983 4.9502 13.3332 4.9502 23.6745C4.9502 34.0159 13.3335 42.3992 23.6749 42.3992Z" fill="#B1B3BC"/>
<path opacity="0.47" d="M23.5421 42.2668C33.8834 42.2668 42.2668 33.8834 42.2668 23.5421C42.2668 13.2007 33.8834 4.81738 23.5421 4.81738C13.2007 4.81738 4.81738 13.2007 4.81738 23.5421C4.81738 33.8834 13.2007 42.2668 23.5421 42.2668Z" fill="#AEB0B9"/>
<path opacity="0.49" d="M23.4132 42.1379C33.7545 42.1379 42.1379 33.7545 42.1379 23.4132C42.1379 13.0718 33.7545 4.68848 23.4132 4.68848C13.0718 4.68848 4.68848 13.0718 4.68848 23.4132C4.68848 33.7545 13.0718 42.1379 23.4132 42.1379Z" fill="#ABADB6"/>
<path opacity="0.51" d="M23.2847 42.0092C33.6261 42.0092 42.0094 33.6259 42.0094 23.2845C42.0094 12.9431 33.6261 4.55981 23.2847 4.55981C12.9434 4.55981 4.56006 12.9431 4.56006 23.2845C4.56006 33.6259 12.9434 42.0092 23.2847 42.0092Z" fill="#A7A9B4"/>
<path opacity="0.53" d="M23.1558 41.8803C33.4972 41.8803 41.8805 33.497 41.8805 23.1556C41.8805 12.8142 33.4972 4.43091 23.1558 4.43091C12.8145 4.43091 4.43115 12.8142 4.43115 23.1556C4.43115 33.497 12.8145 41.8803 23.1558 41.8803Z" fill="#A4A6B1"/>
<path opacity="0.55" d="M23.023 41.7478C33.3644 41.7478 41.7477 33.3645 41.7477 23.0231C41.7477 12.6818 33.3644 4.29846 23.023 4.29846C12.6817 4.29846 4.29834 12.6818 4.29834 23.0231C4.29834 33.3645 12.6817 41.7478 23.023 41.7478Z" fill="#A1A3AE"/>
<path opacity="0.57" d="M22.8946 41.6189C33.236 41.6189 41.6193 33.2356 41.6193 22.8942C41.6193 12.5529 33.236 4.16956 22.8946 4.16956C12.5532 4.16956 4.16992 12.5529 4.16992 22.8942C4.16992 33.2356 12.5532 41.6189 22.8946 41.6189Z" fill="#9D9FAB"/>
<path opacity="0.59" d="M22.7657 41.4901C33.1071 41.4901 41.4904 33.1068 41.4904 22.7655C41.4904 12.4241 33.1071 4.04077 22.7657 4.04077C12.4243 4.04077 4.04102 12.4241 4.04102 22.7655C4.04102 33.1068 12.4243 41.4901 22.7657 41.4901Z" fill="#9A9CA8"/>
<path opacity="0.61" d="M22.6334 41.3577C32.9747 41.3577 41.3581 32.9744 41.3581 22.633C41.3581 12.2917 32.9747 3.90833 22.6334 3.90833C12.292 3.90833 3.90869 12.2917 3.90869 22.633C3.90869 32.9744 12.292 41.3577 22.6334 41.3577Z" fill="#9699A5"/>
<path opacity="0.63" d="M22.5045 41.2289C32.8458 41.2289 41.2292 32.8456 41.2292 22.5042C41.2292 12.1629 32.8458 3.77954 22.5045 3.77954C12.1631 3.77954 3.77979 12.1629 3.77979 22.5042C3.77979 32.8456 12.1631 41.2289 22.5045 41.2289Z" fill="#9396A2"/>
<path opacity="0.65" d="M22.3756 41.1001C32.7169 41.1001 41.1003 32.7168 41.1003 22.3754C41.1003 12.0341 32.7169 3.65076 22.3756 3.65076C12.0342 3.65076 3.65088 12.0341 3.65088 22.3754C3.65088 32.7168 12.0342 41.1001 22.3756 41.1001Z" fill="#90929F"/>
<path opacity="0.67" d="M22.2467 40.9713C32.588 40.9713 40.9713 32.588 40.9713 22.2467C40.9713 11.9053 32.588 3.52197 22.2467 3.52197C11.9053 3.52197 3.52197 11.9053 3.52197 22.2467C3.52197 32.588 11.9053 40.9713 22.2467 40.9713Z" fill="#8C8F9C"/>
<path opacity="0.69" d="M22.1143 40.8388C32.4557 40.8388 40.839 32.4555 40.839 22.1141C40.839 11.7727 32.4557 3.3894 22.1143 3.3894C11.773 3.3894 3.38965 11.7727 3.38965 22.1141C3.38965 32.4555 11.773 40.8388 22.1143 40.8388Z" fill="#898C99"/>
<path opacity="0.71" d="M21.9854 40.71C32.3268 40.71 40.7101 32.3267 40.7101 21.9853C40.7101 11.6439 32.3268 3.26062 21.9854 3.26062C11.6441 3.26062 3.26074 11.6439 3.26074 21.9853C3.26074 32.3267 11.6441 40.71 21.9854 40.71Z" fill="#868897"/>
<path opacity="0.73" d="M21.8565 40.5812C32.1979 40.5812 40.5812 32.1979 40.5812 21.8565C40.5812 11.5152 32.1979 3.13184 21.8565 3.13184C11.5152 3.13184 3.13184 11.5152 3.13184 21.8565C3.13184 32.1979 11.5152 40.5812 21.8565 40.5812Z" fill="#828594"/>
<path opacity="0.75" d="M21.7276 40.4488C32.069 40.4488 40.4523 32.0654 40.4523 21.7241C40.4523 11.3827 32.069 2.99939 21.7276 2.99939C11.3863 2.99939 3.00293 11.3827 3.00293 21.7241C3.00293 32.0654 11.3863 40.4488 21.7276 40.4488Z" fill="#7F8291"/>
<path opacity="0.76" d="M21.5953 40.3199C31.9367 40.3199 40.32 31.9365 40.32 21.5952C40.32 11.2538 31.9367 2.87048 21.5953 2.87048C11.2539 2.87048 2.87061 11.2538 2.87061 21.5952C2.87061 31.9365 11.2539 40.3199 21.5953 40.3199Z" fill="#7B7F8E"/>
<path opacity="0.78" d="M21.4664 40.1911C31.8077 40.1911 40.1911 31.8077 40.1911 21.4664C40.1911 11.125 31.8077 2.7417 21.4664 2.7417C11.125 2.7417 2.7417 11.125 2.7417 21.4664C2.7417 31.8077 11.125 40.1911 21.4664 40.1911Z" fill="#787B8B"/>
<path opacity="0.8" d="M21.338 40.0623C31.6793 40.0623 40.0627 31.679 40.0627 21.3376C40.0627 10.9962 31.6793 2.61292 21.338 2.61292C10.9966 2.61292 2.61328 10.9962 2.61328 21.3376C2.61328 31.679 10.9966 40.0623 21.338 40.0623Z" fill="#757888"/>
<path opacity="0.82" d="M21.2052 39.9298C31.5465 39.9298 39.9298 31.5465 39.9298 21.2052C39.9298 10.8638 31.5465 2.48047 21.2052 2.48047C10.8638 2.48047 2.48047 10.8638 2.48047 21.2052C2.48047 31.5465 10.8638 39.9298 21.2052 39.9298Z" fill="#717585"/>
<path opacity="0.84" d="M21.0763 39.8011C31.4176 39.8011 39.8009 31.4177 39.8009 21.0764C39.8009 10.735 31.4176 2.35168 21.0763 2.35168C10.7349 2.35168 2.35156 10.735 2.35156 21.0764C2.35156 31.4177 10.7349 39.8011 21.0763 39.8011Z" fill="#6E7182"/>
<path opacity="0.86" d="M20.9473 39.6722C31.2887 39.6722 39.672 31.2888 39.672 20.9475C39.672 10.6061 31.2887 2.22278 20.9473 2.22278C10.606 2.22278 2.22266 10.6061 2.22266 20.9475C2.22266 31.2888 10.606 39.6722 20.9473 39.6722Z" fill="#6B6E7F"/>
<path opacity="0.88" d="M20.8189 39.5434C31.1603 39.5434 39.5436 31.16 39.5436 20.8187C39.5436 10.4773 31.1603 2.09399 20.8189 2.09399C10.4776 2.09399 2.09424 10.4773 2.09424 20.8187C2.09424 31.16 10.4776 39.5434 20.8189 39.5434Z" fill="#676B7C"/>
<path opacity="0.9" d="M20.6861 39.4109C31.0275 39.4109 39.4108 31.0276 39.4108 20.6862C39.4108 10.3449 31.0275 1.96155 20.6861 1.96155C10.3448 1.96155 1.96143 10.3449 1.96143 20.6862C1.96143 31.0276 10.3448 39.4109 20.6861 39.4109Z" fill="#64677A"/>
<path opacity="0.92" d="M20.5577 39.282C30.8991 39.282 39.2824 30.8987 39.2824 20.5573C39.2824 10.216 30.8991 1.83264 20.5577 1.83264C10.2163 1.83264 1.83301 10.216 1.83301 20.5573C1.83301 30.8987 10.2163 39.282 20.5577 39.282Z" fill="#606477"/>
<path opacity="0.94" d="M20.4288 39.1532C30.7701 39.1532 39.1535 30.7699 39.1535 20.4285C39.1535 10.0872 30.7701 1.70386 20.4288 1.70386C10.0874 1.70386 1.7041 10.0872 1.7041 20.4285C1.7041 30.7699 10.0874 39.1532 20.4288 39.1532Z" fill="#5D6174"/>
<path opacity="0.96" d="M20.2965 39.0208C30.6378 39.0208 39.0212 30.6375 39.0212 20.2961C39.0212 9.95474 30.6378 1.57141 20.2965 1.57141C9.95511 1.57141 1.57178 9.95474 1.57178 20.2961C1.57178 30.6375 9.95511 39.0208 20.2965 39.0208Z" fill="#5A5E71"/>
<path opacity="0.98" d="M20.1676 38.892C30.5089 38.892 38.8922 30.5087 38.8922 20.1673C38.8922 9.82596 30.5089 1.44263 20.1676 1.44263C9.8262 1.44263 1.44287 9.82596 1.44287 20.1673C1.44287 30.5087 9.8262 38.892 20.1676 38.892Z" fill="#565A6E"/>
<path d="M20.0387 38.7632C30.38 38.7632 38.7633 30.3799 38.7633 20.0385C38.7633 9.69717 30.38 1.31384 20.0387 1.31384C9.69729 1.31384 1.31396 9.69717 1.31396 20.0385C1.31396 30.3799 9.69729 38.7632 20.0387 38.7632Z" fill="#53576B"/>
</g>
<path d="M19.8803 39.7568C8.92072 39.7568 0 30.8398 0 19.8803C0 8.92072 8.91704 0 19.8803 0C30.8435 0 39.7568 8.91704 39.7568 19.8766C39.7568 30.8361 30.8398 39.7532 19.8803 39.7532V39.7568ZM19.8803 0.636669C9.27034 0.636669 0.636669 9.27034 0.636669 19.8803C0.636669 30.4902 9.27034 39.1239 19.8803 39.1239C30.4902 39.1239 39.1239 30.4902 39.1239 19.8803C39.1239 9.27034 30.4902 0.636669 19.8803 0.636669Z" fill="url(#paint0_linear_701_22)"/>
<path d="M19.8804 39.4404C30.6831 39.4404 39.4405 30.683 39.4405 19.8803C39.4405 9.07754 30.6831 0.32019 19.8804 0.32019C9.07766 0.32019 0.320312 9.07754 0.320312 19.8803C0.320312 30.683 9.07766 39.4404 19.8804 39.4404Z" fill="url(#paint1_linear_701_22)"/>
<path d="M18.8011 11.2363L10.4547 14.6899C9.99059 14.882 9.99539 15.5413 10.4625 15.7264L18.8438 19.0501C19.5802 19.3422 20.4003 19.3422 21.1367 19.0501L29.5181 15.7264C29.985 15.5413 29.99 14.882 29.5257 14.6899L21.1794 11.2363C20.4179 10.9212 19.5625 10.9212 18.8011 11.2363Z" fill="#FFBF00"/>
<path d="M20.7339 20.865V29.168C20.7339 29.5629 21.1321 29.8333 21.4992 29.6878L30.8385 26.0627C31.0518 25.9782 31.1916 25.7722 31.1916 25.5429V17.2399C31.1916 16.845 30.7934 16.5746 30.4263 16.7201L21.0869 20.3452C20.8738 20.4297 20.7339 20.6357 20.7339 20.865Z" fill="#26B5F8"/>
<path d="M18.553 21.2935L15.7813 22.6318L15.4999 22.7678L9.64896 25.5713C9.27807 25.7502 8.80469 25.4799 8.80469 25.0679V17.2749C8.80469 17.1258 8.88112 16.9971 8.98361 16.9002C9.02638 16.8573 9.07485 16.822 9.12521 16.794C9.26504 16.7101 9.46446 16.6877 9.63402 16.7548L18.5064 20.2702C18.9574 20.4491 18.9929 21.081 18.553 21.2935Z" fill="#ED3049"/>
<path d="M18.5533 21.2935L15.7816 22.6318L8.98389 16.9002C9.02666 16.8573 9.07512 16.822 9.12548 16.794C9.26531 16.7101 9.46474 16.6877 9.6343 16.7548L18.5067 20.2702C18.9577 20.4491 18.9931 21.081 18.5533 21.2935Z" fill="black" fill-opacity="0.25"/>
<defs>
<linearGradient id="paint0_linear_701_22" x1="5.83185" y1="5.82894" x2="33.9312" y2="33.9283" gradientUnits="userSpaceOnUse">
<stop stop-color="white"/>
<stop offset="1" stop-color="#E6E6E6"/>
</linearGradient>
<linearGradient id="paint1_linear_701_22" x1="6.16074" y1="6.16061" x2="33.2872" y2="33.2871" gradientUnits="userSpaceOnUse">
<stop stop-color="#E2E1E6"/>
<stop offset="0.84" stop-color="white"/>
</linearGradient>
</defs>
</svg>
