<svg width="40" height="40" viewBox="0 0 40 40" fill="none" xmlns="http://www.w3.org/2000/svg">
<path d="M19.8804 39.4405C30.6831 39.4405 39.4405 30.6831 39.4405 19.8804C39.4405 9.07766 30.6831 0.320312 19.8804 0.320312C9.07766 0.320312 0.320312 9.07766 0.320312 19.8804C0.320312 30.6831 9.07766 39.4405 19.8804 39.4405Z" fill="url(#paint0_linear_701_15)"/>
<path d="M14.3268 20.138C14.3207 20.3745 14.3498 20.6105 14.4132 20.8383C14.483 21.0331 14.5671 21.2225 14.6647 21.405C14.6997 21.4589 14.7187 21.5217 14.7197 21.586C14.7197 21.6646 14.6726 21.7434 14.5704 21.822L14.0755 22.1525C14.0158 22.1955 13.9448 22.2201 13.8712 22.2232C13.7818 22.2171 13.6978 22.1778 13.6356 22.1131C13.5297 21.9992 13.4349 21.8754 13.3526 21.7433C13.2741 21.6096 13.1954 21.46 13.1091 21.2791C12.4963 22.0028 11.7263 22.3647 10.7992 22.3647C10.139 22.3647 9.61285 22.1758 9.22789 21.798C8.84292 21.4202 8.64648 20.917 8.64648 20.2875C8.64648 19.6188 8.88217 19.0759 9.36145 18.6667C9.84073 18.2576 10.4771 18.053 11.2863 18.053C11.565 18.0553 11.8432 18.0763 12.1191 18.116C12.4098 18.1553 12.7084 18.2183 13.0226 18.2891V17.7147C13.0226 17.1165 12.8968 16.6998 12.6533 16.4558C12.4018 16.2119 11.9777 16.0939 11.3727 16.0939C11.0868 16.0939 10.8019 16.1282 10.5242 16.1962C10.2353 16.2651 9.95179 16.3545 9.67564 16.4637C9.58629 16.5037 9.49444 16.5379 9.40066 16.566C9.35997 16.5794 9.31769 16.5873 9.27491 16.5896C9.16492 16.5896 9.10991 16.5109 9.10991 16.3457V15.9602C9.10991 15.8342 9.12563 15.7398 9.16492 15.6848C9.22421 15.6131 9.29962 15.5564 9.38498 15.5195C9.7001 15.3634 10.0323 15.2446 10.3749 15.1655C10.7753 15.0626 11.1873 15.0124 11.6006 15.016C12.5357 15.016 13.219 15.2284 13.659 15.6533C14.0911 16.0782 14.3111 16.7233 14.3111 17.5888V20.138H14.3268ZM11.137 21.334C11.4127 21.3309 11.686 21.2831 11.9463 21.1923C12.2346 21.0924 12.4919 20.9188 12.6926 20.6886C12.8193 20.5436 12.9107 20.3712 12.9598 20.1849C13.0137 19.9608 13.0401 19.7309 13.0383 19.5004V19.1703C12.8001 19.1122 12.5588 19.0675 12.3156 19.0365C12.0706 19.0054 11.8239 18.9897 11.577 18.9895C11.0506 18.9895 10.6656 19.0918 10.4064 19.3043C10.1471 19.5169 10.0214 19.8158 10.0214 20.2091C10.0214 20.5789 10.1157 20.8543 10.3121 21.0432C10.5007 21.2399 10.7757 21.3343 11.137 21.3343V21.334ZM17.4459 22.1837C17.3045 22.1837 17.2102 22.1601 17.1473 22.1051C17.0845 22.0578 17.0295 21.9476 16.9823 21.7982L15.136 15.7163C15.1002 15.6145 15.0764 15.5088 15.0653 15.4014C15.0653 15.2755 15.1281 15.2047 15.2539 15.2047H16.0238C16.1731 15.2047 16.2753 15.2283 16.3302 15.2834C16.3931 15.3306 16.4402 15.4408 16.4874 15.5902L17.8073 20.7988L19.0329 15.5904C19.0722 15.433 19.1193 15.3307 19.1822 15.2835C19.2451 15.2363 19.3551 15.2049 19.4966 15.2049H20.1253C20.2746 15.2049 20.3768 15.2285 20.4397 15.2835C20.5025 15.3307 20.5575 15.4409 20.589 15.5904L21.8303 20.8619L23.1891 15.5904C23.2362 15.433 23.2912 15.3307 23.3462 15.2835C23.4091 15.2363 23.5112 15.2049 23.6527 15.2049H24.3833C24.5091 15.2049 24.5798 15.2678 24.5798 15.4016C24.5779 15.4439 24.5727 15.486 24.5641 15.5275C24.5517 15.5946 24.5333 15.6605 24.509 15.7242L22.6156 21.8062C22.5685 21.9635 22.5135 22.0658 22.4506 22.113C22.3618 22.17 22.2573 22.1975 22.152 22.1917H21.4763C21.327 22.1917 21.2248 22.1681 21.162 22.113C21.0991 22.058 21.0441 21.9556 21.0127 21.7982L19.795 16.7233L18.585 21.7903C18.5457 21.9477 18.4986 22.05 18.4358 22.1051C18.3729 22.1603 18.2629 22.1838 18.1214 22.1838L17.4459 22.1837ZM27.5416 22.3961C27.1342 22.3966 26.7281 22.349 26.3317 22.2545C25.9389 22.1601 25.6325 22.0578 25.4282 21.9397C25.3025 21.8689 25.2161 21.7902 25.1847 21.7193C25.1541 21.6498 25.138 21.5748 25.1375 21.4989V21.0979C25.1375 20.9327 25.2004 20.854 25.3182 20.854C25.3663 20.8542 25.4141 20.8622 25.4596 20.8777C25.5068 20.8934 25.5775 20.9249 25.6561 20.9563C25.9336 21.0785 26.2233 21.1709 26.5203 21.2317C26.8281 21.2943 27.1413 21.3259 27.4553 21.3261C27.9502 21.3261 28.3352 21.2396 28.6023 21.0665C28.7303 20.9892 28.8356 20.8793 28.9073 20.748C28.9791 20.6167 29.0149 20.4687 29.011 20.3191C29.0138 20.2178 28.9965 20.1169 28.9601 20.0224C28.9237 19.9279 28.8689 19.8415 28.7989 19.7683C28.6575 19.6188 28.3902 19.485 28.0054 19.359L26.866 19.005C26.2924 18.8241 25.8681 18.5566 25.6089 18.2025C25.356 17.8759 25.2179 17.4748 25.2161 17.0616C25.2097 16.7569 25.2828 16.4559 25.4282 16.1882C25.5686 15.9351 25.7615 15.7151 25.9941 15.5431C26.2389 15.3574 26.516 15.2187 26.8112 15.1338C27.1328 15.0411 27.4662 14.9961 27.8009 15.0003C27.9769 14.999 28.1527 15.0095 28.3273 15.0317C28.508 15.0554 28.6731 15.0868 28.8379 15.1183C28.9951 15.1576 29.1444 15.1969 29.2858 15.2442C29.4004 15.2797 29.511 15.3272 29.6158 15.3858C29.7083 15.4326 29.7889 15.4998 29.8515 15.5826C29.9026 15.6591 29.9274 15.7503 29.9222 15.8422V16.212C29.9222 16.3772 29.8593 16.4638 29.7414 16.4638C29.6786 16.4638 29.5764 16.4323 29.4429 16.3694C28.995 16.1648 28.4922 16.0625 27.9344 16.0625C27.4866 16.0625 27.133 16.1333 26.8895 16.2829C26.6459 16.4325 26.5202 16.6607 26.5202 16.9832C26.5181 17.0876 26.538 17.1914 26.5786 17.2876C26.6192 17.3839 26.6796 17.4705 26.7559 17.5418C26.9131 17.6913 27.2038 17.8408 27.6202 17.9745L28.7358 18.3284C29.3017 18.5094 29.71 18.7611 29.9536 19.0837C30.1934 19.4002 30.3206 19.788 30.315 20.1852C30.319 20.5012 30.2491 20.8138 30.1107 21.0979C29.9713 21.3672 29.7757 21.6033 29.5372 21.7903C29.2778 21.9925 28.9816 22.1422 28.6651 22.231C28.3012 22.3431 27.9223 22.3988 27.5416 22.3963L27.5416 22.3961Z" fill="#252F3E"/>
<path d="M29.0266 26.2199C26.4418 28.1318 22.6863 29.1467 19.4573 29.1467C14.9319 29.1469 10.8543 27.471 7.77457 24.6858C7.53102 24.4654 7.75099 24.1665 8.04169 24.3395C11.3729 26.275 15.4819 27.4472 19.7323 27.4472C22.6 27.4472 25.7505 26.8491 28.6496 25.6218C29.0817 25.4251 29.4509 25.9052 29.0268 26.22L29.0266 26.2199Z" fill="#FF9900"/>
<path d="M30.1028 24.9926C29.7728 24.5677 27.9186 24.7881 27.078 24.8903C26.8265 24.9218 26.7873 24.7014 27.0151 24.5363C28.4921 23.4977 30.9198 23.7967 31.2027 24.1429C31.4856 24.4969 31.1241 26.9281 29.7413 28.0926C29.5292 28.2736 29.3249 28.1792 29.4192 27.9431C29.7335 27.1642 30.4328 25.4096 30.1028 24.9926Z" fill="#FF9900"/>
<defs>
<linearGradient id="paint0_linear_701_15" x1="6.16074" y1="6.16074" x2="33.2872" y2="33.2872" gradientUnits="userSpaceOnUse">
<stop stop-color="#E2E1E6"/>
<stop offset="0.84" stop-color="white"/>
</linearGradient>
</defs>
</svg>
