<svg width="46" height="46" viewBox="0 0 46 46" fill="none" xmlns="http://www.w3.org/2000/svg">
<g style="mix-blend-mode:multiply" opacity="0.5">
<path opacity="0.02" d="M26.5304 45.255C36.8717 45.255 45.255 36.8717 45.255 26.5304C45.255 16.189 36.8717 7.80566 26.5304 7.80566C16.189 7.80566 7.80566 16.189 7.80566 26.5304C7.80566 36.8717 16.189 45.255 26.5304 45.255Z" fill="#FCFCFC"/>
<path opacity="0.04" d="M26.398 45.1226C36.7394 45.1226 45.1227 36.7393 45.1227 26.3979C45.1227 16.0565 36.7394 7.67322 26.398 7.67322C16.0567 7.67322 7.67334 16.0565 7.67334 26.3979C7.67334 36.7393 16.0567 45.1226 26.398 45.1226Z" fill="#F8F8F9"/>
<path opacity="0.06" d="M26.2691 44.9937C36.6105 44.9937 44.9938 36.6104 44.9938 26.269C44.9938 15.9276 36.6105 7.54431 26.2691 7.54431C15.9278 7.54431 7.54443 15.9276 7.54443 26.269C7.54443 36.6104 15.9278 44.9937 26.2691 44.9937Z" fill="#F5F5F6"/>
<path opacity="0.08" d="M26.1405 44.8649C36.4818 44.8649 44.8651 36.4816 44.8651 26.1402C44.8651 15.7989 36.4818 7.41553 26.1405 7.41553C15.7991 7.41553 7.41577 15.7989 7.41577 26.1402C7.41577 36.4816 15.7991 44.8649 26.1405 44.8649Z" fill="#F2F2F3"/>
<path opacity="0.1" d="M26.0116 44.7361C36.3529 44.7361 44.7362 36.3528 44.7362 26.0114C44.7362 15.6701 36.3529 7.28674 26.0116 7.28674C15.6702 7.28674 7.28687 15.6701 7.28687 26.0114C7.28687 36.3528 15.6702 44.7361 26.0116 44.7361Z" fill="#EEEFF0"/>
<path opacity="0.12" d="M25.879 44.6037C36.2203 44.6037 44.6037 36.2203 44.6037 25.879C44.6037 15.5376 36.2203 7.1543 25.879 7.1543C15.5376 7.1543 7.1543 15.5376 7.1543 25.879C7.1543 36.2203 15.5376 44.6037 25.879 44.6037Z" fill="#EBEBEE"/>
<path opacity="0.14" d="M25.7503 44.4748C36.0917 44.4748 44.475 36.0914 44.475 25.7501C44.475 15.4087 36.0917 7.02539 25.7503 7.02539C15.409 7.02539 7.02563 15.4087 7.02563 25.7501C7.02563 36.0914 15.409 44.4748 25.7503 44.4748Z" fill="#E7E8EB"/>
<path opacity="0.16" d="M25.6214 44.346C35.9628 44.346 44.3461 35.9627 44.3461 25.6213C44.3461 15.2799 35.9628 6.89661 25.6214 6.89661C15.2801 6.89661 6.89673 15.2799 6.89673 25.6213C6.89673 35.9627 15.2801 44.346 25.6214 44.346Z" fill="#E4E5E8"/>
<path opacity="0.18" d="M25.4891 44.2135C35.8305 44.2135 44.2138 35.8302 44.2138 25.4888C44.2138 15.1475 35.8305 6.76416 25.4891 6.76416C15.1477 6.76416 6.7644 15.1475 6.7644 25.4888C6.7644 35.8302 15.1477 44.2135 25.4891 44.2135Z" fill="#E1E1E5"/>
<path opacity="0.2" d="M25.3602 44.0848C35.7015 44.0848 44.0849 35.7014 44.0849 25.3601C44.0849 15.0187 35.7015 6.63538 25.3602 6.63538C15.0188 6.63538 6.6355 15.0187 6.6355 25.3601C6.6355 35.7014 15.0188 44.0848 25.3602 44.0848Z" fill="#DDDEE2"/>
<path opacity="0.22" d="M25.2313 43.956C35.5726 43.956 43.956 35.5726 43.956 25.2313C43.956 14.8899 35.5726 6.50659 25.2313 6.50659C14.8899 6.50659 6.50659 14.8899 6.50659 25.2313C6.50659 35.5726 14.8899 43.956 25.2313 43.956Z" fill="#DADBDF"/>
<path opacity="0.24" d="M25.1026 43.8272C35.444 43.8272 43.8273 35.4439 43.8273 25.1025C43.8273 14.7611 35.444 6.37781 25.1026 6.37781C14.7613 6.37781 6.37793 14.7611 6.37793 25.1025C6.37793 35.4439 14.7613 43.8272 25.1026 43.8272Z" fill="#D7D7DC"/>
<path opacity="0.25" d="M24.97 43.6946C35.3114 43.6946 43.6947 35.3113 43.6947 24.9699C43.6947 14.6286 35.3114 6.24524 24.97 6.24524C14.6287 6.24524 6.24536 14.6286 6.24536 24.9699C6.24536 35.3113 14.6287 43.6946 24.97 43.6946Z" fill="#D3D4D9"/>
<path opacity="0.27" d="M24.8411 43.5658C35.1825 43.5658 43.5658 35.1825 43.5658 24.8411C43.5658 14.4998 35.1825 6.11646 24.8411 6.11646C14.4998 6.11646 6.11646 14.4998 6.11646 24.8411C6.11646 35.1825 14.4998 43.5658 24.8411 43.5658Z" fill="#D0D1D6"/>
<path opacity="0.29" d="M24.7125 43.437C35.0538 43.437 43.4372 35.0537 43.4372 24.7124C43.4372 14.371 35.0538 5.98767 24.7125 5.98767C14.3711 5.98767 5.98779 14.371 5.98779 24.7124C5.98779 35.0537 14.3711 43.437 24.7125 43.437Z" fill="#CCCED3"/>
<path opacity="0.31" d="M24.5836 43.3083C34.9249 43.3083 43.3083 34.9249 43.3083 24.5836C43.3083 14.2422 34.9249 5.85889 24.5836 5.85889C14.2422 5.85889 5.85889 14.2422 5.85889 24.5836C5.85889 34.9249 14.2422 43.3083 24.5836 43.3083Z" fill="#C9CAD1"/>
<path opacity="0.33" d="M24.4513 43.1757C34.7926 43.1757 43.1759 34.7924 43.1759 24.451C43.1759 14.1096 34.7926 5.72632 24.4513 5.72632C14.1099 5.72632 5.72656 14.1096 5.72656 24.451C5.72656 34.7924 14.1099 43.1757 24.4513 43.1757Z" fill="#C6C7CE"/>
<path opacity="0.35" d="M24.3223 43.0469C34.6637 43.0469 43.047 34.6636 43.047 24.3222C43.047 13.9809 34.6637 5.59753 24.3223 5.59753C13.981 5.59753 5.59766 13.9809 5.59766 24.3222C5.59766 34.6636 13.981 43.0469 24.3223 43.0469Z" fill="#C2C4CB"/>
<path opacity="0.37" d="M24.1934 42.9181C34.5348 42.9181 42.9181 34.5348 42.9181 24.1934C42.9181 13.8521 34.5348 5.46875 24.1934 5.46875C13.8521 5.46875 5.46875 13.8521 5.46875 24.1934C5.46875 34.5348 13.8521 42.9181 24.1934 42.9181Z" fill="#BFC0C8"/>
<path opacity="0.39" d="M24.0611 42.7856C34.4025 42.7856 42.7858 34.4022 42.7858 24.0609C42.7858 13.7195 34.4025 5.33618 24.0611 5.33618C13.7198 5.33618 5.33643 13.7195 5.33643 24.0609C5.33643 34.4022 13.7198 42.7856 24.0611 42.7856Z" fill="#BCBDC5"/>
<path opacity="0.41" d="M23.9322 42.6568C34.2736 42.6568 42.6569 34.2734 42.6569 23.9321C42.6569 13.5907 34.2736 5.2074 23.9322 5.2074C13.5908 5.2074 5.20752 13.5907 5.20752 23.9321C5.20752 34.2734 13.5908 42.6568 23.9322 42.6568Z" fill="#B8BAC2"/>
<path opacity="0.43" d="M23.8035 42.528C34.1449 42.528 42.5282 34.1447 42.5282 23.8033C42.5282 13.4619 34.1449 5.07861 23.8035 5.07861C13.4622 5.07861 5.07886 13.4619 5.07886 23.8033C5.07886 34.1447 13.4622 42.528 23.8035 42.528Z" fill="#B5B7BF"/>
<path opacity="0.45" d="M23.6746 42.3992C34.016 42.3992 42.3993 34.0159 42.3993 23.6745C42.3993 13.3332 34.016 4.94983 23.6746 4.94983C13.3333 4.94983 4.94995 13.3332 4.94995 23.6745C4.94995 34.0159 13.3333 42.3992 23.6746 42.3992Z" fill="#B1B3BC"/>
<path opacity="0.47" d="M23.5421 42.2668C33.8834 42.2668 42.2668 33.8834 42.2668 23.5421C42.2668 13.2007 33.8834 4.81738 23.5421 4.81738C13.2007 4.81738 4.81738 13.2007 4.81738 23.5421C4.81738 33.8834 13.2007 42.2668 23.5421 42.2668Z" fill="#AEB0B9"/>
<path opacity="0.49" d="M23.4134 42.1379C33.7548 42.1379 42.1381 33.7545 42.1381 23.4132C42.1381 13.0718 33.7548 4.68848 23.4134 4.68848C13.0721 4.68848 4.68872 13.0718 4.68872 23.4132C4.68872 33.7545 13.0721 42.1379 23.4134 42.1379Z" fill="#ABADB6"/>
<path opacity="0.51" d="M23.2845 42.0092C33.6259 42.0092 42.0092 33.6259 42.0092 23.2845C42.0092 12.9431 33.6259 4.55981 23.2845 4.55981C12.9431 4.55981 4.55981 12.9431 4.55981 23.2845C4.55981 33.6259 12.9431 42.0092 23.2845 42.0092Z" fill="#A7A9B4"/>
<path opacity="0.53" d="M23.1556 41.8803C33.497 41.8803 41.8803 33.497 41.8803 23.1556C41.8803 12.8142 33.497 4.43091 23.1556 4.43091C12.8142 4.43091 4.43091 12.8142 4.43091 23.1556C4.43091 33.497 12.8142 41.8803 23.1556 41.8803Z" fill="#A4A6B1"/>
<path opacity="0.55" d="M23.0233 41.7478C33.3646 41.7478 41.748 33.3645 41.748 23.0231C41.748 12.6818 33.3646 4.29846 23.0233 4.29846C12.6819 4.29846 4.29858 12.6818 4.29858 23.0231C4.29858 33.3645 12.6819 41.7478 23.0233 41.7478Z" fill="#A1A3AE"/>
<path opacity="0.57" d="M22.8944 41.6189C33.2357 41.6189 41.6191 33.2356 41.6191 22.8942C41.6191 12.5529 33.2357 4.16956 22.8944 4.16956C12.553 4.16956 4.16968 12.5529 4.16968 22.8942C4.16968 33.2356 12.553 41.6189 22.8944 41.6189Z" fill="#9D9FAB"/>
<path opacity="0.59" d="M22.7657 41.4901C33.1071 41.4901 41.4904 33.1068 41.4904 22.7655C41.4904 12.4241 33.1071 4.04077 22.7657 4.04077C12.4243 4.04077 4.04102 12.4241 4.04102 22.7655C4.04102 33.1068 12.4243 41.4901 22.7657 41.4901Z" fill="#9A9CA8"/>
<path opacity="0.61" d="M22.6331 41.3577C32.9745 41.3577 41.3578 32.9744 41.3578 22.633C41.3578 12.2917 32.9745 3.90833 22.6331 3.90833C12.2918 3.90833 3.90845 12.2917 3.90845 22.633C3.90845 32.9744 12.2918 41.3577 22.6331 41.3577Z" fill="#9699A5"/>
<path opacity="0.63" d="M22.5045 41.2289C32.8458 41.2289 41.2292 32.8456 41.2292 22.5042C41.2292 12.1629 32.8458 3.77954 22.5045 3.77954C12.1631 3.77954 3.77979 12.1629 3.77979 22.5042C3.77979 32.8456 12.1631 41.2289 22.5045 41.2289Z" fill="#9396A2"/>
<path opacity="0.65" d="M22.3756 41.1001C32.7169 41.1001 41.1003 32.7168 41.1003 22.3754C41.1003 12.0341 32.7169 3.65076 22.3756 3.65076C12.0342 3.65076 3.65088 12.0341 3.65088 22.3754C3.65088 32.7168 12.0342 41.1001 22.3756 41.1001Z" fill="#90929F"/>
<path opacity="0.67" d="M22.2467 40.9713C32.588 40.9713 40.9713 32.588 40.9713 22.2467C40.9713 11.9053 32.588 3.52197 22.2467 3.52197C11.9053 3.52197 3.52197 11.9053 3.52197 22.2467C3.52197 32.588 11.9053 40.9713 22.2467 40.9713Z" fill="#8C8F9C"/>
<path opacity="0.69" d="M22.1143 40.8388C32.4557 40.8388 40.839 32.4555 40.839 22.1141C40.839 11.7727 32.4557 3.3894 22.1143 3.3894C11.773 3.3894 3.38965 11.7727 3.38965 22.1141C3.38965 32.4555 11.773 40.8388 22.1143 40.8388Z" fill="#898C99"/>
<path opacity="0.71" d="M21.9854 40.71C32.3268 40.71 40.7101 32.3267 40.7101 21.9853C40.7101 11.6439 32.3268 3.26062 21.9854 3.26062C11.6441 3.26062 3.26074 11.6439 3.26074 21.9853C3.26074 32.3267 11.6441 40.71 21.9854 40.71Z" fill="#868897"/>
<path opacity="0.73" d="M21.8565 40.5812C32.1979 40.5812 40.5812 32.1979 40.5812 21.8565C40.5812 11.5152 32.1979 3.13184 21.8565 3.13184C11.5152 3.13184 3.13184 11.5152 3.13184 21.8565C3.13184 32.1979 11.5152 40.5812 21.8565 40.5812Z" fill="#828594"/>
<path opacity="0.75" d="M21.7279 40.4488C32.0692 40.4488 40.4525 32.0654 40.4525 21.7241C40.4525 11.3827 32.0692 2.99939 21.7279 2.99939C11.3865 2.99939 3.00317 11.3827 3.00317 21.7241C3.00317 32.0654 11.3865 40.4488 21.7279 40.4488Z" fill="#7F8291"/>
<path opacity="0.76" d="M21.5953 40.3199C31.9367 40.3199 40.32 31.9365 40.32 21.5952C40.32 11.2538 31.9367 2.87048 21.5953 2.87048C11.2539 2.87048 2.87061 11.2538 2.87061 21.5952C2.87061 31.9365 11.2539 40.3199 21.5953 40.3199Z" fill="#7B7F8E"/>
<path opacity="0.78" d="M21.4666 40.1911C31.808 40.1911 40.1913 31.8077 40.1913 21.4664C40.1913 11.125 31.808 2.7417 21.4666 2.7417C11.1253 2.7417 2.74194 11.125 2.74194 21.4664C2.74194 31.8077 11.1253 40.1911 21.4666 40.1911Z" fill="#787B8B"/>
<path opacity="0.8" d="M21.3377 40.0623C31.6791 40.0623 40.0624 31.679 40.0624 21.3376C40.0624 10.9962 31.6791 2.61292 21.3377 2.61292C10.9964 2.61292 2.61304 10.9962 2.61304 21.3376C2.61304 31.679 10.9964 40.0623 21.3377 40.0623Z" fill="#757888"/>
<path opacity="0.82" d="M21.2052 39.9298C31.5465 39.9298 39.9298 31.5465 39.9298 21.2052C39.9298 10.8638 31.5465 2.48047 21.2052 2.48047C10.8638 2.48047 2.48047 10.8638 2.48047 21.2052C2.48047 31.5465 10.8638 39.9298 21.2052 39.9298Z" fill="#717585"/>
<path opacity="0.84" d="M21.0765 39.8011C31.4179 39.8011 39.8012 31.4177 39.8012 21.0764C39.8012 10.735 31.4179 2.35168 21.0765 2.35168C10.7351 2.35168 2.35181 10.735 2.35181 21.0764C2.35181 31.4177 10.7351 39.8011 21.0765 39.8011Z" fill="#6E7182"/>
<path opacity="0.86" d="M20.9476 39.6722C31.2889 39.6722 39.6723 31.2888 39.6723 20.9475C39.6723 10.6061 31.2889 2.22278 20.9476 2.22278C10.6062 2.22278 2.2229 10.6061 2.2229 20.9475C2.2229 31.2888 10.6062 39.6722 20.9476 39.6722Z" fill="#6B6E7F"/>
<path opacity="0.88" d="M20.8189 39.5434C31.1603 39.5434 39.5436 31.16 39.5436 20.8187C39.5436 10.4773 31.1603 2.09399 20.8189 2.09399C10.4776 2.09399 2.09424 10.4773 2.09424 20.8187C2.09424 31.16 10.4776 39.5434 20.8189 39.5434Z" fill="#676B7C"/>
<path opacity="0.9" d="M20.6864 39.4109C31.0277 39.4109 39.411 31.0276 39.411 20.6862C39.411 10.3449 31.0277 1.96155 20.6864 1.96155C10.345 1.96155 1.96167 10.3449 1.96167 20.6862C1.96167 31.0276 10.345 39.4109 20.6864 39.4109Z" fill="#64677A"/>
<path opacity="0.92" d="M20.5575 39.282C30.8988 39.282 39.2821 30.8987 39.2821 20.5573C39.2821 10.216 30.8988 1.83264 20.5575 1.83264C10.2161 1.83264 1.83276 10.216 1.83276 20.5573C1.83276 30.8987 10.2161 39.282 20.5575 39.282Z" fill="#606477"/>
<path opacity="0.94" d="M20.4288 39.1532C30.7701 39.1532 39.1535 30.7699 39.1535 20.4285C39.1535 10.0872 30.7701 1.70386 20.4288 1.70386C10.0874 1.70386 1.7041 10.0872 1.7041 20.4285C1.7041 30.7699 10.0874 39.1532 20.4288 39.1532Z" fill="#5D6174"/>
<path opacity="0.96" d="M20.2962 39.0208C30.6376 39.0208 39.0209 30.6375 39.0209 20.2961C39.0209 9.95474 30.6376 1.57141 20.2962 1.57141C9.95486 1.57141 1.57153 9.95474 1.57153 20.2961C1.57153 30.6375 9.95486 39.0208 20.2962 39.0208Z" fill="#5A5E71"/>
<path opacity="0.98" d="M20.1673 38.892C30.5087 38.892 38.892 30.5087 38.892 20.1673C38.892 9.82596 30.5087 1.44263 20.1673 1.44263C9.82596 1.44263 1.44263 9.82596 1.44263 20.1673C1.44263 30.5087 9.82596 38.892 20.1673 38.892Z" fill="#565A6E"/>
<path d="M20.0387 38.7632C30.38 38.7632 38.7633 30.3799 38.7633 20.0385C38.7633 9.69717 30.38 1.31384 20.0387 1.31384C9.69729 1.31384 1.31396 9.69717 1.31396 20.0385C1.31396 30.3799 9.69729 38.7632 20.0387 38.7632Z" fill="#53576B"/>
</g>
<path d="M19.8803 39.7568C8.92072 39.7568 0 30.8398 0 19.8803C0 8.92072 8.91704 0 19.8803 0C30.8435 0 39.7568 8.91704 39.7568 19.8766C39.7568 30.8361 30.8398 39.7532 19.8803 39.7532V39.7568ZM19.8803 0.636669C9.27034 0.636669 0.636669 9.27034 0.636669 19.8803C0.636669 30.4902 9.27034 39.1239 19.8803 39.1239C30.4902 39.1239 39.1239 30.4902 39.1239 19.8803C39.1239 9.27034 30.4902 0.636669 19.8803 0.636669Z" fill="url(#paint0_linear_701_19)"/>
<path d="M19.8804 39.4404C30.6831 39.4404 39.4405 30.683 39.4405 19.8803C39.4405 9.07754 30.6831 0.32019 19.8804 0.32019C9.07766 0.32019 0.320312 9.07754 0.320312 19.8803C0.320312 30.683 9.07766 39.4404 19.8804 39.4404Z" fill="url(#paint1_linear_701_19)"/>
<path d="M13.392 10.8404C11.8891 13.0001 12.0761 15.8103 13.2243 18.1055L13.3084 18.2686L13.3621 18.3721L13.3956 18.4315L13.4555 18.5387C13.4911 18.6014 13.5277 18.6638 13.5651 18.7265L13.6277 18.8295C13.6692 18.8962 13.7115 18.9624 13.7548 19.0284L13.809 19.1121C13.8689 19.2014 13.93 19.2903 13.9932 19.378L13.9985 19.3847L14.0295 19.4267C14.0841 19.5019 14.1403 19.5763 14.1974 19.6501L14.2605 19.7304C14.3114 19.7944 14.3632 19.8578 14.4157 19.9213L14.475 19.9921C14.5455 20.0751 14.6177 20.1581 14.691 20.239L14.6953 20.2435L14.7037 20.2527C14.7755 20.331 14.8489 20.4077 14.9235 20.4843L14.9938 20.5553C15.0514 20.6133 15.1101 20.6703 15.1692 20.7272L15.2409 20.7954C15.32 20.8699 15.3998 20.943 15.4813 21.0142L15.485 21.0174L15.5269 21.053C15.5987 21.1154 15.6716 21.1767 15.7452 21.2374L15.8356 21.3096C15.8957 21.3576 15.9564 21.4052 16.0175 21.4518L16.115 21.5256C16.1825 21.5753 16.2506 21.6242 16.3192 21.6722L16.3934 21.7249L16.4141 21.7397C16.4791 21.7846 16.5459 21.8278 16.6124 21.8709L16.6982 21.9281C16.8004 21.9925 16.9041 22.0565 17.0087 22.1182L17.0946 22.1667C17.1717 22.2111 17.2491 22.2548 17.3276 22.2973L17.4566 22.364L17.6234 22.4506L17.6619 22.4692L17.7301 22.5021C17.8174 22.5438 17.9055 22.5849 17.9945 22.6246L18.0503 22.6495C18.1521 22.6941 18.2549 22.7368 18.3585 22.7779L18.4338 22.8073C18.5296 22.8445 18.6269 22.8807 18.7246 22.9151L18.7612 22.9277C18.8684 22.9654 18.9767 22.9999 19.0857 23.034L19.1639 23.0573C19.2747 23.0909 19.3845 23.1305 19.4988 23.1518C26.7665 24.477 28.8775 18.7846 28.8775 18.7846C27.1044 21.0945 23.9574 21.7037 20.9755 21.0254C20.8625 20.9999 20.7529 20.9645 20.6427 20.9322L20.5597 20.9069C20.4522 20.8739 20.3453 20.8394 20.2392 20.8026L20.1952 20.7869C20.1002 20.7533 20.0064 20.7182 19.9127 20.682L19.8334 20.6509C19.731 20.6104 19.629 20.5681 19.5284 20.5242L19.4675 20.497C19.381 20.4579 19.2954 20.4185 19.2101 20.3774L19.1357 20.3416C19.0689 20.3091 19.0029 20.2746 18.9366 20.2404L18.804 20.1707C18.7232 20.1278 18.6441 20.0828 18.5654 20.0371L18.4849 19.9923C18.38 19.9303 18.2766 19.8666 18.1741 19.8018L18.0903 19.746C18.0161 19.6981 17.9421 19.6493 17.8694 19.599L17.798 19.5489C17.7277 19.4994 17.658 19.4489 17.5891 19.398L17.4965 19.3279C17.4331 19.2795 17.3702 19.2306 17.308 19.1805L17.224 19.1131C17.1447 19.0481 17.0664 18.9822 16.9891 18.915L16.9634 18.8935C16.8798 18.8201 16.7976 18.7447 16.7164 18.6691L16.6469 18.602C16.5868 18.545 16.5275 18.4873 16.4695 18.4281L16.4 18.3586C16.326 18.2829 16.2534 18.2063 16.1823 18.1284L16.1714 18.1167C16.0962 18.0346 16.0226 17.9505 15.9507 17.8655L15.8928 17.7968C15.8391 17.7322 15.7859 17.6664 15.734 17.6004L15.6757 17.5278C15.613 17.4466 15.5521 17.3657 15.4922 17.2835C13.8368 15.0253 13.2419 11.9108 14.5651 9.35307M18.0568 9.02069C16.9701 10.5845 17.029 12.6784 17.8769 14.3321C18.019 14.6093 18.1788 14.8785 18.3575 15.1345C18.5202 15.3681 18.7009 15.6457 18.917 15.8332C18.9953 15.9194 19.0773 16.0037 19.1609 16.0862L19.2251 16.1498C19.3062 16.2285 19.3888 16.306 19.474 16.3812L19.4843 16.39L19.4867 16.3925C19.5812 16.4752 19.6787 16.5548 19.7776 16.6333L19.8436 16.6848C19.943 16.7608 20.0442 16.8356 20.148 16.907L20.1568 16.9137L20.2958 17.0051L20.3616 17.0486C20.4358 17.0963 20.5109 17.1425 20.5873 17.1868L20.6192 17.2056C20.685 17.2435 20.7517 17.2807 20.8185 17.317L20.8894 17.3538L21.0289 17.4262L21.0499 17.4358C21.1458 17.4828 21.2423 17.5284 21.341 17.5713L21.4052 17.5979C21.4841 17.6312 21.5636 17.6639 21.6438 17.6946L21.746 17.7322C21.8187 17.7592 21.8915 17.7839 21.9651 17.8085L22.064 17.8402C22.1685 17.8725 22.2719 17.9135 22.3807 17.9317C27.992 18.8612 29.2874 14.5408 29.2874 14.5408C28.1198 16.2228 25.8583 17.0251 23.4451 16.3988C23.338 16.3706 23.2321 16.3399 23.1272 16.307L23.0318 16.2761C22.9571 16.2522 22.8829 16.2265 22.8096 16.1997L22.7092 16.1623C22.6286 16.1312 22.5489 16.0991 22.4698 16.0656L22.4054 16.0384C22.3063 15.9953 22.2088 15.9497 22.1127 15.9023L21.9659 15.8276L21.8813 15.7841C21.8187 15.7502 21.7566 15.715 21.6955 15.679L21.6511 15.6539C21.5751 15.6095 21.5003 15.5639 21.4263 15.5165L21.3584 15.4713L21.2128 15.3749C21.1094 15.3035 21.0086 15.2289 20.9095 15.1531L20.8412 15.0991C19.785 14.2653 18.9477 13.1254 18.5497 11.8331C18.1324 10.4927 18.2224 8.98818 18.9452 7.76698M21.9802 7.66109C21.3396 8.60387 21.2766 9.77499 21.7212 10.8163C22.19 11.9216 23.1505 12.7885 24.2718 13.1998L24.4112 13.2479L24.4725 13.2675C24.5385 13.2883 24.6042 13.3125 24.6724 13.3251C27.7708 13.9239 28.6112 11.7354 28.8348 11.413C28.0987 12.4729 26.8616 12.7274 25.3435 12.3589C25.2238 12.3298 25.0919 12.2865 24.9764 12.2454C24.8282 12.1925 24.6822 12.1324 24.5402 12.0643C24.2707 11.9347 24.0138 11.7777 23.7754 11.5978C22.4171 10.5671 21.5734 8.60122 22.4598 7" fill="#0868AC"/>
<path d="M21.2826 26.3505H20.4188C20.3709 26.3505 20.3233 26.3889 20.3131 26.4358L20.0064 27.8544L19.6998 29.2731C19.6898 29.3199 19.6422 29.3583 19.5943 29.3583H18.9829C18.378 29.3583 18.448 28.9399 18.5718 28.3667L18.5755 28.3493L18.589 28.277L18.5915 28.2635L18.6191 28.1163L18.6487 27.9587L18.6802 27.7982L18.8196 27.1171L18.9592 26.436C18.9688 26.3889 18.9373 26.3503 18.8895 26.3503H18.0029C17.9551 26.3503 17.9077 26.3887 17.8979 26.4358L17.7071 27.3401L17.5166 28.2447L17.5162 28.2459L17.4986 28.3301C17.2791 29.3324 17.3371 30.2885 18.5305 30.3185L18.5653 30.3191H20.4384C20.4862 30.3191 20.5338 30.2807 20.5439 30.2339L20.9478 28.335L21.3517 26.436C21.3617 26.3889 21.3307 26.3507 21.2826 26.3505ZM12.0314 26.3405H11.0829C11.0349 26.3405 10.9871 26.3789 10.9764 26.4255L10.8865 26.8225L10.7965 27.2195C10.7861 27.2663 10.8166 27.3045 10.8646 27.3045H11.8205C11.8685 27.3045 11.9161 27.2661 11.9264 27.2193L12.0132 26.8225L12.1001 26.4257C12.1101 26.3789 12.0795 26.3405 12.0314 26.3405ZM11.7563 27.576H10.8002C10.7524 27.576 10.7043 27.6144 10.6937 27.661L10.5594 28.2559L10.4253 28.8506L10.3879 29.0211L10.2589 29.6282L10.1301 30.2355C10.1201 30.2823 10.0995 30.358 10.0841 30.4033C10.0841 30.4033 9.90547 30.9348 9.60518 30.9287L9.56757 30.9279L9.30775 30.9232C9.25992 30.9226 9.21167 30.96 9.20043 31.0064L9.10129 31.4232L9.00235 31.8398C8.99111 31.8864 9.02136 31.9248 9.06899 31.9256C9.23927 31.9277 9.62072 31.932 9.85151 31.932C10.6015 31.932 10.9971 31.5164 11.2503 30.3205L11.547 28.9481L11.8252 27.6608C11.8352 27.6144 11.8041 27.576 11.7563 27.576ZM29.3603 27.2543L29.3206 27.0905L29.2816 26.9229L29.2617 26.8383C29.1841 26.5363 28.9561 26.3624 28.461 26.3624L27.6904 26.3616L26.9806 26.3605H26.182C26.1341 26.3605 26.0867 26.399 26.0767 26.4458L26.0413 26.6126L25.9996 26.8096L25.988 26.865L25.6284 28.5495L25.287 30.1484C25.2768 30.1954 25.2735 30.2531 25.2792 30.2764C25.285 30.2999 25.3772 30.3191 25.425 30.3191H26.1454C26.1934 30.3191 26.2541 30.3105 26.2803 30.2999C26.3064 30.2893 26.3451 30.195 26.3547 30.1482L26.4827 29.5147L26.6108 28.881L26.611 28.88L26.6282 28.7956L26.7836 28.0678L26.9207 27.4251C26.9309 27.3783 26.9782 27.3401 27.026 27.3399L29.2928 27.3389C29.3408 27.3393 29.3711 27.3011 29.3603 27.2543ZM32.2784 25.7743L32.1038 25.7749H31.3783C31.3303 25.7749 31.2687 25.8074 31.2419 25.847L29.6375 28.1974C29.6105 28.2371 29.5796 28.2314 29.569 28.1848L29.4508 27.667C29.4402 27.6202 29.3922 27.5819 29.3441 27.5819H28.3128C28.2648 27.5819 28.2364 27.6196 28.2495 27.6655L28.7116 29.2848C28.7247 29.331 28.7257 29.4066 28.7139 29.4532L28.5125 30.2367C28.5005 30.2833 28.5299 30.3212 28.578 30.3212H29.5974C29.6452 30.3212 29.6943 30.2831 29.7061 30.2367L29.9077 29.4532C29.9196 29.4064 29.9529 29.3373 29.9819 29.2989L32.5866 25.8419C32.6156 25.8035 32.5999 25.7722 32.5521 25.7726L32.2784 25.7743ZM24.084 27.8019V27.8011C24.0781 27.853 24.03 27.8912 23.982 27.8912H22.6743C22.6289 27.8912 22.606 27.8606 22.6128 27.8225L22.614 27.8195L22.6132 27.8199L22.6138 27.8156L22.6197 27.7933C22.7446 27.4613 22.9989 27.2434 23.4771 27.2434C24.0155 27.2432 24.1206 27.5061 24.084 27.8019ZM23.7003 26.2925C22.0218 26.2925 21.624 27.3113 21.4008 28.3397C21.1778 29.388 21.1968 30.3678 22.9339 30.3678H23.1445L23.1968 30.3676H23.2091L23.4176 30.3669H23.4213C23.88 30.3651 24.3401 30.3616 24.5264 30.3602C24.574 30.3594 24.6206 30.3212 24.6304 30.2743L24.7007 29.9307L24.7144 29.8639L24.7982 29.4538C24.8078 29.407 24.7766 29.3684 24.7285 29.3684H23.167C22.5457 29.3684 22.3614 29.2034 22.4294 28.7181H24.9256L24.9254 28.7183L24.927 28.7181C24.9667 28.7175 25.0035 28.6901 25.018 28.6537L25.0239 28.632L25.0237 28.6322C25.3943 27.2342 25.288 26.2927 23.7003 26.2925ZM15.7668 27.7966L15.7431 27.8802L15.5546 28.5484L15.3661 29.2163C15.3532 29.2627 15.3032 29.3003 15.2551 29.3003H14.2576C13.5008 29.3003 13.3164 28.7083 13.5008 27.8354C13.685 26.9425 14.0462 26.3875 14.7911 26.3313C15.8091 26.2544 16.0127 26.9703 15.7668 27.7966ZM16.4512 29.249C16.4512 29.249 16.9216 28.1067 17.0283 27.4472C17.174 26.5643 16.7319 25.2834 15.0241 25.2834C13.3262 25.2834 12.5887 26.5061 12.3074 27.8354C12.0261 29.1744 12.3947 30.3483 14.083 30.3387L15.415 30.3338L16.6597 30.3293C16.7075 30.3289 16.7566 30.2909 16.7689 30.2447L16.9857 29.4176C16.9978 29.371 16.9686 29.333 16.9205 29.3326L16.7126 29.3314L16.5047 29.3301C16.4641 29.3299 16.4408 29.3034 16.4457 29.2684L16.4512 29.249ZM24.8569 28.4842C24.8569 28.5159 24.8314 28.5417 24.7997 28.5417C24.7682 28.5417 24.7424 28.5159 24.7424 28.4842C24.7424 28.4528 24.768 28.4272 24.7997 28.4272C24.8314 28.4272 24.8569 28.4528 24.8569 28.4842Z" fill="#131B28"/>
<defs>
<linearGradient id="paint0_linear_701_19" x1="5.83185" y1="5.82894" x2="33.9312" y2="33.9283" gradientUnits="userSpaceOnUse">
<stop stop-color="white"/>
<stop offset="1" stop-color="#E6E6E6"/>
</linearGradient>
<linearGradient id="paint1_linear_701_19" x1="6.16074" y1="6.16061" x2="33.2872" y2="33.2871" gradientUnits="userSpaceOnUse">
<stop stop-color="#E2E1E6"/>
<stop offset="0.84" stop-color="white"/>
</linearGradient>
</defs>
</svg>
