<svg width="40" height="40" viewBox="0 0 40 40" fill="none" xmlns="http://www.w3.org/2000/svg">
<path d="M19.8804 39.4405C30.6831 39.4405 39.4405 30.6831 39.4405 19.8804C39.4405 9.07766 30.6831 0.320312 19.8804 0.320312C9.07766 0.320312 0.320312 9.07766 0.320312 19.8804C0.320312 30.6831 9.07766 39.4405 19.8804 39.4405Z" fill="url(#paint0_linear_701_26)"/>
<path d="M21.0512 11L12 20.5183V29.0267L21.0377 19.9728L30.0267 11H21.0512Z" fill="url(#paint1_linear_701_26)"/>
<path d="M12 29.0274L21.0377 19.9735L30.0267 29.0274H12Z" fill="url(#paint2_linear_701_26)"/>
<path d="M12 11H21.0512L12 20.5183V11Z" fill="url(#paint3_linear_701_26)"/>
<defs>
<linearGradient id="paint0_linear_701_26" x1="6.16074" y1="6.16074" x2="33.2872" y2="33.2872" gradientUnits="userSpaceOnUse">
<stop stop-color="#E2E1E6"/>
<stop offset="0.84" stop-color="white"/>
</linearGradient>
<linearGradient id="paint1_linear_701_26" x1="8.97151" y1="27.5666" x2="25.7364" y2="10.8017" gradientUnits="userSpaceOnUse">
<stop offset="0.108" stop-color="#C757BC"/>
<stop offset="0.173" stop-color="#CD5CA9"/>
<stop offset="0.492" stop-color="#E8744F"/>
<stop offset="0.716" stop-color="#F88316"/>
<stop offset="0.823" stop-color="#FF8900"/>
</linearGradient>
<linearGradient id="paint2_linear_701_26" x1="17.7505" y1="32.2778" x2="20.1818" y2="22.6494" gradientUnits="userSpaceOnUse">
<stop offset="0.296" stop-color="#00AFFF"/>
<stop offset="0.694" stop-color="#5282FF"/>
<stop offset="1" stop-color="#945DFF"/>
</linearGradient>
<linearGradient id="paint3_linear_701_26" x1="11.7828" y1="15.9781" x2="17.7946" y2="10.5408" gradientUnits="userSpaceOnUse">
<stop offset="0.296" stop-color="#00AFFF"/>
<stop offset="0.694" stop-color="#5282FF"/>
<stop offset="1" stop-color="#945DFF"/>
</linearGradient>
</defs>
</svg>
