<svg width="40" height="40" viewBox="0 0 40 40" fill="none" xmlns="http://www.w3.org/2000/svg">
<path d="M19.8804 39.4405C30.6831 39.4405 39.4405 30.6831 39.4405 19.8804C39.4405 9.07766 30.6831 0.320312 19.8804 0.320312C9.07766 0.320312 0.320312 9.07766 0.320312 19.8804C0.320312 30.6831 9.07766 39.4405 19.8804 39.4405Z" fill="url(#paint0_linear_701_27)"/>
<path d="M19.0001 15.4408C17.7913 15.4417 16.6323 15.9222 15.7775 16.7768C14.9227 17.6315 14.442 18.7904 14.4409 19.9991C14.442 21.2077 14.9226 22.3665 15.7772 23.2211C16.6319 24.0758 17.7906 24.5564 18.9993 24.5575C20.2079 24.5564 21.3666 24.0758 22.2213 23.2211C23.0759 22.3665 23.5565 21.2077 23.5576 19.9991C23.5556 18.7909 23.0748 17.6328 22.2206 16.7784C21.3663 15.924 20.2083 15.443 19.0001 15.4408Z" fill="#4E8FF6"/>
<path d="M25.5417 15.8466C26.6895 15.8466 27.62 14.9161 27.62 13.7683C27.62 12.6204 26.6895 11.6899 25.5417 11.6899C24.3939 11.6899 23.4634 12.6204 23.4634 13.7683C23.4634 14.9161 24.3939 15.8466 25.5417 15.8466Z" fill="#4E8FF6"/>
<path d="M19 30.0001C24.5158 30.0001 29 25.5159 29 20.0001C29 18.5584 28.6992 17.1642 28.1017 15.8559L28.1008 15.8551L28.015 15.6634L27.8742 15.8201C27.5342 16.2067 27.1008 16.5034 26.62 16.6834L26.4875 16.7342L26.5425 16.8634C26.9585 17.8522 27.1711 18.9148 27.1675 19.9876V19.9959C27.1675 24.5001 23.5033 28.1676 18.9958 28.1676C14.4883 28.1676 10.8275 24.5034 10.8275 19.9992C10.8275 15.4951 14.4958 11.8276 18.9992 11.8276C20.2217 11.8276 21.4017 12.0934 22.4992 12.6167L22.6283 12.6792L22.6833 12.5501C22.895 12.0651 23.2083 11.6584 23.5992 11.3442L23.605 11.3392L23.7692 11.2067L23.5817 11.1092C22.1746 10.3754 20.6102 9.99478 19.0233 10.0001H19C13.4842 10.0001 9 14.4842 9 20.0001C9 25.5159 13.4842 30.0001 19 30.0001Z" fill="#4E8FF6"/>
<defs>
<linearGradient id="paint0_linear_701_27" x1="6.16074" y1="6.16074" x2="33.2872" y2="33.2872" gradientUnits="userSpaceOnUse">
<stop stop-color="#E2E1E6"/>
<stop offset="0.84" stop-color="white"/>
</linearGradient>
</defs>
</svg>
